<svg class="toyplot-canvas-Canvas" xmlns:toyplot="http://www.sandia.gov/toyplot" xmlns:xlink="http://www.w3.org/1999/xlink" xmlns="http://www.w3.org/2000/svg" width="2000.0px" height="920.0px" viewBox="0 0 2000.0 920.0" preserveAspectRatio="xMidYMid meet" style="background-color:transparent;border-color:#292724;border-style:none;border-width:1.0;fill:rgb(16.1%,15.3%,14.1%);fill-opacity:1.0;font-family:Helvetica;font-size:12px;opacity:1.0;stroke:rgb(16.1%,15.3%,14.1%);stroke-opacity:1.0;stroke-width:1.0" id="t465b1be2f0e947f0977f9c34776efc26"><g class="toyplot-coordinates-Cartesian" id="te4d04033234f4adab11602122028dd3d"><clipPath id="t3e9f93856bdb4bed86db99ce4d05a085"><rect x="35.0" y="35.0" width="1930.0" height="850.0" /></clipPath><g clip-path="url(#t3e9f93856bdb4bed86db99ce4d05a085)"><g class="toytree-mark-Toytree" id="t2fecc0be5f5348c09190cee690b8c9f8"><g class="toytree-Edges" style="stroke:rgb(14.5%,14.5%,14.5%);stroke-opacity:1.0;stroke-linecap:round;stroke-width:2.0;fill:none"><path d="M 528.7 804.4 L 528.7 861.8 L 1804.9 861.8" id="8,0" style="" /><path d="M 528.7 804.4 L 528.7 747.0 L 1804.9 747.0" id="8,1" style="" /><path d="M 623.2 574.8 L 623.2 632.2 L 765.0 632.2" id="9,2" style="" /><path d="M 623.2 574.8 L 623.2 517.4 L 765.0 517.4" id="9,3" style="" /><path d="M 670.5 345.2 L 670.5 402.6 L 717.7 402.6" id="10,4" style="" /><path d="M 670.5 345.2 L 670.5 287.8 L 717.7 287.8" id="10,5" style="" /><path d="M 670.5 115.6 L 670.5 173.0 L 717.7 173.0" id="11,6" style="" /><path d="M 670.5 115.6 L 670.5 58.2 L 717.7 58.2" id="11,7" style="" /><path d="M 56.0 603.5 L 56.0 804.4 L 528.7 804.4" id="14,8" style="" /><path d="M 528.7 402.6 L 528.7 574.8 L 623.2 574.8" id="13,9" style="" /><path d="M 623.2 230.4 L 623.2 345.2 L 670.5 345.2" id="12,10" style="" /><path d="M 623.2 230.4 L 623.2 115.6 L 670.5 115.6" id="12,11" style="" /><path d="M 528.7 402.6 L 528.7 230.4 L 623.2 230.4" id="13,12" style="" /><path d="M 56.0 603.5 L 56.0 402.6 L 528.7 402.6" id="14,13" style="" /></g><g class="toytree-AlignEdges" style="stroke:rgb(66.0%,66.0%,66.0%);stroke-opacity:0.75;stroke-dasharray:2,4;stroke-linecap:round;stroke-width:2"><path d="M 1804.9 861.8 L 1804.9 861.8" /><path d="M 1804.9 747.0 L 1804.9 747.0" /><path d="M 1804.9 632.2 L 765.0 632.2" /><path d="M 1804.9 517.4 L 765.0 517.4" /><path d="M 1804.9 402.6 L 717.7 402.6" /><path d="M 1804.9 287.8 L 717.7 287.8" /><path d="M 1804.9 173.0 L 717.7 173.0" /><path d="M 1804.9 58.2 L 717.7 58.2" /></g><g class="toytree-AdmixEdges" style="fill:rgb(0.0%,0.0%,0.0%);fill-opacity:0.0;stroke:rgb(90.6%,54.1%,76.5%);stroke-opacity:0.6;font-size:14px;stroke-linecap:round;stroke-width:5" /><g class="toytree-Nodes" style="fill:rgb(0.0%,0.0%,0.0%);fill-opacity:1.0;stroke:none;stroke-width:1.5"><g id="Node-8" transform="translate(528.672,804.373)"><rect x="-5.0" y="-2.5" width="10.0" height="5.0" /></g><g id="Node-9" transform="translate(623.21,574.791)"><rect x="-5.0" y="-2.5" width="10.0" height="5.0" /></g><g id="Node-10" transform="translate(670.479,345.209)"><rect x="-5.0" y="-2.5" width="10.0" height="5.0" /></g><g id="Node-11" transform="translate(670.479,115.627)"><rect x="-5.0" y="-2.5" width="10.0" height="5.0" /></g><g id="Node-12" transform="translate(623.21,230.418)"><rect x="-5.0" y="-2.5" width="10.0" height="5.0" /></g><g id="Node-13" transform="translate(528.672,402.604)"><rect x="-5.0" y="-2.5" width="10.0" height="5.0" /></g><g id="Node-14" transform="translate(55.9832,603.489)"><rect x="-5.0" y="-2.5" width="10.0" height="5.0" /></g></g><g class="toytree-NodeLabels" style="font-family:Helvetica;font-size:9px;font-weight:300;vertical-align:baseline;white-space:pre;stroke:none"><g class="toytree-NodeLabel" transform="translate(528.672,804.373)" /><g class="toytree-NodeLabel" transform="translate(623.21,574.791)" /><g class="toytree-NodeLabel" transform="translate(670.479,345.209)" /><g class="toytree-NodeLabel" transform="translate(670.479,115.627)" /><g class="toytree-NodeLabel" transform="translate(623.21,230.418)" /><g class="toytree-NodeLabel" transform="translate(528.672,402.604)" /><g class="toytree-NodeLabel" transform="translate(55.9832,603.489)" /></g><g class="toytree-TipLabels" style="fill:rgb(14.5%,14.5%,14.5%);fill-opacity:1.0;font-family:Helvetica;font-size:14px;font-weight:300;vertical-align:baseline;white-space:pre;stroke:none"><g class="toytree-TipLabel" transform="translate(1804.93,861.769)"><text x="15.0" y="3.577" style="fill:rgb(14.5%,14.5%,14.5%);fill-opacity:1.0">Tariana</text></g><g class="toytree-TipLabel" transform="translate(1804.93,746.978)"><text x="15.0" y="3.577" style="fill:rgb(14.5%,14.5%,14.5%);fill-opacity:1.0">Warekena</text></g><g class="toytree-TipLabel" transform="translate(1804.93,632.187)"><text x="15.0" y="3.577" style="fill:rgb(14.5%,14.5%,14.5%);fill-opacity:1.0">Achagua</text></g><g class="toytree-TipLabel" transform="translate(1804.93,517.396)"><text x="15.0" y="3.577" style="fill:rgb(14.5%,14.5%,14.5%);fill-opacity:1.0">Piapoco</text></g><g class="toytree-TipLabel" transform="translate(1804.93,402.604)"><text x="15.0" y="3.577" style="fill:rgb(14.5%,14.5%,14.5%);fill-opacity:1.0">Baniwa</text></g><g class="toytree-TipLabel" transform="translate(1804.93,287.813)"><text x="15.0" y="3.577" style="fill:rgb(14.5%,14.5%,14.5%);fill-opacity:1.0">Resigaro</text></g><g class="toytree-TipLabel" transform="translate(1804.93,173.022)"><text x="15.0" y="3.577" style="fill:rgb(14.5%,14.5%,14.5%);fill-opacity:1.0">Kabiyari</text></g><g class="toytree-TipLabel" transform="translate(1804.93,58.2314)"><text x="15.0" y="3.577" style="fill:rgb(14.5%,14.5%,14.5%);fill-opacity:1.0">Yukuna</text></g></g></g></g></g></svg>