<svg class="toyplot-canvas-Canvas" xmlns:toyplot="http://www.sandia.gov/toyplot" xmlns:xlink="http://www.w3.org/1999/xlink" xmlns="http://www.w3.org/2000/svg" width="2000.0px" height="2000.0px" viewBox="0 0 2000.0 2000.0" preserveAspectRatio="xMidYMid meet" style="background-color:transparent;border-color:#292724;border-style:none;border-width:1.0;fill:rgb(16.1%,15.3%,14.1%);fill-opacity:1.0;font-family:Helvetica;font-size:12px;opacity:1.0;stroke:rgb(16.1%,15.3%,14.1%);stroke-opacity:1.0;stroke-width:1.0" id="t5b0232ee3d6b4bed93c251d757dbd720"><g class="toyplot-coordinates-Cartesian" id="td7ee6400b3c1445b81b5facef33673ec"><clipPath id="t0a1bfc5ef13f46df92e2843ce6d68af9"><rect x="35.0" y="35.0" width="1930.0" height="1930.0" /></clipPath><g clip-path="url(#t0a1bfc5ef13f46df92e2843ce6d68af9)"><g class="toytree-mark-Toytree" id="tc0367585009a43d49d39c9462fbd02ea"><g class="toytree-Edges" style="stroke:rgb(14.5%,14.5%,14.5%);stroke-opacity:1.0;stroke-linecap:round;stroke-width:2.0;fill:none"><path d="M 303.2 1933.0 L 303.2 1941.7 L 422.0 1941.7" id="109,0" style="" /><path d="M 303.2 1933.0 L 303.2 1924.2 L 422.0 1924.2" id="109,1" style="" /><path d="M 362.6 1898.1 L 362.6 1906.8 L 386.4 1906.8" id="110,2" style="" /><path d="M 362.6 1898.1 L 362.6 1889.4 L 386.4 1889.4" id="110,3" style="" /><path d="M 362.6 1858.8 L 362.6 1871.9 L 374.5 1871.9" id="112,4" style="" /><path d="M 374.5 1845.8 L 374.5 1854.5 L 410.2 1854.5" id="111,5" style="" /><path d="M 374.5 1845.8 L 374.5 1837.0 L 410.2 1837.0" id="111,6" style="" /><path d="M 267.6 1806.5 L 267.6 1819.6 L 315.1 1819.6" id="116,7" style="" /><path d="M 315.1 1793.4 L 315.1 1802.2 L 493.3 1802.2" id="115,8" style="" /><path d="M 315.1 1793.4 L 315.1 1784.7 L 493.3 1784.7" id="115,9" style="" /><path d="M 267.6 1744.4 L 267.6 1767.3 L 291.4 1767.3" id="121,10" style="" /><path d="M 303.2 1741.1 L 303.2 1749.9 L 398.3 1749.9" id="117,11" style="" /><path d="M 303.2 1741.1 L 303.2 1732.4 L 398.3 1732.4" id="117,12" style="" /><path d="M 303.2 1701.9 L 303.2 1715.0 L 350.8 1715.0" id="119,13" style="" /><path d="M 350.8 1688.8 L 350.8 1697.5 L 481.4 1697.5" id="118,14" style="" /><path d="M 350.8 1688.8 L 350.8 1680.1 L 481.4 1680.1" id="118,15" style="" /><path d="M 350.8 1653.9 L 350.8 1662.7 L 529.0 1662.7" id="124,16" style="" /><path d="M 350.8 1653.9 L 350.8 1645.2 L 529.0 1645.2" id="124,17" style="" /><path d="M 350.8 1619.1 L 350.8 1627.8 L 517.1 1627.8" id="125,18" style="" /><path d="M 350.8 1619.1 L 350.8 1610.3 L 517.1 1610.3" id="125,19" style="" /><path d="M 291.4 1576.6 L 291.4 1592.9 L 350.8 1592.9" id="130,20" style="" /><path d="M 350.8 1560.2 L 350.8 1575.5 L 362.6 1575.5" id="129,21" style="" /><path d="M 362.6 1545.0 L 362.6 1558.0 L 398.3 1558.0" id="128,22" style="" /><path d="M 398.3 1531.9 L 398.3 1540.6 L 517.1 1540.6" id="127,23" style="" /><path d="M 398.3 1531.9 L 398.3 1523.2 L 517.1 1523.2" id="127,24" style="" /><path d="M 208.2 1489.4 L 208.2 1505.7 L 220.1 1505.7" id="135,25" style="" /><path d="M 220.1 1473.0 L 220.1 1488.3 L 243.8 1488.3" id="134,26" style="" /><path d="M 243.8 1457.8 L 243.8 1470.8 L 374.5 1470.8" id="133,27" style="" /><path d="M 374.5 1444.7 L 374.5 1453.4 L 576.5 1453.4" id="132,28" style="" /><path d="M 374.5 1444.7 L 374.5 1436.0 L 576.5 1436.0" id="132,29" style="" /><path d="M 208.2 1390.9 L 208.2 1418.5 L 232.0 1418.5" id="147,30" style="" /><path d="M 208.2 1390.9 L 208.2 1401.1 L 232.0 1401.1" id="147,31" style="" /><path d="M 243.8 1374.9 L 243.8 1383.6 L 362.6 1383.6" id="136,32" style="" /><path d="M 243.8 1374.9 L 243.8 1366.2 L 362.6 1366.2" id="136,33" style="" /><path d="M 243.8 1331.4 L 243.8 1348.8 L 255.7 1348.8" id="145,34" style="" /><path d="M 255.7 1314.0 L 255.7 1331.3 L 267.6 1331.3" id="144,35" style="" /><path d="M 267.6 1296.6 L 267.6 1313.9 L 279.5 1313.9" id="143,36" style="" /><path d="M 279.5 1279.3 L 279.5 1296.5 L 303.2 1296.5" id="142,37" style="" /><path d="M 303.2 1262.1 L 303.2 1279.0 L 386.4 1279.0" id="141,38" style="" /><path d="M 386.4 1245.2 L 386.4 1261.6 L 398.3 1261.6" id="140,39" style="" /><path d="M 398.3 1228.9 L 398.3 1244.1 L 422.0 1244.1" id="139,40" style="" /><path d="M 422.0 1213.6 L 422.0 1226.7 L 469.6 1226.7" id="138,41" style="" /><path d="M 469.6 1200.5 L 469.6 1209.3 L 683.4 1209.3" id="137,42" style="" /><path d="M 469.6 1200.5 L 469.6 1191.8 L 683.4 1191.8" id="137,43" style="" /><path d="M 303.2 1165.7 L 303.2 1174.4 L 374.5 1174.4" id="151,44" style="" /><path d="M 303.2 1165.7 L 303.2 1156.9 L 374.5 1156.9" id="151,45" style="" /><path d="M 350.8 1130.8 L 350.8 1139.5 L 564.6 1139.5" id="152,46" style="" /><path d="M 350.8 1130.8 L 350.8 1122.1 L 564.6 1122.1" id="152,47" style="" /><path d="M 350.8 1095.9 L 350.8 1104.6 L 790.3 1104.6" id="153,48" style="" /><path d="M 350.8 1095.9 L 350.8 1087.2 L 790.3 1087.2" id="153,49" style="" /><path d="M 327.0 1056.7 L 327.0 1069.8 L 552.7 1069.8" id="156,50" style="" /><path d="M 552.7 1043.6 L 552.7 1052.3 L 671.5 1052.3" id="155,51" style="" /><path d="M 552.7 1043.6 L 552.7 1034.9 L 671.5 1034.9" id="155,52" style="" /><path d="M 327.0 1002.2 L 327.0 1017.4 L 410.2 1017.4" id="159,53" style="" /><path d="M 410.2 986.9 L 410.2 1000.0 L 624.0 1000.0" id="158,54" style="" /><path d="M 624.0 973.8 L 624.0 982.6 L 814.1 982.6" id="157,55" style="" /><path d="M 624.0 973.8 L 624.0 965.1 L 814.1 965.1" id="157,56" style="" /><path d="M 172.6 939.0 L 172.6 947.7 L 719.0 947.7" id="162,57" style="" /><path d="M 172.6 939.0 L 172.6 930.2 L 719.0 930.2" id="162,58" style="" /><path d="M 422.0 899.7 L 422.0 912.8 L 576.5 912.8" id="164,59" style="" /><path d="M 576.5 886.7 L 576.5 895.4 L 1194.2 895.4" id="163,60" style="" /><path d="M 576.5 886.7 L 576.5 877.9 L 1194.2 877.9" id="163,61" style="" /><path d="M 422.0 844.1 L 422.0 860.5 L 505.2 860.5" id="168,62" style="" /><path d="M 505.2 827.8 L 505.2 843.1 L 588.4 843.1" id="167,63" style="" /><path d="M 588.4 812.5 L 588.4 825.6 L 695.3 825.6" id="166,64" style="" /><path d="M 695.3 799.5 L 695.3 808.2 L 909.1 808.2" id="165,65" style="" /><path d="M 695.3 799.5 L 695.3 790.7 L 909.1 790.7" id="165,66" style="" /><path d="M 184.4 764.6 L 184.4 773.3 L 671.5 773.3" id="170,67" style="" /><path d="M 184.4 764.6 L 184.4 755.9 L 671.5 755.9" id="170,68" style="" /><path d="M 196.3 729.7 L 196.3 738.4 L 1835.8 738.4" id="171,69" style="" /><path d="M 196.3 729.7 L 196.3 721.0 L 1835.8 721.0" id="171,70" style="" /><path d="M 707.2 694.8 L 707.2 703.5 L 1313.0 703.5" id="172,71" style="" /><path d="M 707.2 694.8 L 707.2 686.1 L 1313.0 686.1" id="172,72" style="" /><path d="M 707.2 660.0 L 707.2 668.7 L 1111.1 668.7" id="173,73" style="" /><path d="M 707.2 660.0 L 707.2 651.2 L 1111.1 651.2" id="173,74" style="" /><path d="M 220.1 625.1 L 220.1 633.8 L 1265.5 633.8" id="176,75" style="" /><path d="M 220.1 625.1 L 220.1 616.4 L 1265.5 616.4" id="176,76" style="" /><path d="M 291.4 590.2 L 291.4 598.9 L 564.6 598.9" id="177,77" style="" /><path d="M 291.4 590.2 L 291.4 581.5 L 564.6 581.5" id="177,78" style="" /><path d="M 291.4 542.2 L 291.4 564.0 L 362.6 564.0" id="181,79" style="" /><path d="M 410.2 537.9 L 410.2 546.6 L 719.0 546.6" id="178,80" style="" /><path d="M 410.2 537.9 L 410.2 529.2 L 719.0 529.2" id="178,81" style="" /><path d="M 410.2 503.0 L 410.2 511.7 L 469.6 511.7" id="179,82" style="" /><path d="M 410.2 503.0 L 410.2 494.3 L 469.6 494.3" id="179,83" style="" /><path d="M 172.6 381.3 L 172.6 476.8 L 196.3 476.8" id="206,84" style="" /><path d="M 172.6 381.3 L 172.6 459.4 L 196.3 459.4" id="206,85" style="" /><path d="M 267.6 433.3 L 267.6 442.0 L 540.8 442.0" id="185,86" style="" /><path d="M 267.6 433.3 L 267.6 424.5 L 540.8 424.5" id="185,87" style="" /><path d="M 279.5 394.0 L 279.5 407.1 L 291.4 407.1" id="187,88" style="" /><path d="M 291.4 380.9 L 291.4 389.7 L 374.5 389.7" id="186,89" style="" /><path d="M 291.4 380.9 L 291.4 372.2 L 374.5 372.2" id="186,90" style="" /><path d="M 327.0 346.1 L 327.0 354.8 L 493.3 354.8" id="188,91" style="" /><path d="M 327.0 346.1 L 327.0 337.3 L 493.3 337.3" id="188,92" style="" /><path d="M 327.0 311.2 L 327.0 319.9 L 683.4 319.9" id="189,93" style="" /><path d="M 327.0 311.2 L 327.0 302.5 L 683.4 302.5" id="189,94" style="" /><path d="M 327.0 276.3 L 327.0 285.0 L 754.7 285.0" id="193,95" style="" /><path d="M 327.0 276.3 L 327.0 267.6 L 754.7 267.6" id="193,96" style="" /><path d="M 517.1 241.4 L 517.1 250.1 L 659.6 250.1" id="194,97" style="" /><path d="M 517.1 241.4 L 517.1 232.7 L 659.6 232.7" id="194,98" style="" /><path d="M 517.1 206.6 L 517.1 215.3 L 624.0 215.3" id="195,99" style="" /><path d="M 517.1 206.6 L 517.1 197.8 L 624.0 197.8" id="195,100" style="" /><path d="M 386.4 167.3 L 386.4 180.4 L 469.6 180.4" id="199,101" style="" /><path d="M 469.6 154.2 L 469.6 163.0 L 754.7 163.0" id="198,102" style="" /><path d="M 469.6 154.2 L 469.6 145.5 L 754.7 145.5" id="198,103" style="" /><path d="M 445.8 119.4 L 445.8 128.1 L 600.2 128.1" id="200,104" style="" /><path d="M 445.8 119.4 L 445.8 110.6 L 600.2 110.6" id="200,105" style="" /><path d="M 445.8 80.1 L 445.8 93.2 L 564.6 93.2" id="202,106" style="" /><path d="M 564.6 67.0 L 564.6 75.8 L 624.0 75.8" id="201,107" style="" /><path d="M 564.6 67.0 L 564.6 58.3 L 624.0 58.3" id="201,108" style="" /><path d="M 243.8 1905.7 L 243.8 1933.0 L 303.2 1933.0" id="114,109" style="" /><path d="M 303.2 1878.5 L 303.2 1898.1 L 362.6 1898.1" id="113,110" style="" /><path d="M 362.6 1858.8 L 362.6 1845.8 L 374.5 1845.8" id="112,111" style="" /><path d="M 303.2 1878.5 L 303.2 1858.8 L 362.6 1858.8" id="113,112" style="" /><path d="M 243.8 1905.7 L 243.8 1878.5 L 303.2 1878.5" id="114,113" style="" /><path d="M 160.7 1840.6 L 160.7 1905.7 L 243.8 1905.7" id="123,114" style="" /><path d="M 267.6 1806.5 L 267.6 1793.4 L 315.1 1793.4" id="116,115" style="" /><path d="M 243.8 1775.5 L 243.8 1806.5 L 267.6 1806.5" id="122,116" style="" /><path d="M 291.4 1721.5 L 291.4 1741.1 L 303.2 1741.1" id="120,117" style="" /><path d="M 303.2 1701.9 L 303.2 1688.8 L 350.8 1688.8" id="119,118" style="" /><path d="M 291.4 1721.5 L 291.4 1701.9 L 303.2 1701.9" id="120,119" style="" /><path d="M 267.6 1744.4 L 267.6 1721.5 L 291.4 1721.5" id="121,120" style="" /><path d="M 243.8 1775.5 L 243.8 1744.4 L 267.6 1744.4" id="122,121" style="" /><path d="M 160.7 1840.6 L 160.7 1775.5 L 243.8 1775.5" id="123,122" style="" /><path d="M 148.8 1682.0 L 148.8 1840.6 L 160.7 1840.6" id="150,123" style="" /><path d="M 291.4 1636.5 L 291.4 1653.9 L 350.8 1653.9" id="126,124" style="" /><path d="M 291.4 1636.5 L 291.4 1619.1 L 350.8 1619.1" id="126,125" style="" /><path d="M 196.3 1606.5 L 196.3 1636.5 L 291.4 1636.5" id="131,126" style="" /><path d="M 362.6 1545.0 L 362.6 1531.9 L 398.3 1531.9" id="128,127" style="" /><path d="M 350.8 1560.2 L 350.8 1545.0 L 362.6 1545.0" id="129,128" style="" /><path d="M 291.4 1576.6 L 291.4 1560.2 L 350.8 1560.2" id="130,129" style="" /><path d="M 196.3 1606.5 L 196.3 1576.6 L 291.4 1576.6" id="131,130" style="" /><path d="M 160.7 1523.3 L 160.7 1606.5 L 196.3 1606.5" id="149,131" style="" /><path d="M 243.8 1457.8 L 243.8 1444.7 L 374.5 1444.7" id="133,132" style="" /><path d="M 220.1 1473.0 L 220.1 1457.8 L 243.8 1457.8" id="134,133" style="" /><path d="M 208.2 1489.4 L 208.2 1473.0 L 220.1 1473.0" id="135,134" style="" /><path d="M 196.3 1440.1 L 196.3 1489.4 L 208.2 1489.4" id="148,135" style="" /><path d="M 232.0 1353.1 L 232.0 1374.9 L 243.8 1374.9" id="146,136" style="" /><path d="M 422.0 1213.6 L 422.0 1200.5 L 469.6 1200.5" id="138,137" style="" /><path d="M 398.3 1228.9 L 398.3 1213.6 L 422.0 1213.6" id="139,138" style="" /><path d="M 386.4 1245.2 L 386.4 1228.9 L 398.3 1228.9" id="140,139" style="" /><path d="M 303.2 1262.1 L 303.2 1245.2 L 386.4 1245.2" id="141,140" style="" /><path d="M 279.5 1279.3 L 279.5 1262.1 L 303.2 1262.1" id="142,141" style="" /><path d="M 267.6 1296.6 L 267.6 1279.3 L 279.5 1279.3" id="143,142" style="" /><path d="M 255.7 1314.0 L 255.7 1296.6 L 267.6 1296.6" id="144,143" style="" /><path d="M 243.8 1331.4 L 243.8 1314.0 L 255.7 1314.0" id="145,144" style="" /><path d="M 232.0 1353.1 L 232.0 1331.4 L 243.8 1331.4" id="146,145" style="" /><path d="M 208.2 1390.9 L 208.2 1353.1 L 232.0 1353.1" id="147,146" style="" /><path d="M 196.3 1440.1 L 196.3 1390.9 L 208.2 1390.9" id="148,147" style="" /><path d="M 160.7 1523.3 L 160.7 1440.1 L 196.3 1440.1" id="149,148" style="" /><path d="M 148.8 1682.0 L 148.8 1523.3 L 160.7 1523.3" id="150,149" style="" /><path d="M 53.8 1296.7 L 53.8 1682.0 L 148.8 1682.0" id="209,150" style="" /><path d="M 160.7 1102.8 L 160.7 1165.7 L 303.2 1165.7" id="161,151" style="" /><path d="M 303.2 1113.3 L 303.2 1130.8 L 350.8 1130.8" id="154,152" style="" /><path d="M 303.2 1113.3 L 303.2 1095.9 L 350.8 1095.9" id="154,153" style="" /><path d="M 160.7 1102.8 L 160.7 1113.3 L 303.2 1113.3" id="161,154" style="" /><path d="M 327.0 1056.7 L 327.0 1043.6 L 552.7 1043.6" id="156,155" style="" /><path d="M 303.2 1029.4 L 303.2 1056.7 L 327.0 1056.7" id="160,156" style="" /><path d="M 410.2 986.9 L 410.2 973.8 L 624.0 973.8" id="158,157" style="" /><path d="M 327.0 1002.2 L 327.0 986.9 L 410.2 986.9" id="159,158" style="" /><path d="M 303.2 1029.4 L 303.2 1002.2 L 327.0 1002.2" id="160,159" style="" /><path d="M 160.7 1102.8 L 160.7 1029.4 L 303.2 1029.4" id="161,160" style="" /><path d="M 148.8 911.4 L 148.8 1102.8 L 160.7 1102.8" id="208,161" style="" /><path d="M 160.7 720.0 L 160.7 939.0 L 172.6 939.0" id="207,162" style="" /><path d="M 422.0 899.7 L 422.0 886.7 L 576.5 886.7" id="164,163" style="" /><path d="M 172.6 871.9 L 172.6 899.7 L 422.0 899.7" id="169,164" style="" /><path d="M 588.4 812.5 L 588.4 799.5 L 695.3 799.5" id="166,165" style="" /><path d="M 505.2 827.8 L 505.2 812.5 L 588.4 812.5" id="167,166" style="" /><path d="M 422.0 844.1 L 422.0 827.8 L 505.2 827.8" id="168,167" style="" /><path d="M 172.6 871.9 L 172.6 844.1 L 422.0 844.1" id="169,168" style="" /><path d="M 160.7 720.0 L 160.7 871.9 L 172.6 871.9" id="207,169" style="" /><path d="M 172.6 687.9 L 172.6 764.6 L 184.4 764.6" id="184,170" style="" /><path d="M 184.4 703.5 L 184.4 729.7 L 196.3 729.7" id="175,171" style="" /><path d="M 196.3 677.4 L 196.3 694.8 L 707.2 694.8" id="174,172" style="" /><path d="M 196.3 677.4 L 196.3 660.0 L 707.2 660.0" id="174,173" style="" /><path d="M 184.4 703.5 L 184.4 677.4 L 196.3 677.4" id="175,174" style="" /><path d="M 172.6 687.9 L 172.6 703.5 L 184.4 703.5" id="184,175" style="" /><path d="M 184.4 595.6 L 184.4 625.1 L 220.1 625.1" id="183,176" style="" /><path d="M 220.1 566.2 L 220.1 590.2 L 291.4 590.2" id="182,177" style="" /><path d="M 362.6 520.4 L 362.6 537.9 L 410.2 537.9" id="180,178" style="" /><path d="M 362.6 520.4 L 362.6 503.0 L 410.2 503.0" id="180,179" style="" /><path d="M 291.4 542.2 L 291.4 520.4 L 362.6 520.4" id="181,180" style="" /><path d="M 220.1 566.2 L 220.1 542.2 L 291.4 542.2" id="182,181" style="" /><path d="M 184.4 595.6 L 184.4 566.2 L 220.1 566.2" id="183,182" style="" /><path d="M 172.6 687.9 L 172.6 595.6 L 184.4 595.6" id="184,183" style="" /><path d="M 160.7 720.0 L 160.7 687.9 L 172.6 687.9" id="207,184" style="" /><path d="M 196.3 397.3 L 196.3 433.3 L 267.6 433.3" id="192,185" style="" /><path d="M 279.5 394.0 L 279.5 380.9 L 291.4 380.9" id="187,186" style="" /><path d="M 267.6 361.3 L 267.6 394.0 L 279.5 394.0" id="191,187" style="" /><path d="M 279.5 328.6 L 279.5 346.1 L 327.0 346.1" id="190,188" style="" /><path d="M 279.5 328.6 L 279.5 311.2 L 327.0 311.2" id="190,189" style="" /><path d="M 267.6 361.3 L 267.6 328.6 L 279.5 328.6" id="191,190" style="" /><path d="M 196.3 397.3 L 196.3 361.3 L 267.6 361.3" id="192,191" style="" /><path d="M 172.6 381.3 L 172.6 397.3 L 196.3 397.3" id="206,192" style="" /><path d="M 315.1 250.1 L 315.1 276.3 L 327.0 276.3" id="197,193" style="" /><path d="M 327.0 224.0 L 327.0 241.4 L 517.1 241.4" id="196,194" style="" /><path d="M 327.0 224.0 L 327.0 206.6 L 517.1 206.6" id="196,195" style="" /><path d="M 315.1 250.1 L 315.1 224.0 L 327.0 224.0" id="197,196" style="" /><path d="M 196.3 191.8 L 196.3 250.1 L 315.1 250.1" id="205,197" style="" /><path d="M 386.4 167.3 L 386.4 154.2 L 469.6 154.2" id="199,198" style="" /><path d="M 315.1 133.5 L 315.1 167.3 L 386.4 167.3" id="204,199" style="" /><path d="M 386.4 99.7 L 386.4 119.4 L 445.8 119.4" id="203,200" style="" /><path d="M 445.8 80.1 L 445.8 67.0 L 564.6 67.0" id="202,201" style="" /><path d="M 386.4 99.7 L 386.4 80.1 L 445.8 80.1" id="203,202" style="" /><path d="M 315.1 133.5 L 315.1 99.7 L 386.4 99.7" id="204,203" style="" /><path d="M 196.3 191.8 L 196.3 133.5 L 315.1 133.5" id="205,204" style="" /><path d="M 172.6 381.3 L 172.6 191.8 L 196.3 191.8" id="206,205" style="" /><path d="M 160.7 720.0 L 160.7 381.3 L 172.6 381.3" id="207,206" style="" /><path d="M 148.8 911.4 L 148.8 720.0 L 160.7 720.0" id="208,207" style="" /><path d="M 53.8 1296.7 L 53.8 911.4 L 148.8 911.4" id="209,208" style="" /></g><g class="toytree-AdmixEdges" style="fill:rgb(0.0%,0.0%,0.0%);fill-opacity:0.0;stroke:rgb(90.6%,54.1%,76.5%);stroke-opacity:0.6;font-size:14px;stroke-linecap:round;stroke-width:5" /><g class="toytree-Nodes" style="fill:rgb(0.0%,0.0%,0.0%);fill-opacity:1.0;stroke:none;stroke-width:1.5"><g id="Node-109" transform="translate(303.232,1932.95)"><circle r="2.5" /></g><g id="Node-110" transform="translate(362.632,1898.08)"><circle r="2.5" /></g><g id="Node-111" transform="translate(374.512,1845.76)"><circle r="2.5" /></g><g id="Node-112" transform="translate(362.632,1858.84)"><circle r="2.5" /></g><g id="Node-113" transform="translate(303.232,1878.46)"><circle r="2.5" /></g><g id="Node-114" transform="translate(243.832,1905.71)"><circle r="2.5" /></g><g id="Node-115" transform="translate(315.112,1793.45)"><circle r="2.5" /></g><g id="Node-116" transform="translate(267.592,1806.53)"><circle r="2.5" /></g><g id="Node-117" transform="translate(303.232,1741.13)"><circle r="2.5" /></g><g id="Node-118" transform="translate(350.752,1688.82)"><circle r="2.5" /></g><g id="Node-119" transform="translate(303.232,1701.9)"><circle r="2.5" /></g><g id="Node-120" transform="translate(291.352,1721.51)"><circle r="2.5" /></g><g id="Node-121" transform="translate(267.592,1744.4)"><circle r="2.5" /></g><g id="Node-122" transform="translate(243.832,1775.46)"><circle r="2.5" /></g><g id="Node-123" transform="translate(160.672,1840.59)"><circle r="2.5" /></g><g id="Node-124" transform="translate(350.752,1653.94)"><circle r="2.5" /></g><g id="Node-125" transform="translate(350.752,1619.06)"><circle r="2.5" /></g><g id="Node-126" transform="translate(291.352,1636.5)"><circle r="2.5" /></g><g id="Node-127" transform="translate(398.272,1531.87)"><circle r="2.5" /></g><g id="Node-128" transform="translate(362.632,1544.95)"><circle r="2.5" /></g><g id="Node-129" transform="translate(350.752,1560.21)"><circle r="2.5" /></g><g id="Node-130" transform="translate(291.352,1576.56)"><circle r="2.5" /></g><g id="Node-131" transform="translate(196.312,1606.53)"><circle r="2.5" /></g><g id="Node-132" transform="translate(374.512,1444.68)"><circle r="2.5" /></g><g id="Node-133" transform="translate(243.832,1457.76)"><circle r="2.5" /></g><g id="Node-134" transform="translate(220.072,1473.02)"><circle r="2.5" /></g><g id="Node-135" transform="translate(208.192,1489.37)"><circle r="2.5" /></g><g id="Node-136" transform="translate(243.832,1374.93)"><circle r="2.5" /></g><g id="Node-137" transform="translate(469.552,1200.54)"><circle r="2.5" /></g><g id="Node-138" transform="translate(422.032,1213.62)"><circle r="2.5" /></g><g id="Node-139" transform="translate(398.272,1228.88)"><circle r="2.5" /></g><g id="Node-140" transform="translate(386.392,1245.23)"><circle r="2.5" /></g><g id="Node-141" transform="translate(303.232,1262.12)"><circle r="2.5" /></g><g id="Node-142" transform="translate(279.472,1279.29)"><circle r="2.5" /></g><g id="Node-143" transform="translate(267.592,1296.59)"><circle r="2.5" /></g><g id="Node-144" transform="translate(255.712,1313.96)"><circle r="2.5" /></g><g id="Node-145" transform="translate(243.832,1331.36)"><circle r="2.5" /></g><g id="Node-146" transform="translate(231.952,1353.14)"><circle r="2.5" /></g><g id="Node-147" transform="translate(208.192,1390.92)"><circle r="2.5" /></g><g id="Node-148" transform="translate(196.312,1440.14)"><circle r="2.5" /></g><g id="Node-149" transform="translate(160.672,1523.34)"><circle r="2.5" /></g><g id="Node-150" transform="translate(148.792,1681.96)"><circle r="2.5" /></g><g id="Node-151" transform="translate(303.232,1165.66)"><circle r="2.5" /></g><g id="Node-152" transform="translate(350.752,1130.79)"><circle r="2.5" /></g><g id="Node-153" transform="translate(350.752,1095.91)"><circle r="2.5" /></g><g id="Node-154" transform="translate(303.232,1113.35)"><circle r="2.5" /></g><g id="Node-155" transform="translate(552.712,1043.6)"><circle r="2.5" /></g><g id="Node-156" transform="translate(326.992,1056.67)"><circle r="2.5" /></g><g id="Node-157" transform="translate(623.992,973.842)"><circle r="2.5" /></g><g id="Node-158" transform="translate(410.152,986.921)"><circle r="2.5" /></g><g id="Node-159" transform="translate(326.992,1002.18)"><circle r="2.5" /></g><g id="Node-160" transform="translate(303.232,1029.43)"><circle r="2.5" /></g><g id="Node-161" transform="translate(160.672,1102.81)"><circle r="2.5" /></g><g id="Node-162" transform="translate(172.552,938.966)"><circle r="2.5" /></g><g id="Node-163" transform="translate(576.472,886.65)"><circle r="2.5" /></g><g id="Node-164" transform="translate(422.032,899.729)"><circle r="2.5" /></g><g id="Node-165" transform="translate(695.272,799.458)"><circle r="2.5" /></g><g id="Node-166" transform="translate(588.352,812.537)"><circle r="2.5" /></g><g id="Node-167" transform="translate(505.192,827.796)"><circle r="2.5" /></g><g id="Node-168" transform="translate(422.032,844.144)"><circle r="2.5" /></g><g id="Node-169" transform="translate(172.552,871.937)"><circle r="2.5" /></g><g id="Node-170" transform="translate(184.432,764.582)"><circle r="2.5" /></g><g id="Node-171" transform="translate(196.312,729.705)"><circle r="2.5" /></g><g id="Node-172" transform="translate(707.152,694.828)"><circle r="2.5" /></g><g id="Node-173" transform="translate(707.152,659.951)"><circle r="2.5" /></g><g id="Node-174" transform="translate(196.312,677.39)"><circle r="2.5" /></g><g id="Node-175" transform="translate(184.432,703.547)"><circle r="2.5" /></g><g id="Node-176" transform="translate(220.072,625.074)"><circle r="2.5" /></g><g id="Node-177" transform="translate(291.352,590.198)"><circle r="2.5" /></g><g id="Node-178" transform="translate(410.152,537.882)"><circle r="2.5" /></g><g id="Node-179" transform="translate(410.152,503.006)"><circle r="2.5" /></g><g id="Node-180" transform="translate(362.632,520.444)"><circle r="2.5" /></g><g id="Node-181" transform="translate(291.352,542.242)"><circle r="2.5" /></g><g id="Node-182" transform="translate(220.072,566.22)"><circle r="2.5" /></g><g id="Node-183" transform="translate(184.432,595.647)"><circle r="2.5" /></g><g id="Node-184" transform="translate(172.552,687.925)"><circle r="2.5" /></g><g id="Node-185" transform="translate(267.592,433.252)"><circle r="2.5" /></g><g id="Node-186" transform="translate(291.352,380.937)"><circle r="2.5" /></g><g id="Node-187" transform="translate(279.472,394.016)"><circle r="2.5" /></g><g id="Node-188" transform="translate(326.992,346.06)"><circle r="2.5" /></g><g id="Node-189" transform="translate(326.992,311.183)"><circle r="2.5" /></g><g id="Node-190" transform="translate(279.472,328.622)"><circle r="2.5" /></g><g id="Node-191" transform="translate(267.592,361.319)"><circle r="2.5" /></g><g id="Node-192" transform="translate(196.312,397.285)"><circle r="2.5" /></g><g id="Node-193" transform="translate(326.992,276.306)"><circle r="2.5" /></g><g id="Node-194" transform="translate(517.072,241.43)"><circle r="2.5" /></g><g id="Node-195" transform="translate(517.072,206.553)"><circle r="2.5" /></g><g id="Node-196" transform="translate(326.992,223.991)"><circle r="2.5" /></g><g id="Node-197" transform="translate(315.112,250.149)"><circle r="2.5" /></g><g id="Node-198" transform="translate(469.552,154.238)"><circle r="2.5" /></g><g id="Node-199" transform="translate(386.392,167.316)"><circle r="2.5" /></g><g id="Node-200" transform="translate(445.792,119.361)"><circle r="2.5" /></g><g id="Node-201" transform="translate(564.592,67.0456)"><circle r="2.5" /></g><g id="Node-202" transform="translate(445.792,80.1244)"><circle r="2.5" /></g><g id="Node-203" transform="translate(386.392,99.7426)"><circle r="2.5" /></g><g id="Node-204" transform="translate(315.112,133.529)"><circle r="2.5" /></g><g id="Node-205" transform="translate(196.312,191.839)"><circle r="2.5" /></g><g id="Node-206" transform="translate(172.552,381.345)"><circle r="2.5" /></g><g id="Node-207" transform="translate(160.672,720.043)"><circle r="2.5" /></g><g id="Node-208" transform="translate(148.792,911.429)"><circle r="2.5" /></g><g id="Node-209" transform="translate(53.7516,1296.69)"><circle r="2.5" /></g></g><g class="toytree-TipLabels" style="fill:rgb(14.5%,14.5%,14.5%);fill-opacity:1.0;font-family:Helvetica;font-size:14px;font-weight:300;vertical-align:baseline;white-space:pre;stroke:none"><g class="toytree-TipLabel" transform="translate(422.032,1941.67)"><text x="15.0" y="3.577" style="fill:rgb(14.5%,14.5%,14.5%);fill-opacity:1.0">Kui</text></g><g class="toytree-TipLabel" transform="translate(422.032,1924.24)"><text x="15.0" y="3.577" style="fill:rgb(14.5%,14.5%,14.5%);fill-opacity:1.0">Neu</text></g><g class="toytree-TipLabel" transform="translate(386.392,1906.8)"><text x="15.0" y="3.577" style="fill:rgb(14.5%,14.5%,14.5%);fill-opacity:1.0">Bru</text></g><g class="toytree-TipLabel" transform="translate(386.392,1889.36)"><text x="15.0" y="3.577" style="fill:rgb(14.5%,14.5%,14.5%);fill-opacity:1.0">BruVK</text></g><g class="toytree-TipLabel" transform="translate(374.512,1871.92)"><text x="15.0" y="3.577" style="fill:rgb(14.5%,14.5%,14.5%);fill-opacity:1.0">So</text></g><g class="toytree-TipLabel" transform="translate(410.152,1854.48)"><text x="15.0" y="3.577" style="fill:rgb(14.5%,14.5%,14.5%);fill-opacity:1.0">Mak</text></g><g class="toytree-TipLabel" transform="translate(410.152,1837.04)"><text x="15.0" y="3.577" style="fill:rgb(14.5%,14.5%,14.5%);fill-opacity:1.0">Tri</text></g><g class="toytree-TipLabel" transform="translate(315.112,1819.6)"><text x="15.0" y="3.577" style="fill:rgb(14.5%,14.5%,14.5%);fill-opacity:1.0">Dakkang</text></g><g class="toytree-TipLabel" transform="translate(493.312,1802.17)"><text x="15.0" y="3.577" style="fill:rgb(14.5%,14.5%,14.5%);fill-opacity:1.0">Kantu</text></g><g class="toytree-TipLabel" transform="translate(493.312,1784.73)"><text x="15.0" y="3.577" style="fill:rgb(14.5%,14.5%,14.5%);fill-opacity:1.0">Katu</text></g><g class="toytree-TipLabel" transform="translate(291.352,1767.29)"><text x="15.0" y="3.577" style="fill:rgb(14.5%,14.5%,14.5%);fill-opacity:1.0">Lao-Katu</text></g><g class="toytree-TipLabel" transform="translate(398.272,1749.85)"><text x="15.0" y="3.577" style="fill:rgb(14.5%,14.5%,14.5%);fill-opacity:1.0">Pakoh</text></g><g class="toytree-TipLabel" transform="translate(398.272,1732.41)"><text x="15.0" y="3.577" style="fill:rgb(14.5%,14.5%,14.5%);fill-opacity:1.0">Taoih</text></g><g class="toytree-TipLabel" transform="translate(350.752,1714.97)"><text x="15.0" y="3.577" style="fill:rgb(14.5%,14.5%,14.5%);fill-opacity:1.0">Nge</text></g><g class="toytree-TipLabel" transform="translate(481.432,1697.54)"><text x="15.0" y="3.577" style="fill:rgb(14.5%,14.5%,14.5%);fill-opacity:1.0">Ong</text></g><g class="toytree-TipLabel" transform="translate(481.432,1680.1)"><text x="15.0" y="3.577" style="fill:rgb(14.5%,14.5%,14.5%);fill-opacity:1.0">Taoi</text></g><g class="toytree-TipLabel" transform="translate(528.952,1662.66)"><text x="15.0" y="3.577" style="fill:rgb(14.5%,14.5%,14.5%);fill-opacity:1.0">KahoChil</text></g><g class="toytree-TipLabel" transform="translate(528.952,1645.22)"><text x="15.0" y="3.577" style="fill:rgb(14.5%,14.5%,14.5%);fill-opacity:1.0">Sre</text></g><g class="toytree-TipLabel" transform="translate(517.072,1627.78)"><text x="15.0" y="3.577" style="fill:rgb(14.5%,14.5%,14.5%);fill-opacity:1.0">Ma1</text></g><g class="toytree-TipLabel" transform="translate(517.072,1610.34)"><text x="15.0" y="3.577" style="fill:rgb(14.5%,14.5%,14.5%);fill-opacity:1.0">Ma2</text></g><g class="toytree-TipLabel" transform="translate(350.752,1592.91)"><text x="15.0" y="3.577" style="fill:rgb(14.5%,14.5%,14.5%);fill-opacity:1.0">Chrau</text></g><g class="toytree-TipLabel" transform="translate(362.632,1575.47)"><text x="15.0" y="3.577" style="fill:rgb(14.5%,14.5%,14.5%);fill-opacity:1.0">Stieng</text></g><g class="toytree-TipLabel" transform="translate(398.272,1558.03)"><text x="15.0" y="3.577" style="fill:rgb(14.5%,14.5%,14.5%);fill-opacity:1.0">M.Rolom</text></g><g class="toytree-TipLabel" transform="translate(517.072,1540.59)"><text x="15.0" y="3.577" style="fill:rgb(14.5%,14.5%,14.5%);fill-opacity:1.0">M.Bunong</text></g><g class="toytree-TipLabel" transform="translate(517.072,1523.15)"><text x="15.0" y="3.577" style="fill:rgb(14.5%,14.5%,14.5%);fill-opacity:1.0">M.Dip</text></g><g class="toytree-TipLabel" transform="translate(220.072,1505.71)"><text x="15.0" y="3.577" style="fill:rgb(14.5%,14.5%,14.5%);fill-opacity:1.0">Arak</text></g><g class="toytree-TipLabel" transform="translate(243.832,1488.28)"><text x="15.0" y="3.577" style="fill:rgb(14.5%,14.5%,14.5%);fill-opacity:1.0">Tariang</text></g><g class="toytree-TipLabel" transform="translate(374.512,1470.84)"><text x="15.0" y="3.577" style="fill:rgb(14.5%,14.5%,14.5%);fill-opacity:1.0">Oy</text></g><g class="toytree-TipLabel" transform="translate(576.472,1453.4)"><text x="15.0" y="3.577" style="fill:rgb(14.5%,14.5%,14.5%);fill-opacity:1.0">Jru</text></g><g class="toytree-TipLabel" transform="translate(576.472,1435.96)"><text x="15.0" y="3.577" style="fill:rgb(14.5%,14.5%,14.5%);fill-opacity:1.0">Nhaheun</text></g><g class="toytree-TipLabel" transform="translate(231.952,1418.52)"><text x="15.0" y="3.577" style="fill:rgb(14.5%,14.5%,14.5%);fill-opacity:1.0">Kor_Cua</text></g><g class="toytree-TipLabel" transform="translate(231.952,1401.08)"><text x="15.0" y="3.577" style="fill:rgb(14.5%,14.5%,14.5%);fill-opacity:1.0">Tempuan</text></g><g class="toytree-TipLabel" transform="translate(362.632,1383.64)"><text x="15.0" y="3.577" style="fill:rgb(14.5%,14.5%,14.5%);fill-opacity:1.0">Je</text></g><g class="toytree-TipLabel" transform="translate(362.632,1366.21)"><text x="15.0" y="3.577" style="fill:rgb(14.5%,14.5%,14.5%);fill-opacity:1.0">Veh</text></g><g class="toytree-TipLabel" transform="translate(255.712,1348.77)"><text x="15.0" y="3.577" style="fill:rgb(14.5%,14.5%,14.5%);fill-opacity:1.0">Bahnar</text></g><g class="toytree-TipLabel" transform="translate(267.592,1331.33)"><text x="15.0" y="3.577" style="fill:rgb(14.5%,14.5%,14.5%);fill-opacity:1.0">Jeh</text></g><g class="toytree-TipLabel" transform="translate(279.472,1313.89)"><text x="15.0" y="3.577" style="fill:rgb(14.5%,14.5%,14.5%);fill-opacity:1.0">Halang</text></g><g class="toytree-TipLabel" transform="translate(303.232,1296.45)"><text x="15.0" y="3.577" style="fill:rgb(14.5%,14.5%,14.5%);fill-opacity:1.0">Panong</text></g><g class="toytree-TipLabel" transform="translate(386.392,1279.01)"><text x="15.0" y="3.577" style="fill:rgb(14.5%,14.5%,14.5%);fill-opacity:1.0">Hre</text></g><g class="toytree-TipLabel" transform="translate(398.272,1261.58)"><text x="15.0" y="3.577" style="fill:rgb(14.5%,14.5%,14.5%);fill-opacity:1.0">Rengao</text></g><g class="toytree-TipLabel" transform="translate(422.032,1244.14)"><text x="15.0" y="3.577" style="fill:rgb(14.5%,14.5%,14.5%);fill-opacity:1.0">Didra</text></g><g class="toytree-TipLabel" transform="translate(469.552,1226.7)"><text x="15.0" y="3.577" style="fill:rgb(14.5%,14.5%,14.5%);fill-opacity:1.0">Sedang</text></g><g class="toytree-TipLabel" transform="translate(683.392,1209.26)"><text x="15.0" y="3.577" style="fill:rgb(14.5%,14.5%,14.5%);fill-opacity:1.0">Hadang</text></g><g class="toytree-TipLabel" transform="translate(683.392,1191.82)"><text x="15.0" y="3.577" style="fill:rgb(14.5%,14.5%,14.5%);fill-opacity:1.0">Kadong</text></g><g class="toytree-TipLabel" transform="translate(374.512,1174.38)"><text x="15.0" y="3.577" style="fill:rgb(14.5%,14.5%,14.5%);fill-opacity:1.0">Arem</text></g><g class="toytree-TipLabel" transform="translate(374.512,1156.95)"><text x="15.0" y="3.577" style="fill:rgb(14.5%,14.5%,14.5%);fill-opacity:1.0">Ruc</text></g><g class="toytree-TipLabel" transform="translate(564.592,1139.51)"><text x="15.0" y="3.577" style="fill:rgb(14.5%,14.5%,14.5%);fill-opacity:1.0">KhaPhong</text></g><g class="toytree-TipLabel" transform="translate(564.592,1122.07)"><text x="15.0" y="3.577" style="fill:rgb(14.5%,14.5%,14.5%);fill-opacity:1.0">Malieng</text></g><g class="toytree-TipLabel" transform="translate(790.312,1104.63)"><text x="15.0" y="3.577" style="fill:rgb(14.5%,14.5%,14.5%);fill-opacity:1.0">Thavung</text></g><g class="toytree-TipLabel" transform="translate(790.312,1087.19)"><text x="15.0" y="3.577" style="fill:rgb(14.5%,14.5%,14.5%);fill-opacity:1.0">ThavungSo</text></g><g class="toytree-TipLabel" transform="translate(552.712,1069.75)"><text x="15.0" y="3.577" style="fill:rgb(14.5%,14.5%,14.5%);fill-opacity:1.0">Vietnamese</text></g><g class="toytree-TipLabel" transform="translate(671.512,1052.32)"><text x="15.0" y="3.577" style="fill:rgb(14.5%,14.5%,14.5%);fill-opacity:1.0">MuongKoi</text></g><g class="toytree-TipLabel" transform="translate(671.512,1034.88)"><text x="15.0" y="3.577" style="fill:rgb(14.5%,14.5%,14.5%);fill-opacity:1.0">ThoMon</text></g><g class="toytree-TipLabel" transform="translate(410.152,1017.44)"><text x="15.0" y="3.577" style="fill:rgb(14.5%,14.5%,14.5%);fill-opacity:1.0">Cuoi</text></g><g class="toytree-TipLabel" transform="translate(623.992,1000)"><text x="15.0" y="3.577" style="fill:rgb(14.5%,14.5%,14.5%);fill-opacity:1.0">Liha</text></g><g class="toytree-TipLabel" transform="translate(814.072,982.562)"><text x="15.0" y="3.577" style="fill:rgb(14.5%,14.5%,14.5%);fill-opacity:1.0">Phong_V_</text></g><g class="toytree-TipLabel" transform="translate(814.072,965.123)"><text x="15.0" y="3.577" style="fill:rgb(14.5%,14.5%,14.5%);fill-opacity:1.0">Tuum</text></g><g class="toytree-TipLabel" transform="translate(719.032,947.685)"><text x="15.0" y="3.577" style="fill:rgb(14.5%,14.5%,14.5%);fill-opacity:1.0">Bugan</text></g><g class="toytree-TipLabel" transform="translate(719.032,930.246)"><text x="15.0" y="3.577" style="fill:rgb(14.5%,14.5%,14.5%);fill-opacity:1.0">Paliu</text></g><g class="toytree-TipLabel" transform="translate(576.472,912.808)"><text x="15.0" y="3.577" style="fill:rgb(14.5%,14.5%,14.5%);fill-opacity:1.0">Korku</text></g><g class="toytree-TipLabel" transform="translate(1194.23,895.37)"><text x="15.0" y="3.577" style="fill:rgb(14.5%,14.5%,14.5%);fill-opacity:1.0">Mundari</text></g><g class="toytree-TipLabel" transform="translate(1194.23,877.931)"><text x="15.0" y="3.577" style="fill:rgb(14.5%,14.5%,14.5%);fill-opacity:1.0">Santali</text></g><g class="toytree-TipLabel" transform="translate(505.192,860.493)"><text x="15.0" y="3.577" style="fill:rgb(14.5%,14.5%,14.5%);fill-opacity:1.0">Juang</text></g><g class="toytree-TipLabel" transform="translate(588.352,843.054)"><text x="15.0" y="3.577" style="fill:rgb(14.5%,14.5%,14.5%);fill-opacity:1.0">Bonda</text></g><g class="toytree-TipLabel" transform="translate(695.272,825.616)"><text x="15.0" y="3.577" style="fill:rgb(14.5%,14.5%,14.5%);fill-opacity:1.0">Kharia</text></g><g class="toytree-TipLabel" transform="translate(909.112,808.178)"><text x="15.0" y="3.577" style="fill:rgb(14.5%,14.5%,14.5%);fill-opacity:1.0">Parengi</text></g><g class="toytree-TipLabel" transform="translate(909.112,790.739)"><text x="15.0" y="3.577" style="fill:rgb(14.5%,14.5%,14.5%);fill-opacity:1.0">Sora</text></g><g class="toytree-TipLabel" transform="translate(671.512,773.301)"><text x="15.0" y="3.577" style="fill:rgb(14.5%,14.5%,14.5%);fill-opacity:1.0">Mon</text></g><g class="toytree-TipLabel" transform="translate(671.512,755.862)"><text x="15.0" y="3.577" style="fill:rgb(14.5%,14.5%,14.5%);fill-opacity:1.0">Nyakur</text></g><g class="toytree-TipLabel" transform="translate(1835.75,738.424)"><text x="15.0" y="3.577" style="fill:rgb(14.5%,14.5%,14.5%);fill-opacity:1.0">K.Surin</text></g><g class="toytree-TipLabel" transform="translate(1835.75,720.986)"><text x="15.0" y="3.577" style="fill:rgb(14.5%,14.5%,14.5%);fill-opacity:1.0">Khmer</text></g><g class="toytree-TipLabel" transform="translate(1313.03,703.547)"><text x="15.0" y="3.577" style="fill:rgb(14.5%,14.5%,14.5%);fill-opacity:1.0">Chong</text></g><g class="toytree-TipLabel" transform="translate(1313.03,686.109)"><text x="15.0" y="3.577" style="fill:rgb(14.5%,14.5%,14.5%);fill-opacity:1.0">Chong-H</text></g><g class="toytree-TipLabel" transform="translate(1111.07,668.67)"><text x="15.0" y="3.577" style="fill:rgb(14.5%,14.5%,14.5%);fill-opacity:1.0">Kasong</text></g><g class="toytree-TipLabel" transform="translate(1111.07,651.232)"><text x="15.0" y="3.577" style="fill:rgb(14.5%,14.5%,14.5%);fill-opacity:1.0">Samre</text></g><g class="toytree-TipLabel" transform="translate(1265.51,633.794)"><text x="15.0" y="3.577" style="fill:rgb(14.5%,14.5%,14.5%);fill-opacity:1.0">Car</text></g><g class="toytree-TipLabel" transform="translate(1265.51,616.355)"><text x="15.0" y="3.577" style="fill:rgb(14.5%,14.5%,14.5%);fill-opacity:1.0">Nancawri</text></g><g class="toytree-TipLabel" transform="translate(564.592,598.917)"><text x="15.0" y="3.577" style="fill:rgb(14.5%,14.5%,14.5%);fill-opacity:1.0">Semelai</text></g><g class="toytree-TipLabel" transform="translate(564.592,581.478)"><text x="15.0" y="3.577" style="fill:rgb(14.5%,14.5%,14.5%);fill-opacity:1.0">SemoqBeri</text></g><g class="toytree-TipLabel" transform="translate(362.632,564.04)"><text x="15.0" y="3.577" style="fill:rgb(14.5%,14.5%,14.5%);fill-opacity:1.0">Jah-Hut</text></g><g class="toytree-TipLabel" transform="translate(719.032,546.602)"><text x="15.0" y="3.577" style="fill:rgb(14.5%,14.5%,14.5%);fill-opacity:1.0">Jahai</text></g><g class="toytree-TipLabel" transform="translate(719.032,529.163)"><text x="15.0" y="3.577" style="fill:rgb(14.5%,14.5%,14.5%);fill-opacity:1.0">Kensiw</text></g><g class="toytree-TipLabel" transform="translate(469.552,511.725)"><text x="15.0" y="3.577" style="fill:rgb(14.5%,14.5%,14.5%);fill-opacity:1.0">Semai</text></g><g class="toytree-TipLabel" transform="translate(469.552,494.286)"><text x="15.0" y="3.577" style="fill:rgb(14.5%,14.5%,14.5%);fill-opacity:1.0">Temiar</text></g><g class="toytree-TipLabel" transform="translate(196.312,476.848)"><text x="15.0" y="3.577" style="fill:rgb(14.5%,14.5%,14.5%);fill-opacity:1.0">Khasi</text></g><g class="toytree-TipLabel" transform="translate(196.312,459.41)"><text x="15.0" y="3.577" style="fill:rgb(14.5%,14.5%,14.5%);fill-opacity:1.0">Mang</text></g><g class="toytree-TipLabel" transform="translate(540.832,441.971)"><text x="15.0" y="3.577" style="fill:rgb(14.5%,14.5%,14.5%);fill-opacity:1.0">Iduh</text></g><g class="toytree-TipLabel" transform="translate(540.832,424.533)"><text x="15.0" y="3.577" style="fill:rgb(14.5%,14.5%,14.5%);fill-opacity:1.0">Phong</text></g><g class="toytree-TipLabel" transform="translate(291.352,407.094)"><text x="15.0" y="3.577" style="fill:rgb(14.5%,14.5%,14.5%);fill-opacity:1.0">Khmu</text></g><g class="toytree-TipLabel" transform="translate(374.512,389.656)"><text x="15.0" y="3.577" style="fill:rgb(14.5%,14.5%,14.5%);fill-opacity:1.0">Mlabri</text></g><g class="toytree-TipLabel" transform="translate(374.512,372.218)"><text x="15.0" y="3.577" style="fill:rgb(14.5%,14.5%,14.5%);fill-opacity:1.0">Pray</text></g><g class="toytree-TipLabel" transform="translate(493.312,354.779)"><text x="15.0" y="3.577" style="fill:rgb(14.5%,14.5%,14.5%);fill-opacity:1.0">Bit</text></g><g class="toytree-TipLabel" transform="translate(493.312,337.341)"><text x="15.0" y="3.577" style="fill:rgb(14.5%,14.5%,14.5%);fill-opacity:1.0">Khang</text></g><g class="toytree-TipLabel" transform="translate(683.392,319.902)"><text x="15.0" y="3.577" style="fill:rgb(14.5%,14.5%,14.5%);fill-opacity:1.0">Ksinmul</text></g><g class="toytree-TipLabel" transform="translate(683.392,302.464)"><text x="15.0" y="3.577" style="fill:rgb(14.5%,14.5%,14.5%);fill-opacity:1.0">KxinhMul</text></g><g class="toytree-TipLabel" transform="translate(754.672,285.026)"><text x="15.0" y="3.577" style="fill:rgb(14.5%,14.5%,14.5%);fill-opacity:1.0">De'ang</text></g><g class="toytree-TipLabel" transform="translate(754.672,267.587)"><text x="15.0" y="3.577" style="fill:rgb(14.5%,14.5%,14.5%);fill-opacity:1.0">Rumai</text></g><g class="toytree-TipLabel" transform="translate(659.632,250.149)"><text x="15.0" y="3.577" style="fill:rgb(14.5%,14.5%,14.5%);fill-opacity:1.0">Man'e</text></g><g class="toytree-TipLabel" transform="translate(659.632,232.71)"><text x="15.0" y="3.577" style="fill:rgb(14.5%,14.5%,14.5%);fill-opacity:1.0">Plang</text></g><g class="toytree-TipLabel" transform="translate(623.992,215.272)"><text x="15.0" y="3.577" style="fill:rgb(14.5%,14.5%,14.5%);fill-opacity:1.0">Guanshuang</text></g><g class="toytree-TipLabel" transform="translate(623.992,197.834)"><text x="15.0" y="3.577" style="fill:rgb(14.5%,14.5%,14.5%);fill-opacity:1.0">Wa</text></g><g class="toytree-TipLabel" transform="translate(469.552,180.395)"><text x="15.0" y="3.577" style="fill:rgb(14.5%,14.5%,14.5%);fill-opacity:1.0">Hu</text></g><g class="toytree-TipLabel" transform="translate(754.672,162.957)"><text x="15.0" y="3.577" style="fill:rgb(14.5%,14.5%,14.5%);fill-opacity:1.0">Khamet</text></g><g class="toytree-TipLabel" transform="translate(754.672,145.518)"><text x="15.0" y="3.577" style="fill:rgb(14.5%,14.5%,14.5%);fill-opacity:1.0">Khme</text></g><g class="toytree-TipLabel" transform="translate(600.232,128.08)"><text x="15.0" y="3.577" style="fill:rgb(14.5%,14.5%,14.5%);fill-opacity:1.0">Gantang</text></g><g class="toytree-TipLabel" transform="translate(600.232,110.642)"><text x="15.0" y="3.577" style="fill:rgb(14.5%,14.5%,14.5%);fill-opacity:1.0">Yongde</text></g><g class="toytree-TipLabel" transform="translate(564.592,93.2032)"><text x="15.0" y="3.577" style="fill:rgb(14.5%,14.5%,14.5%);fill-opacity:1.0">Pangpin</text></g><g class="toytree-TipLabel" transform="translate(623.992,75.7648)"><text x="15.0" y="3.577" style="fill:rgb(14.5%,14.5%,14.5%);fill-opacity:1.0">Mang'an</text></g><g class="toytree-TipLabel" transform="translate(623.992,58.3264)"><text x="15.0" y="3.577" style="fill:rgb(14.5%,14.5%,14.5%);fill-opacity:1.0">Shuangdiang</text></g></g></g></g></g></svg>