<svg class="toyplot-canvas-Canvas" xmlns:toyplot="http://www.sandia.gov/toyplot" xmlns:xlink="http://www.w3.org/1999/xlink" xmlns="http://www.w3.org/2000/svg" width="2000.0px" height="2435.0px" viewBox="0 0 2000.0 2435.0" preserveAspectRatio="xMidYMid meet" style="background-color:transparent;border-color:#292724;border-style:none;border-width:1.0;fill:rgb(16.1%,15.3%,14.1%);fill-opacity:1.0;font-family:Helvetica;font-size:12px;opacity:1.0;stroke:rgb(16.1%,15.3%,14.1%);stroke-opacity:1.0;stroke-width:1.0" id="t90ddfb7226a94c9b8f6be47d22394d3c"><g class="toyplot-coordinates-Cartesian" id="tcc57f84a4f07426aab65cc5973b7acee"><clipPath id="tf2f744ec9fd84ec5b7d23a5653e4b034"><rect x="35.0" y="35.0" width="1930.0" height="2365.0" /></clipPath><g clip-path="url(#tf2f744ec9fd84ec5b7d23a5653e4b034)"><g class="toytree-mark-Toytree" id="t3a47378df77d4e319615180a9147475a"><g class="toytree-Edges" style="stroke:rgb(14.5%,14.5%,14.5%);stroke-opacity:1.0;stroke-linecap:round;stroke-width:2.0;fill:none"><path d="M 296.4 2365.9 L 296.4 2376.7 L 410.9 2376.7" id="109,0" style="" /><path d="M 296.4 2365.9 L 296.4 2355.2 L 410.9 2355.2" id="109,1" style="" /><path d="M 353.6 2323.0 L 353.6 2333.7 L 376.5 2333.7" id="110,2" style="" /><path d="M 353.6 2323.0 L 353.6 2312.3 L 376.5 2312.3" id="110,3" style="" /><path d="M 353.6 2274.7 L 353.6 2290.8 L 365.1 2290.8" id="112,4" style="" /><path d="M 365.1 2258.6 L 365.1 2269.3 L 399.4 2269.3" id="111,5" style="" /><path d="M 365.1 2258.6 L 365.1 2247.9 L 399.4 2247.9" id="111,6" style="" /><path d="M 262.0 2210.3 L 262.0 2226.4 L 307.8 2226.4" id="116,7" style="" /><path d="M 307.8 2194.2 L 307.8 2204.9 L 479.6 2204.9" id="115,8" style="" /><path d="M 307.8 2194.2 L 307.8 2183.5 L 479.6 2183.5" id="115,9" style="" /><path d="M 262.0 2133.8 L 262.0 2162.0 L 284.9 2162.0" id="121,10" style="" /><path d="M 296.4 2129.8 L 296.4 2140.5 L 388.0 2140.5" id="117,11" style="" /><path d="M 296.4 2129.8 L 296.4 2119.1 L 388.0 2119.1" id="117,12" style="" /><path d="M 296.4 2081.5 L 296.4 2097.6 L 342.2 2097.6" id="119,13" style="" /><path d="M 342.2 2065.4 L 342.2 2076.1 L 468.2 2076.1" id="118,14" style="" /><path d="M 342.2 2065.4 L 342.2 2054.7 L 468.2 2054.7" id="118,15" style="" /><path d="M 342.2 2022.5 L 342.2 2033.2 L 514.0 2033.2" id="124,16" style="" /><path d="M 342.2 2022.5 L 342.2 2011.7 L 514.0 2011.7" id="124,17" style="" /><path d="M 342.2 1979.5 L 342.2 1990.3 L 502.5 1990.3" id="125,18" style="" /><path d="M 342.2 1979.5 L 342.2 1968.8 L 502.5 1968.8" id="125,19" style="" /><path d="M 284.9 1927.2 L 284.9 1947.3 L 342.2 1947.3" id="130,20" style="" /><path d="M 342.2 1907.1 L 342.2 1925.9 L 353.6 1925.9" id="129,21" style="" /><path d="M 353.6 1888.3 L 353.6 1904.4 L 388.0 1904.4" id="128,22" style="" /><path d="M 388.0 1872.2 L 388.0 1882.9 L 502.5 1882.9" id="127,23" style="" /><path d="M 388.0 1872.2 L 388.0 1861.5 L 502.5 1861.5" id="127,24" style="" /><path d="M 204.8 1819.9 L 204.8 1840.0 L 216.2 1840.0" id="135,25" style="" /><path d="M 216.2 1799.8 L 216.2 1818.5 L 239.1 1818.5" id="134,26" style="" /><path d="M 239.1 1781.0 L 239.1 1797.1 L 365.1 1797.1" id="133,27" style="" /><path d="M 365.1 1764.9 L 365.1 1775.6 L 559.8 1775.6" id="132,28" style="" /><path d="M 365.1 1764.9 L 365.1 1754.1 L 559.8 1754.1" id="132,29" style="" /><path d="M 204.8 1698.7 L 204.8 1732.7 L 227.7 1732.7" id="147,30" style="" /><path d="M 204.8 1698.7 L 204.8 1711.2 L 227.7 1711.2" id="147,31" style="" /><path d="M 239.1 1679.0 L 239.1 1689.8 L 353.6 1689.8" id="136,32" style="" /><path d="M 239.1 1679.0 L 239.1 1668.3 L 353.6 1668.3" id="136,33" style="" /><path d="M 239.1 1625.4 L 239.1 1646.8 L 250.6 1646.8" id="145,34" style="" /><path d="M 250.6 1604.0 L 250.6 1625.4 L 262.0 1625.4" id="144,35" style="" /><path d="M 262.0 1582.6 L 262.0 1603.9 L 273.5 1603.9" id="143,36" style="" /><path d="M 273.5 1561.3 L 273.5 1582.4 L 296.4 1582.4" id="142,37" style="" /><path d="M 296.4 1540.2 L 296.4 1561.0 L 376.5 1561.0" id="141,38" style="" /><path d="M 376.5 1519.4 L 376.5 1539.5 L 388.0 1539.5" id="140,39" style="" /><path d="M 388.0 1499.2 L 388.0 1518.0 L 410.9 1518.0" id="139,40" style="" /><path d="M 410.9 1480.5 L 410.9 1496.6 L 456.7 1496.6" id="138,41" style="" /><path d="M 456.7 1464.4 L 456.7 1475.1 L 662.8 1475.1" id="137,42" style="" /><path d="M 456.7 1464.4 L 456.7 1453.6 L 662.8 1453.6" id="137,43" style="" /><path d="M 296.4 1421.4 L 296.4 1432.2 L 365.1 1432.2" id="151,44" style="" /><path d="M 296.4 1421.4 L 296.4 1410.7 L 365.1 1410.7" id="151,45" style="" /><path d="M 342.2 1378.5 L 342.2 1389.2 L 548.3 1389.2" id="152,46" style="" /><path d="M 342.2 1378.5 L 342.2 1367.8 L 548.3 1367.8" id="152,47" style="" /><path d="M 342.2 1335.6 L 342.2 1346.3 L 765.9 1346.3" id="153,48" style="" /><path d="M 342.2 1335.6 L 342.2 1324.8 L 765.9 1324.8" id="153,49" style="" /><path d="M 319.3 1287.3 L 319.3 1303.4 L 536.9 1303.4" id="156,50" style="" /><path d="M 536.9 1271.2 L 536.9 1281.9 L 651.4 1281.9" id="155,51" style="" /><path d="M 536.9 1271.2 L 536.9 1260.4 L 651.4 1260.4" id="155,52" style="" /><path d="M 319.3 1220.2 L 319.3 1239.0 L 399.4 1239.0" id="159,53" style="" /><path d="M 399.4 1201.4 L 399.4 1217.5 L 605.6 1217.5" id="158,54" style="" /><path d="M 605.6 1185.3 L 605.6 1196.0 L 788.8 1196.0" id="157,55" style="" /><path d="M 605.6 1185.3 L 605.6 1174.6 L 788.8 1174.6" id="157,56" style="" /><path d="M 170.4 1142.4 L 170.4 1153.1 L 697.2 1153.1" id="162,57" style="" /><path d="M 170.4 1142.4 L 170.4 1131.6 L 697.2 1131.6" id="162,58" style="" /><path d="M 410.9 1094.1 L 410.9 1110.2 L 559.8 1110.2" id="164,59" style="" /><path d="M 559.8 1078.0 L 559.8 1088.7 L 1155.3 1088.7" id="163,60" style="" /><path d="M 559.8 1078.0 L 559.8 1067.2 L 1155.3 1067.2" id="163,61" style="" /><path d="M 410.9 1025.6 L 410.9 1045.8 L 491.1 1045.8" id="168,62" style="" /><path d="M 491.1 1005.5 L 491.1 1024.3 L 571.2 1024.3" id="167,63" style="" /><path d="M 571.2 986.7 L 571.2 1002.8 L 674.3 1002.8" id="166,64" style="" /><path d="M 674.3 970.6 L 674.3 981.4 L 880.4 981.4" id="165,65" style="" /><path d="M 674.3 970.6 L 674.3 959.9 L 880.4 959.9" id="165,66" style="" /><path d="M 181.9 927.7 L 181.9 938.4 L 651.4 938.4" id="170,67" style="" /><path d="M 181.9 927.7 L 181.9 917.0 L 651.4 917.0" id="170,68" style="" /><path d="M 193.3 884.8 L 193.3 895.5 L 1773.7 895.5" id="171,69" style="" /><path d="M 193.3 884.8 L 193.3 874.0 L 1773.7 874.0" id="171,70" style="" /><path d="M 685.7 841.8 L 685.7 852.6 L 1269.8 852.6" id="172,71" style="" /><path d="M 685.7 841.8 L 685.7 831.1 L 1269.8 831.1" id="172,72" style="" /><path d="M 685.7 798.9 L 685.7 809.6 L 1075.1 809.6" id="173,73" style="" /><path d="M 685.7 798.9 L 685.7 788.2 L 1075.1 788.2" id="173,74" style="" /><path d="M 216.2 756.0 L 216.2 766.7 L 1224.0 766.7" id="176,75" style="" /><path d="M 216.2 756.0 L 216.2 745.2 L 1224.0 745.2" id="176,76" style="" /><path d="M 284.9 713.1 L 284.9 723.8 L 548.3 723.8" id="177,77" style="" /><path d="M 284.9 713.1 L 284.9 702.3 L 548.3 702.3" id="177,78" style="" /><path d="M 284.9 654.0 L 284.9 680.9 L 353.6 680.9" id="181,79" style="" /><path d="M 399.4 648.7 L 399.4 659.4 L 697.2 659.4" id="178,80" style="" /><path d="M 399.4 648.7 L 399.4 637.9 L 697.2 637.9" id="178,81" style="" /><path d="M 399.4 605.7 L 399.4 616.5 L 456.7 616.5" id="179,82" style="" /><path d="M 399.4 605.7 L 399.4 595.0 L 456.7 595.0" id="179,83" style="" /><path d="M 170.4 456.0 L 170.4 573.5 L 193.3 573.5" id="206,84" style="" /><path d="M 170.4 456.0 L 170.4 552.1 L 193.3 552.1" id="206,85" style="" /><path d="M 262.0 519.9 L 262.0 530.6 L 525.4 530.6" id="185,86" style="" /><path d="M 262.0 519.9 L 262.0 509.1 L 525.4 509.1" id="185,87" style="" /><path d="M 273.5 471.6 L 273.5 487.7 L 284.9 487.7" id="187,88" style="" /><path d="M 284.9 455.5 L 284.9 466.2 L 365.1 466.2" id="186,89" style="" /><path d="M 284.9 455.5 L 284.9 444.7 L 365.1 444.7" id="186,90" style="" /><path d="M 319.3 412.5 L 319.3 423.3 L 479.6 423.3" id="188,91" style="" /><path d="M 319.3 412.5 L 319.3 401.8 L 479.6 401.8" id="188,92" style="" /><path d="M 319.3 369.6 L 319.3 380.3 L 662.8 380.3" id="189,93" style="" /><path d="M 319.3 369.6 L 319.3 358.9 L 662.8 358.9" id="189,94" style="" /><path d="M 319.3 326.7 L 319.3 337.4 L 731.6 337.4" id="193,95" style="" /><path d="M 319.3 326.7 L 319.3 315.9 L 731.6 315.9" id="193,96" style="" /><path d="M 502.5 283.7 L 502.5 294.5 L 639.9 294.5" id="194,97" style="" /><path d="M 502.5 283.7 L 502.5 273.0 L 639.9 273.0" id="194,98" style="" /><path d="M 502.5 240.8 L 502.5 251.5 L 605.6 251.5" id="195,99" style="" /><path d="M 502.5 240.8 L 502.5 230.1 L 605.6 230.1" id="195,100" style="" /><path d="M 376.5 192.5 L 376.5 208.6 L 456.7 208.6" id="199,101" style="" /><path d="M 456.7 176.4 L 456.7 187.1 L 731.6 187.1" id="198,102" style="" /><path d="M 456.7 176.4 L 456.7 165.7 L 731.6 165.7" id="198,103" style="" /><path d="M 433.8 133.5 L 433.8 144.2 L 582.7 144.2" id="200,104" style="" /><path d="M 433.8 133.5 L 433.8 122.7 L 582.7 122.7" id="200,105" style="" /><path d="M 433.8 85.2 L 433.8 101.3 L 548.3 101.3" id="202,106" style="" /><path d="M 548.3 69.1 L 548.3 79.8 L 605.6 79.8" id="201,107" style="" /><path d="M 548.3 69.1 L 548.3 58.3 L 605.6 58.3" id="201,108" style="" /><path d="M 239.1 2332.4 L 239.1 2365.9 L 296.4 2365.9" id="114,109" style="" /><path d="M 296.4 2298.8 L 296.4 2323.0 L 353.6 2323.0" id="113,110" style="" /><path d="M 353.6 2274.7 L 353.6 2258.6 L 365.1 2258.6" id="112,111" style="" /><path d="M 296.4 2298.8 L 296.4 2274.7 L 353.6 2274.7" id="113,112" style="" /><path d="M 239.1 2332.4 L 239.1 2298.8 L 296.4 2298.8" id="114,113" style="" /><path d="M 158.9 2252.2 L 158.9 2332.4 L 239.1 2332.4" id="123,114" style="" /><path d="M 262.0 2210.3 L 262.0 2194.2 L 307.8 2194.2" id="116,115" style="" /><path d="M 239.1 2172.1 L 239.1 2210.3 L 262.0 2210.3" id="122,116" style="" /><path d="M 284.9 2105.7 L 284.9 2129.8 L 296.4 2129.8" id="120,117" style="" /><path d="M 296.4 2081.5 L 296.4 2065.4 L 342.2 2065.4" id="119,118" style="" /><path d="M 284.9 2105.7 L 284.9 2081.5 L 296.4 2081.5" id="120,119" style="" /><path d="M 262.0 2133.8 L 262.0 2105.7 L 284.9 2105.7" id="121,120" style="" /><path d="M 239.1 2172.1 L 239.1 2133.8 L 262.0 2133.8" id="122,121" style="" /><path d="M 158.9 2252.2 L 158.9 2172.1 L 239.1 2172.1" id="123,122" style="" /><path d="M 147.5 2057.0 L 147.5 2252.2 L 158.9 2252.2" id="150,123" style="" /><path d="M 284.9 2001.0 L 284.9 2022.5 L 342.2 2022.5" id="126,124" style="" /><path d="M 284.9 2001.0 L 284.9 1979.5 L 342.2 1979.5" id="126,125" style="" /><path d="M 193.3 1964.1 L 193.3 2001.0 L 284.9 2001.0" id="131,126" style="" /><path d="M 353.6 1888.3 L 353.6 1872.2 L 388.0 1872.2" id="128,127" style="" /><path d="M 342.2 1907.1 L 342.2 1888.3 L 353.6 1888.3" id="129,128" style="" /><path d="M 284.9 1927.2 L 284.9 1907.1 L 342.2 1907.1" id="130,129" style="" /><path d="M 193.3 1964.1 L 193.3 1927.2 L 284.9 1927.2" id="131,130" style="" /><path d="M 158.9 1861.7 L 158.9 1964.1 L 193.3 1964.1" id="149,131" style="" /><path d="M 239.1 1781.0 L 239.1 1764.9 L 365.1 1764.9" id="133,132" style="" /><path d="M 216.2 1799.8 L 216.2 1781.0 L 239.1 1781.0" id="134,133" style="" /><path d="M 204.8 1819.9 L 204.8 1799.8 L 216.2 1799.8" id="135,134" style="" /><path d="M 193.3 1759.3 L 193.3 1819.9 L 204.8 1819.9" id="148,135" style="" /><path d="M 227.7 1652.2 L 227.7 1679.0 L 239.1 1679.0" id="146,136" style="" /><path d="M 410.9 1480.5 L 410.9 1464.4 L 456.7 1464.4" id="138,137" style="" /><path d="M 388.0 1499.2 L 388.0 1480.5 L 410.9 1480.5" id="139,138" style="" /><path d="M 376.5 1519.4 L 376.5 1499.2 L 388.0 1499.2" id="140,139" style="" /><path d="M 296.4 1540.2 L 296.4 1519.4 L 376.5 1519.4" id="141,140" style="" /><path d="M 273.5 1561.3 L 273.5 1540.2 L 296.4 1540.2" id="142,141" style="" /><path d="M 262.0 1582.6 L 262.0 1561.3 L 273.5 1561.3" id="143,142" style="" /><path d="M 250.6 1604.0 L 250.6 1582.6 L 262.0 1582.6" id="144,143" style="" /><path d="M 239.1 1625.4 L 239.1 1604.0 L 250.6 1604.0" id="145,144" style="" /><path d="M 227.7 1652.2 L 227.7 1625.4 L 239.1 1625.4" id="146,145" style="" /><path d="M 204.8 1698.7 L 204.8 1652.2 L 227.7 1652.2" id="147,146" style="" /><path d="M 193.3 1759.3 L 193.3 1698.7 L 204.8 1698.7" id="148,147" style="" /><path d="M 158.9 1861.7 L 158.9 1759.3 L 193.3 1759.3" id="149,148" style="" /><path d="M 147.5 2057.0 L 147.5 1861.7 L 158.9 1861.7" id="150,149" style="" /><path d="M 55.9 1582.7 L 55.9 2057.0 L 147.5 2057.0" id="209,150" style="" /><path d="M 158.9 1344.1 L 158.9 1421.4 L 296.4 1421.4" id="161,151" style="" /><path d="M 296.4 1357.0 L 296.4 1378.5 L 342.2 1378.5" id="154,152" style="" /><path d="M 296.4 1357.0 L 296.4 1335.6 L 342.2 1335.6" id="154,153" style="" /><path d="M 158.9 1344.1 L 158.9 1357.0 L 296.4 1357.0" id="161,154" style="" /><path d="M 319.3 1287.3 L 319.3 1271.2 L 536.9 1271.2" id="156,155" style="" /><path d="M 296.4 1253.7 L 296.4 1287.3 L 319.3 1287.3" id="160,156" style="" /><path d="M 399.4 1201.4 L 399.4 1185.3 L 605.6 1185.3" id="158,157" style="" /><path d="M 319.3 1220.2 L 319.3 1201.4 L 399.4 1201.4" id="159,158" style="" /><path d="M 296.4 1253.7 L 296.4 1220.2 L 319.3 1220.2" id="160,159" style="" /><path d="M 158.9 1344.1 L 158.9 1253.7 L 296.4 1253.7" id="161,160" style="" /><path d="M 147.5 1108.5 L 147.5 1344.1 L 158.9 1344.1" id="208,161" style="" /><path d="M 158.9 872.9 L 158.9 1142.4 L 170.4 1142.4" id="207,162" style="" /><path d="M 410.9 1094.1 L 410.9 1078.0 L 559.8 1078.0" id="164,163" style="" /><path d="M 170.4 1059.9 L 170.4 1094.1 L 410.9 1094.1" id="169,164" style="" /><path d="M 571.2 986.7 L 571.2 970.6 L 674.3 970.6" id="166,165" style="" /><path d="M 491.1 1005.5 L 491.1 986.7 L 571.2 986.7" id="167,166" style="" /><path d="M 410.9 1025.6 L 410.9 1005.5 L 491.1 1005.5" id="168,167" style="" /><path d="M 170.4 1059.9 L 170.4 1025.6 L 410.9 1025.6" id="169,168" style="" /><path d="M 158.9 872.9 L 158.9 1059.9 L 170.4 1059.9" id="207,169" style="" /><path d="M 170.4 833.3 L 170.4 927.7 L 181.9 927.7" id="184,170" style="" /><path d="M 181.9 852.6 L 181.9 884.8 L 193.3 884.8" id="175,171" style="" /><path d="M 193.3 820.4 L 193.3 841.8 L 685.7 841.8" id="174,172" style="" /><path d="M 193.3 820.4 L 193.3 798.9 L 685.7 798.9" id="174,173" style="" /><path d="M 181.9 852.6 L 181.9 820.4 L 193.3 820.4" id="175,174" style="" /><path d="M 170.4 833.3 L 170.4 852.6 L 181.9 852.6" id="184,175" style="" /><path d="M 181.9 719.8 L 181.9 756.0 L 216.2 756.0" id="183,176" style="" /><path d="M 216.2 683.5 L 216.2 713.1 L 284.9 713.1" id="182,177" style="" /><path d="M 353.6 627.2 L 353.6 648.7 L 399.4 648.7" id="180,178" style="" /><path d="M 353.6 627.2 L 353.6 605.7 L 399.4 605.7" id="180,179" style="" /><path d="M 284.9 654.0 L 284.9 627.2 L 353.6 627.2" id="181,180" style="" /><path d="M 216.2 683.5 L 216.2 654.0 L 284.9 654.0" id="182,181" style="" /><path d="M 181.9 719.8 L 181.9 683.5 L 216.2 683.5" id="183,182" style="" /><path d="M 170.4 833.3 L 170.4 719.8 L 181.9 719.8" id="184,183" style="" /><path d="M 158.9 872.9 L 158.9 833.3 L 170.4 833.3" id="207,184" style="" /><path d="M 193.3 475.6 L 193.3 519.9 L 262.0 519.9" id="192,185" style="" /><path d="M 273.5 471.6 L 273.5 455.5 L 284.9 455.5" id="187,186" style="" /><path d="M 262.0 431.3 L 262.0 471.6 L 273.5 471.6" id="191,187" style="" /><path d="M 273.5 391.1 L 273.5 412.5 L 319.3 412.5" id="190,188" style="" /><path d="M 273.5 391.1 L 273.5 369.6 L 319.3 369.6" id="190,189" style="" /><path d="M 262.0 431.3 L 262.0 391.1 L 273.5 391.1" id="191,190" style="" /><path d="M 193.3 475.6 L 193.3 431.3 L 262.0 431.3" id="192,191" style="" /><path d="M 170.4 456.0 L 170.4 475.6 L 193.3 475.6" id="206,192" style="" /><path d="M 307.8 294.5 L 307.8 326.7 L 319.3 326.7" id="197,193" style="" /><path d="M 319.3 262.3 L 319.3 283.7 L 502.5 283.7" id="196,194" style="" /><path d="M 319.3 262.3 L 319.3 240.8 L 502.5 240.8" id="196,195" style="" /><path d="M 307.8 294.5 L 307.8 262.3 L 319.3 262.3" id="197,196" style="" /><path d="M 193.3 222.7 L 193.3 294.5 L 307.8 294.5" id="205,197" style="" /><path d="M 376.5 192.5 L 376.5 176.4 L 456.7 176.4" id="199,198" style="" /><path d="M 307.8 150.9 L 307.8 192.5 L 376.5 192.5" id="204,199" style="" /><path d="M 376.5 109.3 L 376.5 133.5 L 433.8 133.5" id="203,200" style="" /><path d="M 433.8 85.2 L 433.8 69.1 L 548.3 69.1" id="202,201" style="" /><path d="M 376.5 109.3 L 376.5 85.2 L 433.8 85.2" id="203,202" style="" /><path d="M 307.8 150.9 L 307.8 109.3 L 376.5 109.3" id="204,203" style="" /><path d="M 193.3 222.7 L 193.3 150.9 L 307.8 150.9" id="205,204" style="" /><path d="M 170.4 456.0 L 170.4 222.7 L 193.3 222.7" id="206,205" style="" /><path d="M 158.9 872.9 L 158.9 456.0 L 170.4 456.0" id="207,206" style="" /><path d="M 147.5 1108.5 L 147.5 872.9 L 158.9 872.9" id="208,207" style="" /><path d="M 55.9 1582.7 L 55.9 1108.5 L 147.5 1108.5" id="209,208" style="" /></g><g class="toytree-AlignEdges" style="stroke:rgb(66.0%,66.0%,66.0%);stroke-opacity:0.75;stroke-dasharray:2,4;stroke-linecap:round;stroke-width:2"><path d="M 1773.7 2376.7 L 410.9 2376.7" /><path d="M 1773.7 2355.2 L 410.9 2355.2" /><path d="M 1773.7 2333.7 L 376.5 2333.7" /><path d="M 1773.7 2312.3 L 376.5 2312.3" /><path d="M 1773.7 2290.8 L 365.1 2290.8" /><path d="M 1773.7 2269.3 L 399.4 2269.3" /><path d="M 1773.7 2247.9 L 399.4 2247.9" /><path d="M 1773.7 2226.4 L 307.8 2226.4" /><path d="M 1773.7 2204.9 L 479.6 2204.9" /><path d="M 1773.7 2183.5 L 479.6 2183.5" /><path d="M 1773.7 2162.0 L 284.9 2162.0" /><path d="M 1773.7 2140.5 L 388.0 2140.5" /><path d="M 1773.7 2119.1 L 388.0 2119.1" /><path d="M 1773.7 2097.6 L 342.2 2097.6" /><path d="M 1773.7 2076.1 L 468.2 2076.1" /><path d="M 1773.7 2054.7 L 468.2 2054.7" /><path d="M 1773.7 2033.2 L 514.0 2033.2" /><path d="M 1773.7 2011.7 L 514.0 2011.7" /><path d="M 1773.7 1990.3 L 502.5 1990.3" /><path d="M 1773.7 1968.8 L 502.5 1968.8" /><path d="M 1773.7 1947.3 L 342.2 1947.3" /><path d="M 1773.7 1925.9 L 353.6 1925.9" /><path d="M 1773.7 1904.4 L 388.0 1904.4" /><path d="M 1773.7 1882.9 L 502.5 1882.9" /><path d="M 1773.7 1861.5 L 502.5 1861.5" /><path d="M 1773.7 1840.0 L 216.2 1840.0" /><path d="M 1773.7 1818.5 L 239.1 1818.5" /><path d="M 1773.7 1797.1 L 365.1 1797.1" /><path d="M 1773.7 1775.6 L 559.8 1775.6" /><path d="M 1773.7 1754.1 L 559.8 1754.1" /><path d="M 1773.7 1732.7 L 227.7 1732.7" /><path d="M 1773.7 1711.2 L 227.7 1711.2" /><path d="M 1773.7 1689.8 L 353.6 1689.8" /><path d="M 1773.7 1668.3 L 353.6 1668.3" /><path d="M 1773.7 1646.8 L 250.6 1646.8" /><path d="M 1773.7 1625.4 L 262.0 1625.4" /><path d="M 1773.7 1603.9 L 273.5 1603.9" /><path d="M 1773.7 1582.4 L 296.4 1582.4" /><path d="M 1773.7 1561.0 L 376.5 1561.0" /><path d="M 1773.7 1539.5 L 388.0 1539.5" /><path d="M 1773.7 1518.0 L 410.9 1518.0" /><path d="M 1773.7 1496.6 L 456.7 1496.6" /><path d="M 1773.7 1475.1 L 662.8 1475.1" /><path d="M 1773.7 1453.6 L 662.8 1453.6" /><path d="M 1773.7 1432.2 L 365.1 1432.2" /><path d="M 1773.7 1410.7 L 365.1 1410.7" /><path d="M 1773.7 1389.2 L 548.3 1389.2" /><path d="M 1773.7 1367.8 L 548.3 1367.8" /><path d="M 1773.7 1346.3 L 765.9 1346.3" /><path d="M 1773.7 1324.8 L 765.9 1324.8" /><path d="M 1773.7 1303.4 L 536.9 1303.4" /><path d="M 1773.7 1281.9 L 651.4 1281.9" /><path d="M 1773.7 1260.4 L 651.4 1260.4" /><path d="M 1773.7 1239.0 L 399.4 1239.0" /><path d="M 1773.7 1217.5 L 605.6 1217.5" /><path d="M 1773.7 1196.0 L 788.8 1196.0" /><path d="M 1773.7 1174.6 L 788.8 1174.6" /><path d="M 1773.7 1153.1 L 697.2 1153.1" /><path d="M 1773.7 1131.6 L 697.2 1131.6" /><path d="M 1773.7 1110.2 L 559.8 1110.2" /><path d="M 1773.7 1088.7 L 1155.3 1088.7" /><path d="M 1773.7 1067.2 L 1155.3 1067.2" /><path d="M 1773.7 1045.8 L 491.1 1045.8" /><path d="M 1773.7 1024.3 L 571.2 1024.3" /><path d="M 1773.7 1002.8 L 674.3 1002.8" /><path d="M 1773.7 981.4 L 880.4 981.4" /><path d="M 1773.7 959.9 L 880.4 959.9" /><path d="M 1773.7 938.4 L 651.4 938.4" /><path d="M 1773.7 917.0 L 651.4 917.0" /><path d="M 1773.7 895.5 L 1773.7 895.5" /><path d="M 1773.7 874.0 L 1773.7 874.0" /><path d="M 1773.7 852.6 L 1269.8 852.6" /><path d="M 1773.7 831.1 L 1269.8 831.1" /><path d="M 1773.7 809.6 L 1075.1 809.6" /><path d="M 1773.7 788.2 L 1075.1 788.2" /><path d="M 1773.7 766.7 L 1224.0 766.7" /><path d="M 1773.7 745.2 L 1224.0 745.2" /><path d="M 1773.7 723.8 L 548.3 723.8" /><path d="M 1773.7 702.3 L 548.3 702.3" /><path d="M 1773.7 680.9 L 353.6 680.9" /><path d="M 1773.7 659.4 L 697.2 659.4" /><path d="M 1773.7 637.9 L 697.2 637.9" /><path d="M 1773.7 616.5 L 456.7 616.5" /><path d="M 1773.7 595.0 L 456.7 595.0" /><path d="M 1773.7 573.5 L 193.3 573.5" /><path d="M 1773.7 552.1 L 193.3 552.1" /><path d="M 1773.7 530.6 L 525.4 530.6" /><path d="M 1773.7 509.1 L 525.4 509.1" /><path d="M 1773.7 487.7 L 284.9 487.7" /><path d="M 1773.7 466.2 L 365.1 466.2" /><path d="M 1773.7 444.7 L 365.1 444.7" /><path d="M 1773.7 423.3 L 479.6 423.3" /><path d="M 1773.7 401.8 L 479.6 401.8" /><path d="M 1773.7 380.3 L 662.8 380.3" /><path d="M 1773.7 358.9 L 662.8 358.9" /><path d="M 1773.7 337.4 L 731.6 337.4" /><path d="M 1773.7 315.9 L 731.6 315.9" /><path d="M 1773.7 294.5 L 639.9 294.5" /><path d="M 1773.7 273.0 L 639.9 273.0" /><path d="M 1773.7 251.5 L 605.6 251.5" /><path d="M 1773.7 230.1 L 605.6 230.1" /><path d="M 1773.7 208.6 L 456.7 208.6" /><path d="M 1773.7 187.1 L 731.6 187.1" /><path d="M 1773.7 165.7 L 731.6 165.7" /><path d="M 1773.7 144.2 L 582.7 144.2" /><path d="M 1773.7 122.7 L 582.7 122.7" /><path d="M 1773.7 101.3 L 548.3 101.3" /><path d="M 1773.7 79.8 L 605.6 79.8" /><path d="M 1773.7 58.3 L 605.6 58.3" /></g><g class="toytree-AdmixEdges" style="fill:rgb(0.0%,0.0%,0.0%);fill-opacity:0.0;stroke:rgb(90.6%,54.1%,76.5%);stroke-opacity:0.6;font-size:14px;stroke-linecap:round;stroke-width:5" /><g class="toytree-Nodes" style="fill:rgb(0.0%,0.0%,0.0%);fill-opacity:1.0;stroke:none;stroke-width:1.5"><g id="Node-109" transform="translate(296.371,2365.93)"><rect x="-5.0" y="-2.5" width="10.0" height="5.0" /></g><g id="Node-110" transform="translate(353.632,2323)"><rect x="-5.0" y="-2.5" width="10.0" height="5.0" /></g><g id="Node-111" transform="translate(365.084,2258.6)"><rect x="-5.0" y="-2.5" width="10.0" height="5.0" /></g><g id="Node-112" transform="translate(353.632,2274.7)"><rect x="-5.0" y="-2.5" width="10.0" height="5.0" /></g><g id="Node-113" transform="translate(296.371,2298.85)"><rect x="-5.0" y="-2.5" width="10.0" height="5.0" /></g><g id="Node-114" transform="translate(239.111,2332.39)"><rect x="-5.0" y="-2.5" width="10.0" height="5.0" /></g><g id="Node-115" transform="translate(307.823,2194.2)"><rect x="-5.0" y="-2.5" width="10.0" height="5.0" /></g><g id="Node-116" transform="translate(262.015,2210.3)"><rect x="-5.0" y="-2.5" width="10.0" height="5.0" /></g><g id="Node-117" transform="translate(296.371,2129.8)"><rect x="-5.0" y="-2.5" width="10.0" height="5.0" /></g><g id="Node-118" transform="translate(342.18,2065.4)"><rect x="-5.0" y="-2.5" width="10.0" height="5.0" /></g><g id="Node-119" transform="translate(296.371,2081.5)"><rect x="-5.0" y="-2.5" width="10.0" height="5.0" /></g><g id="Node-120" transform="translate(284.919,2105.65)"><rect x="-5.0" y="-2.5" width="10.0" height="5.0" /></g><g id="Node-121" transform="translate(262.015,2133.83)"><rect x="-5.0" y="-2.5" width="10.0" height="5.0" /></g><g id="Node-122" transform="translate(239.111,2172.06)"><rect x="-5.0" y="-2.5" width="10.0" height="5.0" /></g><g id="Node-123" transform="translate(158.946,2252.22)"><rect x="-5.0" y="-2.5" width="10.0" height="5.0" /></g><g id="Node-124" transform="translate(342.18,2022.47)"><rect x="-5.0" y="-2.5" width="10.0" height="5.0" /></g><g id="Node-125" transform="translate(342.18,1979.54)"><rect x="-5.0" y="-2.5" width="10.0" height="5.0" /></g><g id="Node-126" transform="translate(284.919,2001.01)"><rect x="-5.0" y="-2.5" width="10.0" height="5.0" /></g><g id="Node-127" transform="translate(387.988,1872.21)"><rect x="-5.0" y="-2.5" width="10.0" height="5.0" /></g><g id="Node-128" transform="translate(353.632,1888.31)"><rect x="-5.0" y="-2.5" width="10.0" height="5.0" /></g><g id="Node-129" transform="translate(342.18,1907.09)"><rect x="-5.0" y="-2.5" width="10.0" height="5.0" /></g><g id="Node-130" transform="translate(284.919,1927.22)"><rect x="-5.0" y="-2.5" width="10.0" height="5.0" /></g><g id="Node-131" transform="translate(193.302,1964.11)"><rect x="-5.0" y="-2.5" width="10.0" height="5.0" /></g><g id="Node-132" transform="translate(365.084,1764.88)"><rect x="-5.0" y="-2.5" width="10.0" height="5.0" /></g><g id="Node-133" transform="translate(239.111,1780.98)"><rect x="-5.0" y="-2.5" width="10.0" height="5.0" /></g><g id="Node-134" transform="translate(216.206,1799.76)"><rect x="-5.0" y="-2.5" width="10.0" height="5.0" /></g><g id="Node-135" transform="translate(204.754,1819.89)"><rect x="-5.0" y="-2.5" width="10.0" height="5.0" /></g><g id="Node-136" transform="translate(239.111,1679.02)"><rect x="-5.0" y="-2.5" width="10.0" height="5.0" /></g><g id="Node-137" transform="translate(456.701,1464.36)"><rect x="-5.0" y="-2.5" width="10.0" height="5.0" /></g><g id="Node-138" transform="translate(410.892,1480.46)"><rect x="-5.0" y="-2.5" width="10.0" height="5.0" /></g><g id="Node-139" transform="translate(387.988,1499.24)"><rect x="-5.0" y="-2.5" width="10.0" height="5.0" /></g><g id="Node-140" transform="translate(376.536,1519.36)"><rect x="-5.0" y="-2.5" width="10.0" height="5.0" /></g><g id="Node-141" transform="translate(296.371,1540.16)"><rect x="-5.0" y="-2.5" width="10.0" height="5.0" /></g><g id="Node-142" transform="translate(273.467,1561.29)"><rect x="-5.0" y="-2.5" width="10.0" height="5.0" /></g><g id="Node-143" transform="translate(262.015,1582.59)"><rect x="-5.0" y="-2.5" width="10.0" height="5.0" /></g><g id="Node-144" transform="translate(250.563,1603.97)"><rect x="-5.0" y="-2.5" width="10.0" height="5.0" /></g><g id="Node-145" transform="translate(239.111,1625.39)"><rect x="-5.0" y="-2.5" width="10.0" height="5.0" /></g><g id="Node-146" transform="translate(227.658,1652.21)"><rect x="-5.0" y="-2.5" width="10.0" height="5.0" /></g><g id="Node-147" transform="translate(204.754,1698.7)"><rect x="-5.0" y="-2.5" width="10.0" height="5.0" /></g><g id="Node-148" transform="translate(193.302,1759.29)"><rect x="-5.0" y="-2.5" width="10.0" height="5.0" /></g><g id="Node-149" transform="translate(158.946,1861.7)"><rect x="-5.0" y="-2.5" width="10.0" height="5.0" /></g><g id="Node-150" transform="translate(147.494,2056.96)"><rect x="-5.0" y="-2.5" width="10.0" height="5.0" /></g><g id="Node-151" transform="translate(296.371,1421.43)"><rect x="-5.0" y="-2.5" width="10.0" height="5.0" /></g><g id="Node-152" transform="translate(342.18,1378.49)"><rect x="-5.0" y="-2.5" width="10.0" height="5.0" /></g><g id="Node-153" transform="translate(342.18,1335.56)"><rect x="-5.0" y="-2.5" width="10.0" height="5.0" /></g><g id="Node-154" transform="translate(296.371,1357.03)"><rect x="-5.0" y="-2.5" width="10.0" height="5.0" /></g><g id="Node-155" transform="translate(536.866,1271.16)"><rect x="-5.0" y="-2.5" width="10.0" height="5.0" /></g><g id="Node-156" transform="translate(319.275,1287.26)"><rect x="-5.0" y="-2.5" width="10.0" height="5.0" /></g><g id="Node-157" transform="translate(605.578,1185.3)"><rect x="-5.0" y="-2.5" width="10.0" height="5.0" /></g><g id="Node-158" transform="translate(399.44,1201.4)"><rect x="-5.0" y="-2.5" width="10.0" height="5.0" /></g><g id="Node-159" transform="translate(319.275,1220.18)"><rect x="-5.0" y="-2.5" width="10.0" height="5.0" /></g><g id="Node-160" transform="translate(296.371,1253.72)"><rect x="-5.0" y="-2.5" width="10.0" height="5.0" /></g><g id="Node-161" transform="translate(158.946,1344.06)"><rect x="-5.0" y="-2.5" width="10.0" height="5.0" /></g><g id="Node-162" transform="translate(170.398,1142.37)"><rect x="-5.0" y="-2.5" width="10.0" height="5.0" /></g><g id="Node-163" transform="translate(559.77,1077.97)"><rect x="-5.0" y="-2.5" width="10.0" height="5.0" /></g><g id="Node-164" transform="translate(410.892,1094.07)"><rect x="-5.0" y="-2.5" width="10.0" height="5.0" /></g><g id="Node-165" transform="translate(674.291,970.642)"><rect x="-5.0" y="-2.5" width="10.0" height="5.0" /></g><g id="Node-166" transform="translate(571.222,986.741)"><rect x="-5.0" y="-2.5" width="10.0" height="5.0" /></g><g id="Node-167" transform="translate(491.057,1005.52)"><rect x="-5.0" y="-2.5" width="10.0" height="5.0" /></g><g id="Node-168" transform="translate(410.892,1025.65)"><rect x="-5.0" y="-2.5" width="10.0" height="5.0" /></g><g id="Node-169" transform="translate(170.398,1059.86)"><rect x="-5.0" y="-2.5" width="10.0" height="5.0" /></g><g id="Node-170" transform="translate(181.85,927.71)"><rect x="-5.0" y="-2.5" width="10.0" height="5.0" /></g><g id="Node-171" transform="translate(193.302,884.778)"><rect x="-5.0" y="-2.5" width="10.0" height="5.0" /></g><g id="Node-172" transform="translate(685.743,841.846)"><rect x="-5.0" y="-2.5" width="10.0" height="5.0" /></g><g id="Node-173" transform="translate(685.743,798.914)"><rect x="-5.0" y="-2.5" width="10.0" height="5.0" /></g><g id="Node-174" transform="translate(193.302,820.38)"><rect x="-5.0" y="-2.5" width="10.0" height="5.0" /></g><g id="Node-175" transform="translate(181.85,852.579)"><rect x="-5.0" y="-2.5" width="10.0" height="5.0" /></g><g id="Node-176" transform="translate(216.206,755.983)"><rect x="-5.0" y="-2.5" width="10.0" height="5.0" /></g><g id="Node-177" transform="translate(284.919,713.051)"><rect x="-5.0" y="-2.5" width="10.0" height="5.0" /></g><g id="Node-178" transform="translate(399.44,648.653)"><rect x="-5.0" y="-2.5" width="10.0" height="5.0" /></g><g id="Node-179" transform="translate(399.44,605.721)"><rect x="-5.0" y="-2.5" width="10.0" height="5.0" /></g><g id="Node-180" transform="translate(353.632,627.187)"><rect x="-5.0" y="-2.5" width="10.0" height="5.0" /></g><g id="Node-181" transform="translate(284.919,654.019)"><rect x="-5.0" y="-2.5" width="10.0" height="5.0" /></g><g id="Node-182" transform="translate(216.206,683.535)"><rect x="-5.0" y="-2.5" width="10.0" height="5.0" /></g><g id="Node-183" transform="translate(181.85,719.759)"><rect x="-5.0" y="-2.5" width="10.0" height="5.0" /></g><g id="Node-184" transform="translate(170.398,833.349)"><rect x="-5.0" y="-2.5" width="10.0" height="5.0" /></g><g id="Node-185" transform="translate(262.015,519.857)"><rect x="-5.0" y="-2.5" width="10.0" height="5.0" /></g><g id="Node-186" transform="translate(284.919,455.46)"><rect x="-5.0" y="-2.5" width="10.0" height="5.0" /></g><g id="Node-187" transform="translate(273.467,471.559)"><rect x="-5.0" y="-2.5" width="10.0" height="5.0" /></g><g id="Node-188" transform="translate(319.275,412.528)"><rect x="-5.0" y="-2.5" width="10.0" height="5.0" /></g><g id="Node-189" transform="translate(319.275,369.596)"><rect x="-5.0" y="-2.5" width="10.0" height="5.0" /></g><g id="Node-190" transform="translate(273.467,391.062)"><rect x="-5.0" y="-2.5" width="10.0" height="5.0" /></g><g id="Node-191" transform="translate(262.015,431.31)"><rect x="-5.0" y="-2.5" width="10.0" height="5.0" /></g><g id="Node-192" transform="translate(193.302,475.584)"><rect x="-5.0" y="-2.5" width="10.0" height="5.0" /></g><g id="Node-193" transform="translate(319.275,326.664)"><rect x="-5.0" y="-2.5" width="10.0" height="5.0" /></g><g id="Node-194" transform="translate(502.509,283.732)"><rect x="-5.0" y="-2.5" width="10.0" height="5.0" /></g><g id="Node-195" transform="translate(502.509,240.8)"><rect x="-5.0" y="-2.5" width="10.0" height="5.0" /></g><g id="Node-196" transform="translate(319.275,262.266)"><rect x="-5.0" y="-2.5" width="10.0" height="5.0" /></g><g id="Node-197" transform="translate(307.823,294.465)"><rect x="-5.0" y="-2.5" width="10.0" height="5.0" /></g><g id="Node-198" transform="translate(456.701,176.403)"><rect x="-5.0" y="-2.5" width="10.0" height="5.0" /></g><g id="Node-199" transform="translate(376.536,192.502)"><rect x="-5.0" y="-2.5" width="10.0" height="5.0" /></g><g id="Node-200" transform="translate(433.797,133.471)"><rect x="-5.0" y="-2.5" width="10.0" height="5.0" /></g><g id="Node-201" transform="translate(548.318,69.073)"><rect x="-5.0" y="-2.5" width="10.0" height="5.0" /></g><g id="Node-202" transform="translate(433.797,85.1724)"><rect x="-5.0" y="-2.5" width="10.0" height="5.0" /></g><g id="Node-203" transform="translate(376.536,109.322)"><rect x="-5.0" y="-2.5" width="10.0" height="5.0" /></g><g id="Node-204" transform="translate(307.823,150.912)"><rect x="-5.0" y="-2.5" width="10.0" height="5.0" /></g><g id="Node-205" transform="translate(193.302,222.688)"><rect x="-5.0" y="-2.5" width="10.0" height="5.0" /></g><g id="Node-206" transform="translate(170.398,455.963)"><rect x="-5.0" y="-2.5" width="10.0" height="5.0" /></g><g id="Node-207" transform="translate(158.946,872.885)"><rect x="-5.0" y="-2.5" width="10.0" height="5.0" /></g><g id="Node-208" transform="translate(147.494,1108.47)"><rect x="-5.0" y="-2.5" width="10.0" height="5.0" /></g><g id="Node-209" transform="translate(55.8767,1582.72)"><rect x="-5.0" y="-2.5" width="10.0" height="5.0" /></g></g><g class="toytree-NodeLabels" style="font-family:Helvetica;font-size:9px;font-weight:300;vertical-align:baseline;white-space:pre;stroke:none"><g class="toytree-NodeLabel" transform="translate(296.371,2365.93)" /><g class="toytree-NodeLabel" transform="translate(353.632,2323)" /><g class="toytree-NodeLabel" transform="translate(365.084,2258.6)" /><g class="toytree-NodeLabel" transform="translate(353.632,2274.7)" /><g class="toytree-NodeLabel" transform="translate(296.371,2298.85)" /><g class="toytree-NodeLabel" transform="translate(239.111,2332.39)" /><g class="toytree-NodeLabel" transform="translate(307.823,2194.2)" /><g class="toytree-NodeLabel" transform="translate(262.015,2210.3)" /><g class="toytree-NodeLabel" transform="translate(296.371,2129.8)" /><g class="toytree-NodeLabel" transform="translate(342.18,2065.4)" /><g class="toytree-NodeLabel" transform="translate(296.371,2081.5)" /><g class="toytree-NodeLabel" transform="translate(284.919,2105.65)" /><g class="toytree-NodeLabel" transform="translate(262.015,2133.83)" /><g class="toytree-NodeLabel" transform="translate(239.111,2172.06)" /><g class="toytree-NodeLabel" transform="translate(158.946,2252.22)" /><g class="toytree-NodeLabel" transform="translate(342.18,2022.47)" /><g class="toytree-NodeLabel" transform="translate(342.18,1979.54)" /><g class="toytree-NodeLabel" transform="translate(284.919,2001.01)" /><g class="toytree-NodeLabel" transform="translate(387.988,1872.21)" /><g class="toytree-NodeLabel" transform="translate(353.632,1888.31)" /><g class="toytree-NodeLabel" transform="translate(342.18,1907.09)" /><g class="toytree-NodeLabel" transform="translate(284.919,1927.22)" /><g class="toytree-NodeLabel" transform="translate(193.302,1964.11)" /><g class="toytree-NodeLabel" transform="translate(365.084,1764.88)" /><g class="toytree-NodeLabel" transform="translate(239.111,1780.98)" /><g class="toytree-NodeLabel" transform="translate(216.206,1799.76)" /><g class="toytree-NodeLabel" transform="translate(204.754,1819.89)" /><g class="toytree-NodeLabel" transform="translate(239.111,1679.02)" /><g class="toytree-NodeLabel" transform="translate(456.701,1464.36)" /><g class="toytree-NodeLabel" transform="translate(410.892,1480.46)" /><g class="toytree-NodeLabel" transform="translate(387.988,1499.24)" /><g class="toytree-NodeLabel" transform="translate(376.536,1519.36)" /><g class="toytree-NodeLabel" transform="translate(296.371,1540.16)" /><g class="toytree-NodeLabel" transform="translate(273.467,1561.29)" /><g class="toytree-NodeLabel" transform="translate(262.015,1582.59)" /><g class="toytree-NodeLabel" transform="translate(250.563,1603.97)" /><g class="toytree-NodeLabel" transform="translate(239.111,1625.39)" /><g class="toytree-NodeLabel" transform="translate(227.658,1652.21)" /><g class="toytree-NodeLabel" transform="translate(204.754,1698.7)" /><g class="toytree-NodeLabel" transform="translate(193.302,1759.29)" /><g class="toytree-NodeLabel" transform="translate(158.946,1861.7)" /><g class="toytree-NodeLabel" transform="translate(147.494,2056.96)" /><g class="toytree-NodeLabel" transform="translate(296.371,1421.43)" /><g class="toytree-NodeLabel" transform="translate(342.18,1378.49)" /><g class="toytree-NodeLabel" transform="translate(342.18,1335.56)" /><g class="toytree-NodeLabel" transform="translate(296.371,1357.03)" /><g class="toytree-NodeLabel" transform="translate(536.866,1271.16)" /><g class="toytree-NodeLabel" transform="translate(319.275,1287.26)" /><g class="toytree-NodeLabel" transform="translate(605.578,1185.3)" /><g class="toytree-NodeLabel" transform="translate(399.44,1201.4)" /><g class="toytree-NodeLabel" transform="translate(319.275,1220.18)" /><g class="toytree-NodeLabel" transform="translate(296.371,1253.72)" /><g class="toytree-NodeLabel" transform="translate(158.946,1344.06)" /><g class="toytree-NodeLabel" transform="translate(170.398,1142.37)" /><g class="toytree-NodeLabel" transform="translate(559.77,1077.97)" /><g class="toytree-NodeLabel" transform="translate(410.892,1094.07)" /><g class="toytree-NodeLabel" transform="translate(674.291,970.642)" /><g class="toytree-NodeLabel" transform="translate(571.222,986.741)" /><g class="toytree-NodeLabel" transform="translate(491.057,1005.52)" /><g class="toytree-NodeLabel" transform="translate(410.892,1025.65)" /><g class="toytree-NodeLabel" transform="translate(170.398,1059.86)" /><g class="toytree-NodeLabel" transform="translate(181.85,927.71)" /><g class="toytree-NodeLabel" transform="translate(193.302,884.778)" /><g class="toytree-NodeLabel" transform="translate(685.743,841.846)" /><g class="toytree-NodeLabel" transform="translate(685.743,798.914)" /><g class="toytree-NodeLabel" transform="translate(193.302,820.38)" /><g class="toytree-NodeLabel" transform="translate(181.85,852.579)" /><g class="toytree-NodeLabel" transform="translate(216.206,755.983)" /><g class="toytree-NodeLabel" transform="translate(284.919,713.051)" /><g class="toytree-NodeLabel" transform="translate(399.44,648.653)" /><g class="toytree-NodeLabel" transform="translate(399.44,605.721)" /><g class="toytree-NodeLabel" transform="translate(353.632,627.187)" /><g class="toytree-NodeLabel" transform="translate(284.919,654.019)" /><g class="toytree-NodeLabel" transform="translate(216.206,683.535)" /><g class="toytree-NodeLabel" transform="translate(181.85,719.759)" /><g class="toytree-NodeLabel" transform="translate(170.398,833.349)" /><g class="toytree-NodeLabel" transform="translate(262.015,519.857)" /><g class="toytree-NodeLabel" transform="translate(284.919,455.46)" /><g class="toytree-NodeLabel" transform="translate(273.467,471.559)" /><g class="toytree-NodeLabel" transform="translate(319.275,412.528)" /><g class="toytree-NodeLabel" transform="translate(319.275,369.596)" /><g class="toytree-NodeLabel" transform="translate(273.467,391.062)" /><g class="toytree-NodeLabel" transform="translate(262.015,431.31)" /><g class="toytree-NodeLabel" transform="translate(193.302,475.584)" /><g class="toytree-NodeLabel" transform="translate(319.275,326.664)" /><g class="toytree-NodeLabel" transform="translate(502.509,283.732)" /><g class="toytree-NodeLabel" transform="translate(502.509,240.8)" /><g class="toytree-NodeLabel" transform="translate(319.275,262.266)" /><g class="toytree-NodeLabel" transform="translate(307.823,294.465)" /><g class="toytree-NodeLabel" transform="translate(456.701,176.403)" /><g class="toytree-NodeLabel" transform="translate(376.536,192.502)" /><g class="toytree-NodeLabel" transform="translate(433.797,133.471)" /><g class="toytree-NodeLabel" transform="translate(548.318,69.073)" /><g class="toytree-NodeLabel" transform="translate(433.797,85.1724)" /><g class="toytree-NodeLabel" transform="translate(376.536,109.322)" /><g class="toytree-NodeLabel" transform="translate(307.823,150.912)" /><g class="toytree-NodeLabel" transform="translate(193.302,222.688)" /><g class="toytree-NodeLabel" transform="translate(170.398,455.963)" /><g class="toytree-NodeLabel" transform="translate(158.946,872.885)" /><g class="toytree-NodeLabel" transform="translate(147.494,1108.47)" /><g class="toytree-NodeLabel" transform="translate(55.8767,1582.72)" /></g><g class="toytree-TipLabels" style="fill:rgb(14.5%,14.5%,14.5%);fill-opacity:1.0;font-family:Helvetica;font-size:14px;font-weight:300;vertical-align:baseline;white-space:pre;stroke:none"><g class="toytree-TipLabel" transform="translate(1773.69,2376.66)"><text x="15.0" y="3.577" style="fill:rgb(14.5%,14.5%,14.5%);fill-opacity:1.0">Kui</text></g><g class="toytree-TipLabel" transform="translate(1773.69,2355.19)"><text x="15.0" y="3.577" style="fill:rgb(14.5%,14.5%,14.5%);fill-opacity:1.0">Neu</text></g><g class="toytree-TipLabel" transform="translate(1773.69,2333.73)"><text x="15.0" y="3.577" style="fill:rgb(14.5%,14.5%,14.5%);fill-opacity:1.0">Bru</text></g><g class="toytree-TipLabel" transform="translate(1773.69,2312.26)"><text x="15.0" y="3.577" style="fill:rgb(14.5%,14.5%,14.5%);fill-opacity:1.0">BruVK</text></g><g class="toytree-TipLabel" transform="translate(1773.69,2290.8)"><text x="15.0" y="3.577" style="fill:rgb(14.5%,14.5%,14.5%);fill-opacity:1.0">So</text></g><g class="toytree-TipLabel" transform="translate(1773.69,2269.33)"><text x="15.0" y="3.577" style="fill:rgb(14.5%,14.5%,14.5%);fill-opacity:1.0">Mak</text></g><g class="toytree-TipLabel" transform="translate(1773.69,2247.86)"><text x="15.0" y="3.577" style="fill:rgb(14.5%,14.5%,14.5%);fill-opacity:1.0">Tri</text></g><g class="toytree-TipLabel" transform="translate(1773.69,2226.4)"><text x="15.0" y="3.577" style="fill:rgb(14.5%,14.5%,14.5%);fill-opacity:1.0">Dakkang</text></g><g class="toytree-TipLabel" transform="translate(1773.69,2204.93)"><text x="15.0" y="3.577" style="fill:rgb(14.5%,14.5%,14.5%);fill-opacity:1.0">Kantu</text></g><g class="toytree-TipLabel" transform="translate(1773.69,2183.47)"><text x="15.0" y="3.577" style="fill:rgb(14.5%,14.5%,14.5%);fill-opacity:1.0">Katu</text></g><g class="toytree-TipLabel" transform="translate(1773.69,2162)"><text x="15.0" y="3.577" style="fill:rgb(14.5%,14.5%,14.5%);fill-opacity:1.0">Lao-Katu</text></g><g class="toytree-TipLabel" transform="translate(1773.69,2140.53)"><text x="15.0" y="3.577" style="fill:rgb(14.5%,14.5%,14.5%);fill-opacity:1.0">Pakoh</text></g><g class="toytree-TipLabel" transform="translate(1773.69,2119.07)"><text x="15.0" y="3.577" style="fill:rgb(14.5%,14.5%,14.5%);fill-opacity:1.0">Taoih</text></g><g class="toytree-TipLabel" transform="translate(1773.69,2097.6)"><text x="15.0" y="3.577" style="fill:rgb(14.5%,14.5%,14.5%);fill-opacity:1.0">Nge</text></g><g class="toytree-TipLabel" transform="translate(1773.69,2076.14)"><text x="15.0" y="3.577" style="fill:rgb(14.5%,14.5%,14.5%);fill-opacity:1.0">Ong</text></g><g class="toytree-TipLabel" transform="translate(1773.69,2054.67)"><text x="15.0" y="3.577" style="fill:rgb(14.5%,14.5%,14.5%);fill-opacity:1.0">Taoi</text></g><g class="toytree-TipLabel" transform="translate(1773.69,2033.21)"><text x="15.0" y="3.577" style="fill:rgb(14.5%,14.5%,14.5%);fill-opacity:1.0">KahoChil</text></g><g class="toytree-TipLabel" transform="translate(1773.69,2011.74)"><text x="15.0" y="3.577" style="fill:rgb(14.5%,14.5%,14.5%);fill-opacity:1.0">Sre</text></g><g class="toytree-TipLabel" transform="translate(1773.69,1990.27)"><text x="15.0" y="3.577" style="fill:rgb(14.5%,14.5%,14.5%);fill-opacity:1.0">Ma1</text></g><g class="toytree-TipLabel" transform="translate(1773.69,1968.81)"><text x="15.0" y="3.577" style="fill:rgb(14.5%,14.5%,14.5%);fill-opacity:1.0">Ma2</text></g><g class="toytree-TipLabel" transform="translate(1773.69,1947.34)"><text x="15.0" y="3.577" style="fill:rgb(14.5%,14.5%,14.5%);fill-opacity:1.0">Chrau</text></g><g class="toytree-TipLabel" transform="translate(1773.69,1925.88)"><text x="15.0" y="3.577" style="fill:rgb(14.5%,14.5%,14.5%);fill-opacity:1.0">Stieng</text></g><g class="toytree-TipLabel" transform="translate(1773.69,1904.41)"><text x="15.0" y="3.577" style="fill:rgb(14.5%,14.5%,14.5%);fill-opacity:1.0">M.Rolom</text></g><g class="toytree-TipLabel" transform="translate(1773.69,1882.94)"><text x="15.0" y="3.577" style="fill:rgb(14.5%,14.5%,14.5%);fill-opacity:1.0">M.Bunong</text></g><g class="toytree-TipLabel" transform="translate(1773.69,1861.48)"><text x="15.0" y="3.577" style="fill:rgb(14.5%,14.5%,14.5%);fill-opacity:1.0">M.Dip</text></g><g class="toytree-TipLabel" transform="translate(1773.69,1840.01)"><text x="15.0" y="3.577" style="fill:rgb(14.5%,14.5%,14.5%);fill-opacity:1.0">Arak</text></g><g class="toytree-TipLabel" transform="translate(1773.69,1818.55)"><text x="15.0" y="3.577" style="fill:rgb(14.5%,14.5%,14.5%);fill-opacity:1.0">Tariang</text></g><g class="toytree-TipLabel" transform="translate(1773.69,1797.08)"><text x="15.0" y="3.577" style="fill:rgb(14.5%,14.5%,14.5%);fill-opacity:1.0">Oy</text></g><g class="toytree-TipLabel" transform="translate(1773.69,1775.61)"><text x="15.0" y="3.577" style="fill:rgb(14.5%,14.5%,14.5%);fill-opacity:1.0">Jru</text></g><g class="toytree-TipLabel" transform="translate(1773.69,1754.15)"><text x="15.0" y="3.577" style="fill:rgb(14.5%,14.5%,14.5%);fill-opacity:1.0">Nhaheun</text></g><g class="toytree-TipLabel" transform="translate(1773.69,1732.68)"><text x="15.0" y="3.577" style="fill:rgb(14.5%,14.5%,14.5%);fill-opacity:1.0">Kor_Cua</text></g><g class="toytree-TipLabel" transform="translate(1773.69,1711.22)"><text x="15.0" y="3.577" style="fill:rgb(14.5%,14.5%,14.5%);fill-opacity:1.0">Tempuan</text></g><g class="toytree-TipLabel" transform="translate(1773.69,1689.75)"><text x="15.0" y="3.577" style="fill:rgb(14.5%,14.5%,14.5%);fill-opacity:1.0">Je</text></g><g class="toytree-TipLabel" transform="translate(1773.69,1668.28)"><text x="15.0" y="3.577" style="fill:rgb(14.5%,14.5%,14.5%);fill-opacity:1.0">Veh</text></g><g class="toytree-TipLabel" transform="translate(1773.69,1646.82)"><text x="15.0" y="3.577" style="fill:rgb(14.5%,14.5%,14.5%);fill-opacity:1.0">Bahnar</text></g><g class="toytree-TipLabel" transform="translate(1773.69,1625.35)"><text x="15.0" y="3.577" style="fill:rgb(14.5%,14.5%,14.5%);fill-opacity:1.0">Jeh</text></g><g class="toytree-TipLabel" transform="translate(1773.69,1603.89)"><text x="15.0" y="3.577" style="fill:rgb(14.5%,14.5%,14.5%);fill-opacity:1.0">Halang</text></g><g class="toytree-TipLabel" transform="translate(1773.69,1582.42)"><text x="15.0" y="3.577" style="fill:rgb(14.5%,14.5%,14.5%);fill-opacity:1.0">Panong</text></g><g class="toytree-TipLabel" transform="translate(1773.69,1560.95)"><text x="15.0" y="3.577" style="fill:rgb(14.5%,14.5%,14.5%);fill-opacity:1.0">Hre</text></g><g class="toytree-TipLabel" transform="translate(1773.69,1539.49)"><text x="15.0" y="3.577" style="fill:rgb(14.5%,14.5%,14.5%);fill-opacity:1.0">Rengao</text></g><g class="toytree-TipLabel" transform="translate(1773.69,1518.02)"><text x="15.0" y="3.577" style="fill:rgb(14.5%,14.5%,14.5%);fill-opacity:1.0">Didra</text></g><g class="toytree-TipLabel" transform="translate(1773.69,1496.56)"><text x="15.0" y="3.577" style="fill:rgb(14.5%,14.5%,14.5%);fill-opacity:1.0">Sedang</text></g><g class="toytree-TipLabel" transform="translate(1773.69,1475.09)"><text x="15.0" y="3.577" style="fill:rgb(14.5%,14.5%,14.5%);fill-opacity:1.0">Hadang</text></g><g class="toytree-TipLabel" transform="translate(1773.69,1453.63)"><text x="15.0" y="3.577" style="fill:rgb(14.5%,14.5%,14.5%);fill-opacity:1.0">Kadong</text></g><g class="toytree-TipLabel" transform="translate(1773.69,1432.16)"><text x="15.0" y="3.577" style="fill:rgb(14.5%,14.5%,14.5%);fill-opacity:1.0">Arem</text></g><g class="toytree-TipLabel" transform="translate(1773.69,1410.69)"><text x="15.0" y="3.577" style="fill:rgb(14.5%,14.5%,14.5%);fill-opacity:1.0">Ruc</text></g><g class="toytree-TipLabel" transform="translate(1773.69,1389.23)"><text x="15.0" y="3.577" style="fill:rgb(14.5%,14.5%,14.5%);fill-opacity:1.0">KhaPhong</text></g><g class="toytree-TipLabel" transform="translate(1773.69,1367.76)"><text x="15.0" y="3.577" style="fill:rgb(14.5%,14.5%,14.5%);fill-opacity:1.0">Malieng</text></g><g class="toytree-TipLabel" transform="translate(1773.69,1346.3)"><text x="15.0" y="3.577" style="fill:rgb(14.5%,14.5%,14.5%);fill-opacity:1.0">Thavung</text></g><g class="toytree-TipLabel" transform="translate(1773.69,1324.83)"><text x="15.0" y="3.577" style="fill:rgb(14.5%,14.5%,14.5%);fill-opacity:1.0">ThavungSo</text></g><g class="toytree-TipLabel" transform="translate(1773.69,1303.36)"><text x="15.0" y="3.577" style="fill:rgb(14.5%,14.5%,14.5%);fill-opacity:1.0">Vietnamese</text></g><g class="toytree-TipLabel" transform="translate(1773.69,1281.9)"><text x="15.0" y="3.577" style="fill:rgb(14.5%,14.5%,14.5%);fill-opacity:1.0">MuongKoi</text></g><g class="toytree-TipLabel" transform="translate(1773.69,1260.43)"><text x="15.0" y="3.577" style="fill:rgb(14.5%,14.5%,14.5%);fill-opacity:1.0">ThoMon</text></g><g class="toytree-TipLabel" transform="translate(1773.69,1238.97)"><text x="15.0" y="3.577" style="fill:rgb(14.5%,14.5%,14.5%);fill-opacity:1.0">Cuoi</text></g><g class="toytree-TipLabel" transform="translate(1773.69,1217.5)"><text x="15.0" y="3.577" style="fill:rgb(14.5%,14.5%,14.5%);fill-opacity:1.0">Liha</text></g><g class="toytree-TipLabel" transform="translate(1773.69,1196.03)"><text x="15.0" y="3.577" style="fill:rgb(14.5%,14.5%,14.5%);fill-opacity:1.0">Phong_V_</text></g><g class="toytree-TipLabel" transform="translate(1773.69,1174.57)"><text x="15.0" y="3.577" style="fill:rgb(14.5%,14.5%,14.5%);fill-opacity:1.0">Tuum</text></g><g class="toytree-TipLabel" transform="translate(1773.69,1153.1)"><text x="15.0" y="3.577" style="fill:rgb(14.5%,14.5%,14.5%);fill-opacity:1.0">Bugan</text></g><g class="toytree-TipLabel" transform="translate(1773.69,1131.64)"><text x="15.0" y="3.577" style="fill:rgb(14.5%,14.5%,14.5%);fill-opacity:1.0">Paliu</text></g><g class="toytree-TipLabel" transform="translate(1773.69,1110.17)"><text x="15.0" y="3.577" style="fill:rgb(14.5%,14.5%,14.5%);fill-opacity:1.0">Korku</text></g><g class="toytree-TipLabel" transform="translate(1773.69,1088.7)"><text x="15.0" y="3.577" style="fill:rgb(14.5%,14.5%,14.5%);fill-opacity:1.0">Mundari</text></g><g class="toytree-TipLabel" transform="translate(1773.69,1067.24)"><text x="15.0" y="3.577" style="fill:rgb(14.5%,14.5%,14.5%);fill-opacity:1.0">Santali</text></g><g class="toytree-TipLabel" transform="translate(1773.69,1045.77)"><text x="15.0" y="3.577" style="fill:rgb(14.5%,14.5%,14.5%);fill-opacity:1.0">Juang</text></g><g class="toytree-TipLabel" transform="translate(1773.69,1024.31)"><text x="15.0" y="3.577" style="fill:rgb(14.5%,14.5%,14.5%);fill-opacity:1.0">Bonda</text></g><g class="toytree-TipLabel" transform="translate(1773.69,1002.84)"><text x="15.0" y="3.577" style="fill:rgb(14.5%,14.5%,14.5%);fill-opacity:1.0">Kharia</text></g><g class="toytree-TipLabel" transform="translate(1773.69,981.375)"><text x="15.0" y="3.577" style="fill:rgb(14.5%,14.5%,14.5%);fill-opacity:1.0">Parengi</text></g><g class="toytree-TipLabel" transform="translate(1773.69,959.909)"><text x="15.0" y="3.577" style="fill:rgb(14.5%,14.5%,14.5%);fill-opacity:1.0">Sora</text></g><g class="toytree-TipLabel" transform="translate(1773.69,938.443)"><text x="15.0" y="3.577" style="fill:rgb(14.5%,14.5%,14.5%);fill-opacity:1.0">Mon</text></g><g class="toytree-TipLabel" transform="translate(1773.69,916.977)"><text x="15.0" y="3.577" style="fill:rgb(14.5%,14.5%,14.5%);fill-opacity:1.0">Nyakur</text></g><g class="toytree-TipLabel" transform="translate(1773.69,895.511)"><text x="15.0" y="3.577" style="fill:rgb(14.5%,14.5%,14.5%);fill-opacity:1.0">K.Surin</text></g><g class="toytree-TipLabel" transform="translate(1773.69,874.045)"><text x="15.0" y="3.577" style="fill:rgb(14.5%,14.5%,14.5%);fill-opacity:1.0">Khmer</text></g><g class="toytree-TipLabel" transform="translate(1773.69,852.579)"><text x="15.0" y="3.577" style="fill:rgb(14.5%,14.5%,14.5%);fill-opacity:1.0">Chong</text></g><g class="toytree-TipLabel" transform="translate(1773.69,831.113)"><text x="15.0" y="3.577" style="fill:rgb(14.5%,14.5%,14.5%);fill-opacity:1.0">Chong-H</text></g><g class="toytree-TipLabel" transform="translate(1773.69,809.647)"><text x="15.0" y="3.577" style="fill:rgb(14.5%,14.5%,14.5%);fill-opacity:1.0">Kasong</text></g><g class="toytree-TipLabel" transform="translate(1773.69,788.181)"><text x="15.0" y="3.577" style="fill:rgb(14.5%,14.5%,14.5%);fill-opacity:1.0">Samre</text></g><g class="toytree-TipLabel" transform="translate(1773.69,766.716)"><text x="15.0" y="3.577" style="fill:rgb(14.5%,14.5%,14.5%);fill-opacity:1.0">Car</text></g><g class="toytree-TipLabel" transform="translate(1773.69,745.25)"><text x="15.0" y="3.577" style="fill:rgb(14.5%,14.5%,14.5%);fill-opacity:1.0">Nancawri</text></g><g class="toytree-TipLabel" transform="translate(1773.69,723.784)"><text x="15.0" y="3.577" style="fill:rgb(14.5%,14.5%,14.5%);fill-opacity:1.0">Semelai</text></g><g class="toytree-TipLabel" transform="translate(1773.69,702.318)"><text x="15.0" y="3.577" style="fill:rgb(14.5%,14.5%,14.5%);fill-opacity:1.0">SemoqBeri</text></g><g class="toytree-TipLabel" transform="translate(1773.69,680.852)"><text x="15.0" y="3.577" style="fill:rgb(14.5%,14.5%,14.5%);fill-opacity:1.0">Jah-Hut</text></g><g class="toytree-TipLabel" transform="translate(1773.69,659.386)"><text x="15.0" y="3.577" style="fill:rgb(14.5%,14.5%,14.5%);fill-opacity:1.0">Jahai</text></g><g class="toytree-TipLabel" transform="translate(1773.69,637.92)"><text x="15.0" y="3.577" style="fill:rgb(14.5%,14.5%,14.5%);fill-opacity:1.0">Kensiw</text></g><g class="toytree-TipLabel" transform="translate(1773.69,616.454)"><text x="15.0" y="3.577" style="fill:rgb(14.5%,14.5%,14.5%);fill-opacity:1.0">Semai</text></g><g class="toytree-TipLabel" transform="translate(1773.69,594.988)"><text x="15.0" y="3.577" style="fill:rgb(14.5%,14.5%,14.5%);fill-opacity:1.0">Temiar</text></g><g class="toytree-TipLabel" transform="translate(1773.69,573.522)"><text x="15.0" y="3.577" style="fill:rgb(14.5%,14.5%,14.5%);fill-opacity:1.0">Khasi</text></g><g class="toytree-TipLabel" transform="translate(1773.69,552.056)"><text x="15.0" y="3.577" style="fill:rgb(14.5%,14.5%,14.5%);fill-opacity:1.0">Mang</text></g><g class="toytree-TipLabel" transform="translate(1773.69,530.59)"><text x="15.0" y="3.577" style="fill:rgb(14.5%,14.5%,14.5%);fill-opacity:1.0">Iduh</text></g><g class="toytree-TipLabel" transform="translate(1773.69,509.124)"><text x="15.0" y="3.577" style="fill:rgb(14.5%,14.5%,14.5%);fill-opacity:1.0">Phong</text></g><g class="toytree-TipLabel" transform="translate(1773.69,487.659)"><text x="15.0" y="3.577" style="fill:rgb(14.5%,14.5%,14.5%);fill-opacity:1.0">Khmu</text></g><g class="toytree-TipLabel" transform="translate(1773.69,466.193)"><text x="15.0" y="3.577" style="fill:rgb(14.5%,14.5%,14.5%);fill-opacity:1.0">Mlabri</text></g><g class="toytree-TipLabel" transform="translate(1773.69,444.727)"><text x="15.0" y="3.577" style="fill:rgb(14.5%,14.5%,14.5%);fill-opacity:1.0">Pray</text></g><g class="toytree-TipLabel" transform="translate(1773.69,423.261)"><text x="15.0" y="3.577" style="fill:rgb(14.5%,14.5%,14.5%);fill-opacity:1.0">Bit</text></g><g class="toytree-TipLabel" transform="translate(1773.69,401.795)"><text x="15.0" y="3.577" style="fill:rgb(14.5%,14.5%,14.5%);fill-opacity:1.0">Khang</text></g><g class="toytree-TipLabel" transform="translate(1773.69,380.329)"><text x="15.0" y="3.577" style="fill:rgb(14.5%,14.5%,14.5%);fill-opacity:1.0">Ksinmul</text></g><g class="toytree-TipLabel" transform="translate(1773.69,358.863)"><text x="15.0" y="3.577" style="fill:rgb(14.5%,14.5%,14.5%);fill-opacity:1.0">KxinhMul</text></g><g class="toytree-TipLabel" transform="translate(1773.69,337.397)"><text x="15.0" y="3.577" style="fill:rgb(14.5%,14.5%,14.5%);fill-opacity:1.0">De'ang</text></g><g class="toytree-TipLabel" transform="translate(1773.69,315.931)"><text x="15.0" y="3.577" style="fill:rgb(14.5%,14.5%,14.5%);fill-opacity:1.0">Rumai</text></g><g class="toytree-TipLabel" transform="translate(1773.69,294.465)"><text x="15.0" y="3.577" style="fill:rgb(14.5%,14.5%,14.5%);fill-opacity:1.0">Man'e</text></g><g class="toytree-TipLabel" transform="translate(1773.69,272.999)"><text x="15.0" y="3.577" style="fill:rgb(14.5%,14.5%,14.5%);fill-opacity:1.0">Plang</text></g><g class="toytree-TipLabel" transform="translate(1773.69,251.533)"><text x="15.0" y="3.577" style="fill:rgb(14.5%,14.5%,14.5%);fill-opacity:1.0">Guanshuang</text></g><g class="toytree-TipLabel" transform="translate(1773.69,230.067)"><text x="15.0" y="3.577" style="fill:rgb(14.5%,14.5%,14.5%);fill-opacity:1.0">Wa</text></g><g class="toytree-TipLabel" transform="translate(1773.69,208.601)"><text x="15.0" y="3.577" style="fill:rgb(14.5%,14.5%,14.5%);fill-opacity:1.0">Hu</text></g><g class="toytree-TipLabel" transform="translate(1773.69,187.136)"><text x="15.0" y="3.577" style="fill:rgb(14.5%,14.5%,14.5%);fill-opacity:1.0">Khamet</text></g><g class="toytree-TipLabel" transform="translate(1773.69,165.67)"><text x="15.0" y="3.577" style="fill:rgb(14.5%,14.5%,14.5%);fill-opacity:1.0">Khme</text></g><g class="toytree-TipLabel" transform="translate(1773.69,144.204)"><text x="15.0" y="3.577" style="fill:rgb(14.5%,14.5%,14.5%);fill-opacity:1.0">Gantang</text></g><g class="toytree-TipLabel" transform="translate(1773.69,122.738)"><text x="15.0" y="3.577" style="fill:rgb(14.5%,14.5%,14.5%);fill-opacity:1.0">Yongde</text></g><g class="toytree-TipLabel" transform="translate(1773.69,101.272)"><text x="15.0" y="3.577" style="fill:rgb(14.5%,14.5%,14.5%);fill-opacity:1.0">Pangpin</text></g><g class="toytree-TipLabel" transform="translate(1773.69,79.8059)"><text x="15.0" y="3.577" style="fill:rgb(14.5%,14.5%,14.5%);fill-opacity:1.0">Mang'an</text></g><g class="toytree-TipLabel" transform="translate(1773.69,58.34)"><text x="15.0" y="3.577" style="fill:rgb(14.5%,14.5%,14.5%);fill-opacity:1.0">Shuangdiang</text></g></g></g></g></g></svg>