<svg class="toyplot-canvas-Canvas" xmlns:toyplot="http://www.sandia.gov/toyplot" xmlns:xlink="http://www.w3.org/1999/xlink" xmlns="http://www.w3.org/2000/svg" width="2000.0px" height="1100.0px" viewBox="0 0 2000.0 1100.0" preserveAspectRatio="xMidYMid meet" style="background-color:transparent;border-color:#292724;border-style:none;border-width:1.0;fill:rgb(16.1%,15.3%,14.1%);fill-opacity:1.0;font-family:Helvetica;font-size:12px;opacity:1.0;stroke:rgb(16.1%,15.3%,14.1%);stroke-opacity:1.0;stroke-width:1.0" id="tc32a2a36768347a0bb7c81b33b300101"><g class="toyplot-coordinates-Cartesian" id="t39e5bdc174bb4c87bfcbdd11d60a9433"><clipPath id="tbf6d80552c6d4c35a953c212afa01b3f"><rect x="35.0" y="35.0" width="1930.0" height="1030.0" /></clipPath><g clip-path="url(#tbf6d80552c6d4c35a953c212afa01b3f)"><g class="toytree-mark-Toytree" id="te5986ea5621d421cbb20091dc9d451b4"><g class="toytree-Edges" style="stroke:rgb(14.5%,14.5%,14.5%);stroke-opacity:1.0;stroke-linecap:round;stroke-width:2.0;fill:none"><path d="M 387.2 895.1 L 387.2 1041.7 L 497.7 1041.7" id="27,0" style="" /><path d="M 497.7 944.7 L 497.7 990.0 L 534.5 990.0" id="22,1" style="" /><path d="M 534.5 899.4 L 534.5 938.2 L 571.4 938.2" id="21,2" style="" /><path d="M 571.4 860.6 L 571.4 886.5 L 608.2 886.5" id="20,3" style="" /><path d="M 571.4 860.6 L 571.4 834.7 L 608.2 834.7" id="20,4" style="" /><path d="M 534.5 757.0 L 534.5 782.9 L 755.5 782.9" id="23,5" style="" /><path d="M 534.5 757.0 L 534.5 731.2 L 755.5 731.2" id="23,6" style="" /><path d="M 534.5 640.6 L 534.5 679.4 L 571.4 679.4" id="25,7" style="" /><path d="M 571.4 601.8 L 571.4 627.6 L 866.0 627.6" id="24,8" style="" /><path d="M 571.4 601.8 L 571.4 575.9 L 866.0 575.9" id="24,9" style="" /><path d="M 497.7 485.3 L 497.7 524.1 L 792.3 524.1" id="29,10" style="" /><path d="M 792.3 446.5 L 792.3 472.4 L 1749.8 472.4" id="28,11" style="" /><path d="M 792.3 446.5 L 792.3 420.6 L 1749.8 420.6" id="28,12" style="" /><path d="M 571.4 330.0 L 571.4 368.8 L 645.0 368.8" id="31,13" style="" /><path d="M 645.0 291.2 L 645.0 317.1 L 718.7 317.1" id="30,14" style="" /><path d="M 645.0 291.2 L 645.0 265.3 L 718.7 265.3" id="30,15" style="" /><path d="M 718.7 187.7 L 718.7 213.5 L 755.5 213.5" id="32,16" style="" /><path d="M 718.7 187.7 L 718.7 161.8 L 755.5 161.8" id="32,17" style="" /><path d="M 718.7 84.1 L 718.7 110.0 L 939.6 110.0" id="33,18" style="" /><path d="M 718.7 84.1 L 718.7 58.3 L 939.6 58.3" id="33,19" style="" /><path d="M 534.5 899.4 L 534.5 860.6 L 571.4 860.6" id="21,20" style="" /><path d="M 497.7 944.7 L 497.7 899.4 L 534.5 899.4" id="22,21" style="" /><path d="M 387.2 895.1 L 387.2 944.7 L 497.7 944.7" id="27,22" style="" /><path d="M 497.7 698.8 L 497.7 757.0 L 534.5 757.0" id="26,23" style="" /><path d="M 534.5 640.6 L 534.5 601.8 L 571.4 601.8" id="25,24" style="" /><path d="M 497.7 698.8 L 497.7 640.6 L 534.5 640.6" id="26,25" style="" /><path d="M 387.2 895.1 L 387.2 698.8 L 497.7 698.8" id="27,26" style="" /><path d="M 55.8 627.1 L 55.8 895.1 L 387.2 895.1" id="37,27" style="" /><path d="M 497.7 485.3 L 497.7 446.5 L 792.3 446.5" id="29,28" style="" /><path d="M 387.2 359.1 L 387.2 485.3 L 497.7 485.3" id="36,29" style="" /><path d="M 571.4 330.0 L 571.4 291.2 L 645.0 291.2" id="31,30" style="" /><path d="M 497.7 233.0 L 497.7 330.0 L 571.4 330.0" id="35,31" style="" /><path d="M 571.4 135.9 L 571.4 187.7 L 718.7 187.7" id="34,32" style="" /><path d="M 571.4 135.9 L 571.4 84.1 L 718.7 84.1" id="34,33" style="" /><path d="M 497.7 233.0 L 497.7 135.9 L 571.4 135.9" id="35,34" style="" /><path d="M 387.2 359.1 L 387.2 233.0 L 497.7 233.0" id="36,35" style="" /><path d="M 55.8 627.1 L 55.8 359.1 L 387.2 359.1" id="37,36" style="" /></g><g class="toytree-AlignEdges" style="stroke:rgb(66.0%,66.0%,66.0%);stroke-opacity:0.75;stroke-dasharray:2,4;stroke-linecap:round;stroke-width:2"><path d="M 1749.8 1041.7 L 497.7 1041.7" /><path d="M 1749.8 990.0 L 534.5 990.0" /><path d="M 1749.8 938.2 L 571.4 938.2" /><path d="M 1749.8 886.5 L 608.2 886.5" /><path d="M 1749.8 834.7 L 608.2 834.7" /><path d="M 1749.8 782.9 L 755.5 782.9" /><path d="M 1749.8 731.2 L 755.5 731.2" /><path d="M 1749.8 679.4 L 571.4 679.4" /><path d="M 1749.8 627.6 L 866.0 627.6" /><path d="M 1749.8 575.9 L 866.0 575.9" /><path d="M 1749.8 524.1 L 792.3 524.1" /><path d="M 1749.8 472.4 L 1749.8 472.4" /><path d="M 1749.8 420.6 L 1749.8 420.6" /><path d="M 1749.8 368.8 L 645.0 368.8" /><path d="M 1749.8 317.1 L 718.7 317.1" /><path d="M 1749.8 265.3 L 718.7 265.3" /><path d="M 1749.8 213.5 L 755.5 213.5" /><path d="M 1749.8 161.8 L 755.5 161.8" /><path d="M 1749.8 110.0 L 939.6 110.0" /><path d="M 1749.8 58.3 L 939.6 58.3" /></g><g class="toytree-AdmixEdges" style="fill:rgb(0.0%,0.0%,0.0%);fill-opacity:0.0;stroke:rgb(90.6%,54.1%,76.5%);stroke-opacity:0.6;font-size:14px;stroke-linecap:round;stroke-width:5" /><g class="toytree-Nodes" style="fill:rgb(0.0%,0.0%,0.0%);fill-opacity:1.0;stroke:none;stroke-width:1.5"><g id="Node-20" transform="translate(571.362,860.572)"><rect x="-5.0" y="-2.5" width="10.0" height="5.0" /></g><g id="Node-21" transform="translate(534.536,899.393)"><rect x="-5.0" y="-2.5" width="10.0" height="5.0" /></g><g id="Node-22" transform="translate(497.71,944.685)"><rect x="-5.0" y="-2.5" width="10.0" height="5.0" /></g><g id="Node-23" transform="translate(534.536,757.048)"><rect x="-5.0" y="-2.5" width="10.0" height="5.0" /></g><g id="Node-24" transform="translate(571.362,601.762)"><rect x="-5.0" y="-2.5" width="10.0" height="5.0" /></g><g id="Node-25" transform="translate(534.536,640.583)"><rect x="-5.0" y="-2.5" width="10.0" height="5.0" /></g><g id="Node-26" transform="translate(497.71,698.816)"><rect x="-5.0" y="-2.5" width="10.0" height="5.0" /></g><g id="Node-27" transform="translate(387.231,895.08)"><rect x="-5.0" y="-2.5" width="10.0" height="5.0" /></g><g id="Node-28" transform="translate(792.319,446.476)"><rect x="-5.0" y="-2.5" width="10.0" height="5.0" /></g><g id="Node-29" transform="translate(497.71,485.298)"><rect x="-5.0" y="-2.5" width="10.0" height="5.0" /></g><g id="Node-30" transform="translate(645.015,291.19)"><rect x="-5.0" y="-2.5" width="10.0" height="5.0" /></g><g id="Node-31" transform="translate(571.362,330.012)"><rect x="-5.0" y="-2.5" width="10.0" height="5.0" /></g><g id="Node-32" transform="translate(718.667,187.666)"><rect x="-5.0" y="-2.5" width="10.0" height="5.0" /></g><g id="Node-33" transform="translate(718.667,84.1422)"><rect x="-5.0" y="-2.5" width="10.0" height="5.0" /></g><g id="Node-34" transform="translate(571.362,135.904)"><rect x="-5.0" y="-2.5" width="10.0" height="5.0" /></g><g id="Node-35" transform="translate(497.71,232.958)"><rect x="-5.0" y="-2.5" width="10.0" height="5.0" /></g><g id="Node-36" transform="translate(387.231,359.128)"><rect x="-5.0" y="-2.5" width="10.0" height="5.0" /></g><g id="Node-37" transform="translate(55.7953,627.104)"><rect x="-5.0" y="-2.5" width="10.0" height="5.0" /></g></g><g class="toytree-NodeLabels" style="font-family:Helvetica;font-size:9px;font-weight:300;vertical-align:baseline;white-space:pre;stroke:none"><g class="toytree-NodeLabel" transform="translate(571.362,860.572)" /><g class="toytree-NodeLabel" transform="translate(534.536,899.393)" /><g class="toytree-NodeLabel" transform="translate(497.71,944.685)" /><g class="toytree-NodeLabel" transform="translate(534.536,757.048)" /><g class="toytree-NodeLabel" transform="translate(571.362,601.762)" /><g class="toytree-NodeLabel" transform="translate(534.536,640.583)" /><g class="toytree-NodeLabel" transform="translate(497.71,698.816)" /><g class="toytree-NodeLabel" transform="translate(387.231,895.08)" /><g class="toytree-NodeLabel" transform="translate(792.319,446.476)" /><g class="toytree-NodeLabel" transform="translate(497.71,485.298)" /><g class="toytree-NodeLabel" transform="translate(645.015,291.19)" /><g class="toytree-NodeLabel" transform="translate(571.362,330.012)" /><g class="toytree-NodeLabel" transform="translate(718.667,187.666)" /><g class="toytree-NodeLabel" transform="translate(718.667,84.1422)" /><g class="toytree-NodeLabel" transform="translate(571.362,135.904)" /><g class="toytree-NodeLabel" transform="translate(497.71,232.958)" /><g class="toytree-NodeLabel" transform="translate(387.231,359.128)" /><g class="toytree-NodeLabel" transform="translate(55.7953,627.104)" /></g><g class="toytree-TipLabels" style="fill:rgb(14.5%,14.5%,14.5%);fill-opacity:1.0;font-family:Helvetica;font-size:14px;font-weight:300;vertical-align:baseline;white-space:pre;stroke:none"><g class="toytree-TipLabel" transform="translate(1749.8,1041.74)"><text x="15.0" y="3.577" style="fill:rgb(14.5%,14.5%,14.5%);fill-opacity:1.0">Tulu</text></g><g class="toytree-TipLabel" transform="translate(1749.8,989.977)"><text x="15.0" y="3.577" style="fill:rgb(14.5%,14.5%,14.5%);fill-opacity:1.0">Badga</text></g><g class="toytree-TipLabel" transform="translate(1749.8,938.215)"><text x="15.0" y="3.577" style="fill:rgb(14.5%,14.5%,14.5%);fill-opacity:1.0">Toda</text></g><g class="toytree-TipLabel" transform="translate(1749.8,886.453)"><text x="15.0" y="3.577" style="fill:rgb(14.5%,14.5%,14.5%);fill-opacity:1.0">Betta_Kurumba</text></g><g class="toytree-TipLabel" transform="translate(1749.8,834.691)"><text x="15.0" y="3.577" style="fill:rgb(14.5%,14.5%,14.5%);fill-opacity:1.0">Kota</text></g><g class="toytree-TipLabel" transform="translate(1749.8,782.929)"><text x="15.0" y="3.577" style="fill:rgb(14.5%,14.5%,14.5%);fill-opacity:1.0">Malayalam</text></g><g class="toytree-TipLabel" transform="translate(1749.8,731.167)"><text x="15.0" y="3.577" style="fill:rgb(14.5%,14.5%,14.5%);fill-opacity:1.0">Tamil</text></g><g class="toytree-TipLabel" transform="translate(1749.8,679.405)"><text x="15.0" y="3.577" style="fill:rgb(14.5%,14.5%,14.5%);fill-opacity:1.0">Kannada</text></g><g class="toytree-TipLabel" transform="translate(1749.8,627.643)"><text x="15.0" y="3.577" style="fill:rgb(14.5%,14.5%,14.5%);fill-opacity:1.0">Kodava</text></g><g class="toytree-TipLabel" transform="translate(1749.8,575.881)"><text x="15.0" y="3.577" style="fill:rgb(14.5%,14.5%,14.5%);fill-opacity:1.0">Yeruva</text></g><g class="toytree-TipLabel" transform="translate(1749.8,524.119)"><text x="15.0" y="3.577" style="fill:rgb(14.5%,14.5%,14.5%);fill-opacity:1.0">Brahui</text></g><g class="toytree-TipLabel" transform="translate(1749.8,472.357)"><text x="15.0" y="3.577" style="fill:rgb(14.5%,14.5%,14.5%);fill-opacity:1.0">Kurukh</text></g><g class="toytree-TipLabel" transform="translate(1749.8,420.595)"><text x="15.0" y="3.577" style="fill:rgb(14.5%,14.5%,14.5%);fill-opacity:1.0">Malto</text></g><g class="toytree-TipLabel" transform="translate(1749.8,368.833)"><text x="15.0" y="3.577" style="fill:rgb(14.5%,14.5%,14.5%);fill-opacity:1.0">Parji</text></g><g class="toytree-TipLabel" transform="translate(1749.8,317.071)"><text x="15.0" y="3.577" style="fill:rgb(14.5%,14.5%,14.5%);fill-opacity:1.0">Kuwi</text></g><g class="toytree-TipLabel" transform="translate(1749.8,265.309)"><text x="15.0" y="3.577" style="fill:rgb(14.5%,14.5%,14.5%);fill-opacity:1.0">Ollari_Gadba</text></g><g class="toytree-TipLabel" transform="translate(1749.8,213.547)"><text x="15.0" y="3.577" style="fill:rgb(14.5%,14.5%,14.5%);fill-opacity:1.0">Gondi</text></g><g class="toytree-TipLabel" transform="translate(1749.8,161.785)"><text x="15.0" y="3.577" style="fill:rgb(14.5%,14.5%,14.5%);fill-opacity:1.0">Kolami</text></g><g class="toytree-TipLabel" transform="translate(1749.8,110.023)"><text x="15.0" y="3.577" style="fill:rgb(14.5%,14.5%,14.5%);fill-opacity:1.0">Koya</text></g><g class="toytree-TipLabel" transform="translate(1749.8,58.2612)"><text x="15.0" y="3.577" style="fill:rgb(14.5%,14.5%,14.5%);fill-opacity:1.0">Telugu</text></g></g></g></g></g></svg>