<svg class="toyplot-canvas-Canvas" xmlns:toyplot="http://www.sandia.gov/toyplot" xmlns:xlink="http://www.w3.org/1999/xlink" xmlns="http://www.w3.org/2000/svg" width="2000.0px" height="2210.0px" viewBox="0 0 2000.0 2210.0" preserveAspectRatio="xMidYMid meet" style="background-color:transparent;border-color:#292724;border-style:none;border-width:1.0;fill:rgb(16.1%,15.3%,14.1%);fill-opacity:1.0;font-family:Helvetica;font-size:12px;opacity:1.0;stroke:rgb(16.1%,15.3%,14.1%);stroke-opacity:1.0;stroke-width:1.0" id="t309abd860d494cdb83e1c26851339970"><g class="toyplot-coordinates-Cartesian" id="t647e4976cf064b428e2a47c0cab1f8ae"><clipPath id="t985b028da645493b85794cbc7aff3601"><rect x="35.0" y="35.0" width="1930.0" height="2140.0" /></clipPath><g clip-path="url(#t985b028da645493b85794cbc7aff3601)"><g class="toytree-mark-Toytree" id="t199c25f5bf3e4996a0f3ae3305b2cec2"><g class="toytree-Edges" style="stroke:rgb(14.5%,14.5%,14.5%);stroke-opacity:1.0;stroke-linecap:round;stroke-width:2.0;fill:none"><path d="M 129.8 2066.0 L 129.8 2151.7 L 267.6 2151.7" id="108,0" style="" /><path d="M 384.1 2112.3 L 384.1 2129.2 L 437.1 2129.2" id="95,1" style="" /><path d="M 437.1 2095.4 L 437.1 2106.6 L 500.7 2106.6" id="94,2" style="" /><path d="M 437.1 2095.4 L 437.1 2084.1 L 500.7 2084.1" id="94,3" style="" /><path d="M 384.1 2044.7 L 384.1 2061.6 L 468.9 2061.6" id="97,4" style="" /><path d="M 468.9 2027.9 L 468.9 2039.1 L 574.9 2039.1" id="96,5" style="" /><path d="M 468.9 2027.9 L 468.9 2016.6 L 574.9 2016.6" id="96,6" style="" /><path d="M 267.6 1967.9 L 267.6 1994.1 L 278.2 1994.1" id="107,7" style="" /><path d="M 278.2 1941.7 L 278.2 1971.6 L 288.8 1971.6" id="106,8" style="" /><path d="M 288.8 1911.8 L 288.8 1949.1 L 320.6 1949.1" id="105,9" style="" /><path d="M 362.9 1909.7 L 362.9 1926.6 L 479.5 1926.6" id="100,10" style="" /><path d="M 479.5 1892.8 L 479.5 1904.1 L 553.7 1904.1" id="99,11" style="" /><path d="M 479.5 1892.8 L 479.5 1881.6 L 553.7 1881.6" id="99,12" style="" /><path d="M 362.9 1839.4 L 362.9 1859.0 L 394.7 1859.0" id="103,13" style="" /><path d="M 394.7 1819.7 L 394.7 1836.5 L 511.3 1836.5" id="102,14" style="" /><path d="M 511.3 1802.8 L 511.3 1814.0 L 553.7 1814.0" id="101,15" style="" /><path d="M 511.3 1802.8 L 511.3 1791.5 L 553.7 1791.5" id="101,16" style="" /><path d="M 204.0 1752.1 L 204.0 1769.0 L 331.2 1769.0" id="110,17" style="" /><path d="M 331.2 1735.3 L 331.2 1746.5 L 511.3 1746.5" id="109,18" style="" /><path d="M 331.2 1735.3 L 331.2 1724.0 L 511.3 1724.0" id="109,19" style="" /><path d="M 204.0 1660.9 L 204.0 1701.5 L 320.6 1701.5" id="121,20" style="" /><path d="M 331.2 1662.1 L 331.2 1679.0 L 373.5 1679.0" id="112,21" style="" /><path d="M 373.5 1645.2 L 373.5 1656.5 L 437.1 1656.5" id="111,22" style="" /><path d="M 373.5 1645.2 L 373.5 1634.0 L 437.1 1634.0" id="111,23" style="" /><path d="M 331.2 1578.6 L 331.2 1611.5 L 341.8 1611.5" id="119,24" style="" /><path d="M 341.8 1545.8 L 341.8 1588.9 L 362.9 1588.9" id="118,25" style="" /><path d="M 362.9 1555.2 L 362.9 1566.4 L 426.5 1566.4" id="113,26" style="" /><path d="M 362.9 1555.2 L 362.9 1543.9 L 426.5 1543.9" id="113,27" style="" /><path d="M 362.9 1493.3 L 362.9 1521.4 L 384.1 1521.4" id="117,28" style="" /><path d="M 405.3 1487.7 L 405.3 1498.9 L 511.3 1498.9" id="114,29" style="" /><path d="M 405.3 1487.7 L 405.3 1476.4 L 511.3 1476.4" id="114,30" style="" /><path d="M 405.3 1442.6 L 405.3 1453.9 L 670.2 1453.9" id="115,31" style="" /><path d="M 405.3 1442.6 L 405.3 1431.4 L 670.2 1431.4" id="115,32" style="" /><path d="M 161.6 1397.6 L 161.6 1408.9 L 1708.7 1408.9" id="123,33" style="" /><path d="M 161.6 1397.6 L 161.6 1386.4 L 1708.7 1386.4" id="123,34" style="" /><path d="M 341.8 1347.0 L 341.8 1363.9 L 659.6 1363.9" id="125,35" style="" /><path d="M 659.6 1330.1 L 659.6 1341.3 L 744.4 1341.3" id="124,36" style="" /><path d="M 659.6 1330.1 L 659.6 1318.8 L 744.4 1318.8" id="124,37" style="" /><path d="M 341.8 1279.4 L 341.8 1296.3 L 606.7 1296.3" id="127,38" style="" /><path d="M 606.7 1262.6 L 606.7 1273.8 L 765.6 1273.8" id="126,39" style="" /><path d="M 606.7 1262.6 L 606.7 1251.3 L 765.6 1251.3" id="126,40" style="" /><path d="M 172.2 1195.6 L 172.2 1228.8 L 267.6 1228.8" id="141,41" style="" /><path d="M 267.6 1162.4 L 267.6 1206.3 L 278.2 1206.3" id="140,42" style="" /><path d="M 267.6 1162.4 L 267.6 1183.8 L 278.2 1183.8" id="140,43" style="" /><path d="M 310.0 1150.0 L 310.0 1161.3 L 532.5 1161.3" id="129,44" style="" /><path d="M 310.0 1150.0 L 310.0 1138.8 L 532.5 1138.8" id="129,45" style="" /><path d="M 331.2 1099.4 L 331.2 1116.3 L 352.4 1116.3" id="131,46" style="" /><path d="M 352.4 1082.5 L 352.4 1093.7 L 437.1 1093.7" id="130,47" style="" /><path d="M 352.4 1082.5 L 352.4 1071.2 L 437.1 1071.2" id="130,48" style="" /><path d="M 341.8 1031.8 L 341.8 1048.7 L 447.7 1048.7" id="133,49" style="" /><path d="M 447.7 1015.0 L 447.7 1026.2 L 532.5 1026.2" id="132,50" style="" /><path d="M 447.7 1015.0 L 447.7 1003.7 L 532.5 1003.7" id="132,51" style="" /><path d="M 373.5 969.9 L 373.5 981.2 L 394.7 981.2" id="134,52" style="" /><path d="M 373.5 969.9 L 373.5 958.7 L 394.7 958.7" id="134,53" style="" /><path d="M 373.5 924.9 L 373.5 936.2 L 426.5 936.2" id="135,54" style="" /><path d="M 373.5 924.9 L 373.5 913.7 L 426.5 913.7" id="135,55" style="" /><path d="M 235.8 879.9 L 235.8 891.2 L 1062.3 891.2" id="144,56" style="" /><path d="M 235.8 879.9 L 235.8 868.7 L 1062.3 868.7" id="144,57" style="" /><path d="M 267.6 834.9 L 267.6 846.1 L 564.3 846.1" id="145,58" style="" /><path d="M 267.6 834.9 L 267.6 823.6 L 564.3 823.6" id="145,59" style="" /><path d="M 267.6 784.2 L 267.6 801.1 L 818.6 801.1" id="147,60" style="" /><path d="M 818.6 767.4 L 818.6 778.6 L 1009.3 778.6" id="146,61" style="" /><path d="M 818.6 767.4 L 818.6 756.1 L 1009.3 756.1" id="146,62" style="" /><path d="M 161.6 637.1 L 161.6 733.6 L 172.2 733.6" id="178,63" style="" /><path d="M 193.4 685.6 L 193.4 711.1 L 278.2 711.1" id="161,64" style="" /><path d="M 278.2 660.0 L 278.2 688.6 L 288.8 688.6" id="160,65" style="" /><path d="M 288.8 631.4 L 288.8 666.1 L 331.2 666.1" id="159,66" style="" /><path d="M 362.9 632.3 L 362.9 643.6 L 1316.6 643.6" id="150,67" style="" /><path d="M 362.9 632.3 L 362.9 621.1 L 1316.6 621.1" id="150,68" style="" /><path d="M 362.9 561.3 L 362.9 598.5 L 394.7 598.5" id="157,69" style="" /><path d="M 415.9 559.2 L 415.9 576.0 L 458.3 576.0" id="152,70" style="" /><path d="M 458.3 542.3 L 458.3 553.5 L 702.0 553.5" id="151,71" style="" /><path d="M 458.3 542.3 L 458.3 531.0 L 702.0 531.0" id="151,72" style="" /><path d="M 415.9 488.8 L 415.9 508.5 L 447.7 508.5" id="155,73" style="" /><path d="M 447.7 469.1 L 447.7 486.0 L 458.3 486.0" id="154,74" style="" /><path d="M 458.3 452.2 L 458.3 463.5 L 839.8 463.5" id="153,75" style="" /><path d="M 458.3 452.2 L 458.3 441.0 L 839.8 441.0" id="153,76" style="" /><path d="M 193.4 395.5 L 193.4 418.5 L 214.6 418.5" id="176,77" style="" /><path d="M 214.6 372.4 L 214.6 396.0 L 267.6 396.0" id="175,78" style="" /><path d="M 267.6 348.9 L 267.6 373.5 L 278.2 373.5" id="174,79" style="" /><path d="M 278.2 324.3 L 278.2 351.0 L 299.4 351.0" id="173,80" style="" /><path d="M 299.4 297.7 L 299.4 328.4 L 341.8 328.4" id="172,81" style="" /><path d="M 299.4 297.7 L 299.4 305.9 L 341.8 305.9" id="172,82" style="" /><path d="M 341.8 258.6 L 341.8 283.4 L 352.4 283.4" id="171,83" style="" /><path d="M 352.4 233.8 L 352.4 260.9 L 373.5 260.9" id="170,84" style="" /><path d="M 373.5 206.8 L 373.5 238.4 L 384.1 238.4" id="169,85" style="" /><path d="M 394.7 204.6 L 394.7 215.9 L 511.3 215.9" id="162,86" style="" /><path d="M 394.7 204.6 L 394.7 193.4 L 511.3 193.4" id="162,87" style="" /><path d="M 394.7 145.6 L 394.7 170.9 L 405.3 170.9" id="167,88" style="" /><path d="M 405.3 120.2 L 405.3 148.4 L 426.5 148.4" id="166,89" style="" /><path d="M 585.5 114.6 L 585.5 125.9 L 659.6 125.9" id="163,90" style="" /><path d="M 585.5 114.6 L 585.5 103.4 L 659.6 103.4" id="163,91" style="" /><path d="M 585.5 69.6 L 585.5 80.8 L 670.2 80.8" id="164,92" style="" /><path d="M 585.5 69.6 L 585.5 58.3 L 670.2 58.3" id="164,93" style="" /><path d="M 384.1 2112.3 L 384.1 2095.4 L 437.1 2095.4" id="95,94" style="" /><path d="M 267.6 2078.5 L 267.6 2112.3 L 384.1 2112.3" id="98,95" style="" /><path d="M 384.1 2044.7 L 384.1 2027.9 L 468.9 2027.9" id="97,96" style="" /><path d="M 267.6 2078.5 L 267.6 2044.7 L 384.1 2044.7" id="98,97" style="" /><path d="M 129.8 2066.0 L 129.8 2078.5 L 267.6 2078.5" id="108,98" style="" /><path d="M 362.9 1909.7 L 362.9 1892.8 L 479.5 1892.8" id="100,99" style="" /><path d="M 320.6 1874.5 L 320.6 1909.7 L 362.9 1909.7" id="104,100" style="" /><path d="M 394.7 1819.7 L 394.7 1802.8 L 511.3 1802.8" id="102,101" style="" /><path d="M 362.9 1839.4 L 362.9 1819.7 L 394.7 1819.7" id="103,102" style="" /><path d="M 320.6 1874.5 L 320.6 1839.4 L 362.9 1839.4" id="104,103" style="" /><path d="M 288.8 1911.8 L 288.8 1874.5 L 320.6 1874.5" id="105,104" style="" /><path d="M 278.2 1941.7 L 278.2 1911.8 L 288.8 1911.8" id="106,105" style="" /><path d="M 267.6 1967.9 L 267.6 1941.7 L 278.2 1941.7" id="107,106" style="" /><path d="M 129.8 2066.0 L 129.8 1967.9 L 267.6 1967.9" id="108,107" style="" /><path d="M 55.7 1661.9 L 55.7 2066.0 L 129.8 2066.0" id="181,108" style="" /><path d="M 204.0 1752.1 L 204.0 1735.3 L 331.2 1735.3" id="110,109" style="" /><path d="M 140.4 1706.5 L 140.4 1752.1 L 204.0 1752.1" id="122,110" style="" /><path d="M 331.2 1662.1 L 331.2 1645.2 L 373.5 1645.2" id="112,111" style="" /><path d="M 320.6 1620.4 L 320.6 1662.1 L 331.2 1662.1" id="120,112" style="" /><path d="M 341.8 1545.8 L 341.8 1555.2 L 362.9 1555.2" id="118,113" style="" /><path d="M 384.1 1465.1 L 384.1 1487.7 L 405.3 1487.7" id="116,114" style="" /><path d="M 384.1 1465.1 L 384.1 1442.6 L 405.3 1442.6" id="116,115" style="" /><path d="M 362.9 1493.3 L 362.9 1465.1 L 384.1 1465.1" id="117,116" style="" /><path d="M 341.8 1545.8 L 341.8 1493.3 L 362.9 1493.3" id="118,117" style="" /><path d="M 331.2 1578.6 L 331.2 1545.8 L 341.8 1545.8" id="119,118" style="" /><path d="M 320.6 1620.4 L 320.6 1578.6 L 331.2 1578.6" id="120,119" style="" /><path d="M 204.0 1660.9 L 204.0 1620.4 L 320.6 1620.4" id="121,120" style="" /><path d="M 140.4 1706.5 L 140.4 1660.9 L 204.0 1660.9" id="122,121" style="" /><path d="M 129.8 1257.8 L 129.8 1706.5 L 140.4 1706.5" id="180,122" style="" /><path d="M 140.4 1326.0 L 140.4 1397.6 L 161.6 1397.6" id="143,123" style="" /><path d="M 341.8 1347.0 L 341.8 1330.1 L 659.6 1330.1" id="125,124" style="" /><path d="M 172.2 1313.2 L 172.2 1347.0 L 341.8 1347.0" id="128,125" style="" /><path d="M 341.8 1279.4 L 341.8 1262.6 L 606.7 1262.6" id="127,126" style="" /><path d="M 172.2 1313.2 L 172.2 1279.4 L 341.8 1279.4" id="128,127" style="" /><path d="M 161.6 1254.4 L 161.6 1313.2 L 172.2 1313.2" id="142,128" style="" /><path d="M 278.2 1097.3 L 278.2 1150.0 L 310.0 1150.0" id="139,129" style="" /><path d="M 331.2 1099.4 L 331.2 1082.5 L 352.4 1082.5" id="131,130" style="" /><path d="M 310.0 1044.5 L 310.0 1099.4 L 331.2 1099.4" id="138,131" style="" /><path d="M 341.8 1031.8 L 341.8 1015.0 L 447.7 1015.0" id="133,132" style="" /><path d="M 331.2 989.6 L 331.2 1031.8 L 341.8 1031.8" id="137,133" style="" /><path d="M 341.8 947.4 L 341.8 969.9 L 373.5 969.9" id="136,134" style="" /><path d="M 341.8 947.4 L 341.8 924.9 L 373.5 924.9" id="136,135" style="" /><path d="M 331.2 989.6 L 331.2 947.4 L 341.8 947.4" id="137,136" style="" /><path d="M 310.0 1044.5 L 310.0 989.6 L 331.2 989.6" id="138,137" style="" /><path d="M 278.2 1097.3 L 278.2 1044.5 L 310.0 1044.5" id="139,138" style="" /><path d="M 267.6 1162.4 L 267.6 1097.3 L 278.2 1097.3" id="140,139" style="" /><path d="M 172.2 1195.6 L 172.2 1162.4 L 267.6 1162.4" id="141,140" style="" /><path d="M 161.6 1254.4 L 161.6 1195.6 L 172.2 1195.6" id="142,141" style="" /><path d="M 140.4 1326.0 L 140.4 1254.4 L 161.6 1254.4" id="143,142" style="" /><path d="M 129.8 1257.8 L 129.8 1326.0 L 140.4 1326.0" id="180,143" style="" /><path d="M 161.6 844.7 L 161.6 879.9 L 235.8 879.9" id="149,144" style="" /><path d="M 235.8 809.6 L 235.8 834.9 L 267.6 834.9" id="148,145" style="" /><path d="M 267.6 784.2 L 267.6 767.4 L 818.6 767.4" id="147,146" style="" /><path d="M 235.8 809.6 L 235.8 784.2 L 267.6 784.2" id="148,147" style="" /><path d="M 161.6 844.7 L 161.6 809.6 L 235.8 809.6" id="149,148" style="" /><path d="M 140.4 740.9 L 140.4 844.7 L 161.6 844.7" id="179,149" style="" /><path d="M 331.2 596.8 L 331.2 632.3 L 362.9 632.3" id="158,150" style="" /><path d="M 415.9 559.2 L 415.9 542.3 L 458.3 542.3" id="152,151" style="" /><path d="M 394.7 524.0 L 394.7 559.2 L 415.9 559.2" id="156,152" style="" /><path d="M 447.7 469.1 L 447.7 452.2 L 458.3 452.2" id="154,153" style="" /><path d="M 415.9 488.8 L 415.9 469.1 L 447.7 469.1" id="155,154" style="" /><path d="M 394.7 524.0 L 394.7 488.8 L 415.9 488.8" id="156,155" style="" /><path d="M 362.9 561.3 L 362.9 524.0 L 394.7 524.0" id="157,156" style="" /><path d="M 331.2 596.8 L 331.2 561.3 L 362.9 561.3" id="158,157" style="" /><path d="M 288.8 631.4 L 288.8 596.8 L 331.2 596.8" id="159,158" style="" /><path d="M 278.2 660.0 L 278.2 631.4 L 288.8 631.4" id="160,159" style="" /><path d="M 193.4 685.6 L 193.4 660.0 L 278.2 660.0" id="161,160" style="" /><path d="M 172.2 540.5 L 172.2 685.6 L 193.4 685.6" id="177,161" style="" /><path d="M 384.1 175.1 L 384.1 204.6 L 394.7 204.6" id="168,162" style="" /><path d="M 426.5 92.1 L 426.5 114.6 L 585.5 114.6" id="165,163" style="" /><path d="M 426.5 92.1 L 426.5 69.6 L 585.5 69.6" id="165,164" style="" /><path d="M 405.3 120.2 L 405.3 92.1 L 426.5 92.1" id="166,165" style="" /><path d="M 394.7 145.6 L 394.7 120.2 L 405.3 120.2" id="167,166" style="" /><path d="M 384.1 175.1 L 384.1 145.6 L 394.7 145.6" id="168,167" style="" /><path d="M 373.5 206.8 L 373.5 175.1 L 384.1 175.1" id="169,168" style="" /><path d="M 352.4 233.8 L 352.4 206.8 L 373.5 206.8" id="170,169" style="" /><path d="M 341.8 258.6 L 341.8 233.8 L 352.4 233.8" id="171,170" style="" /><path d="M 299.4 297.7 L 299.4 258.6 L 341.8 258.6" id="172,171" style="" /><path d="M 278.2 324.3 L 278.2 297.7 L 299.4 297.7" id="173,172" style="" /><path d="M 267.6 348.9 L 267.6 324.3 L 278.2 324.3" id="174,173" style="" /><path d="M 214.6 372.4 L 214.6 348.9 L 267.6 348.9" id="175,174" style="" /><path d="M 193.4 395.5 L 193.4 372.4 L 214.6 372.4" id="176,175" style="" /><path d="M 172.2 540.5 L 172.2 395.5 L 193.4 395.5" id="177,176" style="" /><path d="M 161.6 637.1 L 161.6 540.5 L 172.2 540.5" id="178,177" style="" /><path d="M 140.4 740.9 L 140.4 637.1 L 161.6 637.1" id="179,178" style="" /><path d="M 129.8 1257.8 L 129.8 740.9 L 140.4 740.9" id="180,179" style="" /><path d="M 55.7 1661.9 L 55.7 1257.8 L 129.8 1257.8" id="181,180" style="" /></g><g class="toytree-AlignEdges" style="stroke:rgb(66.0%,66.0%,66.0%);stroke-opacity:0.75;stroke-dasharray:2,4;stroke-linecap:round;stroke-width:2"><path d="M 1708.7 2151.7 L 267.6 2151.7" /><path d="M 1708.7 2129.2 L 437.1 2129.2" /><path d="M 1708.7 2106.6 L 500.7 2106.6" /><path d="M 1708.7 2084.1 L 500.7 2084.1" /><path d="M 1708.7 2061.6 L 468.9 2061.6" /><path d="M 1708.7 2039.1 L 574.9 2039.1" /><path d="M 1708.7 2016.6 L 574.9 2016.6" /><path d="M 1708.7 1994.1 L 278.2 1994.1" /><path d="M 1708.7 1971.6 L 288.8 1971.6" /><path d="M 1708.7 1949.1 L 320.6 1949.1" /><path d="M 1708.7 1926.6 L 479.5 1926.6" /><path d="M 1708.7 1904.1 L 553.7 1904.1" /><path d="M 1708.7 1881.6 L 553.7 1881.6" /><path d="M 1708.7 1859.0 L 394.7 1859.0" /><path d="M 1708.7 1836.5 L 511.3 1836.5" /><path d="M 1708.7 1814.0 L 553.7 1814.0" /><path d="M 1708.7 1791.5 L 553.7 1791.5" /><path d="M 1708.7 1769.0 L 331.2 1769.0" /><path d="M 1708.7 1746.5 L 511.3 1746.5" /><path d="M 1708.7 1724.0 L 511.3 1724.0" /><path d="M 1708.7 1701.5 L 320.6 1701.5" /><path d="M 1708.7 1679.0 L 373.5 1679.0" /><path d="M 1708.7 1656.5 L 437.1 1656.5" /><path d="M 1708.7 1634.0 L 437.1 1634.0" /><path d="M 1708.7 1611.5 L 341.8 1611.5" /><path d="M 1708.7 1588.9 L 362.9 1588.9" /><path d="M 1708.7 1566.4 L 426.5 1566.4" /><path d="M 1708.7 1543.9 L 426.5 1543.9" /><path d="M 1708.7 1521.4 L 384.1 1521.4" /><path d="M 1708.7 1498.9 L 511.3 1498.9" /><path d="M 1708.7 1476.4 L 511.3 1476.4" /><path d="M 1708.7 1453.9 L 670.2 1453.9" /><path d="M 1708.7 1431.4 L 670.2 1431.4" /><path d="M 1708.7 1408.9 L 1708.7 1408.9" /><path d="M 1708.7 1386.4 L 1708.7 1386.4" /><path d="M 1708.7 1363.9 L 659.6 1363.9" /><path d="M 1708.7 1341.3 L 744.4 1341.3" /><path d="M 1708.7 1318.8 L 744.4 1318.8" /><path d="M 1708.7 1296.3 L 606.7 1296.3" /><path d="M 1708.7 1273.8 L 765.6 1273.8" /><path d="M 1708.7 1251.3 L 765.6 1251.3" /><path d="M 1708.7 1228.8 L 267.6 1228.8" /><path d="M 1708.7 1206.3 L 278.2 1206.3" /><path d="M 1708.7 1183.8 L 278.2 1183.8" /><path d="M 1708.7 1161.3 L 532.5 1161.3" /><path d="M 1708.7 1138.8 L 532.5 1138.8" /><path d="M 1708.7 1116.3 L 352.4 1116.3" /><path d="M 1708.7 1093.7 L 437.1 1093.7" /><path d="M 1708.7 1071.2 L 437.1 1071.2" /><path d="M 1708.7 1048.7 L 447.7 1048.7" /><path d="M 1708.7 1026.2 L 532.5 1026.2" /><path d="M 1708.7 1003.7 L 532.5 1003.7" /><path d="M 1708.7 981.2 L 394.7 981.2" /><path d="M 1708.7 958.7 L 394.7 958.7" /><path d="M 1708.7 936.2 L 426.5 936.2" /><path d="M 1708.7 913.7 L 426.5 913.7" /><path d="M 1708.7 891.2 L 1062.3 891.2" /><path d="M 1708.7 868.7 L 1062.3 868.7" /><path d="M 1708.7 846.1 L 564.3 846.1" /><path d="M 1708.7 823.6 L 564.3 823.6" /><path d="M 1708.7 801.1 L 818.6 801.1" /><path d="M 1708.7 778.6 L 1009.3 778.6" /><path d="M 1708.7 756.1 L 1009.3 756.1" /><path d="M 1708.7 733.6 L 172.2 733.6" /><path d="M 1708.7 711.1 L 278.2 711.1" /><path d="M 1708.7 688.6 L 288.8 688.6" /><path d="M 1708.7 666.1 L 331.2 666.1" /><path d="M 1708.7 643.6 L 1316.6 643.6" /><path d="M 1708.7 621.1 L 1316.6 621.1" /><path d="M 1708.7 598.5 L 394.7 598.5" /><path d="M 1708.7 576.0 L 458.3 576.0" /><path d="M 1708.7 553.5 L 702.0 553.5" /><path d="M 1708.7 531.0 L 702.0 531.0" /><path d="M 1708.7 508.5 L 447.7 508.5" /><path d="M 1708.7 486.0 L 458.3 486.0" /><path d="M 1708.7 463.5 L 839.8 463.5" /><path d="M 1708.7 441.0 L 839.8 441.0" /><path d="M 1708.7 418.5 L 214.6 418.5" /><path d="M 1708.7 396.0 L 267.6 396.0" /><path d="M 1708.7 373.5 L 278.2 373.5" /><path d="M 1708.7 351.0 L 299.4 351.0" /><path d="M 1708.7 328.4 L 341.8 328.4" /><path d="M 1708.7 305.9 L 341.8 305.9" /><path d="M 1708.7 283.4 L 352.4 283.4" /><path d="M 1708.7 260.9 L 373.5 260.9" /><path d="M 1708.7 238.4 L 384.1 238.4" /><path d="M 1708.7 215.9 L 511.3 215.9" /><path d="M 1708.7 193.4 L 511.3 193.4" /><path d="M 1708.7 170.9 L 405.3 170.9" /><path d="M 1708.7 148.4 L 426.5 148.4" /><path d="M 1708.7 125.9 L 659.6 125.9" /><path d="M 1708.7 103.4 L 659.6 103.4" /><path d="M 1708.7 80.8 L 670.2 80.8" /><path d="M 1708.7 58.3 L 670.2 58.3" /></g><g class="toytree-AdmixEdges" style="fill:rgb(0.0%,0.0%,0.0%);fill-opacity:0.0;stroke:rgb(90.6%,54.1%,76.5%);stroke-opacity:0.6;font-size:14px;stroke-linecap:round;stroke-width:5" /><g class="toytree-Nodes" style="fill:rgb(0.0%,0.0%,0.0%);fill-opacity:1.0;stroke:none;stroke-width:1.5"><g id="Node-94" transform="translate(437.122,2095.39)"><rect x="-5.0" y="-2.5" width="10.0" height="5.0" /></g><g id="Node-95" transform="translate(384.14,2112.28)"><rect x="-5.0" y="-2.5" width="10.0" height="5.0" /></g><g id="Node-96" transform="translate(468.91,2027.87)"><rect x="-5.0" y="-2.5" width="10.0" height="5.0" /></g><g id="Node-97" transform="translate(384.14,2044.75)"><rect x="-5.0" y="-2.5" width="10.0" height="5.0" /></g><g id="Node-98" transform="translate(267.581,2078.51)"><rect x="-5.0" y="-2.5" width="10.0" height="5.0" /></g><g id="Node-99" transform="translate(479.507,1892.81)"><rect x="-5.0" y="-2.5" width="10.0" height="5.0" /></g><g id="Node-100" transform="translate(362.947,1909.7)"><rect x="-5.0" y="-2.5" width="10.0" height="5.0" /></g><g id="Node-101" transform="translate(511.296,1802.78)"><rect x="-5.0" y="-2.5" width="10.0" height="5.0" /></g><g id="Node-102" transform="translate(394.736,1819.66)"><rect x="-5.0" y="-2.5" width="10.0" height="5.0" /></g><g id="Node-103" transform="translate(362.947,1839.35)"><rect x="-5.0" y="-2.5" width="10.0" height="5.0" /></g><g id="Node-104" transform="translate(320.562,1874.52)"><rect x="-5.0" y="-2.5" width="10.0" height="5.0" /></g><g id="Node-105" transform="translate(288.773,1911.81)"><rect x="-5.0" y="-2.5" width="10.0" height="5.0" /></g><g id="Node-106" transform="translate(278.177,1941.7)"><rect x="-5.0" y="-2.5" width="10.0" height="5.0" /></g><g id="Node-107" transform="translate(267.581,1967.9)"><rect x="-5.0" y="-2.5" width="10.0" height="5.0" /></g><g id="Node-108" transform="translate(129.829,2066.03)"><rect x="-5.0" y="-2.5" width="10.0" height="5.0" /></g><g id="Node-109" transform="translate(331.159,1735.25)"><rect x="-5.0" y="-2.5" width="10.0" height="5.0" /></g><g id="Node-110" transform="translate(204.003,1752.13)"><rect x="-5.0" y="-2.5" width="10.0" height="5.0" /></g><g id="Node-111" transform="translate(373.544,1645.21)"><rect x="-5.0" y="-2.5" width="10.0" height="5.0" /></g><g id="Node-112" transform="translate(331.159,1662.1)"><rect x="-5.0" y="-2.5" width="10.0" height="5.0" /></g><g id="Node-113" transform="translate(362.947,1555.18)"><rect x="-5.0" y="-2.5" width="10.0" height="5.0" /></g><g id="Node-114" transform="translate(405.333,1487.65)"><rect x="-5.0" y="-2.5" width="10.0" height="5.0" /></g><g id="Node-115" transform="translate(405.333,1442.63)"><rect x="-5.0" y="-2.5" width="10.0" height="5.0" /></g><g id="Node-116" transform="translate(384.14,1465.14)"><rect x="-5.0" y="-2.5" width="10.0" height="5.0" /></g><g id="Node-117" transform="translate(362.947,1493.28)"><rect x="-5.0" y="-2.5" width="10.0" height="5.0" /></g><g id="Node-118" transform="translate(341.755,1545.8)"><rect x="-5.0" y="-2.5" width="10.0" height="5.0" /></g><g id="Node-119" transform="translate(331.159,1578.63)"><rect x="-5.0" y="-2.5" width="10.0" height="5.0" /></g><g id="Node-120" transform="translate(320.562,1620.36)"><rect x="-5.0" y="-2.5" width="10.0" height="5.0" /></g><g id="Node-121" transform="translate(204.003,1660.92)"><rect x="-5.0" y="-2.5" width="10.0" height="5.0" /></g><g id="Node-122" transform="translate(140.425,1706.53)"><rect x="-5.0" y="-2.5" width="10.0" height="5.0" /></g><g id="Node-123" transform="translate(161.618,1397.62)"><rect x="-5.0" y="-2.5" width="10.0" height="5.0" /></g><g id="Node-124" transform="translate(659.644,1330.09)"><rect x="-5.0" y="-2.5" width="10.0" height="5.0" /></g><g id="Node-125" transform="translate(341.755,1346.97)"><rect x="-5.0" y="-2.5" width="10.0" height="5.0" /></g><g id="Node-126" transform="translate(606.662,1262.56)"><rect x="-5.0" y="-2.5" width="10.0" height="5.0" /></g><g id="Node-127" transform="translate(341.755,1279.44)"><rect x="-5.0" y="-2.5" width="10.0" height="5.0" /></g><g id="Node-128" transform="translate(172.214,1313.21)"><rect x="-5.0" y="-2.5" width="10.0" height="5.0" /></g><g id="Node-129" transform="translate(309.966,1150.02)"><rect x="-5.0" y="-2.5" width="10.0" height="5.0" /></g><g id="Node-130" transform="translate(352.351,1082.49)"><rect x="-5.0" y="-2.5" width="10.0" height="5.0" /></g><g id="Node-131" transform="translate(331.159,1099.37)"><rect x="-5.0" y="-2.5" width="10.0" height="5.0" /></g><g id="Node-132" transform="translate(447.718,1014.96)"><rect x="-5.0" y="-2.5" width="10.0" height="5.0" /></g><g id="Node-133" transform="translate(341.755,1031.85)"><rect x="-5.0" y="-2.5" width="10.0" height="5.0" /></g><g id="Node-134" transform="translate(373.544,969.946)"><rect x="-5.0" y="-2.5" width="10.0" height="5.0" /></g><g id="Node-135" transform="translate(373.544,924.928)"><rect x="-5.0" y="-2.5" width="10.0" height="5.0" /></g><g id="Node-136" transform="translate(341.755,947.437)"><rect x="-5.0" y="-2.5" width="10.0" height="5.0" /></g><g id="Node-137" transform="translate(331.159,989.642)"><rect x="-5.0" y="-2.5" width="10.0" height="5.0" /></g><g id="Node-138" transform="translate(309.966,1044.51)"><rect x="-5.0" y="-2.5" width="10.0" height="5.0" /></g><g id="Node-139" transform="translate(278.177,1097.26)"><rect x="-5.0" y="-2.5" width="10.0" height="5.0" /></g><g id="Node-140" transform="translate(267.581,1162.44)"><rect x="-5.0" y="-2.5" width="10.0" height="5.0" /></g><g id="Node-141" transform="translate(172.214,1195.62)"><rect x="-5.0" y="-2.5" width="10.0" height="5.0" /></g><g id="Node-142" transform="translate(161.618,1254.41)"><rect x="-5.0" y="-2.5" width="10.0" height="5.0" /></g><g id="Node-143" transform="translate(140.425,1326.02)"><rect x="-5.0" y="-2.5" width="10.0" height="5.0" /></g><g id="Node-144" transform="translate(235.792,879.91)"><rect x="-5.0" y="-2.5" width="10.0" height="5.0" /></g><g id="Node-145" transform="translate(267.581,834.893)"><rect x="-5.0" y="-2.5" width="10.0" height="5.0" /></g><g id="Node-146" transform="translate(818.588,767.366)"><rect x="-5.0" y="-2.5" width="10.0" height="5.0" /></g><g id="Node-147" transform="translate(267.581,784.247)"><rect x="-5.0" y="-2.5" width="10.0" height="5.0" /></g><g id="Node-148" transform="translate(235.792,809.57)"><rect x="-5.0" y="-2.5" width="10.0" height="5.0" /></g><g id="Node-149" transform="translate(161.618,844.74)"><rect x="-5.0" y="-2.5" width="10.0" height="5.0" /></g><g id="Node-150" transform="translate(362.947,632.312)"><rect x="-5.0" y="-2.5" width="10.0" height="5.0" /></g><g id="Node-151" transform="translate(458.314,542.276)"><rect x="-5.0" y="-2.5" width="10.0" height="5.0" /></g><g id="Node-152" transform="translate(415.929,559.158)"><rect x="-5.0" y="-2.5" width="10.0" height="5.0" /></g><g id="Node-153" transform="translate(458.314,452.24)"><rect x="-5.0" y="-2.5" width="10.0" height="5.0" /></g><g id="Node-154" transform="translate(447.718,469.122)"><rect x="-5.0" y="-2.5" width="10.0" height="5.0" /></g><g id="Node-155" transform="translate(415.929,488.817)"><rect x="-5.0" y="-2.5" width="10.0" height="5.0" /></g><g id="Node-156" transform="translate(394.736,523.988)"><rect x="-5.0" y="-2.5" width="10.0" height="5.0" /></g><g id="Node-157" transform="translate(362.947,561.268)"><rect x="-5.0" y="-2.5" width="10.0" height="5.0" /></g><g id="Node-158" transform="translate(331.159,596.79)"><rect x="-5.0" y="-2.5" width="10.0" height="5.0" /></g><g id="Node-159" transform="translate(288.773,631.433)"><rect x="-5.0" y="-2.5" width="10.0" height="5.0" /></g><g id="Node-160" transform="translate(278.177,660.009)"><rect x="-5.0" y="-2.5" width="10.0" height="5.0" /></g><g id="Node-161" transform="translate(193.407,685.551)"><rect x="-5.0" y="-2.5" width="10.0" height="5.0" /></g><g id="Node-162" transform="translate(394.736,204.642)"><rect x="-5.0" y="-2.5" width="10.0" height="5.0" /></g><g id="Node-163" transform="translate(585.47,114.606)"><rect x="-5.0" y="-2.5" width="10.0" height="5.0" /></g><g id="Node-164" transform="translate(585.47,69.5881)"><rect x="-5.0" y="-2.5" width="10.0" height="5.0" /></g><g id="Node-165" transform="translate(426.525,92.0971)"><rect x="-5.0" y="-2.5" width="10.0" height="5.0" /></g><g id="Node-166" transform="translate(405.333,120.233)"><rect x="-5.0" y="-2.5" width="10.0" height="5.0" /></g><g id="Node-167" transform="translate(394.736,145.556)"><rect x="-5.0" y="-2.5" width="10.0" height="5.0" /></g><g id="Node-168" transform="translate(384.14,175.099)"><rect x="-5.0" y="-2.5" width="10.0" height="5.0" /></g><g id="Node-169" transform="translate(373.544,206.752)"><rect x="-5.0" y="-2.5" width="10.0" height="5.0" /></g><g id="Node-170" transform="translate(352.351,233.833)"><rect x="-5.0" y="-2.5" width="10.0" height="5.0" /></g><g id="Node-171" transform="translate(341.755,258.628)"><rect x="-5.0" y="-2.5" width="10.0" height="5.0" /></g><g id="Node-172" transform="translate(299.37,297.667)"><rect x="-5.0" y="-2.5" width="10.0" height="5.0" /></g><g id="Node-173" transform="translate(278.177,324.309)"><rect x="-5.0" y="-2.5" width="10.0" height="5.0" /></g><g id="Node-174" transform="translate(267.581,348.884)"><rect x="-5.0" y="-2.5" width="10.0" height="5.0" /></g><g id="Node-175" transform="translate(214.599,372.426)"><rect x="-5.0" y="-2.5" width="10.0" height="5.0" /></g><g id="Node-176" transform="translate(193.407,395.451)"><rect x="-5.0" y="-2.5" width="10.0" height="5.0" /></g><g id="Node-177" transform="translate(172.214,540.501)"><rect x="-5.0" y="-2.5" width="10.0" height="5.0" /></g><g id="Node-178" transform="translate(161.618,637.052)"><rect x="-5.0" y="-2.5" width="10.0" height="5.0" /></g><g id="Node-179" transform="translate(140.425,740.896)"><rect x="-5.0" y="-2.5" width="10.0" height="5.0" /></g><g id="Node-180" transform="translate(129.829,1257.81)"><rect x="-5.0" y="-2.5" width="10.0" height="5.0" /></g><g id="Node-181" transform="translate(55.6551,1661.92)"><rect x="-5.0" y="-2.5" width="10.0" height="5.0" /></g></g><g class="toytree-NodeLabels" style="font-family:Helvetica;font-size:9px;font-weight:300;vertical-align:baseline;white-space:pre;stroke:none"><g class="toytree-NodeLabel" transform="translate(437.122,2095.39)" /><g class="toytree-NodeLabel" transform="translate(384.14,2112.28)" /><g class="toytree-NodeLabel" transform="translate(468.91,2027.87)" /><g class="toytree-NodeLabel" transform="translate(384.14,2044.75)" /><g class="toytree-NodeLabel" transform="translate(267.581,2078.51)" /><g class="toytree-NodeLabel" transform="translate(479.507,1892.81)" /><g class="toytree-NodeLabel" transform="translate(362.947,1909.7)" /><g class="toytree-NodeLabel" transform="translate(511.296,1802.78)" /><g class="toytree-NodeLabel" transform="translate(394.736,1819.66)" /><g class="toytree-NodeLabel" transform="translate(362.947,1839.35)" /><g class="toytree-NodeLabel" transform="translate(320.562,1874.52)" /><g class="toytree-NodeLabel" transform="translate(288.773,1911.81)" /><g class="toytree-NodeLabel" transform="translate(278.177,1941.7)" /><g class="toytree-NodeLabel" transform="translate(267.581,1967.9)" /><g class="toytree-NodeLabel" transform="translate(129.829,2066.03)" /><g class="toytree-NodeLabel" transform="translate(331.159,1735.25)" /><g class="toytree-NodeLabel" transform="translate(204.003,1752.13)" /><g class="toytree-NodeLabel" transform="translate(373.544,1645.21)" /><g class="toytree-NodeLabel" transform="translate(331.159,1662.1)" /><g class="toytree-NodeLabel" transform="translate(362.947,1555.18)" /><g class="toytree-NodeLabel" transform="translate(405.333,1487.65)" /><g class="toytree-NodeLabel" transform="translate(405.333,1442.63)" /><g class="toytree-NodeLabel" transform="translate(384.14,1465.14)" /><g class="toytree-NodeLabel" transform="translate(362.947,1493.28)" /><g class="toytree-NodeLabel" transform="translate(341.755,1545.8)" /><g class="toytree-NodeLabel" transform="translate(331.159,1578.63)" /><g class="toytree-NodeLabel" transform="translate(320.562,1620.36)" /><g class="toytree-NodeLabel" transform="translate(204.003,1660.92)" /><g class="toytree-NodeLabel" transform="translate(140.425,1706.53)" /><g class="toytree-NodeLabel" transform="translate(161.618,1397.62)" /><g class="toytree-NodeLabel" transform="translate(659.644,1330.09)" /><g class="toytree-NodeLabel" transform="translate(341.755,1346.97)" /><g class="toytree-NodeLabel" transform="translate(606.662,1262.56)" /><g class="toytree-NodeLabel" transform="translate(341.755,1279.44)" /><g class="toytree-NodeLabel" transform="translate(172.214,1313.21)" /><g class="toytree-NodeLabel" transform="translate(309.966,1150.02)" /><g class="toytree-NodeLabel" transform="translate(352.351,1082.49)" /><g class="toytree-NodeLabel" transform="translate(331.159,1099.37)" /><g class="toytree-NodeLabel" transform="translate(447.718,1014.96)" /><g class="toytree-NodeLabel" transform="translate(341.755,1031.85)" /><g class="toytree-NodeLabel" transform="translate(373.544,969.946)" /><g class="toytree-NodeLabel" transform="translate(373.544,924.928)" /><g class="toytree-NodeLabel" transform="translate(341.755,947.437)" /><g class="toytree-NodeLabel" transform="translate(331.159,989.642)" /><g class="toytree-NodeLabel" transform="translate(309.966,1044.51)" /><g class="toytree-NodeLabel" transform="translate(278.177,1097.26)" /><g class="toytree-NodeLabel" transform="translate(267.581,1162.44)" /><g class="toytree-NodeLabel" transform="translate(172.214,1195.62)" /><g class="toytree-NodeLabel" transform="translate(161.618,1254.41)" /><g class="toytree-NodeLabel" transform="translate(140.425,1326.02)" /><g class="toytree-NodeLabel" transform="translate(235.792,879.91)" /><g class="toytree-NodeLabel" transform="translate(267.581,834.893)" /><g class="toytree-NodeLabel" transform="translate(818.588,767.366)" /><g class="toytree-NodeLabel" transform="translate(267.581,784.247)" /><g class="toytree-NodeLabel" transform="translate(235.792,809.57)" /><g class="toytree-NodeLabel" transform="translate(161.618,844.74)" /><g class="toytree-NodeLabel" transform="translate(362.947,632.312)" /><g class="toytree-NodeLabel" transform="translate(458.314,542.276)" /><g class="toytree-NodeLabel" transform="translate(415.929,559.158)" /><g class="toytree-NodeLabel" transform="translate(458.314,452.24)" /><g class="toytree-NodeLabel" transform="translate(447.718,469.122)" /><g class="toytree-NodeLabel" transform="translate(415.929,488.817)" /><g class="toytree-NodeLabel" transform="translate(394.736,523.988)" /><g class="toytree-NodeLabel" transform="translate(362.947,561.268)" /><g class="toytree-NodeLabel" transform="translate(331.159,596.79)" /><g class="toytree-NodeLabel" transform="translate(288.773,631.433)" /><g class="toytree-NodeLabel" transform="translate(278.177,660.009)" /><g class="toytree-NodeLabel" transform="translate(193.407,685.551)" /><g class="toytree-NodeLabel" transform="translate(394.736,204.642)" /><g class="toytree-NodeLabel" transform="translate(585.47,114.606)" /><g class="toytree-NodeLabel" transform="translate(585.47,69.5881)" /><g class="toytree-NodeLabel" transform="translate(426.525,92.0971)" /><g class="toytree-NodeLabel" transform="translate(405.333,120.233)" /><g class="toytree-NodeLabel" transform="translate(394.736,145.556)" /><g class="toytree-NodeLabel" transform="translate(384.14,175.099)" /><g class="toytree-NodeLabel" transform="translate(373.544,206.752)" /><g class="toytree-NodeLabel" transform="translate(352.351,233.833)" /><g class="toytree-NodeLabel" transform="translate(341.755,258.628)" /><g class="toytree-NodeLabel" transform="translate(299.37,297.667)" /><g class="toytree-NodeLabel" transform="translate(278.177,324.309)" /><g class="toytree-NodeLabel" transform="translate(267.581,348.884)" /><g class="toytree-NodeLabel" transform="translate(214.599,372.426)" /><g class="toytree-NodeLabel" transform="translate(193.407,395.451)" /><g class="toytree-NodeLabel" transform="translate(172.214,540.501)" /><g class="toytree-NodeLabel" transform="translate(161.618,637.052)" /><g class="toytree-NodeLabel" transform="translate(140.425,740.896)" /><g class="toytree-NodeLabel" transform="translate(129.829,1257.81)" /><g class="toytree-NodeLabel" transform="translate(55.6551,1661.92)" /></g><g class="toytree-TipLabels" style="fill:rgb(14.5%,14.5%,14.5%);fill-opacity:1.0;font-family:Helvetica;font-size:14px;font-weight:300;vertical-align:baseline;white-space:pre;stroke:none"><g class="toytree-TipLabel" transform="translate(1708.68,2151.67)"><text x="15.0" y="3.577" style="fill:rgb(14.5%,14.5%,14.5%);fill-opacity:1.0">Gothic</text></g><g class="toytree-TipLabel" transform="translate(1708.68,2129.16)"><text x="15.0" y="3.577" style="fill:rgb(14.5%,14.5%,14.5%);fill-opacity:1.0">Swedish</text></g><g class="toytree-TipLabel" transform="translate(1708.68,2106.65)"><text x="15.0" y="3.577" style="fill:rgb(14.5%,14.5%,14.5%);fill-opacity:1.0">Danish</text></g><g class="toytree-TipLabel" transform="translate(1708.68,2084.14)"><text x="15.0" y="3.577" style="fill:rgb(14.5%,14.5%,14.5%);fill-opacity:1.0">Norwegian</text></g><g class="toytree-TipLabel" transform="translate(1708.68,2061.63)"><text x="15.0" y="3.577" style="fill:rgb(14.5%,14.5%,14.5%);fill-opacity:1.0">Old_West_Norse</text></g><g class="toytree-TipLabel" transform="translate(1708.68,2039.12)"><text x="15.0" y="3.577" style="fill:rgb(14.5%,14.5%,14.5%);fill-opacity:1.0">Faroese</text></g><g class="toytree-TipLabel" transform="translate(1708.68,2016.61)"><text x="15.0" y="3.577" style="fill:rgb(14.5%,14.5%,14.5%);fill-opacity:1.0">Icelandic</text></g><g class="toytree-TipLabel" transform="translate(1708.68,1994.1)"><text x="15.0" y="3.577" style="fill:rgb(14.5%,14.5%,14.5%);fill-opacity:1.0">English</text></g><g class="toytree-TipLabel" transform="translate(1708.68,1971.59)"><text x="15.0" y="3.577" style="fill:rgb(14.5%,14.5%,14.5%);fill-opacity:1.0">Old_English</text></g><g class="toytree-TipLabel" transform="translate(1708.68,1949.09)"><text x="15.0" y="3.577" style="fill:rgb(14.5%,14.5%,14.5%);fill-opacity:1.0">Old_High_German</text></g><g class="toytree-TipLabel" transform="translate(1708.68,1926.58)"><text x="15.0" y="3.577" style="fill:rgb(14.5%,14.5%,14.5%);fill-opacity:1.0">Luxembourgish</text></g><g class="toytree-TipLabel" transform="translate(1708.68,1904.07)"><text x="15.0" y="3.577" style="fill:rgb(14.5%,14.5%,14.5%);fill-opacity:1.0">German</text></g><g class="toytree-TipLabel" transform="translate(1708.68,1881.56)"><text x="15.0" y="3.577" style="fill:rgb(14.5%,14.5%,14.5%);fill-opacity:1.0">Swiss_German</text></g><g class="toytree-TipLabel" transform="translate(1708.68,1859.05)"><text x="15.0" y="3.577" style="fill:rgb(14.5%,14.5%,14.5%);fill-opacity:1.0">Frisian</text></g><g class="toytree-TipLabel" transform="translate(1708.68,1836.54)"><text x="15.0" y="3.577" style="fill:rgb(14.5%,14.5%,14.5%);fill-opacity:1.0">Dutch</text></g><g class="toytree-TipLabel" transform="translate(1708.68,1814.03)"><text x="15.0" y="3.577" style="fill:rgb(14.5%,14.5%,14.5%);fill-opacity:1.0">Afrikaans</text></g><g class="toytree-TipLabel" transform="translate(1708.68,1791.52)"><text x="15.0" y="3.577" style="fill:rgb(14.5%,14.5%,14.5%);fill-opacity:1.0">Flemish</text></g><g class="toytree-TipLabel" transform="translate(1708.68,1769.01)"><text x="15.0" y="3.577" style="fill:rgb(14.5%,14.5%,14.5%);fill-opacity:1.0">Old_Prussian</text></g><g class="toytree-TipLabel" transform="translate(1708.68,1746.51)"><text x="15.0" y="3.577" style="fill:rgb(14.5%,14.5%,14.5%);fill-opacity:1.0">Latvian</text></g><g class="toytree-TipLabel" transform="translate(1708.68,1724)"><text x="15.0" y="3.577" style="fill:rgb(14.5%,14.5%,14.5%);fill-opacity:1.0">Lithuanian</text></g><g class="toytree-TipLabel" transform="translate(1708.68,1701.49)"><text x="15.0" y="3.577" style="fill:rgb(14.5%,14.5%,14.5%);fill-opacity:1.0">Slovenian</text></g><g class="toytree-TipLabel" transform="translate(1708.68,1678.98)"><text x="15.0" y="3.577" style="fill:rgb(14.5%,14.5%,14.5%);fill-opacity:1.0">Serbian</text></g><g class="toytree-TipLabel" transform="translate(1708.68,1656.47)"><text x="15.0" y="3.577" style="fill:rgb(14.5%,14.5%,14.5%);fill-opacity:1.0">Bulgarian</text></g><g class="toytree-TipLabel" transform="translate(1708.68,1633.96)"><text x="15.0" y="3.577" style="fill:rgb(14.5%,14.5%,14.5%);fill-opacity:1.0">Macedonian</text></g><g class="toytree-TipLabel" transform="translate(1708.68,1611.45)"><text x="15.0" y="3.577" style="fill:rgb(14.5%,14.5%,14.5%);fill-opacity:1.0">Old_Church_Slavic</text></g><g class="toytree-TipLabel" transform="translate(1708.68,1588.94)"><text x="15.0" y="3.577" style="fill:rgb(14.5%,14.5%,14.5%);fill-opacity:1.0">Russian</text></g><g class="toytree-TipLabel" transform="translate(1708.68,1566.43)"><text x="15.0" y="3.577" style="fill:rgb(14.5%,14.5%,14.5%);fill-opacity:1.0">Belarusian</text></g><g class="toytree-TipLabel" transform="translate(1708.68,1543.92)"><text x="15.0" y="3.577" style="fill:rgb(14.5%,14.5%,14.5%);fill-opacity:1.0">Ukrainian</text></g><g class="toytree-TipLabel" transform="translate(1708.68,1521.42)"><text x="15.0" y="3.577" style="fill:rgb(14.5%,14.5%,14.5%);fill-opacity:1.0">Polish</text></g><g class="toytree-TipLabel" transform="translate(1708.68,1498.91)"><text x="15.0" y="3.577" style="fill:rgb(14.5%,14.5%,14.5%);fill-opacity:1.0">Czech</text></g><g class="toytree-TipLabel" transform="translate(1708.68,1476.4)"><text x="15.0" y="3.577" style="fill:rgb(14.5%,14.5%,14.5%);fill-opacity:1.0">Slovak</text></g><g class="toytree-TipLabel" transform="translate(1708.68,1453.89)"><text x="15.0" y="3.577" style="fill:rgb(14.5%,14.5%,14.5%);fill-opacity:1.0">Lower_Sorbian</text></g><g class="toytree-TipLabel" transform="translate(1708.68,1431.38)"><text x="15.0" y="3.577" style="fill:rgb(14.5%,14.5%,14.5%);fill-opacity:1.0">Upper_Sorbian</text></g><g class="toytree-TipLabel" transform="translate(1708.68,1408.87)"><text x="15.0" y="3.577" style="fill:rgb(14.5%,14.5%,14.5%);fill-opacity:1.0">Arvanitika</text></g><g class="toytree-TipLabel" transform="translate(1708.68,1386.36)"><text x="15.0" y="3.577" style="fill:rgb(14.5%,14.5%,14.5%);fill-opacity:1.0">Tosk</text></g><g class="toytree-TipLabel" transform="translate(1708.68,1363.85)"><text x="15.0" y="3.577" style="fill:rgb(14.5%,14.5%,14.5%);fill-opacity:1.0">Welsh</text></g><g class="toytree-TipLabel" transform="translate(1708.68,1341.34)"><text x="15.0" y="3.577" style="fill:rgb(14.5%,14.5%,14.5%);fill-opacity:1.0">Breton</text></g><g class="toytree-TipLabel" transform="translate(1708.68,1318.84)"><text x="15.0" y="3.577" style="fill:rgb(14.5%,14.5%,14.5%);fill-opacity:1.0">Cornish</text></g><g class="toytree-TipLabel" transform="translate(1708.68,1296.33)"><text x="15.0" y="3.577" style="fill:rgb(14.5%,14.5%,14.5%);fill-opacity:1.0">Old_Irish</text></g><g class="toytree-TipLabel" transform="translate(1708.68,1273.82)"><text x="15.0" y="3.577" style="fill:rgb(14.5%,14.5%,14.5%);fill-opacity:1.0">Irish</text></g><g class="toytree-TipLabel" transform="translate(1708.68,1251.31)"><text x="15.0" y="3.577" style="fill:rgb(14.5%,14.5%,14.5%);fill-opacity:1.0">Scots_Gaelic</text></g><g class="toytree-TipLabel" transform="translate(1708.68,1228.8)"><text x="15.0" y="3.577" style="fill:rgb(14.5%,14.5%,14.5%);fill-opacity:1.0">Arumanian</text></g><g class="toytree-TipLabel" transform="translate(1708.68,1206.29)"><text x="15.0" y="3.577" style="fill:rgb(14.5%,14.5%,14.5%);fill-opacity:1.0">Latin</text></g><g class="toytree-TipLabel" transform="translate(1708.68,1183.78)"><text x="15.0" y="3.577" style="fill:rgb(14.5%,14.5%,14.5%);fill-opacity:1.0">Romanian</text></g><g class="toytree-TipLabel" transform="translate(1708.68,1161.27)"><text x="15.0" y="3.577" style="fill:rgb(14.5%,14.5%,14.5%);fill-opacity:1.0">Cagliari</text></g><g class="toytree-TipLabel" transform="translate(1708.68,1138.76)"><text x="15.0" y="3.577" style="fill:rgb(14.5%,14.5%,14.5%);fill-opacity:1.0">Nuorese</text></g><g class="toytree-TipLabel" transform="translate(1708.68,1116.25)"><text x="15.0" y="3.577" style="fill:rgb(14.5%,14.5%,14.5%);fill-opacity:1.0">Catalan</text></g><g class="toytree-TipLabel" transform="translate(1708.68,1093.75)"><text x="15.0" y="3.577" style="fill:rgb(14.5%,14.5%,14.5%);fill-opacity:1.0">Portuguese</text></g><g class="toytree-TipLabel" transform="translate(1708.68,1071.24)"><text x="15.0" y="3.577" style="fill:rgb(14.5%,14.5%,14.5%);fill-opacity:1.0">Spanish</text></g><g class="toytree-TipLabel" transform="translate(1708.68,1048.73)"><text x="15.0" y="3.577" style="fill:rgb(14.5%,14.5%,14.5%);fill-opacity:1.0">Provencal</text></g><g class="toytree-TipLabel" transform="translate(1708.68,1026.22)"><text x="15.0" y="3.577" style="fill:rgb(14.5%,14.5%,14.5%);fill-opacity:1.0">French</text></g><g class="toytree-TipLabel" transform="translate(1708.68,1003.71)"><text x="15.0" y="3.577" style="fill:rgb(14.5%,14.5%,14.5%);fill-opacity:1.0">Walloon</text></g><g class="toytree-TipLabel" transform="translate(1708.68,981.201)"><text x="15.0" y="3.577" style="fill:rgb(14.5%,14.5%,14.5%);fill-opacity:1.0">Friulian</text></g><g class="toytree-TipLabel" transform="translate(1708.68,958.692)"><text x="15.0" y="3.577" style="fill:rgb(14.5%,14.5%,14.5%);fill-opacity:1.0">Italian</text></g><g class="toytree-TipLabel" transform="translate(1708.68,936.183)"><text x="15.0" y="3.577" style="fill:rgb(14.5%,14.5%,14.5%);fill-opacity:1.0">Ladin</text></g><g class="toytree-TipLabel" transform="translate(1708.68,913.674)"><text x="15.0" y="3.577" style="fill:rgb(14.5%,14.5%,14.5%);fill-opacity:1.0">Romansh</text></g><g class="toytree-TipLabel" transform="translate(1708.68,891.165)"><text x="15.0" y="3.577" style="fill:rgb(14.5%,14.5%,14.5%);fill-opacity:1.0">Tocharian_A</text></g><g class="toytree-TipLabel" transform="translate(1708.68,868.656)"><text x="15.0" y="3.577" style="fill:rgb(14.5%,14.5%,14.5%);fill-opacity:1.0">Tocharian_B</text></g><g class="toytree-TipLabel" transform="translate(1708.68,846.147)"><text x="15.0" y="3.577" style="fill:rgb(14.5%,14.5%,14.5%);fill-opacity:1.0">Ancient_Greek</text></g><g class="toytree-TipLabel" transform="translate(1708.68,823.638)"><text x="15.0" y="3.577" style="fill:rgb(14.5%,14.5%,14.5%);fill-opacity:1.0">Modern_Greek</text></g><g class="toytree-TipLabel" transform="translate(1708.68,801.129)"><text x="15.0" y="3.577" style="fill:rgb(14.5%,14.5%,14.5%);fill-opacity:1.0">Classical_Armenian</text></g><g class="toytree-TipLabel" transform="translate(1708.68,778.62)"><text x="15.0" y="3.577" style="fill:rgb(14.5%,14.5%,14.5%);fill-opacity:1.0">Adapazar</text></g><g class="toytree-TipLabel" transform="translate(1708.68,756.111)"><text x="15.0" y="3.577" style="fill:rgb(14.5%,14.5%,14.5%);fill-opacity:1.0">Eastern_Armenian</text></g><g class="toytree-TipLabel" transform="translate(1708.68,733.602)"><text x="15.0" y="3.577" style="fill:rgb(14.5%,14.5%,14.5%);fill-opacity:1.0">Hittite</text></g><g class="toytree-TipLabel" transform="translate(1708.68,711.093)"><text x="15.0" y="3.577" style="fill:rgb(14.5%,14.5%,14.5%);fill-opacity:1.0">Avestan</text></g><g class="toytree-TipLabel" transform="translate(1708.68,688.584)"><text x="15.0" y="3.577" style="fill:rgb(14.5%,14.5%,14.5%);fill-opacity:1.0">Digor_Ossetic</text></g><g class="toytree-TipLabel" transform="translate(1708.68,666.075)"><text x="15.0" y="3.577" style="fill:rgb(14.5%,14.5%,14.5%);fill-opacity:1.0">Sogdian</text></g><g class="toytree-TipLabel" transform="translate(1708.68,643.566)"><text x="15.0" y="3.577" style="fill:rgb(14.5%,14.5%,14.5%);fill-opacity:1.0">Pashto</text></g><g class="toytree-TipLabel" transform="translate(1708.68,621.057)"><text x="15.0" y="3.577" style="fill:rgb(14.5%,14.5%,14.5%);fill-opacity:1.0">Waziri</text></g><g class="toytree-TipLabel" transform="translate(1708.68,598.549)"><text x="15.0" y="3.577" style="fill:rgb(14.5%,14.5%,14.5%);fill-opacity:1.0">Kurdish</text></g><g class="toytree-TipLabel" transform="translate(1708.68,576.04)"><text x="15.0" y="3.577" style="fill:rgb(14.5%,14.5%,14.5%);fill-opacity:1.0">Wakhi</text></g><g class="toytree-TipLabel" transform="translate(1708.68,553.531)"><text x="15.0" y="3.577" style="fill:rgb(14.5%,14.5%,14.5%);fill-opacity:1.0">Sariqoli</text></g><g class="toytree-TipLabel" transform="translate(1708.68,531.022)"><text x="15.0" y="3.577" style="fill:rgb(14.5%,14.5%,14.5%);fill-opacity:1.0">Shughni</text></g><g class="toytree-TipLabel" transform="translate(1708.68,508.513)"><text x="15.0" y="3.577" style="fill:rgb(14.5%,14.5%,14.5%);fill-opacity:1.0">Zazaki</text></g><g class="toytree-TipLabel" transform="translate(1708.68,486.004)"><text x="15.0" y="3.577" style="fill:rgb(14.5%,14.5%,14.5%);fill-opacity:1.0">Baluchi</text></g><g class="toytree-TipLabel" transform="translate(1708.68,463.495)"><text x="15.0" y="3.577" style="fill:rgb(14.5%,14.5%,14.5%);fill-opacity:1.0">Persian</text></g><g class="toytree-TipLabel" transform="translate(1708.68,440.986)"><text x="15.0" y="3.577" style="fill:rgb(14.5%,14.5%,14.5%);fill-opacity:1.0">Tajik</text></g><g class="toytree-TipLabel" transform="translate(1708.68,418.477)"><text x="15.0" y="3.577" style="fill:rgb(14.5%,14.5%,14.5%);fill-opacity:1.0">Vedic_Sanskrit</text></g><g class="toytree-TipLabel" transform="translate(1708.68,395.968)"><text x="15.0" y="3.577" style="fill:rgb(14.5%,14.5%,14.5%);fill-opacity:1.0">Singhalese</text></g><g class="toytree-TipLabel" transform="translate(1708.68,373.459)"><text x="15.0" y="3.577" style="fill:rgb(14.5%,14.5%,14.5%);fill-opacity:1.0">Romani</text></g><g class="toytree-TipLabel" transform="translate(1708.68,350.95)"><text x="15.0" y="3.577" style="fill:rgb(14.5%,14.5%,14.5%);fill-opacity:1.0">Kashmiri</text></g><g class="toytree-TipLabel" transform="translate(1708.68,328.441)"><text x="15.0" y="3.577" style="fill:rgb(14.5%,14.5%,14.5%);fill-opacity:1.0">Assamese</text></g><g class="toytree-TipLabel" transform="translate(1708.68,305.932)"><text x="15.0" y="3.577" style="fill:rgb(14.5%,14.5%,14.5%);fill-opacity:1.0">Sindhi</text></g><g class="toytree-TipLabel" transform="translate(1708.68,283.423)"><text x="15.0" y="3.577" style="fill:rgb(14.5%,14.5%,14.5%);fill-opacity:1.0">Marwari</text></g><g class="toytree-TipLabel" transform="translate(1708.68,260.914)"><text x="15.0" y="3.577" style="fill:rgb(14.5%,14.5%,14.5%);fill-opacity:1.0">Oriya</text></g><g class="toytree-TipLabel" transform="translate(1708.68,238.405)"><text x="15.0" y="3.577" style="fill:rgb(14.5%,14.5%,14.5%);fill-opacity:1.0">Bengali</text></g><g class="toytree-TipLabel" transform="translate(1708.68,215.896)"><text x="15.0" y="3.577" style="fill:rgb(14.5%,14.5%,14.5%);fill-opacity:1.0">Gujarati</text></g><g class="toytree-TipLabel" transform="translate(1708.68,193.387)"><text x="15.0" y="3.577" style="fill:rgb(14.5%,14.5%,14.5%);fill-opacity:1.0">Marathi</text></g><g class="toytree-TipLabel" transform="translate(1708.68,170.878)"><text x="15.0" y="3.577" style="fill:rgb(14.5%,14.5%,14.5%);fill-opacity:1.0">Nepali</text></g><g class="toytree-TipLabel" transform="translate(1708.68,148.369)"><text x="15.0" y="3.577" style="fill:rgb(14.5%,14.5%,14.5%);fill-opacity:1.0">Bihari</text></g><g class="toytree-TipLabel" transform="translate(1708.68,125.861)"><text x="15.0" y="3.577" style="fill:rgb(14.5%,14.5%,14.5%);fill-opacity:1.0">Hindi</text></g><g class="toytree-TipLabel" transform="translate(1708.68,103.352)"><text x="15.0" y="3.577" style="fill:rgb(14.5%,14.5%,14.5%);fill-opacity:1.0">Urdu</text></g><g class="toytree-TipLabel" transform="translate(1708.68,80.8426)"><text x="15.0" y="3.577" style="fill:rgb(14.5%,14.5%,14.5%);fill-opacity:1.0">Lahnda</text></g><g class="toytree-TipLabel" transform="translate(1708.68,58.3336)"><text x="15.0" y="3.577" style="fill:rgb(14.5%,14.5%,14.5%);fill-opacity:1.0">Panjabi</text></g></g></g></g></g></svg>