<svg class="toyplot-canvas-Canvas" xmlns:toyplot="http://www.sandia.gov/toyplot" xmlns:xlink="http://www.w3.org/1999/xlink" xmlns="http://www.w3.org/2000/svg" width="2000.0px" height="2150.0px" viewBox="0 0 2000.0 2150.0" preserveAspectRatio="xMidYMid meet" style="background-color:transparent;border-color:#292724;border-style:none;border-width:1.0;fill:rgb(16.1%,15.3%,14.1%);fill-opacity:1.0;font-family:Helvetica;font-size:12px;opacity:1.0;stroke:rgb(16.1%,15.3%,14.1%);stroke-opacity:1.0;stroke-width:1.0" id="t1b79ed07bb524750bb35dbec70bc65dd"><g class="toyplot-coordinates-Cartesian" id="t5a8b062264554aad9f8874cee2d8be8f"><clipPath id="te1c4b47e0517417caf7a88386440b0b4"><rect x="35.0" y="35.0" width="1930.0" height="2080.0" /></clipPath><g clip-path="url(#te1c4b47e0517417caf7a88386440b0b4)"><g class="toytree-mark-Toytree" id="te3e914de6ad242a48504635647ddd40b"><g class="toytree-Edges" style="stroke:rgb(14.5%,14.5%,14.5%);stroke-opacity:1.0;stroke-linecap:round;stroke-width:2.0;fill:none"><path d="M 456.8 2066.8 L 456.8 2091.7 L 657.5 2091.7" id="99,0" style="" /><path d="M 657.5 2041.9 L 657.5 2068.8 L 691.0 2068.8" id="98,1" style="" /><path d="M 691.0 2015.0 L 691.0 2046.0 L 824.8 2046.0" id="97,2" style="" /><path d="M 824.8 1984.1 L 824.8 2023.1 L 891.7 2023.1" id="96,3" style="" /><path d="M 958.6 1983.1 L 958.6 2000.3 L 1125.9 2000.3" id="91,4" style="" /><path d="M 1125.9 1966.0 L 1125.9 1977.4 L 1527.3 1977.4" id="90,5" style="" /><path d="M 1125.9 1966.0 L 1125.9 1954.6 L 1527.3 1954.6" id="90,6" style="" /><path d="M 958.6 1907.0 L 958.6 1931.7 L 992.1 1931.7" id="94,7" style="" /><path d="M 992.1 1882.2 L 992.1 1908.9 L 1059.0 1908.9" id="93,8" style="" /><path d="M 992.1 1882.2 L 992.1 1886.0 L 1059.0 1886.0" id="93,9" style="" /><path d="M 1059.0 1851.8 L 1059.0 1863.2 L 1493.9 1863.2" id="92,10" style="" /><path d="M 1059.0 1851.8 L 1059.0 1840.4 L 1493.9 1840.4" id="92,11" style="" /><path d="M 456.8 1785.0 L 456.8 1817.5 L 523.7 1817.5" id="113,12" style="" /><path d="M 657.5 1783.2 L 657.5 1794.7 L 691.0 1794.7" id="100,13" style="" /><path d="M 657.5 1783.2 L 657.5 1771.8 L 691.0 1771.8" id="100,14" style="" /><path d="M 657.5 1721.9 L 657.5 1749.0 L 757.9 1749.0" id="111,15" style="" /><path d="M 757.9 1694.8 L 757.9 1726.1 L 824.8 1726.1" id="110,16" style="" /><path d="M 757.9 1694.8 L 757.9 1703.3 L 824.8 1703.3" id="110,17" style="" /><path d="M 824.8 1655.0 L 824.8 1680.4 L 858.3 1680.4" id="109,18" style="" /><path d="M 858.3 1629.5 L 858.3 1657.6 L 891.7 1657.6" id="108,19" style="" /><path d="M 891.7 1601.4 L 891.7 1634.7 L 925.2 1634.7" id="107,20" style="" /><path d="M 925.2 1568.1 L 925.2 1611.9 L 958.6 1611.9" id="106,21" style="" /><path d="M 958.6 1577.6 L 958.6 1589.0 L 1159.3 1589.0" id="101,22" style="" /><path d="M 958.6 1577.6 L 958.6 1566.2 L 1159.3 1566.2" id="101,23" style="" /><path d="M 958.6 1514.8 L 958.6 1543.4 L 992.1 1543.4" id="105,24" style="" /><path d="M 1192.8 1509.1 L 1192.8 1520.5 L 1259.7 1520.5" id="102,25" style="" /><path d="M 1192.8 1509.1 L 1192.8 1497.7 L 1259.7 1497.7" id="102,26" style="" /><path d="M 1192.8 1463.4 L 1192.8 1474.8 L 1259.7 1474.8" id="103,27" style="" /><path d="M 1192.8 1463.4 L 1192.8 1452.0 L 1259.7 1452.0" id="103,28" style="" /><path d="M 523.7 1412.0 L 523.7 1429.1 L 757.9 1429.1" id="116,29" style="" /><path d="M 757.9 1394.9 L 757.9 1406.3 L 1059.0 1406.3" id="115,30" style="" /><path d="M 757.9 1394.9 L 757.9 1383.4 L 1059.0 1383.4" id="115,31" style="" /><path d="M 523.7 1314.4 L 523.7 1360.6 L 757.9 1360.6" id="127,32" style="" /><path d="M 791.4 1320.6 L 791.4 1337.7 L 891.7 1337.7" id="118,33" style="" /><path d="M 891.7 1303.5 L 891.7 1314.9 L 925.2 1314.9" id="117,34" style="" /><path d="M 891.7 1303.5 L 891.7 1292.0 L 925.2 1292.0" id="117,35" style="" /><path d="M 791.4 1215.9 L 791.4 1269.2 L 824.8 1269.2" id="125,36" style="" /><path d="M 824.8 1229.2 L 824.8 1246.3 L 858.3 1246.3" id="120,37" style="" /><path d="M 858.3 1212.1 L 858.3 1223.5 L 925.2 1223.5" id="119,38" style="" /><path d="M 858.3 1212.1 L 858.3 1200.7 L 925.2 1200.7" id="119,39" style="" /><path d="M 824.8 1149.3 L 824.8 1177.8 L 858.3 1177.8" id="124,40" style="" /><path d="M 925.2 1143.5 L 925.2 1155.0 L 992.1 1155.0" id="121,41" style="" /><path d="M 925.2 1143.5 L 925.2 1132.1 L 992.1 1132.1" id="121,42" style="" /><path d="M 925.2 1097.8 L 925.2 1109.3 L 1092.4 1109.3" id="122,43" style="" /><path d="M 925.2 1097.8 L 925.2 1086.4 L 1092.4 1086.4" id="122,44" style="" /><path d="M 356.5 1010.2 L 356.5 1063.6 L 657.5 1063.6" id="143,45" style="" /><path d="M 657.5 956.8 L 657.5 1040.7 L 691.0 1040.7" id="142,46" style="" /><path d="M 858.3 1006.5 L 858.3 1017.9 L 891.7 1017.9" id="129,47" style="" /><path d="M 858.3 1006.5 L 858.3 995.0 L 891.7 995.0" id="129,48" style="" /><path d="M 858.3 952.2 L 858.3 972.2 L 891.7 972.2" id="132,49" style="" /><path d="M 891.7 932.2 L 891.7 949.3 L 992.1 949.3" id="131,50" style="" /><path d="M 992.1 915.1 L 992.1 926.5 L 1092.4 926.5" id="130,51" style="" /><path d="M 992.1 915.1 L 992.1 903.7 L 1092.4 903.7" id="130,52" style="" /><path d="M 691.0 850.5 L 691.0 880.8 L 724.4 880.8" id="141,53" style="" /><path d="M 724.4 820.1 L 724.4 858.0 L 757.9 858.0" id="140,54" style="" /><path d="M 824.8 818.0 L 824.8 835.1 L 891.7 835.1" id="135,55" style="" /><path d="M 891.7 800.8 L 891.7 812.3 L 958.6 812.3" id="134,56" style="" /><path d="M 891.7 800.8 L 891.7 789.4 L 958.6 789.4" id="134,57" style="" /><path d="M 824.8 746.6 L 824.8 766.6 L 958.6 766.6" id="138,58" style="" /><path d="M 958.6 726.6 L 958.6 743.7 L 992.1 743.7" id="137,59" style="" /><path d="M 992.1 709.5 L 992.1 720.9 L 1059.0 720.9" id="136,60" style="" /><path d="M 992.1 709.5 L 992.1 698.0 L 1059.0 698.0" id="136,61" style="" /><path d="M 824.8 658.1 L 824.8 675.2 L 1326.6 675.2" id="145,62" style="" /><path d="M 1326.6 640.9 L 1326.6 652.3 L 1393.5 652.3" id="144,63" style="" /><path d="M 1326.6 640.9 L 1326.6 629.5 L 1393.5 629.5" id="144,64" style="" /><path d="M 824.8 589.5 L 824.8 606.6 L 1259.7 606.6" id="147,65" style="" /><path d="M 1259.7 572.4 L 1259.7 583.8 L 1460.4 583.8" id="146,66" style="" /><path d="M 1259.7 572.4 L 1259.7 561.0 L 1460.4 561.0" id="146,67" style="" /><path d="M 456.8 503.8 L 456.8 538.1 L 490.3 538.1" id="154,68" style="" /><path d="M 590.6 503.8 L 590.6 515.3 L 757.9 515.3" id="149,69" style="" /><path d="M 590.6 503.8 L 590.6 492.4 L 757.9 492.4" id="149,70" style="" /><path d="M 657.5 458.1 L 657.5 469.6 L 1627.7 469.6" id="150,71" style="" /><path d="M 657.5 458.1 L 657.5 446.7 L 1627.7 446.7" id="150,72" style="" /><path d="M 657.5 412.5 L 657.5 423.9 L 1259.7 423.9" id="151,73" style="" /><path d="M 657.5 412.5 L 657.5 401.0 L 1259.7 401.0" id="151,74" style="" /><path d="M 389.9 343.4 L 389.9 378.2 L 657.5 378.2" id="167,75" style="" /><path d="M 657.5 308.5 L 657.5 355.3 L 691.0 355.3" id="166,76" style="" /><path d="M 657.5 308.5 L 657.5 332.5 L 691.0 332.5" id="166,77" style="" /><path d="M 757.9 298.2 L 757.9 309.6 L 992.1 309.6" id="156,78" style="" /><path d="M 757.9 298.2 L 757.9 286.8 L 992.1 286.8" id="156,79" style="" /><path d="M 791.4 246.8 L 791.4 264.0 L 858.3 264.0" id="158,80" style="" /><path d="M 858.3 229.7 L 858.3 241.1 L 958.6 241.1" id="157,81" style="" /><path d="M 858.3 229.7 L 858.3 218.3 L 958.6 218.3" id="157,82" style="" /><path d="M 791.4 178.3 L 791.4 195.4 L 925.2 195.4" id="160,83" style="" /><path d="M 925.2 161.1 L 925.2 172.6 L 958.6 172.6" id="159,84" style="" /><path d="M 925.2 161.1 L 925.2 149.7 L 958.6 149.7" id="159,85" style="" /><path d="M 791.4 106.9 L 791.4 126.9 L 824.8 126.9" id="163,86" style="" /><path d="M 824.8 86.9 L 824.8 104.0 L 858.3 104.0" id="162,87" style="" /><path d="M 858.3 69.8 L 858.3 81.2 L 891.7 81.2" id="161,88" style="" /><path d="M 858.3 69.8 L 858.3 58.3 L 891.7 58.3" id="161,89" style="" /><path d="M 958.6 1983.1 L 958.6 1966.0 L 1125.9 1966.0" id="91,90" style="" /><path d="M 891.7 1945.1 L 891.7 1983.1 L 958.6 1983.1" id="95,91" style="" /><path d="M 992.1 1882.2 L 992.1 1851.8 L 1059.0 1851.8" id="93,92" style="" /><path d="M 958.6 1907.0 L 958.6 1882.2 L 992.1 1882.2" id="94,93" style="" /><path d="M 891.7 1945.1 L 891.7 1907.0 L 958.6 1907.0" id="95,94" style="" /><path d="M 824.8 1984.1 L 824.8 1945.1 L 891.7 1945.1" id="96,95" style="" /><path d="M 691.0 2015.0 L 691.0 1984.1 L 824.8 1984.1" id="97,96" style="" /><path d="M 657.5 2041.9 L 657.5 2015.0 L 691.0 2015.0" id="98,97" style="" /><path d="M 456.8 2066.8 L 456.8 2041.9 L 657.5 2041.9" id="99,98" style="" /><path d="M 323.0 1925.9 L 323.0 2066.8 L 456.8 2066.8" id="114,99" style="" /><path d="M 523.7 1752.6 L 523.7 1783.2 L 657.5 1783.2" id="112,100" style="" /><path d="M 925.2 1568.1 L 925.2 1577.6 L 958.6 1577.6" id="106,101" style="" /><path d="M 992.1 1486.2 L 992.1 1509.1 L 1192.8 1509.1" id="104,102" style="" /><path d="M 992.1 1486.2 L 992.1 1463.4 L 1192.8 1463.4" id="104,103" style="" /><path d="M 958.6 1514.8 L 958.6 1486.2 L 992.1 1486.2" id="105,104" style="" /><path d="M 925.2 1568.1 L 925.2 1514.8 L 958.6 1514.8" id="106,105" style="" /><path d="M 891.7 1601.4 L 891.7 1568.1 L 925.2 1568.1" id="107,106" style="" /><path d="M 858.3 1629.5 L 858.3 1601.4 L 891.7 1601.4" id="108,107" style="" /><path d="M 824.8 1655.0 L 824.8 1629.5 L 858.3 1629.5" id="109,108" style="" /><path d="M 757.9 1694.8 L 757.9 1655.0 L 824.8 1655.0" id="110,109" style="" /><path d="M 657.5 1721.9 L 657.5 1694.8 L 757.9 1694.8" id="111,110" style="" /><path d="M 523.7 1752.6 L 523.7 1721.9 L 657.5 1721.9" id="112,111" style="" /><path d="M 456.8 1785.0 L 456.8 1752.6 L 523.7 1752.6" id="113,112" style="" /><path d="M 323.0 1925.9 L 323.0 1785.0 L 456.8 1785.0" id="114,113" style="" /><path d="M 55.4 1434.1 L 55.4 1925.9 L 323.0 1925.9" id="170,114" style="" /><path d="M 523.7 1412.0 L 523.7 1394.9 L 757.9 1394.9" id="116,115" style="" /><path d="M 356.5 1363.2 L 356.5 1412.0 L 523.7 1412.0" id="128,116" style="" /><path d="M 791.4 1320.6 L 791.4 1303.5 L 891.7 1303.5" id="118,117" style="" /><path d="M 757.9 1268.2 L 757.9 1320.6 L 791.4 1320.6" id="126,118" style="" /><path d="M 824.8 1229.2 L 824.8 1212.1 L 858.3 1212.1" id="120,119" style="" /><path d="M 791.4 1215.9 L 791.4 1229.2 L 824.8 1229.2" id="125,120" style="" /><path d="M 858.3 1120.7 L 858.3 1143.5 L 925.2 1143.5" id="123,121" style="" /><path d="M 858.3 1120.7 L 858.3 1097.8 L 925.2 1097.8" id="123,122" style="" /><path d="M 824.8 1149.3 L 824.8 1120.7 L 858.3 1120.7" id="124,123" style="" /><path d="M 791.4 1215.9 L 791.4 1149.3 L 824.8 1149.3" id="125,124" style="" /><path d="M 757.9 1268.2 L 757.9 1215.9 L 791.4 1215.9" id="126,125" style="" /><path d="M 523.7 1314.4 L 523.7 1268.2 L 757.9 1268.2" id="127,126" style="" /><path d="M 356.5 1363.2 L 356.5 1314.4 L 523.7 1314.4" id="128,127" style="" /><path d="M 323.0 942.3 L 323.0 1363.2 L 356.5 1363.2" id="169,128" style="" /><path d="M 691.0 979.3 L 691.0 1006.5 L 858.3 1006.5" id="133,129" style="" /><path d="M 891.7 932.2 L 891.7 915.1 L 992.1 915.1" id="131,130" style="" /><path d="M 858.3 952.2 L 858.3 932.2 L 891.7 932.2" id="132,131" style="" /><path d="M 691.0 979.3 L 691.0 952.2 L 858.3 952.2" id="133,132" style="" /><path d="M 657.5 956.8 L 657.5 979.3 L 691.0 979.3" id="142,133" style="" /><path d="M 824.8 818.0 L 824.8 800.8 L 891.7 800.8" id="135,134" style="" /><path d="M 757.9 782.3 L 757.9 818.0 L 824.8 818.0" id="139,135" style="" /><path d="M 958.6 726.6 L 958.6 709.5 L 992.1 709.5" id="137,136" style="" /><path d="M 824.8 746.6 L 824.8 726.6 L 958.6 726.6" id="138,137" style="" /><path d="M 757.9 782.3 L 757.9 746.6 L 824.8 746.6" id="139,138" style="" /><path d="M 724.4 820.1 L 724.4 782.3 L 757.9 782.3" id="140,139" style="" /><path d="M 691.0 850.5 L 691.0 820.1 L 724.4 820.1" id="141,140" style="" /><path d="M 657.5 956.8 L 657.5 850.5 L 691.0 850.5" id="142,141" style="" /><path d="M 356.5 1010.2 L 356.5 956.8 L 657.5 956.8" id="143,142" style="" /><path d="M 323.0 942.3 L 323.0 1010.2 L 356.5 1010.2" id="169,143" style="" /><path d="M 824.8 658.1 L 824.8 640.9 L 1326.6 640.9" id="145,144" style="" /><path d="M 456.8 623.8 L 456.8 658.1 L 824.8 658.1" id="148,145" style="" /><path d="M 824.8 589.5 L 824.8 572.4 L 1259.7 572.4" id="147,146" style="" /><path d="M 456.8 623.8 L 456.8 589.5 L 824.8 589.5" id="148,147" style="" /><path d="M 389.9 563.8 L 389.9 623.8 L 456.8 623.8" id="155,148" style="" /><path d="M 490.3 469.6 L 490.3 503.8 L 590.6 503.8" id="153,149" style="" /><path d="M 590.6 435.3 L 590.6 458.1 L 657.5 458.1" id="152,150" style="" /><path d="M 590.6 435.3 L 590.6 412.5 L 657.5 412.5" id="152,151" style="" /><path d="M 490.3 469.6 L 490.3 435.3 L 590.6 435.3" id="153,152" style="" /><path d="M 456.8 503.8 L 456.8 469.6 L 490.3 469.6" id="154,153" style="" /><path d="M 389.9 563.8 L 389.9 503.8 L 456.8 503.8" id="155,154" style="" /><path d="M 356.5 453.6 L 356.5 563.8 L 389.9 563.8" id="168,155" style="" /><path d="M 691.0 237.8 L 691.0 298.2 L 757.9 298.2" id="165,156" style="" /><path d="M 791.4 246.8 L 791.4 229.7 L 858.3 229.7" id="158,157" style="" /><path d="M 757.9 177.3 L 757.9 246.8 L 791.4 246.8" id="164,158" style="" /><path d="M 791.4 178.3 L 791.4 161.1 L 925.2 161.1" id="160,159" style="" /><path d="M 757.9 177.3 L 757.9 178.3 L 791.4 178.3" id="164,160" style="" /><path d="M 824.8 86.9 L 824.8 69.8 L 858.3 69.8" id="162,161" style="" /><path d="M 791.4 106.9 L 791.4 86.9 L 824.8 86.9" id="163,162" style="" /><path d="M 757.9 177.3 L 757.9 106.9 L 791.4 106.9" id="164,163" style="" /><path d="M 691.0 237.8 L 691.0 177.3 L 757.9 177.3" id="165,164" style="" /><path d="M 657.5 308.5 L 657.5 237.8 L 691.0 237.8" id="166,165" style="" /><path d="M 389.9 343.4 L 389.9 308.5 L 657.5 308.5" id="167,166" style="" /><path d="M 356.5 453.6 L 356.5 343.4 L 389.9 343.4" id="168,167" style="" /><path d="M 323.0 942.3 L 323.0 453.6 L 356.5 453.6" id="169,168" style="" /><path d="M 55.4 1434.1 L 55.4 942.3 L 323.0 942.3" id="170,169" style="" /></g><g class="toytree-AlignEdges" style="stroke:rgb(66.0%,66.0%,66.0%);stroke-opacity:0.75;stroke-dasharray:2,4;stroke-linecap:round;stroke-width:2"><path d="M 1627.7 2091.7 L 657.5 2091.7" /><path d="M 1627.7 2068.8 L 691.0 2068.8" /><path d="M 1627.7 2046.0 L 824.8 2046.0" /><path d="M 1627.7 2023.1 L 891.7 2023.1" /><path d="M 1627.7 2000.3 L 1125.9 2000.3" /><path d="M 1627.7 1977.4 L 1527.3 1977.4" /><path d="M 1627.7 1954.6 L 1527.3 1954.6" /><path d="M 1627.7 1931.7 L 992.1 1931.7" /><path d="M 1627.7 1908.9 L 1059.0 1908.9" /><path d="M 1627.7 1886.0 L 1059.0 1886.0" /><path d="M 1627.7 1863.2 L 1493.9 1863.2" /><path d="M 1627.7 1840.4 L 1493.9 1840.4" /><path d="M 1627.7 1817.5 L 523.7 1817.5" /><path d="M 1627.7 1794.7 L 691.0 1794.7" /><path d="M 1627.7 1771.8 L 691.0 1771.8" /><path d="M 1627.7 1749.0 L 757.9 1749.0" /><path d="M 1627.7 1726.1 L 824.8 1726.1" /><path d="M 1627.7 1703.3 L 824.8 1703.3" /><path d="M 1627.7 1680.4 L 858.3 1680.4" /><path d="M 1627.7 1657.6 L 891.7 1657.6" /><path d="M 1627.7 1634.7 L 925.2 1634.7" /><path d="M 1627.7 1611.9 L 958.6 1611.9" /><path d="M 1627.7 1589.0 L 1159.3 1589.0" /><path d="M 1627.7 1566.2 L 1159.3 1566.2" /><path d="M 1627.7 1543.4 L 992.1 1543.4" /><path d="M 1627.7 1520.5 L 1259.7 1520.5" /><path d="M 1627.7 1497.7 L 1259.7 1497.7" /><path d="M 1627.7 1474.8 L 1259.7 1474.8" /><path d="M 1627.7 1452.0 L 1259.7 1452.0" /><path d="M 1627.7 1429.1 L 757.9 1429.1" /><path d="M 1627.7 1406.3 L 1059.0 1406.3" /><path d="M 1627.7 1383.4 L 1059.0 1383.4" /><path d="M 1627.7 1360.6 L 757.9 1360.6" /><path d="M 1627.7 1337.7 L 891.7 1337.7" /><path d="M 1627.7 1314.9 L 925.2 1314.9" /><path d="M 1627.7 1292.0 L 925.2 1292.0" /><path d="M 1627.7 1269.2 L 824.8 1269.2" /><path d="M 1627.7 1246.3 L 858.3 1246.3" /><path d="M 1627.7 1223.5 L 925.2 1223.5" /><path d="M 1627.7 1200.7 L 925.2 1200.7" /><path d="M 1627.7 1177.8 L 858.3 1177.8" /><path d="M 1627.7 1155.0 L 992.1 1155.0" /><path d="M 1627.7 1132.1 L 992.1 1132.1" /><path d="M 1627.7 1109.3 L 1092.4 1109.3" /><path d="M 1627.7 1086.4 L 1092.4 1086.4" /><path d="M 1627.7 1063.6 L 657.5 1063.6" /><path d="M 1627.7 1040.7 L 691.0 1040.7" /><path d="M 1627.7 1017.9 L 891.7 1017.9" /><path d="M 1627.7 995.0 L 891.7 995.0" /><path d="M 1627.7 972.2 L 891.7 972.2" /><path d="M 1627.7 949.3 L 992.1 949.3" /><path d="M 1627.7 926.5 L 1092.4 926.5" /><path d="M 1627.7 903.7 L 1092.4 903.7" /><path d="M 1627.7 880.8 L 724.4 880.8" /><path d="M 1627.7 858.0 L 757.9 858.0" /><path d="M 1627.7 835.1 L 891.7 835.1" /><path d="M 1627.7 812.3 L 958.6 812.3" /><path d="M 1627.7 789.4 L 958.6 789.4" /><path d="M 1627.7 766.6 L 958.6 766.6" /><path d="M 1627.7 743.7 L 992.1 743.7" /><path d="M 1627.7 720.9 L 1059.0 720.9" /><path d="M 1627.7 698.0 L 1059.0 698.0" /><path d="M 1627.7 675.2 L 1326.6 675.2" /><path d="M 1627.7 652.3 L 1393.5 652.3" /><path d="M 1627.7 629.5 L 1393.5 629.5" /><path d="M 1627.7 606.6 L 1259.7 606.6" /><path d="M 1627.7 583.8 L 1460.4 583.8" /><path d="M 1627.7 561.0 L 1460.4 561.0" /><path d="M 1627.7 538.1 L 490.3 538.1" /><path d="M 1627.7 515.3 L 757.9 515.3" /><path d="M 1627.7 492.4 L 757.9 492.4" /><path d="M 1627.7 469.6 L 1627.7 469.6" /><path d="M 1627.7 446.7 L 1627.7 446.7" /><path d="M 1627.7 423.9 L 1259.7 423.9" /><path d="M 1627.7 401.0 L 1259.7 401.0" /><path d="M 1627.7 378.2 L 657.5 378.2" /><path d="M 1627.7 355.3 L 691.0 355.3" /><path d="M 1627.7 332.5 L 691.0 332.5" /><path d="M 1627.7 309.6 L 992.1 309.6" /><path d="M 1627.7 286.8 L 992.1 286.8" /><path d="M 1627.7 264.0 L 858.3 264.0" /><path d="M 1627.7 241.1 L 958.6 241.1" /><path d="M 1627.7 218.3 L 958.6 218.3" /><path d="M 1627.7 195.4 L 925.2 195.4" /><path d="M 1627.7 172.6 L 958.6 172.6" /><path d="M 1627.7 149.7 L 958.6 149.7" /><path d="M 1627.7 126.9 L 824.8 126.9" /><path d="M 1627.7 104.0 L 858.3 104.0" /><path d="M 1627.7 81.2 L 891.7 81.2" /><path d="M 1627.7 58.3 L 891.7 58.3" /></g><g class="toytree-AdmixEdges" style="fill:rgb(0.0%,0.0%,0.0%);fill-opacity:0.0;stroke:rgb(90.6%,54.1%,76.5%);stroke-opacity:0.6;font-size:14px;stroke-linecap:round;stroke-width:5" /><g class="toytree-Nodes" style="fill:rgb(0.0%,0.0%,0.0%);fill-opacity:1.0;stroke:none;stroke-width:1.5"><g id="Node-90" transform="translate(1125.88,1966.01)"><rect x="-5.0" y="-2.5" width="10.0" height="5.0" /></g><g id="Node-91" transform="translate(958.618,1983.15)"><rect x="-5.0" y="-2.5" width="10.0" height="5.0" /></g><g id="Node-92" transform="translate(1058.98,1851.78)"><rect x="-5.0" y="-2.5" width="10.0" height="5.0" /></g><g id="Node-93" transform="translate(992.071,1882.24)"><rect x="-5.0" y="-2.5" width="10.0" height="5.0" /></g><g id="Node-94" transform="translate(958.618,1906.99)"><rect x="-5.0" y="-2.5" width="10.0" height="5.0" /></g><g id="Node-95" transform="translate(891.711,1945.07)"><rect x="-5.0" y="-2.5" width="10.0" height="5.0" /></g><g id="Node-96" transform="translate(824.805,1984.1)"><rect x="-5.0" y="-2.5" width="10.0" height="5.0" /></g><g id="Node-97" transform="translate(690.992,2015.04)"><rect x="-5.0" y="-2.5" width="10.0" height="5.0" /></g><g id="Node-98" transform="translate(657.538,2041.93)"><rect x="-5.0" y="-2.5" width="10.0" height="5.0" /></g><g id="Node-99" transform="translate(456.819,2066.8)"><rect x="-5.0" y="-2.5" width="10.0" height="5.0" /></g><g id="Node-100" transform="translate(657.538,1783.24)"><rect x="-5.0" y="-2.5" width="10.0" height="5.0" /></g><g id="Node-101" transform="translate(958.618,1577.62)"><rect x="-5.0" y="-2.5" width="10.0" height="5.0" /></g><g id="Node-102" transform="translate(1192.79,1509.08)"><rect x="-5.0" y="-2.5" width="10.0" height="5.0" /></g><g id="Node-103" transform="translate(1192.79,1463.39)"><rect x="-5.0" y="-2.5" width="10.0" height="5.0" /></g><g id="Node-104" transform="translate(992.071,1486.24)"><rect x="-5.0" y="-2.5" width="10.0" height="5.0" /></g><g id="Node-105" transform="translate(958.618,1514.79)"><rect x="-5.0" y="-2.5" width="10.0" height="5.0" /></g><g id="Node-106" transform="translate(925.165,1568.1)"><rect x="-5.0" y="-2.5" width="10.0" height="5.0" /></g><g id="Node-107" transform="translate(891.711,1601.42)"><rect x="-5.0" y="-2.5" width="10.0" height="5.0" /></g><g id="Node-108" transform="translate(858.258,1629.5)"><rect x="-5.0" y="-2.5" width="10.0" height="5.0" /></g><g id="Node-109" transform="translate(824.805,1654.97)"><rect x="-5.0" y="-2.5" width="10.0" height="5.0" /></g><g id="Node-110" transform="translate(757.898,1694.79)"><rect x="-5.0" y="-2.5" width="10.0" height="5.0" /></g><g id="Node-111" transform="translate(657.538,1721.88)"><rect x="-5.0" y="-2.5" width="10.0" height="5.0" /></g><g id="Node-112" transform="translate(523.725,1752.56)"><rect x="-5.0" y="-2.5" width="10.0" height="5.0" /></g><g id="Node-113" transform="translate(456.819,1785.04)"><rect x="-5.0" y="-2.5" width="10.0" height="5.0" /></g><g id="Node-114" transform="translate(323.005,1925.92)"><rect x="-5.0" y="-2.5" width="10.0" height="5.0" /></g><g id="Node-115" transform="translate(757.898,1394.85)"><rect x="-5.0" y="-2.5" width="10.0" height="5.0" /></g><g id="Node-116" transform="translate(523.725,1411.99)"><rect x="-5.0" y="-2.5" width="10.0" height="5.0" /></g><g id="Node-117" transform="translate(891.711,1303.46)"><rect x="-5.0" y="-2.5" width="10.0" height="5.0" /></g><g id="Node-118" transform="translate(791.352,1320.6)"><rect x="-5.0" y="-2.5" width="10.0" height="5.0" /></g><g id="Node-119" transform="translate(858.258,1212.08)"><rect x="-5.0" y="-2.5" width="10.0" height="5.0" /></g><g id="Node-120" transform="translate(824.805,1229.21)"><rect x="-5.0" y="-2.5" width="10.0" height="5.0" /></g><g id="Node-121" transform="translate(925.165,1143.54)"><rect x="-5.0" y="-2.5" width="10.0" height="5.0" /></g><g id="Node-122" transform="translate(925.165,1097.85)"><rect x="-5.0" y="-2.5" width="10.0" height="5.0" /></g><g id="Node-123" transform="translate(858.258,1120.69)"><rect x="-5.0" y="-2.5" width="10.0" height="5.0" /></g><g id="Node-124" transform="translate(824.805,1149.25)"><rect x="-5.0" y="-2.5" width="10.0" height="5.0" /></g><g id="Node-125" transform="translate(791.352,1215.89)"><rect x="-5.0" y="-2.5" width="10.0" height="5.0" /></g><g id="Node-126" transform="translate(757.898,1268.24)"><rect x="-5.0" y="-2.5" width="10.0" height="5.0" /></g><g id="Node-127" transform="translate(523.725,1314.41)"><rect x="-5.0" y="-2.5" width="10.0" height="5.0" /></g><g id="Node-128" transform="translate(356.459,1363.2)"><rect x="-5.0" y="-2.5" width="10.0" height="5.0" /></g><g id="Node-129" transform="translate(858.258,1006.46)"><rect x="-5.0" y="-2.5" width="10.0" height="5.0" /></g><g id="Node-130" transform="translate(992.071,915.075)"><rect x="-5.0" y="-2.5" width="10.0" height="5.0" /></g><g id="Node-131" transform="translate(891.711,932.21)"><rect x="-5.0" y="-2.5" width="10.0" height="5.0" /></g><g id="Node-132" transform="translate(858.258,952.2)"><rect x="-5.0" y="-2.5" width="10.0" height="5.0" /></g><g id="Node-133" transform="translate(690.992,979.33)"><rect x="-5.0" y="-2.5" width="10.0" height="5.0" /></g><g id="Node-134" transform="translate(891.711,800.842)"><rect x="-5.0" y="-2.5" width="10.0" height="5.0" /></g><g id="Node-135" transform="translate(824.805,817.977)"><rect x="-5.0" y="-2.5" width="10.0" height="5.0" /></g><g id="Node-136" transform="translate(992.071,709.456)"><rect x="-5.0" y="-2.5" width="10.0" height="5.0" /></g><g id="Node-137" transform="translate(958.618,726.591)"><rect x="-5.0" y="-2.5" width="10.0" height="5.0" /></g><g id="Node-138" transform="translate(824.805,746.582)"><rect x="-5.0" y="-2.5" width="10.0" height="5.0" /></g><g id="Node-139" transform="translate(757.898,782.279)"><rect x="-5.0" y="-2.5" width="10.0" height="5.0" /></g><g id="Node-140" transform="translate(724.445,820.119)"><rect x="-5.0" y="-2.5" width="10.0" height="5.0" /></g><g id="Node-141" transform="translate(690.992,850.462)"><rect x="-5.0" y="-2.5" width="10.0" height="5.0" /></g><g id="Node-142" transform="translate(657.538,956.841)"><rect x="-5.0" y="-2.5" width="10.0" height="5.0" /></g><g id="Node-143" transform="translate(356.459,1010.21)"><rect x="-5.0" y="-2.5" width="10.0" height="5.0" /></g><g id="Node-144" transform="translate(1326.6,640.917)"><rect x="-5.0" y="-2.5" width="10.0" height="5.0" /></g><g id="Node-145" transform="translate(824.805,658.052)"><rect x="-5.0" y="-2.5" width="10.0" height="5.0" /></g><g id="Node-146" transform="translate(1259.7,572.377)"><rect x="-5.0" y="-2.5" width="10.0" height="5.0" /></g><g id="Node-147" transform="translate(824.805,589.512)"><rect x="-5.0" y="-2.5" width="10.0" height="5.0" /></g><g id="Node-148" transform="translate(456.819,623.782)"><rect x="-5.0" y="-2.5" width="10.0" height="5.0" /></g><g id="Node-149" transform="translate(590.632,503.838)"><rect x="-5.0" y="-2.5" width="10.0" height="5.0" /></g><g id="Node-150" transform="translate(657.538,458.145)"><rect x="-5.0" y="-2.5" width="10.0" height="5.0" /></g><g id="Node-151" transform="translate(657.538,412.452)"><rect x="-5.0" y="-2.5" width="10.0" height="5.0" /></g><g id="Node-152" transform="translate(590.632,435.299)"><rect x="-5.0" y="-2.5" width="10.0" height="5.0" /></g><g id="Node-153" transform="translate(490.272,469.568)"><rect x="-5.0" y="-2.5" width="10.0" height="5.0" /></g><g id="Node-154" transform="translate(456.819,503.838)"><rect x="-5.0" y="-2.5" width="10.0" height="5.0" /></g><g id="Node-155" transform="translate(389.912,563.81)"><rect x="-5.0" y="-2.5" width="10.0" height="5.0" /></g><g id="Node-156" transform="translate(757.898,298.22)"><rect x="-5.0" y="-2.5" width="10.0" height="5.0" /></g><g id="Node-157" transform="translate(858.258,229.68)"><rect x="-5.0" y="-2.5" width="10.0" height="5.0" /></g><g id="Node-158" transform="translate(791.352,246.815)"><rect x="-5.0" y="-2.5" width="10.0" height="5.0" /></g><g id="Node-159" transform="translate(925.165,161.141)"><rect x="-5.0" y="-2.5" width="10.0" height="5.0" /></g><g id="Node-160" transform="translate(791.352,178.276)"><rect x="-5.0" y="-2.5" width="10.0" height="5.0" /></g><g id="Node-161" transform="translate(858.258,69.755)"><rect x="-5.0" y="-2.5" width="10.0" height="5.0" /></g><g id="Node-162" transform="translate(824.805,86.8898)"><rect x="-5.0" y="-2.5" width="10.0" height="5.0" /></g><g id="Node-163" transform="translate(791.352,106.88)"><rect x="-5.0" y="-2.5" width="10.0" height="5.0" /></g><g id="Node-164" transform="translate(757.898,177.324)"><rect x="-5.0" y="-2.5" width="10.0" height="5.0" /></g><g id="Node-165" transform="translate(690.992,237.772)"><rect x="-5.0" y="-2.5" width="10.0" height="5.0" /></g><g id="Node-166" transform="translate(657.538,308.532)"><rect x="-5.0" y="-2.5" width="10.0" height="5.0" /></g><g id="Node-167" transform="translate(389.912,343.357)"><rect x="-5.0" y="-2.5" width="10.0" height="5.0" /></g><g id="Node-168" transform="translate(356.459,453.584)"><rect x="-5.0" y="-2.5" width="10.0" height="5.0" /></g><g id="Node-169" transform="translate(323.005,942.33)"><rect x="-5.0" y="-2.5" width="10.0" height="5.0" /></g><g id="Node-170" transform="translate(55.3789,1434.12)"><rect x="-5.0" y="-2.5" width="10.0" height="5.0" /></g></g><g class="toytree-NodeLabels" style="font-family:Helvetica;font-size:9px;font-weight:300;vertical-align:baseline;white-space:pre;stroke:none"><g class="toytree-NodeLabel" transform="translate(1125.88,1966.01)" /><g class="toytree-NodeLabel" transform="translate(958.618,1983.15)" /><g class="toytree-NodeLabel" transform="translate(1058.98,1851.78)" /><g class="toytree-NodeLabel" transform="translate(992.071,1882.24)" /><g class="toytree-NodeLabel" transform="translate(958.618,1906.99)" /><g class="toytree-NodeLabel" transform="translate(891.711,1945.07)" /><g class="toytree-NodeLabel" transform="translate(824.805,1984.1)" /><g class="toytree-NodeLabel" transform="translate(690.992,2015.04)" /><g class="toytree-NodeLabel" transform="translate(657.538,2041.93)" /><g class="toytree-NodeLabel" transform="translate(456.819,2066.8)" /><g class="toytree-NodeLabel" transform="translate(657.538,1783.24)" /><g class="toytree-NodeLabel" transform="translate(958.618,1577.62)" /><g class="toytree-NodeLabel" transform="translate(1192.79,1509.08)" /><g class="toytree-NodeLabel" transform="translate(1192.79,1463.39)" /><g class="toytree-NodeLabel" transform="translate(992.071,1486.24)" /><g class="toytree-NodeLabel" transform="translate(958.618,1514.79)" /><g class="toytree-NodeLabel" transform="translate(925.165,1568.1)" /><g class="toytree-NodeLabel" transform="translate(891.711,1601.42)" /><g class="toytree-NodeLabel" transform="translate(858.258,1629.5)" /><g class="toytree-NodeLabel" transform="translate(824.805,1654.97)" /><g class="toytree-NodeLabel" transform="translate(757.898,1694.79)" /><g class="toytree-NodeLabel" transform="translate(657.538,1721.88)" /><g class="toytree-NodeLabel" transform="translate(523.725,1752.56)" /><g class="toytree-NodeLabel" transform="translate(456.819,1785.04)" /><g class="toytree-NodeLabel" transform="translate(323.005,1925.92)" /><g class="toytree-NodeLabel" transform="translate(757.898,1394.85)" /><g class="toytree-NodeLabel" transform="translate(523.725,1411.99)" /><g class="toytree-NodeLabel" transform="translate(891.711,1303.46)" /><g class="toytree-NodeLabel" transform="translate(791.352,1320.6)" /><g class="toytree-NodeLabel" transform="translate(858.258,1212.08)" /><g class="toytree-NodeLabel" transform="translate(824.805,1229.21)" /><g class="toytree-NodeLabel" transform="translate(925.165,1143.54)" /><g class="toytree-NodeLabel" transform="translate(925.165,1097.85)" /><g class="toytree-NodeLabel" transform="translate(858.258,1120.69)" /><g class="toytree-NodeLabel" transform="translate(824.805,1149.25)" /><g class="toytree-NodeLabel" transform="translate(791.352,1215.89)" /><g class="toytree-NodeLabel" transform="translate(757.898,1268.24)" /><g class="toytree-NodeLabel" transform="translate(523.725,1314.41)" /><g class="toytree-NodeLabel" transform="translate(356.459,1363.2)" /><g class="toytree-NodeLabel" transform="translate(858.258,1006.46)" /><g class="toytree-NodeLabel" transform="translate(992.071,915.075)" /><g class="toytree-NodeLabel" transform="translate(891.711,932.21)" /><g class="toytree-NodeLabel" transform="translate(858.258,952.2)" /><g class="toytree-NodeLabel" transform="translate(690.992,979.33)" /><g class="toytree-NodeLabel" transform="translate(891.711,800.842)" /><g class="toytree-NodeLabel" transform="translate(824.805,817.977)" /><g class="toytree-NodeLabel" transform="translate(992.071,709.456)" /><g class="toytree-NodeLabel" transform="translate(958.618,726.591)" /><g class="toytree-NodeLabel" transform="translate(824.805,746.582)" /><g class="toytree-NodeLabel" transform="translate(757.898,782.279)" /><g class="toytree-NodeLabel" transform="translate(724.445,820.119)" /><g class="toytree-NodeLabel" transform="translate(690.992,850.462)" /><g class="toytree-NodeLabel" transform="translate(657.538,956.841)" /><g class="toytree-NodeLabel" transform="translate(356.459,1010.21)" /><g class="toytree-NodeLabel" transform="translate(1326.6,640.917)" /><g class="toytree-NodeLabel" transform="translate(824.805,658.052)" /><g class="toytree-NodeLabel" transform="translate(1259.7,572.377)" /><g class="toytree-NodeLabel" transform="translate(824.805,589.512)" /><g class="toytree-NodeLabel" transform="translate(456.819,623.782)" /><g class="toytree-NodeLabel" transform="translate(590.632,503.838)" /><g class="toytree-NodeLabel" transform="translate(657.538,458.145)" /><g class="toytree-NodeLabel" transform="translate(657.538,412.452)" /><g class="toytree-NodeLabel" transform="translate(590.632,435.299)" /><g class="toytree-NodeLabel" transform="translate(490.272,469.568)" /><g class="toytree-NodeLabel" transform="translate(456.819,503.838)" /><g class="toytree-NodeLabel" transform="translate(389.912,563.81)" /><g class="toytree-NodeLabel" transform="translate(757.898,298.22)" /><g class="toytree-NodeLabel" transform="translate(858.258,229.68)" /><g class="toytree-NodeLabel" transform="translate(791.352,246.815)" /><g class="toytree-NodeLabel" transform="translate(925.165,161.141)" /><g class="toytree-NodeLabel" transform="translate(791.352,178.276)" /><g class="toytree-NodeLabel" transform="translate(858.258,69.755)" /><g class="toytree-NodeLabel" transform="translate(824.805,86.8898)" /><g class="toytree-NodeLabel" transform="translate(791.352,106.88)" /><g class="toytree-NodeLabel" transform="translate(757.898,177.324)" /><g class="toytree-NodeLabel" transform="translate(690.992,237.772)" /><g class="toytree-NodeLabel" transform="translate(657.538,308.532)" /><g class="toytree-NodeLabel" transform="translate(389.912,343.357)" /><g class="toytree-NodeLabel" transform="translate(356.459,453.584)" /><g class="toytree-NodeLabel" transform="translate(323.005,942.33)" /><g class="toytree-NodeLabel" transform="translate(55.3789,1434.12)" /></g><g class="toytree-TipLabels" style="fill:rgb(14.5%,14.5%,14.5%);fill-opacity:1.0;font-family:Helvetica;font-size:14px;font-weight:300;vertical-align:baseline;white-space:pre;stroke:none"><g class="toytree-TipLabel" transform="translate(1627.68,2091.67)"><text x="15.0" y="3.577" style="fill:rgb(14.5%,14.5%,14.5%);fill-opacity:1.0">Avestan</text></g><g class="toytree-TipLabel" transform="translate(1627.68,2068.82)"><text x="15.0" y="3.577" style="fill:rgb(14.5%,14.5%,14.5%);fill-opacity:1.0">Digor_Ossetic</text></g><g class="toytree-TipLabel" transform="translate(1627.68,2045.98)"><text x="15.0" y="3.577" style="fill:rgb(14.5%,14.5%,14.5%);fill-opacity:1.0">Sogdian</text></g><g class="toytree-TipLabel" transform="translate(1627.68,2023.13)"><text x="15.0" y="3.577" style="fill:rgb(14.5%,14.5%,14.5%);fill-opacity:1.0">Pashto/Waziri</text></g><g class="toytree-TipLabel" transform="translate(1627.68,2000.28)"><text x="15.0" y="3.577" style="fill:rgb(14.5%,14.5%,14.5%);fill-opacity:1.0">Wakhi</text></g><g class="toytree-TipLabel" transform="translate(1627.68,1977.44)"><text x="15.0" y="3.577" style="fill:rgb(14.5%,14.5%,14.5%);fill-opacity:1.0">Sariqoli</text></g><g class="toytree-TipLabel" transform="translate(1627.68,1954.59)"><text x="15.0" y="3.577" style="fill:rgb(14.5%,14.5%,14.5%);fill-opacity:1.0">Shughni</text></g><g class="toytree-TipLabel" transform="translate(1627.68,1931.74)"><text x="15.0" y="3.577" style="fill:rgb(14.5%,14.5%,14.5%);fill-opacity:1.0">Kurdish</text></g><g class="toytree-TipLabel" transform="translate(1627.68,1908.9)"><text x="15.0" y="3.577" style="fill:rgb(14.5%,14.5%,14.5%);fill-opacity:1.0">Baluchi</text></g><g class="toytree-TipLabel" transform="translate(1627.68,1886.05)"><text x="15.0" y="3.577" style="fill:rgb(14.5%,14.5%,14.5%);fill-opacity:1.0">Zazaki</text></g><g class="toytree-TipLabel" transform="translate(1627.68,1863.2)"><text x="15.0" y="3.577" style="fill:rgb(14.5%,14.5%,14.5%);fill-opacity:1.0">Persian</text></g><g class="toytree-TipLabel" transform="translate(1627.68,1840.36)"><text x="15.0" y="3.577" style="fill:rgb(14.5%,14.5%,14.5%);fill-opacity:1.0">Tajik</text></g><g class="toytree-TipLabel" transform="translate(1627.68,1817.51)"><text x="15.0" y="3.577" style="fill:rgb(14.5%,14.5%,14.5%);fill-opacity:1.0">Vedic_Sanskrit</text></g><g class="toytree-TipLabel" transform="translate(1627.68,1794.66)"><text x="15.0" y="3.577" style="fill:rgb(14.5%,14.5%,14.5%);fill-opacity:1.0">Romani</text></g><g class="toytree-TipLabel" transform="translate(1627.68,1771.82)"><text x="15.0" y="3.577" style="fill:rgb(14.5%,14.5%,14.5%);fill-opacity:1.0">Singhalese</text></g><g class="toytree-TipLabel" transform="translate(1627.68,1748.97)"><text x="15.0" y="3.577" style="fill:rgb(14.5%,14.5%,14.5%);fill-opacity:1.0">Kashmiri</text></g><g class="toytree-TipLabel" transform="translate(1627.68,1726.12)"><text x="15.0" y="3.577" style="fill:rgb(14.5%,14.5%,14.5%);fill-opacity:1.0">Assamese</text></g><g class="toytree-TipLabel" transform="translate(1627.68,1703.28)"><text x="15.0" y="3.577" style="fill:rgb(14.5%,14.5%,14.5%);fill-opacity:1.0">Sindhi</text></g><g class="toytree-TipLabel" transform="translate(1627.68,1680.43)"><text x="15.0" y="3.577" style="fill:rgb(14.5%,14.5%,14.5%);fill-opacity:1.0">Marwari</text></g><g class="toytree-TipLabel" transform="translate(1627.68,1657.59)"><text x="15.0" y="3.577" style="fill:rgb(14.5%,14.5%,14.5%);fill-opacity:1.0">Oriya</text></g><g class="toytree-TipLabel" transform="translate(1627.68,1634.74)"><text x="15.0" y="3.577" style="fill:rgb(14.5%,14.5%,14.5%);fill-opacity:1.0">Bengali</text></g><g class="toytree-TipLabel" transform="translate(1627.68,1611.89)"><text x="15.0" y="3.577" style="fill:rgb(14.5%,14.5%,14.5%);fill-opacity:1.0">Nepali</text></g><g class="toytree-TipLabel" transform="translate(1627.68,1589.05)"><text x="15.0" y="3.577" style="fill:rgb(14.5%,14.5%,14.5%);fill-opacity:1.0">Gujarati</text></g><g class="toytree-TipLabel" transform="translate(1627.68,1566.2)"><text x="15.0" y="3.577" style="fill:rgb(14.5%,14.5%,14.5%);fill-opacity:1.0">Marathi</text></g><g class="toytree-TipLabel" transform="translate(1627.68,1543.35)"><text x="15.0" y="3.577" style="fill:rgb(14.5%,14.5%,14.5%);fill-opacity:1.0">Bihari</text></g><g class="toytree-TipLabel" transform="translate(1627.68,1520.51)"><text x="15.0" y="3.577" style="fill:rgb(14.5%,14.5%,14.5%);fill-opacity:1.0">Hindi</text></g><g class="toytree-TipLabel" transform="translate(1627.68,1497.66)"><text x="15.0" y="3.577" style="fill:rgb(14.5%,14.5%,14.5%);fill-opacity:1.0">Urdu</text></g><g class="toytree-TipLabel" transform="translate(1627.68,1474.81)"><text x="15.0" y="3.577" style="fill:rgb(14.5%,14.5%,14.5%);fill-opacity:1.0">Lahnda</text></g><g class="toytree-TipLabel" transform="translate(1627.68,1451.97)"><text x="15.0" y="3.577" style="fill:rgb(14.5%,14.5%,14.5%);fill-opacity:1.0">Panjabi</text></g><g class="toytree-TipLabel" transform="translate(1627.68,1429.12)"><text x="15.0" y="3.577" style="fill:rgb(14.5%,14.5%,14.5%);fill-opacity:1.0">Old_Prussian</text></g><g class="toytree-TipLabel" transform="translate(1627.68,1406.27)"><text x="15.0" y="3.577" style="fill:rgb(14.5%,14.5%,14.5%);fill-opacity:1.0">Latvian</text></g><g class="toytree-TipLabel" transform="translate(1627.68,1383.43)"><text x="15.0" y="3.577" style="fill:rgb(14.5%,14.5%,14.5%);fill-opacity:1.0">Lithuanian</text></g><g class="toytree-TipLabel" transform="translate(1627.68,1360.58)"><text x="15.0" y="3.577" style="fill:rgb(14.5%,14.5%,14.5%);fill-opacity:1.0">Slovenian</text></g><g class="toytree-TipLabel" transform="translate(1627.68,1337.73)"><text x="15.0" y="3.577" style="fill:rgb(14.5%,14.5%,14.5%);fill-opacity:1.0">Serbian</text></g><g class="toytree-TipLabel" transform="translate(1627.68,1314.89)"><text x="15.0" y="3.577" style="fill:rgb(14.5%,14.5%,14.5%);fill-opacity:1.0">Bulgarian</text></g><g class="toytree-TipLabel" transform="translate(1627.68,1292.04)"><text x="15.0" y="3.577" style="fill:rgb(14.5%,14.5%,14.5%);fill-opacity:1.0">Macedonian</text></g><g class="toytree-TipLabel" transform="translate(1627.68,1269.2)"><text x="15.0" y="3.577" style="fill:rgb(14.5%,14.5%,14.5%);fill-opacity:1.0">Russian</text></g><g class="toytree-TipLabel" transform="translate(1627.68,1246.35)"><text x="15.0" y="3.577" style="fill:rgb(14.5%,14.5%,14.5%);fill-opacity:1.0">Polish</text></g><g class="toytree-TipLabel" transform="translate(1627.68,1223.5)"><text x="15.0" y="3.577" style="fill:rgb(14.5%,14.5%,14.5%);fill-opacity:1.0">Belarusian</text></g><g class="toytree-TipLabel" transform="translate(1627.68,1200.66)"><text x="15.0" y="3.577" style="fill:rgb(14.5%,14.5%,14.5%);fill-opacity:1.0">Ukrainian</text></g><g class="toytree-TipLabel" transform="translate(1627.68,1177.81)"><text x="15.0" y="3.577" style="fill:rgb(14.5%,14.5%,14.5%);fill-opacity:1.0">Old_Church_Slavic</text></g><g class="toytree-TipLabel" transform="translate(1627.68,1154.96)"><text x="15.0" y="3.577" style="fill:rgb(14.5%,14.5%,14.5%);fill-opacity:1.0">Czech</text></g><g class="toytree-TipLabel" transform="translate(1627.68,1132.12)"><text x="15.0" y="3.577" style="fill:rgb(14.5%,14.5%,14.5%);fill-opacity:1.0">Slovak</text></g><g class="toytree-TipLabel" transform="translate(1627.68,1109.27)"><text x="15.0" y="3.577" style="fill:rgb(14.5%,14.5%,14.5%);fill-opacity:1.0">Lower_Sorbian</text></g><g class="toytree-TipLabel" transform="translate(1627.68,1086.42)"><text x="15.0" y="3.577" style="fill:rgb(14.5%,14.5%,14.5%);fill-opacity:1.0">Upper_Sorbian</text></g><g class="toytree-TipLabel" transform="translate(1627.68,1063.58)"><text x="15.0" y="3.577" style="fill:rgb(14.5%,14.5%,14.5%);fill-opacity:1.0">Gothic</text></g><g class="toytree-TipLabel" transform="translate(1627.68,1040.73)"><text x="15.0" y="3.577" style="fill:rgb(14.5%,14.5%,14.5%);fill-opacity:1.0">English</text></g><g class="toytree-TipLabel" transform="translate(1627.68,1017.88)"><text x="15.0" y="3.577" style="fill:rgb(14.5%,14.5%,14.5%);fill-opacity:1.0">Danish</text></g><g class="toytree-TipLabel" transform="translate(1627.68,995.037)"><text x="15.0" y="3.577" style="fill:rgb(14.5%,14.5%,14.5%);fill-opacity:1.0">Swedish</text></g><g class="toytree-TipLabel" transform="translate(1627.68,972.191)"><text x="15.0" y="3.577" style="fill:rgb(14.5%,14.5%,14.5%);fill-opacity:1.0">Norwegian</text></g><g class="toytree-TipLabel" transform="translate(1627.68,949.344)"><text x="15.0" y="3.577" style="fill:rgb(14.5%,14.5%,14.5%);fill-opacity:1.0">Old_West_Norse</text></g><g class="toytree-TipLabel" transform="translate(1627.68,926.498)"><text x="15.0" y="3.577" style="fill:rgb(14.5%,14.5%,14.5%);fill-opacity:1.0">Faroese</text></g><g class="toytree-TipLabel" transform="translate(1627.68,903.651)"><text x="15.0" y="3.577" style="fill:rgb(14.5%,14.5%,14.5%);fill-opacity:1.0">Icelandic</text></g><g class="toytree-TipLabel" transform="translate(1627.68,880.805)"><text x="15.0" y="3.577" style="fill:rgb(14.5%,14.5%,14.5%);fill-opacity:1.0">Old_English</text></g><g class="toytree-TipLabel" transform="translate(1627.68,857.958)"><text x="15.0" y="3.577" style="fill:rgb(14.5%,14.5%,14.5%);fill-opacity:1.0">Old_High_German</text></g><g class="toytree-TipLabel" transform="translate(1627.68,835.112)"><text x="15.0" y="3.577" style="fill:rgb(14.5%,14.5%,14.5%);fill-opacity:1.0">Luxembourgish</text></g><g class="toytree-TipLabel" transform="translate(1627.68,812.266)"><text x="15.0" y="3.577" style="fill:rgb(14.5%,14.5%,14.5%);fill-opacity:1.0">German</text></g><g class="toytree-TipLabel" transform="translate(1627.68,789.419)"><text x="15.0" y="3.577" style="fill:rgb(14.5%,14.5%,14.5%);fill-opacity:1.0">Swiss_German</text></g><g class="toytree-TipLabel" transform="translate(1627.68,766.573)"><text x="15.0" y="3.577" style="fill:rgb(14.5%,14.5%,14.5%);fill-opacity:1.0">Frisian</text></g><g class="toytree-TipLabel" transform="translate(1627.68,743.726)"><text x="15.0" y="3.577" style="fill:rgb(14.5%,14.5%,14.5%);fill-opacity:1.0">Dutch</text></g><g class="toytree-TipLabel" transform="translate(1627.68,720.88)"><text x="15.0" y="3.577" style="fill:rgb(14.5%,14.5%,14.5%);fill-opacity:1.0">Afrikaans</text></g><g class="toytree-TipLabel" transform="translate(1627.68,698.033)"><text x="15.0" y="3.577" style="fill:rgb(14.5%,14.5%,14.5%);fill-opacity:1.0">Flemish</text></g><g class="toytree-TipLabel" transform="translate(1627.68,675.187)"><text x="15.0" y="3.577" style="fill:rgb(14.5%,14.5%,14.5%);fill-opacity:1.0">Welsh</text></g><g class="toytree-TipLabel" transform="translate(1627.68,652.34)"><text x="15.0" y="3.577" style="fill:rgb(14.5%,14.5%,14.5%);fill-opacity:1.0">Breton</text></g><g class="toytree-TipLabel" transform="translate(1627.68,629.494)"><text x="15.0" y="3.577" style="fill:rgb(14.5%,14.5%,14.5%);fill-opacity:1.0">Cornish</text></g><g class="toytree-TipLabel" transform="translate(1627.68,606.647)"><text x="15.0" y="3.577" style="fill:rgb(14.5%,14.5%,14.5%);fill-opacity:1.0">Old_Irish</text></g><g class="toytree-TipLabel" transform="translate(1627.68,583.801)"><text x="15.0" y="3.577" style="fill:rgb(14.5%,14.5%,14.5%);fill-opacity:1.0">Irish</text></g><g class="toytree-TipLabel" transform="translate(1627.68,560.954)"><text x="15.0" y="3.577" style="fill:rgb(14.5%,14.5%,14.5%);fill-opacity:1.0">Scots_Gaelic</text></g><g class="toytree-TipLabel" transform="translate(1627.68,538.108)"><text x="15.0" y="3.577" style="fill:rgb(14.5%,14.5%,14.5%);fill-opacity:1.0">Arvanitika/Tosk</text></g><g class="toytree-TipLabel" transform="translate(1627.68,515.261)"><text x="15.0" y="3.577" style="fill:rgb(14.5%,14.5%,14.5%);fill-opacity:1.0">Hittite</text></g><g class="toytree-TipLabel" transform="translate(1627.68,492.415)"><text x="15.0" y="3.577" style="fill:rgb(14.5%,14.5%,14.5%);fill-opacity:1.0">Tocharian_A/Tocharian_B</text></g><g class="toytree-TipLabel" transform="translate(1627.68,469.568)"><text x="15.0" y="3.577" style="fill:rgb(14.5%,14.5%,14.5%);fill-opacity:1.0">Adapazar/Eastern_Armenian</text></g><g class="toytree-TipLabel" transform="translate(1627.68,446.722)"><text x="15.0" y="3.577" style="fill:rgb(14.5%,14.5%,14.5%);fill-opacity:1.0">Classical_Armenian</text></g><g class="toytree-TipLabel" transform="translate(1627.68,423.875)"><text x="15.0" y="3.577" style="fill:rgb(14.5%,14.5%,14.5%);fill-opacity:1.0">Ancient_Greek</text></g><g class="toytree-TipLabel" transform="translate(1627.68,401.029)"><text x="15.0" y="3.577" style="fill:rgb(14.5%,14.5%,14.5%);fill-opacity:1.0">Modern_Greek</text></g><g class="toytree-TipLabel" transform="translate(1627.68,378.182)"><text x="15.0" y="3.577" style="fill:rgb(14.5%,14.5%,14.5%);fill-opacity:1.0">Arumanian</text></g><g class="toytree-TipLabel" transform="translate(1627.68,355.336)"><text x="15.0" y="3.577" style="fill:rgb(14.5%,14.5%,14.5%);fill-opacity:1.0">Latin</text></g><g class="toytree-TipLabel" transform="translate(1627.68,332.489)"><text x="15.0" y="3.577" style="fill:rgb(14.5%,14.5%,14.5%);fill-opacity:1.0">Romanian</text></g><g class="toytree-TipLabel" transform="translate(1627.68,309.643)"><text x="15.0" y="3.577" style="fill:rgb(14.5%,14.5%,14.5%);fill-opacity:1.0">Cagliari</text></g><g class="toytree-TipLabel" transform="translate(1627.68,286.797)"><text x="15.0" y="3.577" style="fill:rgb(14.5%,14.5%,14.5%);fill-opacity:1.0">Nuorese</text></g><g class="toytree-TipLabel" transform="translate(1627.68,263.95)"><text x="15.0" y="3.577" style="fill:rgb(14.5%,14.5%,14.5%);fill-opacity:1.0">Catalan</text></g><g class="toytree-TipLabel" transform="translate(1627.68,241.104)"><text x="15.0" y="3.577" style="fill:rgb(14.5%,14.5%,14.5%);fill-opacity:1.0">Portuguese</text></g><g class="toytree-TipLabel" transform="translate(1627.68,218.257)"><text x="15.0" y="3.577" style="fill:rgb(14.5%,14.5%,14.5%);fill-opacity:1.0">Spanish</text></g><g class="toytree-TipLabel" transform="translate(1627.68,195.411)"><text x="15.0" y="3.577" style="fill:rgb(14.5%,14.5%,14.5%);fill-opacity:1.0">Provencal</text></g><g class="toytree-TipLabel" transform="translate(1627.68,172.564)"><text x="15.0" y="3.577" style="fill:rgb(14.5%,14.5%,14.5%);fill-opacity:1.0">French</text></g><g class="toytree-TipLabel" transform="translate(1627.68,149.718)"><text x="15.0" y="3.577" style="fill:rgb(14.5%,14.5%,14.5%);fill-opacity:1.0">Walloon</text></g><g class="toytree-TipLabel" transform="translate(1627.68,126.871)"><text x="15.0" y="3.577" style="fill:rgb(14.5%,14.5%,14.5%);fill-opacity:1.0">Italian</text></g><g class="toytree-TipLabel" transform="translate(1627.68,104.025)"><text x="15.0" y="3.577" style="fill:rgb(14.5%,14.5%,14.5%);fill-opacity:1.0">Ladin</text></g><g class="toytree-TipLabel" transform="translate(1627.68,81.1782)"><text x="15.0" y="3.577" style="fill:rgb(14.5%,14.5%,14.5%);fill-opacity:1.0">Friulian</text></g><g class="toytree-TipLabel" transform="translate(1627.68,58.3317)"><text x="15.0" y="3.577" style="fill:rgb(14.5%,14.5%,14.5%);fill-opacity:1.0">Romansh</text></g></g></g></g></g></svg>