<svg class="toyplot-canvas-Canvas" xmlns:toyplot="http://www.sandia.gov/toyplot" xmlns:xlink="http://www.w3.org/1999/xlink" xmlns="http://www.w3.org/2000/svg" width="2000.0px" height="2210.0px" viewBox="0 0 2000.0 2210.0" preserveAspectRatio="xMidYMid meet" style="background-color:transparent;border-color:#292724;border-style:none;border-width:1.0;fill:rgb(16.1%,15.3%,14.1%);fill-opacity:1.0;font-family:Helvetica;font-size:12px;opacity:1.0;stroke:rgb(16.1%,15.3%,14.1%);stroke-opacity:1.0;stroke-width:1.0" id="t49e78169c3704e6f9d878171e1e84005"><g class="toyplot-coordinates-Cartesian" id="t499e3d64b700479a83dbcac0bf27509d"><clipPath id="t5e518541ab1e4eb1b9c06668b0dcdb7c"><rect x="35.0" y="35.0" width="1930.0" height="2140.0" /></clipPath><g clip-path="url(#t5e518541ab1e4eb1b9c06668b0dcdb7c)"><g class="toytree-mark-Toytree" id="t2c10b6b5549e403ead9eced9dceb8100"><g class="toytree-Edges" style="stroke:rgb(14.5%,14.5%,14.5%);stroke-opacity:1.0;stroke-linecap:round;stroke-width:2.0;fill:none"><path d="M 320.4 2121.9 L 320.4 2151.7 L 446.4 2151.7" id="102,0" style="" /><path d="M 446.4 2092.1 L 446.4 2129.2 L 486.1 2129.2" id="101,1" style="" /><path d="M 486.1 2055.1 L 486.1 2106.6 L 577.9 2106.6" id="100,2" style="" /><path d="M 577.9 2072.9 L 577.9 2084.1 L 1708.7 2084.1" id="94,3" style="" /><path d="M 577.9 2072.9 L 577.9 2061.6 L 1708.7 2061.6" id="94,4" style="" /><path d="M 577.9 1985.7 L 577.9 2039.1 L 688.9 2039.1" id="99,5" style="" /><path d="M 577.9 1985.7 L 577.9 2016.6 L 688.9 2016.6" id="99,6" style="" /><path d="M 688.9 1977.2 L 688.9 1994.1 L 752.9 1994.1" id="96,7" style="" /><path d="M 752.9 1960.3 L 752.9 1971.6 L 985.9 1971.6" id="95,8" style="" /><path d="M 752.9 1960.3 L 752.9 1949.1 L 985.9 1949.1" id="95,9" style="" /><path d="M 688.9 1909.7 L 688.9 1926.6 L 752.9 1926.6" id="98,10" style="" /><path d="M 752.9 1892.8 L 752.9 1904.1 L 1079.6 1904.1" id="97,11" style="" /><path d="M 752.9 1892.8 L 752.9 1881.6 L 1079.6 1881.6" id="97,12" style="" /><path d="M 320.4 1829.9 L 320.4 1859.0 L 377.4 1859.0" id="115,13" style="" /><path d="M 377.4 1800.7 L 377.4 1836.5 L 446.4 1836.5" id="114,14" style="" /><path d="M 377.4 1800.7 L 377.4 1814.0 L 446.4 1814.0" id="114,15" style="" /><path d="M 446.4 1751.5 L 446.4 1791.5 L 529.8 1791.5" id="113,16" style="" /><path d="M 529.8 1711.5 L 529.8 1769.0 L 577.9 1769.0" id="112,17" style="" /><path d="M 577.9 1735.3 L 577.9 1746.5 L 630.7 1746.5" id="103,18" style="" /><path d="M 577.9 1735.3 L 577.9 1724.0 L 630.7 1724.0" id="103,19" style="" /><path d="M 630.7 1690.2 L 630.7 1701.5 L 752.9 1701.5" id="104,20" style="" /><path d="M 630.7 1690.2 L 630.7 1679.0 L 752.9 1679.0" id="104,21" style="" /><path d="M 630.7 1639.6 L 630.7 1656.5 L 688.9 1656.5" id="106,22" style="" /><path d="M 688.9 1622.7 L 688.9 1634.0 L 823.3 1634.0" id="105,23" style="" /><path d="M 688.9 1622.7 L 688.9 1611.5 L 823.3 1611.5" id="105,24" style="" /><path d="M 630.7 1560.8 L 630.7 1588.9 L 688.9 1588.9" id="110,25" style="" /><path d="M 823.3 1555.2 L 823.3 1566.4 L 900.7 1566.4" id="107,26" style="" /><path d="M 823.3 1555.2 L 823.3 1543.9 L 900.7 1543.9" id="107,27" style="" /><path d="M 823.3 1510.2 L 823.3 1521.4 L 900.7 1521.4" id="108,28" style="" /><path d="M 823.3 1510.2 L 823.3 1498.9 L 900.7 1498.9" id="108,29" style="" /><path d="M 377.4 1459.5 L 377.4 1476.4 L 529.8 1476.4" id="118,30" style="" /><path d="M 529.8 1442.6 L 529.8 1453.9 L 752.9 1453.9" id="117,31" style="" /><path d="M 529.8 1442.6 L 529.8 1431.4 L 752.9 1431.4" id="117,32" style="" /><path d="M 377.4 1356.3 L 377.4 1408.9 L 529.8 1408.9" id="125,33" style="" /><path d="M 529.8 1303.8 L 529.8 1386.4 L 577.9 1386.4" id="124,34" style="" /><path d="M 529.8 1303.8 L 529.8 1363.9 L 577.9 1363.9" id="124,35" style="" /><path d="M 529.8 1303.8 L 529.8 1341.3 L 577.9 1341.3" id="124,36" style="" /><path d="M 577.9 1307.6 L 577.9 1318.8 L 630.7 1318.8" id="119,37" style="" /><path d="M 577.9 1307.6 L 577.9 1296.3 L 630.7 1296.3" id="119,38" style="" /><path d="M 577.9 1251.3 L 577.9 1273.8 L 630.7 1273.8" id="120,39" style="" /><path d="M 577.9 1251.3 L 577.9 1251.3 L 630.7 1251.3" id="120,40" style="" /><path d="M 577.9 1251.3 L 577.9 1228.8 L 630.7 1228.8" id="120,41" style="" /><path d="M 630.7 1195.0 L 630.7 1206.3 L 688.9 1206.3" id="121,42" style="" /><path d="M 630.7 1195.0 L 630.7 1183.8 L 688.9 1183.8" id="121,43" style="" /><path d="M 630.7 1150.0 L 630.7 1161.3 L 752.9 1161.3" id="122,44" style="" /><path d="M 630.7 1150.0 L 630.7 1138.8 L 752.9 1138.8" id="122,45" style="" /><path d="M 252.9 1052.8 L 252.9 1116.3 L 446.4 1116.3" id="140,46" style="" /><path d="M 486.1 1082.5 L 486.1 1093.7 L 529.8 1093.7" id="127,47" style="" /><path d="M 486.1 1082.5 L 486.1 1071.2 L 529.8 1071.2" id="127,48" style="" /><path d="M 577.9 1037.5 L 577.9 1048.7 L 630.7 1048.7" id="128,49" style="" /><path d="M 577.9 1037.5 L 577.9 1026.2 L 630.7 1026.2" id="128,50" style="" /><path d="M 577.9 984.0 L 577.9 1003.7 L 630.7 1003.7" id="131,51" style="" /><path d="M 630.7 964.3 L 630.7 981.2 L 688.9 981.2" id="130,52" style="" /><path d="M 688.9 947.4 L 688.9 958.7 L 752.9 958.7" id="129,53" style="" /><path d="M 688.9 947.4 L 688.9 936.2 L 752.9 936.2" id="129,54" style="" /><path d="M 486.1 875.0 L 486.1 913.7 L 529.8 913.7" id="138,55" style="" /><path d="M 577.9 868.7 L 577.9 891.2 L 630.7 891.2" id="133,56" style="" /><path d="M 577.9 868.7 L 577.9 868.7 L 630.7 868.7" id="133,57" style="" /><path d="M 577.9 868.7 L 577.9 846.1 L 630.7 846.1" id="133,58" style="" /><path d="M 577.9 803.9 L 577.9 823.6 L 630.7 823.6" id="136,59" style="" /><path d="M 630.7 784.2 L 630.7 801.1 L 688.9 801.1" id="135,60" style="" /><path d="M 688.9 767.4 L 688.9 778.6 L 752.9 778.6" id="134,61" style="" /><path d="M 688.9 767.4 L 688.9 756.1 L 752.9 756.1" id="134,62" style="" /><path d="M 273.3 693.8 L 273.3 733.6 L 446.4 733.6" id="149,63" style="" /><path d="M 446.4 654.0 L 446.4 711.1 L 486.1 711.1" id="148,64" style="" /><path d="M 446.4 654.0 L 446.4 688.6 L 486.1 688.6" id="148,65" style="" /><path d="M 529.8 654.8 L 529.8 666.1 L 688.9 666.1" id="141,66" style="" /><path d="M 529.8 654.8 L 529.8 643.6 L 688.9 643.6" id="141,67" style="" /><path d="M 529.8 604.2 L 529.8 621.1 L 577.9 621.1" id="143,68" style="" /><path d="M 577.9 587.3 L 577.9 598.5 L 630.7 598.5" id="142,69" style="" /><path d="M 577.9 587.3 L 577.9 576.0 L 630.7 576.0" id="142,70" style="" /><path d="M 529.8 531.0 L 529.8 553.5 L 630.7 553.5" id="144,71" style="" /><path d="M 529.8 531.0 L 529.8 531.0 L 630.7 531.0" id="144,72" style="" /><path d="M 529.8 531.0 L 529.8 508.5 L 630.7 508.5" id="144,73" style="" /><path d="M 529.8 459.7 L 529.8 486.0 L 577.9 486.0" id="146,74" style="" /><path d="M 529.8 459.7 L 529.8 463.5 L 577.9 463.5" id="146,75" style="" /><path d="M 577.9 429.7 L 577.9 441.0 L 630.7 441.0" id="145,76" style="" /><path d="M 577.9 429.7 L 577.9 418.5 L 630.7 418.5" id="145,77" style="" /><path d="M 577.9 379.1 L 577.9 396.0 L 900.7 396.0" id="151,78" style="" /><path d="M 900.7 362.2 L 900.7 373.5 L 985.9 373.5" id="150,79" style="" /><path d="M 900.7 362.2 L 900.7 351.0 L 985.9 351.0" id="150,80" style="" /><path d="M 577.9 311.6 L 577.9 328.4 L 900.7 328.4" id="153,81" style="" /><path d="M 900.7 294.7 L 900.7 305.9 L 985.9 305.9" id="152,82" style="" /><path d="M 900.7 294.7 L 900.7 283.4 L 985.9 283.4" id="152,83" style="" /><path d="M 347.6 249.7 L 347.6 260.9 L 1708.7 260.9" id="155,84" style="" /><path d="M 347.6 249.7 L 347.6 238.4 L 1708.7 238.4" id="155,85" style="" /><path d="M 410.2 199.0 L 410.2 215.9 L 529.8 215.9" id="157,86" style="" /><path d="M 529.8 182.1 L 529.8 193.4 L 1296.0 193.4" id="156,87" style="" /><path d="M 529.8 182.1 L 529.8 170.9 L 1296.0 170.9" id="156,88" style="" /><path d="M 446.4 137.1 L 446.4 148.4 L 823.3 148.4" id="158,89" style="" /><path d="M 446.4 137.1 L 446.4 125.9 L 823.3 125.9" id="158,90" style="" /><path d="M 446.4 86.5 L 446.4 103.4 L 1182.6 103.4" id="160,91" style="" /><path d="M 1182.6 69.6 L 1182.6 80.8 L 1296.0 80.8" id="159,92" style="" /><path d="M 1182.6 69.6 L 1182.6 58.3 L 1296.0 58.3" id="159,93" style="" /><path d="M 486.1 2055.1 L 486.1 2072.9 L 577.9 2072.9" id="100,94" style="" /><path d="M 688.9 1977.2 L 688.9 1960.3 L 752.9 1960.3" id="96,95" style="" /><path d="M 577.9 1985.7 L 577.9 1977.2 L 688.9 1977.2" id="99,96" style="" /><path d="M 688.9 1909.7 L 688.9 1892.8 L 752.9 1892.8" id="98,97" style="" /><path d="M 577.9 1985.7 L 577.9 1909.7 L 688.9 1909.7" id="99,98" style="" /><path d="M 486.1 2055.1 L 486.1 1985.7 L 577.9 1985.7" id="100,99" style="" /><path d="M 446.4 2092.1 L 446.4 2055.1 L 486.1 2055.1" id="101,100" style="" /><path d="M 320.4 2121.9 L 320.4 2092.1 L 446.4 2092.1" id="102,101" style="" /><path d="M 217.6 1975.9 L 217.6 2121.9 L 320.4 2121.9" id="116,102" style="" /><path d="M 529.8 1711.5 L 529.8 1735.3 L 577.9 1735.3" id="112,103" style="" /><path d="M 577.9 1630.2 L 577.9 1690.2 L 630.7 1690.2" id="111,104" style="" /><path d="M 630.7 1639.6 L 630.7 1622.7 L 688.9 1622.7" id="106,105" style="" /><path d="M 577.9 1630.2 L 577.9 1639.6 L 630.7 1639.6" id="111,106" style="" /><path d="M 688.9 1532.7 L 688.9 1555.2 L 823.3 1555.2" id="109,107" style="" /><path d="M 688.9 1532.7 L 688.9 1510.2 L 823.3 1510.2" id="109,108" style="" /><path d="M 630.7 1560.8 L 630.7 1532.7 L 688.9 1532.7" id="110,109" style="" /><path d="M 577.9 1630.2 L 577.9 1560.8 L 630.7 1560.8" id="111,110" style="" /><path d="M 529.8 1711.5 L 529.8 1630.2 L 577.9 1630.2" id="112,111" style="" /><path d="M 446.4 1751.5 L 446.4 1711.5 L 529.8 1711.5" id="113,112" style="" /><path d="M 377.4 1800.7 L 377.4 1751.5 L 446.4 1751.5" id="114,113" style="" /><path d="M 320.4 1829.9 L 320.4 1800.7 L 377.4 1800.7" id="115,114" style="" /><path d="M 217.6 1975.9 L 217.6 1829.9 L 320.4 1829.9" id="116,115" style="" /><path d="M 55.7 1532.0 L 55.7 1975.9 L 217.6 1975.9" id="168,116" style="" /><path d="M 377.4 1459.5 L 377.4 1442.6 L 529.8 1442.6" id="118,117" style="" /><path d="M 234.4 1407.9 L 234.4 1459.5 L 377.4 1459.5" id="126,118" style="" /><path d="M 529.8 1303.8 L 529.8 1307.6 L 577.9 1307.6" id="124,119" style="" /><path d="M 529.8 1303.8 L 529.8 1251.3 L 577.9 1251.3" id="124,120" style="" /><path d="M 577.9 1172.5 L 577.9 1195.0 L 630.7 1195.0" id="123,121" style="" /><path d="M 577.9 1172.5 L 577.9 1150.0 L 630.7 1150.0" id="123,122" style="" /><path d="M 529.8 1303.8 L 529.8 1172.5 L 577.9 1172.5" id="124,123" style="" /><path d="M 377.4 1356.3 L 377.4 1303.8 L 529.8 1303.8" id="125,124" style="" /><path d="M 234.4 1407.9 L 234.4 1356.3 L 377.4 1356.3" id="126,125" style="" /><path d="M 217.6 1088.1 L 217.6 1407.9 L 234.4 1407.9" id="167,126" style="" /><path d="M 446.4 989.4 L 446.4 1082.5 L 486.1 1082.5" id="139,127" style="" /><path d="M 486.1 1010.7 L 486.1 1037.5 L 577.9 1037.5" id="132,128" style="" /><path d="M 630.7 964.3 L 630.7 947.4 L 688.9 947.4" id="130,129" style="" /><path d="M 577.9 984.0 L 577.9 964.3 L 630.7 964.3" id="131,130" style="" /><path d="M 486.1 1010.7 L 486.1 984.0 L 577.9 984.0" id="132,131" style="" /><path d="M 446.4 989.4 L 446.4 1010.7 L 486.1 1010.7" id="139,132" style="" /><path d="M 529.8 836.3 L 529.8 868.7 L 577.9 868.7" id="137,133" style="" /><path d="M 630.7 784.2 L 630.7 767.4 L 688.9 767.4" id="135,134" style="" /><path d="M 577.9 803.9 L 577.9 784.2 L 630.7 784.2" id="136,135" style="" /><path d="M 529.8 836.3 L 529.8 803.9 L 577.9 803.9" id="137,136" style="" /><path d="M 486.1 875.0 L 486.1 836.3 L 529.8 836.3" id="138,137" style="" /><path d="M 446.4 989.4 L 446.4 875.0 L 486.1 875.0" id="139,138" style="" /><path d="M 252.9 1052.8 L 252.9 989.4 L 446.4 989.4" id="140,139" style="" /><path d="M 234.4 768.4 L 234.4 1052.8 L 252.9 1052.8" id="166,140" style="" /><path d="M 486.1 562.4 L 486.1 654.8 L 529.8 654.8" id="147,141" style="" /><path d="M 529.8 604.2 L 529.8 587.3 L 577.9 587.3" id="143,142" style="" /><path d="M 486.1 562.4 L 486.1 604.2 L 529.8 604.2" id="147,143" style="" /><path d="M 486.1 562.4 L 486.1 531.0 L 529.8 531.0" id="147,144" style="" /><path d="M 529.8 459.7 L 529.8 429.7 L 577.9 429.7" id="146,145" style="" /><path d="M 486.1 562.4 L 486.1 459.7 L 529.8 459.7" id="147,146" style="" /><path d="M 446.4 654.0 L 446.4 562.4 L 486.1 562.4" id="148,147" style="" /><path d="M 273.3 693.8 L 273.3 654.0 L 446.4 654.0" id="149,148" style="" /><path d="M 252.9 483.9 L 252.9 693.8 L 273.3 693.8" id="165,149" style="" /><path d="M 577.9 379.1 L 577.9 362.2 L 900.7 362.2" id="151,150" style="" /><path d="M 320.4 345.3 L 320.4 379.1 L 577.9 379.1" id="154,151" style="" /><path d="M 577.9 311.6 L 577.9 294.7 L 900.7 294.7" id="153,152" style="" /><path d="M 320.4 345.3 L 320.4 311.6 L 577.9 311.6" id="154,153" style="" /><path d="M 273.3 273.9 L 273.3 345.3 L 320.4 345.3" id="164,154" style="" /><path d="M 320.4 202.5 L 320.4 249.7 L 347.6 249.7" id="163,155" style="" /><path d="M 410.2 199.0 L 410.2 182.1 L 529.8 182.1" id="157,156" style="" /><path d="M 347.6 155.4 L 347.6 199.0 L 410.2 199.0" id="162,157" style="" /><path d="M 410.2 111.8 L 410.2 137.1 L 446.4 137.1" id="161,158" style="" /><path d="M 446.4 86.5 L 446.4 69.6 L 1182.6 69.6" id="160,159" style="" /><path d="M 410.2 111.8 L 410.2 86.5 L 446.4 86.5" id="161,160" style="" /><path d="M 347.6 155.4 L 347.6 111.8 L 410.2 111.8" id="162,161" style="" /><path d="M 320.4 202.5 L 320.4 155.4 L 347.6 155.4" id="163,162" style="" /><path d="M 273.3 273.9 L 273.3 202.5 L 320.4 202.5" id="164,163" style="" /><path d="M 252.9 483.9 L 252.9 273.9 L 273.3 273.9" id="165,164" style="" /><path d="M 234.4 768.4 L 234.4 483.9 L 252.9 483.9" id="166,165" style="" /><path d="M 217.6 1088.1 L 217.6 768.4 L 234.4 768.4" id="167,166" style="" /><path d="M 55.7 1532.0 L 55.7 1088.1 L 217.6 1088.1" id="168,167" style="" /></g><g class="toytree-AlignEdges" style="stroke:rgb(66.0%,66.0%,66.0%);stroke-opacity:0.75;stroke-dasharray:2,4;stroke-linecap:round;stroke-width:2"><path d="M 1708.7 2151.7 L 446.4 2151.7" /><path d="M 1708.7 2129.2 L 486.1 2129.2" /><path d="M 1708.7 2106.6 L 577.9 2106.6" /><path d="M 1708.7 2084.1 L 1708.7 2084.1" /><path d="M 1708.7 2061.6 L 1708.7 2061.6" /><path d="M 1708.7 2039.1 L 688.9 2039.1" /><path d="M 1708.7 2016.6 L 688.9 2016.6" /><path d="M 1708.7 1994.1 L 752.9 1994.1" /><path d="M 1708.7 1971.6 L 985.9 1971.6" /><path d="M 1708.7 1949.1 L 985.9 1949.1" /><path d="M 1708.7 1926.6 L 752.9 1926.6" /><path d="M 1708.7 1904.1 L 1079.6 1904.1" /><path d="M 1708.7 1881.6 L 1079.6 1881.6" /><path d="M 1708.7 1859.0 L 377.4 1859.0" /><path d="M 1708.7 1836.5 L 446.4 1836.5" /><path d="M 1708.7 1814.0 L 446.4 1814.0" /><path d="M 1708.7 1791.5 L 529.8 1791.5" /><path d="M 1708.7 1769.0 L 577.9 1769.0" /><path d="M 1708.7 1746.5 L 630.7 1746.5" /><path d="M 1708.7 1724.0 L 630.7 1724.0" /><path d="M 1708.7 1701.5 L 752.9 1701.5" /><path d="M 1708.7 1679.0 L 752.9 1679.0" /><path d="M 1708.7 1656.5 L 688.9 1656.5" /><path d="M 1708.7 1634.0 L 823.3 1634.0" /><path d="M 1708.7 1611.5 L 823.3 1611.5" /><path d="M 1708.7 1588.9 L 688.9 1588.9" /><path d="M 1708.7 1566.4 L 900.7 1566.4" /><path d="M 1708.7 1543.9 L 900.7 1543.9" /><path d="M 1708.7 1521.4 L 900.7 1521.4" /><path d="M 1708.7 1498.9 L 900.7 1498.9" /><path d="M 1708.7 1476.4 L 529.8 1476.4" /><path d="M 1708.7 1453.9 L 752.9 1453.9" /><path d="M 1708.7 1431.4 L 752.9 1431.4" /><path d="M 1708.7 1408.9 L 529.8 1408.9" /><path d="M 1708.7 1386.4 L 577.9 1386.4" /><path d="M 1708.7 1363.9 L 577.9 1363.9" /><path d="M 1708.7 1341.3 L 577.9 1341.3" /><path d="M 1708.7 1318.8 L 630.7 1318.8" /><path d="M 1708.7 1296.3 L 630.7 1296.3" /><path d="M 1708.7 1273.8 L 630.7 1273.8" /><path d="M 1708.7 1251.3 L 630.7 1251.3" /><path d="M 1708.7 1228.8 L 630.7 1228.8" /><path d="M 1708.7 1206.3 L 688.9 1206.3" /><path d="M 1708.7 1183.8 L 688.9 1183.8" /><path d="M 1708.7 1161.3 L 752.9 1161.3" /><path d="M 1708.7 1138.8 L 752.9 1138.8" /><path d="M 1708.7 1116.3 L 446.4 1116.3" /><path d="M 1708.7 1093.7 L 529.8 1093.7" /><path d="M 1708.7 1071.2 L 529.8 1071.2" /><path d="M 1708.7 1048.7 L 630.7 1048.7" /><path d="M 1708.7 1026.2 L 630.7 1026.2" /><path d="M 1708.7 1003.7 L 630.7 1003.7" /><path d="M 1708.7 981.2 L 688.9 981.2" /><path d="M 1708.7 958.7 L 752.9 958.7" /><path d="M 1708.7 936.2 L 752.9 936.2" /><path d="M 1708.7 913.7 L 529.8 913.7" /><path d="M 1708.7 891.2 L 630.7 891.2" /><path d="M 1708.7 868.7 L 630.7 868.7" /><path d="M 1708.7 846.1 L 630.7 846.1" /><path d="M 1708.7 823.6 L 630.7 823.6" /><path d="M 1708.7 801.1 L 688.9 801.1" /><path d="M 1708.7 778.6 L 752.9 778.6" /><path d="M 1708.7 756.1 L 752.9 756.1" /><path d="M 1708.7 733.6 L 446.4 733.6" /><path d="M 1708.7 711.1 L 486.1 711.1" /><path d="M 1708.7 688.6 L 486.1 688.6" /><path d="M 1708.7 666.1 L 688.9 666.1" /><path d="M 1708.7 643.6 L 688.9 643.6" /><path d="M 1708.7 621.1 L 577.9 621.1" /><path d="M 1708.7 598.5 L 630.7 598.5" /><path d="M 1708.7 576.0 L 630.7 576.0" /><path d="M 1708.7 553.5 L 630.7 553.5" /><path d="M 1708.7 531.0 L 630.7 531.0" /><path d="M 1708.7 508.5 L 630.7 508.5" /><path d="M 1708.7 486.0 L 577.9 486.0" /><path d="M 1708.7 463.5 L 577.9 463.5" /><path d="M 1708.7 441.0 L 630.7 441.0" /><path d="M 1708.7 418.5 L 630.7 418.5" /><path d="M 1708.7 396.0 L 900.7 396.0" /><path d="M 1708.7 373.5 L 985.9 373.5" /><path d="M 1708.7 351.0 L 985.9 351.0" /><path d="M 1708.7 328.4 L 900.7 328.4" /><path d="M 1708.7 305.9 L 985.9 305.9" /><path d="M 1708.7 283.4 L 985.9 283.4" /><path d="M 1708.7 260.9 L 1708.7 260.9" /><path d="M 1708.7 238.4 L 1708.7 238.4" /><path d="M 1708.7 215.9 L 529.8 215.9" /><path d="M 1708.7 193.4 L 1296.0 193.4" /><path d="M 1708.7 170.9 L 1296.0 170.9" /><path d="M 1708.7 148.4 L 823.3 148.4" /><path d="M 1708.7 125.9 L 823.3 125.9" /><path d="M 1708.7 103.4 L 1182.6 103.4" /><path d="M 1708.7 80.8 L 1296.0 80.8" /><path d="M 1708.7 58.3 L 1296.0 58.3" /></g><g class="toytree-AdmixEdges" style="fill:rgb(0.0%,0.0%,0.0%);fill-opacity:0.0;stroke:rgb(90.6%,54.1%,76.5%);stroke-opacity:0.6;font-size:14px;stroke-linecap:round;stroke-width:5" /><g class="toytree-Nodes" style="fill:rgb(0.0%,0.0%,0.0%);fill-opacity:1.0;stroke:none;stroke-width:1.5"><g id="Node-94" transform="translate(577.864,2072.89)"><rect x="-5.0" y="-2.5" width="10.0" height="5.0" /></g><g id="Node-95" transform="translate(752.899,1960.34)"><rect x="-5.0" y="-2.5" width="10.0" height="5.0" /></g><g id="Node-96" transform="translate(688.913,1977.22)"><rect x="-5.0" y="-2.5" width="10.0" height="5.0" /></g><g id="Node-97" transform="translate(752.899,1892.81)"><rect x="-5.0" y="-2.5" width="10.0" height="5.0" /></g><g id="Node-98" transform="translate(688.913,1909.7)"><rect x="-5.0" y="-2.5" width="10.0" height="5.0" /></g><g id="Node-99" transform="translate(577.864,1985.66)"><rect x="-5.0" y="-2.5" width="10.0" height="5.0" /></g><g id="Node-100" transform="translate(486.088,2055.07)"><rect x="-5.0" y="-2.5" width="10.0" height="5.0" /></g><g id="Node-101" transform="translate(446.359,2092.11)"><rect x="-5.0" y="-2.5" width="10.0" height="5.0" /></g><g id="Node-102" transform="translate(320.42,2121.89)"><rect x="-5.0" y="-2.5" width="10.0" height="5.0" /></g><g id="Node-103" transform="translate(577.864,1735.25)"><rect x="-5.0" y="-2.5" width="10.0" height="5.0" /></g><g id="Node-104" transform="translate(630.745,1690.23)"><rect x="-5.0" y="-2.5" width="10.0" height="5.0" /></g><g id="Node-105" transform="translate(688.913,1622.71)"><rect x="-5.0" y="-2.5" width="10.0" height="5.0" /></g><g id="Node-106" transform="translate(630.745,1639.59)"><rect x="-5.0" y="-2.5" width="10.0" height="5.0" /></g><g id="Node-107" transform="translate(823.283,1555.18)"><rect x="-5.0" y="-2.5" width="10.0" height="5.0" /></g><g id="Node-108" transform="translate(823.283,1510.16)"><rect x="-5.0" y="-2.5" width="10.0" height="5.0" /></g><g id="Node-109" transform="translate(688.913,1532.67)"><rect x="-5.0" y="-2.5" width="10.0" height="5.0" /></g><g id="Node-110" transform="translate(630.745,1560.81)"><rect x="-5.0" y="-2.5" width="10.0" height="5.0" /></g><g id="Node-111" transform="translate(577.864,1630.21)"><rect x="-5.0" y="-2.5" width="10.0" height="5.0" /></g><g id="Node-112" transform="translate(529.791,1711.49)"><rect x="-5.0" y="-2.5" width="10.0" height="5.0" /></g><g id="Node-113" transform="translate(446.359,1751.51)"><rect x="-5.0" y="-2.5" width="10.0" height="5.0" /></g><g id="Node-114" transform="translate(377.406,1800.69)"><rect x="-5.0" y="-2.5" width="10.0" height="5.0" /></g><g id="Node-115" transform="translate(320.42,1829.87)"><rect x="-5.0" y="-2.5" width="10.0" height="5.0" /></g><g id="Node-116" transform="translate(217.553,1975.88)"><rect x="-5.0" y="-2.5" width="10.0" height="5.0" /></g><g id="Node-117" transform="translate(529.791,1442.63)"><rect x="-5.0" y="-2.5" width="10.0" height="5.0" /></g><g id="Node-118" transform="translate(377.406,1459.52)"><rect x="-5.0" y="-2.5" width="10.0" height="5.0" /></g><g id="Node-119" transform="translate(577.864,1307.58)"><rect x="-5.0" y="-2.5" width="10.0" height="5.0" /></g><g id="Node-120" transform="translate(577.864,1251.31)"><rect x="-5.0" y="-2.5" width="10.0" height="5.0" /></g><g id="Node-121" transform="translate(630.745,1195.04)"><rect x="-5.0" y="-2.5" width="10.0" height="5.0" /></g><g id="Node-122" transform="translate(630.745,1150.02)"><rect x="-5.0" y="-2.5" width="10.0" height="5.0" /></g><g id="Node-123" transform="translate(577.864,1172.53)"><rect x="-5.0" y="-2.5" width="10.0" height="5.0" /></g><g id="Node-124" transform="translate(529.791,1303.83)"><rect x="-5.0" y="-2.5" width="10.0" height="5.0" /></g><g id="Node-125" transform="translate(377.406,1356.35)"><rect x="-5.0" y="-2.5" width="10.0" height="5.0" /></g><g id="Node-126" transform="translate(234.403,1407.93)"><rect x="-5.0" y="-2.5" width="10.0" height="5.0" /></g><g id="Node-127" transform="translate(486.088,1082.49)"><rect x="-5.0" y="-2.5" width="10.0" height="5.0" /></g><g id="Node-128" transform="translate(577.865,1037.47)"><rect x="-5.0" y="-2.5" width="10.0" height="5.0" /></g><g id="Node-129" transform="translate(688.914,947.437)"><rect x="-5.0" y="-2.5" width="10.0" height="5.0" /></g><g id="Node-130" transform="translate(630.745,964.319)"><rect x="-5.0" y="-2.5" width="10.0" height="5.0" /></g><g id="Node-131" transform="translate(577.865,984.014)"><rect x="-5.0" y="-2.5" width="10.0" height="5.0" /></g><g id="Node-132" transform="translate(486.088,1010.74)"><rect x="-5.0" y="-2.5" width="10.0" height="5.0" /></g><g id="Node-133" transform="translate(577.864,868.656)"><rect x="-5.0" y="-2.5" width="10.0" height="5.0" /></g><g id="Node-134" transform="translate(688.913,767.366)"><rect x="-5.0" y="-2.5" width="10.0" height="5.0" /></g><g id="Node-135" transform="translate(630.745,784.247)"><rect x="-5.0" y="-2.5" width="10.0" height="5.0" /></g><g id="Node-136" transform="translate(577.864,803.943)"><rect x="-5.0" y="-2.5" width="10.0" height="5.0" /></g><g id="Node-137" transform="translate(529.791,836.299)"><rect x="-5.0" y="-2.5" width="10.0" height="5.0" /></g><g id="Node-138" transform="translate(486.088,874.987)"><rect x="-5.0" y="-2.5" width="10.0" height="5.0" /></g><g id="Node-139" transform="translate(446.359,989.407)"><rect x="-5.0" y="-2.5" width="10.0" height="5.0" /></g><g id="Node-140" transform="translate(252.937,1052.83)"><rect x="-5.0" y="-2.5" width="10.0" height="5.0" /></g><g id="Node-141" transform="translate(529.791,654.821)"><rect x="-5.0" y="-2.5" width="10.0" height="5.0" /></g><g id="Node-142" transform="translate(577.864,587.294)"><rect x="-5.0" y="-2.5" width="10.0" height="5.0" /></g><g id="Node-143" transform="translate(529.791,604.176)"><rect x="-5.0" y="-2.5" width="10.0" height="5.0" /></g><g id="Node-144" transform="translate(529.791,531.022)"><rect x="-5.0" y="-2.5" width="10.0" height="5.0" /></g><g id="Node-145" transform="translate(577.864,429.731)"><rect x="-5.0" y="-2.5" width="10.0" height="5.0" /></g><g id="Node-146" transform="translate(529.791,459.743)"><rect x="-5.0" y="-2.5" width="10.0" height="5.0" /></g><g id="Node-147" transform="translate(486.088,562.44)"><rect x="-5.0" y="-2.5" width="10.0" height="5.0" /></g><g id="Node-148" transform="translate(446.359,654.039)"><rect x="-5.0" y="-2.5" width="10.0" height="5.0" /></g><g id="Node-149" transform="translate(273.325,693.821)"><rect x="-5.0" y="-2.5" width="10.0" height="5.0" /></g><g id="Node-150" transform="translate(900.704,362.205)"><rect x="-5.0" y="-2.5" width="10.0" height="5.0" /></g><g id="Node-151" transform="translate(577.864,379.086)"><rect x="-5.0" y="-2.5" width="10.0" height="5.0" /></g><g id="Node-152" transform="translate(900.704,294.678)"><rect x="-5.0" y="-2.5" width="10.0" height="5.0" /></g><g id="Node-153" transform="translate(577.864,311.559)"><rect x="-5.0" y="-2.5" width="10.0" height="5.0" /></g><g id="Node-154" transform="translate(320.42,345.323)"><rect x="-5.0" y="-2.5" width="10.0" height="5.0" /></g><g id="Node-155" transform="translate(347.556,249.66)"><rect x="-5.0" y="-2.5" width="10.0" height="5.0" /></g><g id="Node-156" transform="translate(529.791,182.133)"><rect x="-5.0" y="-2.5" width="10.0" height="5.0" /></g><g id="Node-157" transform="translate(410.24,199.015)"><rect x="-5.0" y="-2.5" width="10.0" height="5.0" /></g><g id="Node-158" transform="translate(446.358,137.115)"><rect x="-5.0" y="-2.5" width="10.0" height="5.0" /></g><g id="Node-159" transform="translate(1182.6,69.5881)"><rect x="-5.0" y="-2.5" width="10.0" height="5.0" /></g><g id="Node-160" transform="translate(446.358,86.4698)"><rect x="-5.0" y="-2.5" width="10.0" height="5.0" /></g><g id="Node-161" transform="translate(410.24,111.792)"><rect x="-5.0" y="-2.5" width="10.0" height="5.0" /></g><g id="Node-162" transform="translate(347.556,155.404)"><rect x="-5.0" y="-2.5" width="10.0" height="5.0" /></g><g id="Node-163" transform="translate(320.42,202.532)"><rect x="-5.0" y="-2.5" width="10.0" height="5.0" /></g><g id="Node-164" transform="translate(273.325,273.927)"><rect x="-5.0" y="-2.5" width="10.0" height="5.0" /></g><g id="Node-165" transform="translate(252.937,483.874)"><rect x="-5.0" y="-2.5" width="10.0" height="5.0" /></g><g id="Node-166" transform="translate(234.403,768.352)"><rect x="-5.0" y="-2.5" width="10.0" height="5.0" /></g><g id="Node-167" transform="translate(217.553,1088.14)"><rect x="-5.0" y="-2.5" width="10.0" height="5.0" /></g><g id="Node-168" transform="translate(55.6551,1532.01)"><rect x="-5.0" y="-2.5" width="10.0" height="5.0" /></g></g><g class="toytree-NodeLabels" style="font-family:Helvetica;font-size:9px;font-weight:300;vertical-align:baseline;white-space:pre;stroke:none"><g class="toytree-NodeLabel" transform="translate(577.864,2072.89)" /><g class="toytree-NodeLabel" transform="translate(752.899,1960.34)" /><g class="toytree-NodeLabel" transform="translate(688.913,1977.22)" /><g class="toytree-NodeLabel" transform="translate(752.899,1892.81)" /><g class="toytree-NodeLabel" transform="translate(688.913,1909.7)" /><g class="toytree-NodeLabel" transform="translate(577.864,1985.66)" /><g class="toytree-NodeLabel" transform="translate(486.088,2055.07)" /><g class="toytree-NodeLabel" transform="translate(446.359,2092.11)" /><g class="toytree-NodeLabel" transform="translate(320.42,2121.89)" /><g class="toytree-NodeLabel" transform="translate(577.864,1735.25)" /><g class="toytree-NodeLabel" transform="translate(630.745,1690.23)" /><g class="toytree-NodeLabel" transform="translate(688.913,1622.71)" /><g class="toytree-NodeLabel" transform="translate(630.745,1639.59)" /><g class="toytree-NodeLabel" transform="translate(823.283,1555.18)" /><g class="toytree-NodeLabel" transform="translate(823.283,1510.16)" /><g class="toytree-NodeLabel" transform="translate(688.913,1532.67)" /><g class="toytree-NodeLabel" transform="translate(630.745,1560.81)" /><g class="toytree-NodeLabel" transform="translate(577.864,1630.21)" /><g class="toytree-NodeLabel" transform="translate(529.791,1711.49)" /><g class="toytree-NodeLabel" transform="translate(446.359,1751.51)" /><g class="toytree-NodeLabel" transform="translate(377.406,1800.69)" /><g class="toytree-NodeLabel" transform="translate(320.42,1829.87)" /><g class="toytree-NodeLabel" transform="translate(217.553,1975.88)" /><g class="toytree-NodeLabel" transform="translate(529.791,1442.63)" /><g class="toytree-NodeLabel" transform="translate(377.406,1459.52)" /><g class="toytree-NodeLabel" transform="translate(577.864,1307.58)" /><g class="toytree-NodeLabel" transform="translate(577.864,1251.31)" /><g class="toytree-NodeLabel" transform="translate(630.745,1195.04)" /><g class="toytree-NodeLabel" transform="translate(630.745,1150.02)" /><g class="toytree-NodeLabel" transform="translate(577.864,1172.53)" /><g class="toytree-NodeLabel" transform="translate(529.791,1303.83)" /><g class="toytree-NodeLabel" transform="translate(377.406,1356.35)" /><g class="toytree-NodeLabel" transform="translate(234.403,1407.93)" /><g class="toytree-NodeLabel" transform="translate(486.088,1082.49)" /><g class="toytree-NodeLabel" transform="translate(577.865,1037.47)" /><g class="toytree-NodeLabel" transform="translate(688.914,947.437)" /><g class="toytree-NodeLabel" transform="translate(630.745,964.319)" /><g class="toytree-NodeLabel" transform="translate(577.865,984.014)" /><g class="toytree-NodeLabel" transform="translate(486.088,1010.74)" /><g class="toytree-NodeLabel" transform="translate(577.864,868.656)" /><g class="toytree-NodeLabel" transform="translate(688.913,767.366)" /><g class="toytree-NodeLabel" transform="translate(630.745,784.247)" /><g class="toytree-NodeLabel" transform="translate(577.864,803.943)" /><g class="toytree-NodeLabel" transform="translate(529.791,836.299)" /><g class="toytree-NodeLabel" transform="translate(486.088,874.987)" /><g class="toytree-NodeLabel" transform="translate(446.359,989.407)" /><g class="toytree-NodeLabel" transform="translate(252.937,1052.83)" /><g class="toytree-NodeLabel" transform="translate(529.791,654.821)" /><g class="toytree-NodeLabel" transform="translate(577.864,587.294)" /><g class="toytree-NodeLabel" transform="translate(529.791,604.176)" /><g class="toytree-NodeLabel" transform="translate(529.791,531.022)" /><g class="toytree-NodeLabel" transform="translate(577.864,429.731)" /><g class="toytree-NodeLabel" transform="translate(529.791,459.743)" /><g class="toytree-NodeLabel" transform="translate(486.088,562.44)" /><g class="toytree-NodeLabel" transform="translate(446.359,654.039)" /><g class="toytree-NodeLabel" transform="translate(273.325,693.821)" /><g class="toytree-NodeLabel" transform="translate(900.704,362.205)" /><g class="toytree-NodeLabel" transform="translate(577.864,379.086)" /><g class="toytree-NodeLabel" transform="translate(900.704,294.678)" /><g class="toytree-NodeLabel" transform="translate(577.864,311.559)" /><g class="toytree-NodeLabel" transform="translate(320.42,345.323)" /><g class="toytree-NodeLabel" transform="translate(347.556,249.66)" /><g class="toytree-NodeLabel" transform="translate(529.791,182.133)" /><g class="toytree-NodeLabel" transform="translate(410.24,199.015)" /><g class="toytree-NodeLabel" transform="translate(446.358,137.115)" /><g class="toytree-NodeLabel" transform="translate(1182.6,69.5881)" /><g class="toytree-NodeLabel" transform="translate(446.358,86.4698)" /><g class="toytree-NodeLabel" transform="translate(410.24,111.792)" /><g class="toytree-NodeLabel" transform="translate(347.556,155.404)" /><g class="toytree-NodeLabel" transform="translate(320.42,202.532)" /><g class="toytree-NodeLabel" transform="translate(273.325,273.927)" /><g class="toytree-NodeLabel" transform="translate(252.937,483.874)" /><g class="toytree-NodeLabel" transform="translate(234.403,768.352)" /><g class="toytree-NodeLabel" transform="translate(217.553,1088.14)" /><g class="toytree-NodeLabel" transform="translate(55.6551,1532.01)" /></g><g class="toytree-TipLabels" style="fill:rgb(14.5%,14.5%,14.5%);fill-opacity:1.0;font-family:Helvetica;font-size:14px;font-weight:300;vertical-align:baseline;white-space:pre;stroke:none"><g class="toytree-TipLabel" transform="translate(1708.68,2151.67)"><text x="15.0" y="3.577" style="fill:rgb(14.5%,14.5%,14.5%);fill-opacity:1.0">Avestan</text></g><g class="toytree-TipLabel" transform="translate(1708.68,2129.16)"><text x="15.0" y="3.577" style="fill:rgb(14.5%,14.5%,14.5%);fill-opacity:1.0">Digor_Ossetic</text></g><g class="toytree-TipLabel" transform="translate(1708.68,2106.65)"><text x="15.0" y="3.577" style="fill:rgb(14.5%,14.5%,14.5%);fill-opacity:1.0">Sogdian</text></g><g class="toytree-TipLabel" transform="translate(1708.68,2084.14)"><text x="15.0" y="3.577" style="fill:rgb(14.5%,14.5%,14.5%);fill-opacity:1.0">Pashto</text></g><g class="toytree-TipLabel" transform="translate(1708.68,2061.63)"><text x="15.0" y="3.577" style="fill:rgb(14.5%,14.5%,14.5%);fill-opacity:1.0">Waziri</text></g><g class="toytree-TipLabel" transform="translate(1708.68,2039.12)"><text x="15.0" y="3.577" style="fill:rgb(14.5%,14.5%,14.5%);fill-opacity:1.0">Baluchi</text></g><g class="toytree-TipLabel" transform="translate(1708.68,2016.61)"><text x="15.0" y="3.577" style="fill:rgb(14.5%,14.5%,14.5%);fill-opacity:1.0">Kurdish</text></g><g class="toytree-TipLabel" transform="translate(1708.68,1994.1)"><text x="15.0" y="3.577" style="fill:rgb(14.5%,14.5%,14.5%);fill-opacity:1.0">Zazaki</text></g><g class="toytree-TipLabel" transform="translate(1708.68,1971.59)"><text x="15.0" y="3.577" style="fill:rgb(14.5%,14.5%,14.5%);fill-opacity:1.0">Persian</text></g><g class="toytree-TipLabel" transform="translate(1708.68,1949.09)"><text x="15.0" y="3.577" style="fill:rgb(14.5%,14.5%,14.5%);fill-opacity:1.0">Tajik</text></g><g class="toytree-TipLabel" transform="translate(1708.68,1926.58)"><text x="15.0" y="3.577" style="fill:rgb(14.5%,14.5%,14.5%);fill-opacity:1.0">Wakhi</text></g><g class="toytree-TipLabel" transform="translate(1708.68,1904.07)"><text x="15.0" y="3.577" style="fill:rgb(14.5%,14.5%,14.5%);fill-opacity:1.0">Sariqoli</text></g><g class="toytree-TipLabel" transform="translate(1708.68,1881.56)"><text x="15.0" y="3.577" style="fill:rgb(14.5%,14.5%,14.5%);fill-opacity:1.0">Shughni</text></g><g class="toytree-TipLabel" transform="translate(1708.68,1859.05)"><text x="15.0" y="3.577" style="fill:rgb(14.5%,14.5%,14.5%);fill-opacity:1.0">Vedic_Sanskrit</text></g><g class="toytree-TipLabel" transform="translate(1708.68,1836.54)"><text x="15.0" y="3.577" style="fill:rgb(14.5%,14.5%,14.5%);fill-opacity:1.0">Romani</text></g><g class="toytree-TipLabel" transform="translate(1708.68,1814.03)"><text x="15.0" y="3.577" style="fill:rgb(14.5%,14.5%,14.5%);fill-opacity:1.0">Singhalese</text></g><g class="toytree-TipLabel" transform="translate(1708.68,1791.52)"><text x="15.0" y="3.577" style="fill:rgb(14.5%,14.5%,14.5%);fill-opacity:1.0">Kashmiri</text></g><g class="toytree-TipLabel" transform="translate(1708.68,1769.01)"><text x="15.0" y="3.577" style="fill:rgb(14.5%,14.5%,14.5%);fill-opacity:1.0">Assamese</text></g><g class="toytree-TipLabel" transform="translate(1708.68,1746.51)"><text x="15.0" y="3.577" style="fill:rgb(14.5%,14.5%,14.5%);fill-opacity:1.0">Marwari</text></g><g class="toytree-TipLabel" transform="translate(1708.68,1724)"><text x="15.0" y="3.577" style="fill:rgb(14.5%,14.5%,14.5%);fill-opacity:1.0">Sindhi</text></g><g class="toytree-TipLabel" transform="translate(1708.68,1701.49)"><text x="15.0" y="3.577" style="fill:rgb(14.5%,14.5%,14.5%);fill-opacity:1.0">Bengali</text></g><g class="toytree-TipLabel" transform="translate(1708.68,1678.98)"><text x="15.0" y="3.577" style="fill:rgb(14.5%,14.5%,14.5%);fill-opacity:1.0">Oriya</text></g><g class="toytree-TipLabel" transform="translate(1708.68,1656.47)"><text x="15.0" y="3.577" style="fill:rgb(14.5%,14.5%,14.5%);fill-opacity:1.0">Nepali</text></g><g class="toytree-TipLabel" transform="translate(1708.68,1633.96)"><text x="15.0" y="3.577" style="fill:rgb(14.5%,14.5%,14.5%);fill-opacity:1.0">Gujarati</text></g><g class="toytree-TipLabel" transform="translate(1708.68,1611.45)"><text x="15.0" y="3.577" style="fill:rgb(14.5%,14.5%,14.5%);fill-opacity:1.0">Marathi</text></g><g class="toytree-TipLabel" transform="translate(1708.68,1588.94)"><text x="15.0" y="3.577" style="fill:rgb(14.5%,14.5%,14.5%);fill-opacity:1.0">Bihari</text></g><g class="toytree-TipLabel" transform="translate(1708.68,1566.43)"><text x="15.0" y="3.577" style="fill:rgb(14.5%,14.5%,14.5%);fill-opacity:1.0">Hindi</text></g><g class="toytree-TipLabel" transform="translate(1708.68,1543.92)"><text x="15.0" y="3.577" style="fill:rgb(14.5%,14.5%,14.5%);fill-opacity:1.0">Urdu</text></g><g class="toytree-TipLabel" transform="translate(1708.68,1521.42)"><text x="15.0" y="3.577" style="fill:rgb(14.5%,14.5%,14.5%);fill-opacity:1.0">Lahnda</text></g><g class="toytree-TipLabel" transform="translate(1708.68,1498.91)"><text x="15.0" y="3.577" style="fill:rgb(14.5%,14.5%,14.5%);fill-opacity:1.0">Panjabi</text></g><g class="toytree-TipLabel" transform="translate(1708.68,1476.4)"><text x="15.0" y="3.577" style="fill:rgb(14.5%,14.5%,14.5%);fill-opacity:1.0">Old_Prussian</text></g><g class="toytree-TipLabel" transform="translate(1708.68,1453.89)"><text x="15.0" y="3.577" style="fill:rgb(14.5%,14.5%,14.5%);fill-opacity:1.0">Latvian</text></g><g class="toytree-TipLabel" transform="translate(1708.68,1431.38)"><text x="15.0" y="3.577" style="fill:rgb(14.5%,14.5%,14.5%);fill-opacity:1.0">Lithuanian</text></g><g class="toytree-TipLabel" transform="translate(1708.68,1408.87)"><text x="15.0" y="3.577" style="fill:rgb(14.5%,14.5%,14.5%);fill-opacity:1.0">Slovenian</text></g><g class="toytree-TipLabel" transform="translate(1708.68,1386.36)"><text x="15.0" y="3.577" style="fill:rgb(14.5%,14.5%,14.5%);fill-opacity:1.0">Old_Church_Slavic</text></g><g class="toytree-TipLabel" transform="translate(1708.68,1363.85)"><text x="15.0" y="3.577" style="fill:rgb(14.5%,14.5%,14.5%);fill-opacity:1.0">Polish</text></g><g class="toytree-TipLabel" transform="translate(1708.68,1341.34)"><text x="15.0" y="3.577" style="fill:rgb(14.5%,14.5%,14.5%);fill-opacity:1.0">Russian</text></g><g class="toytree-TipLabel" transform="translate(1708.68,1318.84)"><text x="15.0" y="3.577" style="fill:rgb(14.5%,14.5%,14.5%);fill-opacity:1.0">Belarusian</text></g><g class="toytree-TipLabel" transform="translate(1708.68,1296.33)"><text x="15.0" y="3.577" style="fill:rgb(14.5%,14.5%,14.5%);fill-opacity:1.0">Ukrainian</text></g><g class="toytree-TipLabel" transform="translate(1708.68,1273.82)"><text x="15.0" y="3.577" style="fill:rgb(14.5%,14.5%,14.5%);fill-opacity:1.0">Bulgarian</text></g><g class="toytree-TipLabel" transform="translate(1708.68,1251.31)"><text x="15.0" y="3.577" style="fill:rgb(14.5%,14.5%,14.5%);fill-opacity:1.0">Macedonian</text></g><g class="toytree-TipLabel" transform="translate(1708.68,1228.8)"><text x="15.0" y="3.577" style="fill:rgb(14.5%,14.5%,14.5%);fill-opacity:1.0">Serbian</text></g><g class="toytree-TipLabel" transform="translate(1708.68,1206.29)"><text x="15.0" y="3.577" style="fill:rgb(14.5%,14.5%,14.5%);fill-opacity:1.0">Czech</text></g><g class="toytree-TipLabel" transform="translate(1708.68,1183.78)"><text x="15.0" y="3.577" style="fill:rgb(14.5%,14.5%,14.5%);fill-opacity:1.0">Slovak</text></g><g class="toytree-TipLabel" transform="translate(1708.68,1161.27)"><text x="15.0" y="3.577" style="fill:rgb(14.5%,14.5%,14.5%);fill-opacity:1.0">Lower_Sorbian</text></g><g class="toytree-TipLabel" transform="translate(1708.68,1138.76)"><text x="15.0" y="3.577" style="fill:rgb(14.5%,14.5%,14.5%);fill-opacity:1.0">Upper_Sorbian</text></g><g class="toytree-TipLabel" transform="translate(1708.68,1116.25)"><text x="15.0" y="3.577" style="fill:rgb(14.5%,14.5%,14.5%);fill-opacity:1.0">Gothic</text></g><g class="toytree-TipLabel" transform="translate(1708.68,1093.75)"><text x="15.0" y="3.577" style="fill:rgb(14.5%,14.5%,14.5%);fill-opacity:1.0">English</text></g><g class="toytree-TipLabel" transform="translate(1708.68,1071.24)"><text x="15.0" y="3.577" style="fill:rgb(14.5%,14.5%,14.5%);fill-opacity:1.0">Old_English</text></g><g class="toytree-TipLabel" transform="translate(1708.68,1048.73)"><text x="15.0" y="3.577" style="fill:rgb(14.5%,14.5%,14.5%);fill-opacity:1.0">Danish</text></g><g class="toytree-TipLabel" transform="translate(1708.68,1026.22)"><text x="15.0" y="3.577" style="fill:rgb(14.5%,14.5%,14.5%);fill-opacity:1.0">Swedish</text></g><g class="toytree-TipLabel" transform="translate(1708.68,1003.71)"><text x="15.0" y="3.577" style="fill:rgb(14.5%,14.5%,14.5%);fill-opacity:1.0">Norwegian</text></g><g class="toytree-TipLabel" transform="translate(1708.68,981.201)"><text x="15.0" y="3.577" style="fill:rgb(14.5%,14.5%,14.5%);fill-opacity:1.0">Old_West_Norse</text></g><g class="toytree-TipLabel" transform="translate(1708.68,958.692)"><text x="15.0" y="3.577" style="fill:rgb(14.5%,14.5%,14.5%);fill-opacity:1.0">Faroese</text></g><g class="toytree-TipLabel" transform="translate(1708.68,936.183)"><text x="15.0" y="3.577" style="fill:rgb(14.5%,14.5%,14.5%);fill-opacity:1.0">Icelandic</text></g><g class="toytree-TipLabel" transform="translate(1708.68,913.674)"><text x="15.0" y="3.577" style="fill:rgb(14.5%,14.5%,14.5%);fill-opacity:1.0">Old_High_German</text></g><g class="toytree-TipLabel" transform="translate(1708.68,891.165)"><text x="15.0" y="3.577" style="fill:rgb(14.5%,14.5%,14.5%);fill-opacity:1.0">German</text></g><g class="toytree-TipLabel" transform="translate(1708.68,868.656)"><text x="15.0" y="3.577" style="fill:rgb(14.5%,14.5%,14.5%);fill-opacity:1.0">Luxembourgish</text></g><g class="toytree-TipLabel" transform="translate(1708.68,846.147)"><text x="15.0" y="3.577" style="fill:rgb(14.5%,14.5%,14.5%);fill-opacity:1.0">Swiss_German</text></g><g class="toytree-TipLabel" transform="translate(1708.68,823.638)"><text x="15.0" y="3.577" style="fill:rgb(14.5%,14.5%,14.5%);fill-opacity:1.0">Frisian</text></g><g class="toytree-TipLabel" transform="translate(1708.68,801.129)"><text x="15.0" y="3.577" style="fill:rgb(14.5%,14.5%,14.5%);fill-opacity:1.0">Dutch</text></g><g class="toytree-TipLabel" transform="translate(1708.68,778.62)"><text x="15.0" y="3.577" style="fill:rgb(14.5%,14.5%,14.5%);fill-opacity:1.0">Afrikaans</text></g><g class="toytree-TipLabel" transform="translate(1708.68,756.111)"><text x="15.0" y="3.577" style="fill:rgb(14.5%,14.5%,14.5%);fill-opacity:1.0">Flemish</text></g><g class="toytree-TipLabel" transform="translate(1708.68,733.602)"><text x="15.0" y="3.577" style="fill:rgb(14.5%,14.5%,14.5%);fill-opacity:1.0">Arumanian</text></g><g class="toytree-TipLabel" transform="translate(1708.68,711.093)"><text x="15.0" y="3.577" style="fill:rgb(14.5%,14.5%,14.5%);fill-opacity:1.0">Latin</text></g><g class="toytree-TipLabel" transform="translate(1708.68,688.584)"><text x="15.0" y="3.577" style="fill:rgb(14.5%,14.5%,14.5%);fill-opacity:1.0">Romanian</text></g><g class="toytree-TipLabel" transform="translate(1708.68,666.075)"><text x="15.0" y="3.577" style="fill:rgb(14.5%,14.5%,14.5%);fill-opacity:1.0">Cagliari</text></g><g class="toytree-TipLabel" transform="translate(1708.68,643.566)"><text x="15.0" y="3.577" style="fill:rgb(14.5%,14.5%,14.5%);fill-opacity:1.0">Nuorese</text></g><g class="toytree-TipLabel" transform="translate(1708.68,621.057)"><text x="15.0" y="3.577" style="fill:rgb(14.5%,14.5%,14.5%);fill-opacity:1.0">Catalan</text></g><g class="toytree-TipLabel" transform="translate(1708.68,598.549)"><text x="15.0" y="3.577" style="fill:rgb(14.5%,14.5%,14.5%);fill-opacity:1.0">Portuguese</text></g><g class="toytree-TipLabel" transform="translate(1708.68,576.04)"><text x="15.0" y="3.577" style="fill:rgb(14.5%,14.5%,14.5%);fill-opacity:1.0">Spanish</text></g><g class="toytree-TipLabel" transform="translate(1708.68,553.531)"><text x="15.0" y="3.577" style="fill:rgb(14.5%,14.5%,14.5%);fill-opacity:1.0">French</text></g><g class="toytree-TipLabel" transform="translate(1708.68,531.022)"><text x="15.0" y="3.577" style="fill:rgb(14.5%,14.5%,14.5%);fill-opacity:1.0">Provencal</text></g><g class="toytree-TipLabel" transform="translate(1708.68,508.513)"><text x="15.0" y="3.577" style="fill:rgb(14.5%,14.5%,14.5%);fill-opacity:1.0">Walloon</text></g><g class="toytree-TipLabel" transform="translate(1708.68,486.004)"><text x="15.0" y="3.577" style="fill:rgb(14.5%,14.5%,14.5%);fill-opacity:1.0">Italian</text></g><g class="toytree-TipLabel" transform="translate(1708.68,463.495)"><text x="15.0" y="3.577" style="fill:rgb(14.5%,14.5%,14.5%);fill-opacity:1.0">Ladin</text></g><g class="toytree-TipLabel" transform="translate(1708.68,440.986)"><text x="15.0" y="3.577" style="fill:rgb(14.5%,14.5%,14.5%);fill-opacity:1.0">Friulian</text></g><g class="toytree-TipLabel" transform="translate(1708.68,418.477)"><text x="15.0" y="3.577" style="fill:rgb(14.5%,14.5%,14.5%);fill-opacity:1.0">Romansh</text></g><g class="toytree-TipLabel" transform="translate(1708.68,395.968)"><text x="15.0" y="3.577" style="fill:rgb(14.5%,14.5%,14.5%);fill-opacity:1.0">Welsh</text></g><g class="toytree-TipLabel" transform="translate(1708.68,373.459)"><text x="15.0" y="3.577" style="fill:rgb(14.5%,14.5%,14.5%);fill-opacity:1.0">Breton</text></g><g class="toytree-TipLabel" transform="translate(1708.68,350.95)"><text x="15.0" y="3.577" style="fill:rgb(14.5%,14.5%,14.5%);fill-opacity:1.0">Cornish</text></g><g class="toytree-TipLabel" transform="translate(1708.68,328.441)"><text x="15.0" y="3.577" style="fill:rgb(14.5%,14.5%,14.5%);fill-opacity:1.0">Old_Irish</text></g><g class="toytree-TipLabel" transform="translate(1708.68,305.932)"><text x="15.0" y="3.577" style="fill:rgb(14.5%,14.5%,14.5%);fill-opacity:1.0">Irish</text></g><g class="toytree-TipLabel" transform="translate(1708.68,283.423)"><text x="15.0" y="3.577" style="fill:rgb(14.5%,14.5%,14.5%);fill-opacity:1.0">Scots_Gaelic</text></g><g class="toytree-TipLabel" transform="translate(1708.68,260.914)"><text x="15.0" y="3.577" style="fill:rgb(14.5%,14.5%,14.5%);fill-opacity:1.0">Arvanitika</text></g><g class="toytree-TipLabel" transform="translate(1708.68,238.405)"><text x="15.0" y="3.577" style="fill:rgb(14.5%,14.5%,14.5%);fill-opacity:1.0">Tosk</text></g><g class="toytree-TipLabel" transform="translate(1708.68,215.896)"><text x="15.0" y="3.577" style="fill:rgb(14.5%,14.5%,14.5%);fill-opacity:1.0">Hittite</text></g><g class="toytree-TipLabel" transform="translate(1708.68,193.387)"><text x="15.0" y="3.577" style="fill:rgb(14.5%,14.5%,14.5%);fill-opacity:1.0">Tocharian_A</text></g><g class="toytree-TipLabel" transform="translate(1708.68,170.878)"><text x="15.0" y="3.577" style="fill:rgb(14.5%,14.5%,14.5%);fill-opacity:1.0">Tocharian_B</text></g><g class="toytree-TipLabel" transform="translate(1708.68,148.369)"><text x="15.0" y="3.577" style="fill:rgb(14.5%,14.5%,14.5%);fill-opacity:1.0">Ancient_Greek</text></g><g class="toytree-TipLabel" transform="translate(1708.68,125.861)"><text x="15.0" y="3.577" style="fill:rgb(14.5%,14.5%,14.5%);fill-opacity:1.0">Modern_Greek</text></g><g class="toytree-TipLabel" transform="translate(1708.68,103.352)"><text x="15.0" y="3.577" style="fill:rgb(14.5%,14.5%,14.5%);fill-opacity:1.0">Classical_Armenian</text></g><g class="toytree-TipLabel" transform="translate(1708.68,80.8426)"><text x="15.0" y="3.577" style="fill:rgb(14.5%,14.5%,14.5%);fill-opacity:1.0">Adapazar</text></g><g class="toytree-TipLabel" transform="translate(1708.68,58.3336)"><text x="15.0" y="3.577" style="fill:rgb(14.5%,14.5%,14.5%);fill-opacity:1.0">Eastern_Armenian</text></g></g></g></g></g></svg>