<svg class="toyplot-canvas-Canvas" xmlns:toyplot="http://www.sandia.gov/toyplot" xmlns:xlink="http://www.w3.org/1999/xlink" xmlns="http://www.w3.org/2000/svg" width="2000.0px" height="1265.0px" viewBox="0 0 2000.0 1265.0" preserveAspectRatio="xMidYMid meet" style="background-color:transparent;border-color:#292724;border-style:none;border-width:1.0;fill:rgb(16.1%,15.3%,14.1%);fill-opacity:1.0;font-family:Helvetica;font-size:12px;opacity:1.0;stroke:rgb(16.1%,15.3%,14.1%);stroke-opacity:1.0;stroke-width:1.0" id="tc71aa116e6974643bc33e4bc44efe719"><g class="toyplot-coordinates-Cartesian" id="t10798dd4a1244d5da0a07b677242f4aa"><clipPath id="ted38c28b7f8b419a96ced884071c560b"><rect x="35.0" y="35.0" width="1930.0" height="1195.0" /></clipPath><g clip-path="url(#ted38c28b7f8b419a96ced884071c560b)"><g class="toytree-mark-Toytree" id="t9e508a6918a944328507854e75c6a110"><g class="toytree-Edges" style="stroke:rgb(14.5%,14.5%,14.5%);stroke-opacity:1.0;stroke-linecap:round;stroke-width:2.0;fill:none"><path d="M 336.4 1069.0 L 336.4 1206.7 L 491.9 1206.7" id="38,0" style="" /><path d="M 491.9 1106.2 L 491.9 1168.4 L 581.5 1168.4" id="32,1" style="" /><path d="M 491.9 1106.2 L 491.9 1130.2 L 581.5 1130.2" id="32,2" style="" /><path d="M 491.9 1106.2 L 491.9 1091.9 L 581.5 1091.9" id="32,3" style="" /><path d="M 581.5 1034.5 L 581.5 1053.6 L 680.0 1053.6" id="31,4" style="" /><path d="M 581.5 1034.5 L 581.5 1015.3 L 680.0 1015.3" id="31,5" style="" /><path d="M 491.9 894.1 L 491.9 977.0 L 581.5 977.0" id="37,6" style="" /><path d="M 581.5 910.0 L 581.5 938.8 L 680.0 938.8" id="34,7" style="" /><path d="M 680.0 881.3 L 680.0 900.5 L 788.5 900.5" id="33,8" style="" /><path d="M 680.0 881.3 L 680.0 862.2 L 788.5 862.2" id="33,9" style="" /><path d="M 581.5 795.2 L 581.5 823.9 L 1341.9 823.9" id="36,10" style="" /><path d="M 1341.9 766.5 L 1341.9 785.6 L 1708.6 785.6" id="35,11" style="" /><path d="M 1341.9 766.5 L 1341.9 747.3 L 1708.6 747.3" id="35,12" style="" /><path d="M 491.9 680.4 L 491.9 709.1 L 581.5 709.1" id="40,13" style="" /><path d="M 581.5 651.6 L 581.5 670.8 L 788.5 670.8" id="39,14" style="" /><path d="M 581.5 651.6 L 581.5 632.5 L 788.5 632.5" id="39,15" style="" /><path d="M 491.9 549.6 L 491.9 594.2 L 581.5 594.2" id="42,16" style="" /><path d="M 491.9 549.6 L 491.9 555.9 L 581.5 555.9" id="42,17" style="" /><path d="M 581.5 498.5 L 581.5 517.7 L 907.7 517.7" id="41,18" style="" /><path d="M 581.5 498.5 L 581.5 479.4 L 907.7 479.4" id="41,19" style="" /><path d="M 410.4 323.1 L 410.4 441.1 L 491.9 441.1" id="47,20" style="" /><path d="M 491.9 345.4 L 491.9 402.8 L 581.5 402.8" id="44,21" style="" /><path d="M 491.9 345.4 L 491.9 364.5 L 581.5 364.5" id="44,22" style="" /><path d="M 491.9 345.4 L 491.9 326.2 L 581.5 326.2" id="44,23" style="" /><path d="M 491.9 345.4 L 491.9 288.0 L 581.5 288.0" id="44,24" style="" /><path d="M 491.9 182.7 L 491.9 249.7 L 581.5 249.7" id="46,25" style="" /><path d="M 491.9 182.7 L 491.9 211.4 L 581.5 211.4" id="46,26" style="" /><path d="M 491.9 182.7 L 491.9 173.1 L 581.5 173.1" id="46,27" style="" /><path d="M 581.5 96.6 L 581.5 134.8 L 680.0 134.8" id="45,28" style="" /><path d="M 581.5 96.6 L 581.5 96.6 L 680.0 96.6" id="45,29" style="" /><path d="M 581.5 96.6 L 581.5 58.3 L 680.0 58.3" id="45,30" style="" /><path d="M 491.9 1106.2 L 491.9 1034.5 L 581.5 1034.5" id="32,31" style="" /><path d="M 336.4 1069.0 L 336.4 1106.2 L 491.9 1106.2" id="38,32" style="" /><path d="M 581.5 910.0 L 581.5 881.3 L 680.0 881.3" id="34,33" style="" /><path d="M 491.9 894.1 L 491.9 910.0 L 581.5 910.0" id="37,34" style="" /><path d="M 581.5 795.2 L 581.5 766.5 L 1341.9 766.5" id="36,35" style="" /><path d="M 491.9 894.1 L 491.9 795.2 L 581.5 795.2" id="37,36" style="" /><path d="M 336.4 1069.0 L 336.4 894.1 L 491.9 894.1" id="38,37" style="" /><path d="M 55.7 769.0 L 55.7 1069.0 L 336.4 1069.0" id="49,38" style="" /><path d="M 491.9 680.4 L 491.9 651.6 L 581.5 651.6" id="40,39" style="" /><path d="M 410.4 615.0 L 410.4 680.4 L 491.9 680.4" id="43,40" style="" /><path d="M 491.9 549.6 L 491.9 498.5 L 581.5 498.5" id="42,41" style="" /><path d="M 410.4 615.0 L 410.4 549.6 L 491.9 549.6" id="43,42" style="" /><path d="M 336.4 469.0 L 336.4 615.0 L 410.4 615.0" id="48,43" style="" /><path d="M 410.4 323.1 L 410.4 345.4 L 491.9 345.4" id="47,44" style="" /><path d="M 491.9 182.7 L 491.9 96.6 L 581.5 96.6" id="46,45" style="" /><path d="M 410.4 323.1 L 410.4 182.7 L 491.9 182.7" id="47,46" style="" /><path d="M 336.4 469.0 L 336.4 323.1 L 410.4 323.1" id="48,47" style="" /><path d="M 55.7 769.0 L 55.7 469.0 L 336.4 469.0" id="49,48" style="" /></g><g class="toytree-AlignEdges" style="stroke:rgb(66.0%,66.0%,66.0%);stroke-opacity:0.75;stroke-dasharray:2,4;stroke-linecap:round;stroke-width:2"><path d="M 1708.6 1206.7 L 491.9 1206.7" /><path d="M 1708.6 1168.4 L 581.5 1168.4" /><path d="M 1708.6 1130.2 L 581.5 1130.2" /><path d="M 1708.6 1091.9 L 581.5 1091.9" /><path d="M 1708.6 1053.6 L 680.0 1053.6" /><path d="M 1708.6 1015.3 L 680.0 1015.3" /><path d="M 1708.6 977.0 L 581.5 977.0" /><path d="M 1708.6 938.8 L 680.0 938.8" /><path d="M 1708.6 900.5 L 788.5 900.5" /><path d="M 1708.6 862.2 L 788.5 862.2" /><path d="M 1708.6 823.9 L 1341.9 823.9" /><path d="M 1708.6 785.6 L 1708.6 785.6" /><path d="M 1708.6 747.3 L 1708.6 747.3" /><path d="M 1708.6 709.1 L 581.5 709.1" /><path d="M 1708.6 670.8 L 788.5 670.8" /><path d="M 1708.6 632.5 L 788.5 632.5" /><path d="M 1708.6 594.2 L 581.5 594.2" /><path d="M 1708.6 555.9 L 581.5 555.9" /><path d="M 1708.6 517.7 L 907.7 517.7" /><path d="M 1708.6 479.4 L 907.7 479.4" /><path d="M 1708.6 441.1 L 491.9 441.1" /><path d="M 1708.6 402.8 L 581.5 402.8" /><path d="M 1708.6 364.5 L 581.5 364.5" /><path d="M 1708.6 326.2 L 581.5 326.2" /><path d="M 1708.6 288.0 L 581.5 288.0" /><path d="M 1708.6 249.7 L 581.5 249.7" /><path d="M 1708.6 211.4 L 581.5 211.4" /><path d="M 1708.6 173.1 L 581.5 173.1" /><path d="M 1708.6 134.8 L 680.0 134.8" /><path d="M 1708.6 96.6 L 680.0 96.6" /><path d="M 1708.6 58.3 L 680.0 58.3" /></g><g class="toytree-AdmixEdges" style="fill:rgb(0.0%,0.0%,0.0%);fill-opacity:0.0;stroke:rgb(90.6%,54.1%,76.5%);stroke-opacity:0.6;font-size:14px;stroke-linecap:round;stroke-width:5" /><g class="toytree-Nodes" style="fill:rgb(0.0%,0.0%,0.0%);fill-opacity:1.0;stroke:none;stroke-width:1.5"><g id="Node-31" transform="translate(581.473,1034.45)"><rect x="-5.0" y="-2.5" width="10.0" height="5.0" /></g><g id="Node-32" transform="translate(491.872,1106.23)"><rect x="-5.0" y="-2.5" width="10.0" height="5.0" /></g><g id="Node-33" transform="translate(680.035,881.328)"><rect x="-5.0" y="-2.5" width="10.0" height="5.0" /></g><g id="Node-34" transform="translate(581.473,910.039)"><rect x="-5.0" y="-2.5" width="10.0" height="5.0" /></g><g id="Node-35" transform="translate(1341.94,766.485)"><rect x="-5.0" y="-2.5" width="10.0" height="5.0" /></g><g id="Node-36" transform="translate(581.473,795.195)"><rect x="-5.0" y="-2.5" width="10.0" height="5.0" /></g><g id="Node-37" transform="translate(491.872,894.089)"><rect x="-5.0" y="-2.5" width="10.0" height="5.0" /></g><g id="Node-38" transform="translate(336.365,1069.01)"><rect x="-5.0" y="-2.5" width="10.0" height="5.0" /></g><g id="Node-39" transform="translate(581.474,651.641)"><rect x="-5.0" y="-2.5" width="10.0" height="5.0" /></g><g id="Node-40" transform="translate(491.872,680.352)"><rect x="-5.0" y="-2.5" width="10.0" height="5.0" /></g><g id="Node-41" transform="translate(581.474,498.515)"><rect x="-5.0" y="-2.5" width="10.0" height="5.0" /></g><g id="Node-42" transform="translate(491.872,549.557)"><rect x="-5.0" y="-2.5" width="10.0" height="5.0" /></g><g id="Node-43" transform="translate(410.416,614.954)"><rect x="-5.0" y="-2.5" width="10.0" height="5.0" /></g><g id="Node-44" transform="translate(491.872,345.39)"><rect x="-5.0" y="-2.5" width="10.0" height="5.0" /></g><g id="Node-45" transform="translate(581.474,96.5619)"><rect x="-5.0" y="-2.5" width="10.0" height="5.0" /></g><g id="Node-46" transform="translate(491.872,182.695)"><rect x="-5.0" y="-2.5" width="10.0" height="5.0" /></g><g id="Node-47" transform="translate(410.416,323.06)"><rect x="-5.0" y="-2.5" width="10.0" height="5.0" /></g><g id="Node-48" transform="translate(336.365,469.007)"><rect x="-5.0" y="-2.5" width="10.0" height="5.0" /></g><g id="Node-49" transform="translate(55.6549,769.01)"><rect x="-5.0" y="-2.5" width="10.0" height="5.0" /></g></g><g class="toytree-NodeLabels" style="font-family:Helvetica;font-size:9px;font-weight:300;vertical-align:baseline;white-space:pre;stroke:none"><g class="toytree-NodeLabel" transform="translate(581.473,1034.45)" /><g class="toytree-NodeLabel" transform="translate(491.872,1106.23)" /><g class="toytree-NodeLabel" transform="translate(680.035,881.328)" /><g class="toytree-NodeLabel" transform="translate(581.473,910.039)" /><g class="toytree-NodeLabel" transform="translate(1341.94,766.485)" /><g class="toytree-NodeLabel" transform="translate(581.473,795.195)" /><g class="toytree-NodeLabel" transform="translate(491.872,894.089)" /><g class="toytree-NodeLabel" transform="translate(336.365,1069.01)" /><g class="toytree-NodeLabel" transform="translate(581.474,651.641)" /><g class="toytree-NodeLabel" transform="translate(491.872,680.352)" /><g class="toytree-NodeLabel" transform="translate(581.474,498.515)" /><g class="toytree-NodeLabel" transform="translate(491.872,549.557)" /><g class="toytree-NodeLabel" transform="translate(410.416,614.954)" /><g class="toytree-NodeLabel" transform="translate(491.872,345.39)" /><g class="toytree-NodeLabel" transform="translate(581.474,96.5619)" /><g class="toytree-NodeLabel" transform="translate(491.872,182.695)" /><g class="toytree-NodeLabel" transform="translate(410.416,323.06)" /><g class="toytree-NodeLabel" transform="translate(336.365,469.007)" /><g class="toytree-NodeLabel" transform="translate(55.6549,769.01)" /></g><g class="toytree-TipLabels" style="fill:rgb(14.5%,14.5%,14.5%);fill-opacity:1.0;font-family:Helvetica;font-size:14px;font-weight:300;vertical-align:baseline;white-space:pre;stroke:none"><g class="toytree-TipLabel" transform="translate(1708.61,1206.72)"><text x="15.0" y="3.577" style="fill:rgb(14.5%,14.5%,14.5%);fill-opacity:1.0">Leo_Pukapuka</text></g><g class="toytree-TipLabel" transform="translate(1708.61,1168.44)"><text x="15.0" y="3.577" style="fill:rgb(14.5%,14.5%,14.5%);fill-opacity:1.0">Rapanui</text></g><g class="toytree-TipLabel" transform="translate(1708.61,1130.16)"><text x="15.0" y="3.577" style="fill:rgb(14.5%,14.5%,14.5%);fill-opacity:1.0">Reo_Magareva</text></g><g class="toytree-TipLabel" transform="translate(1708.61,1091.88)"><text x="15.0" y="3.577" style="fill:rgb(14.5%,14.5%,14.5%);fill-opacity:1.0">Reo_Maori</text></g><g class="toytree-TipLabel" transform="translate(1708.61,1053.59)"><text x="15.0" y="3.577" style="fill:rgb(14.5%,14.5%,14.5%);fill-opacity:1.0">eo_enana</text></g><g class="toytree-TipLabel" transform="translate(1708.61,1015.31)"><text x="15.0" y="3.577" style="fill:rgb(14.5%,14.5%,14.5%);fill-opacity:1.0">olelo_Hawaii</text></g><g class="toytree-TipLabel" transform="translate(1708.61,977.032)"><text x="15.0" y="3.577" style="fill:rgb(14.5%,14.5%,14.5%);fill-opacity:1.0">Manihiki</text></g><g class="toytree-TipLabel" transform="translate(1708.61,938.75)"><text x="15.0" y="3.577" style="fill:rgb(14.5%,14.5%,14.5%);fill-opacity:1.0">Reo_o_te_Tuamotu</text></g><g class="toytree-TipLabel" transform="translate(1708.61,900.469)"><text x="15.0" y="3.577" style="fill:rgb(14.5%,14.5%,14.5%);fill-opacity:1.0">Penrhyn</text></g><g class="toytree-TipLabel" transform="translate(1708.61,862.188)"><text x="15.0" y="3.577" style="fill:rgb(14.5%,14.5%,14.5%);fill-opacity:1.0">Reo_Rarotongan</text></g><g class="toytree-TipLabel" transform="translate(1708.61,823.906)"><text x="15.0" y="3.577" style="fill:rgb(14.5%,14.5%,14.5%);fill-opacity:1.0">Reo_Raivavae</text></g><g class="toytree-TipLabel" transform="translate(1708.61,785.625)"><text x="15.0" y="3.577" style="fill:rgb(14.5%,14.5%,14.5%);fill-opacity:1.0">Reo_Rurutu</text></g><g class="toytree-TipLabel" transform="translate(1708.61,747.344)"><text x="15.0" y="3.577" style="fill:rgb(14.5%,14.5%,14.5%);fill-opacity:1.0">Reo_Tahiti</text></g><g class="toytree-TipLabel" transform="translate(1708.61,709.063)"><text x="15.0" y="3.577" style="fill:rgb(14.5%,14.5%,14.5%);fill-opacity:1.0">Fesau_Futuna</text></g><g class="toytree-TipLabel" transform="translate(1708.61,670.781)"><text x="15.0" y="3.577" style="fill:rgb(14.5%,14.5%,14.5%);fill-opacity:1.0">Fakamae</text></g><g class="toytree-TipLabel" transform="translate(1708.61,632.5)"><text x="15.0" y="3.577" style="fill:rgb(14.5%,14.5%,14.5%);fill-opacity:1.0">MeleFila</text></g><g class="toytree-TipLabel" transform="translate(1708.61,594.219)"><text x="15.0" y="3.577" style="fill:rgb(14.5%,14.5%,14.5%);fill-opacity:1.0">Kapingamarangi</text></g><g class="toytree-TipLabel" transform="translate(1708.61,555.937)"><text x="15.0" y="3.577" style="fill:rgb(14.5%,14.5%,14.5%);fill-opacity:1.0">Nukeria</text></g><g class="toytree-TipLabel" transform="translate(1708.61,517.656)"><text x="15.0" y="3.577" style="fill:rgb(14.5%,14.5%,14.5%);fill-opacity:1.0">Luangiua</text></g><g class="toytree-TipLabel" transform="translate(1708.61,479.375)"><text x="15.0" y="3.577" style="fill:rgb(14.5%,14.5%,14.5%);fill-opacity:1.0">Sikaiana</text></g><g class="toytree-TipLabel" transform="translate(1708.61,441.094)"><text x="15.0" y="3.577" style="fill:rgb(14.5%,14.5%,14.5%);fill-opacity:1.0">Leo_Tuvalu</text></g><g class="toytree-TipLabel" transform="translate(1708.61,402.812)"><text x="15.0" y="3.577" style="fill:rgb(14.5%,14.5%,14.5%);fill-opacity:1.0">Fakatikopia</text></g><g class="toytree-TipLabel" transform="translate(1708.61,364.531)"><text x="15.0" y="3.577" style="fill:rgb(14.5%,14.5%,14.5%);fill-opacity:1.0">RennellBellona</text></g><g class="toytree-TipLabel" transform="translate(1708.61,326.25)"><text x="15.0" y="3.577" style="fill:rgb(14.5%,14.5%,14.5%);fill-opacity:1.0">TarangapakaAnuta</text></g><g class="toytree-TipLabel" transform="translate(1708.61,287.968)"><text x="15.0" y="3.577" style="fill:rgb(14.5%,14.5%,14.5%);fill-opacity:1.0">VaeakauTaumako</text></g><g class="toytree-TipLabel" transform="translate(1708.61,249.687)"><text x="15.0" y="3.577" style="fill:rgb(14.5%,14.5%,14.5%);fill-opacity:1.0">Gagana_Samoa</text></g><g class="toytree-TipLabel" transform="translate(1708.61,211.406)"><text x="15.0" y="3.577" style="fill:rgb(14.5%,14.5%,14.5%);fill-opacity:1.0">Proto_Polynesian</text></g><g class="toytree-TipLabel" transform="translate(1708.61,173.124)"><text x="15.0" y="3.577" style="fill:rgb(14.5%,14.5%,14.5%);fill-opacity:1.0">Vagahau_Niue</text></g><g class="toytree-TipLabel" transform="translate(1708.61,134.843)"><text x="15.0" y="3.577" style="fill:rgb(14.5%,14.5%,14.5%);fill-opacity:1.0">Fakafutuna</text></g><g class="toytree-TipLabel" transform="translate(1708.61,96.5619)"><text x="15.0" y="3.577" style="fill:rgb(14.5%,14.5%,14.5%);fill-opacity:1.0">Fakauvea</text></g><g class="toytree-TipLabel" transform="translate(1708.61,58.2806)"><text x="15.0" y="3.577" style="fill:rgb(14.5%,14.5%,14.5%);fill-opacity:1.0">Lea_Fakatonga</text></g></g></g></g></g></svg>