<svg class="toyplot-canvas-Canvas" xmlns:toyplot="http://www.sandia.gov/toyplot" xmlns:xlink="http://www.w3.org/1999/xlink" xmlns="http://www.w3.org/2000/svg" width="2000.0px" height="2000.0px" viewBox="0 0 2000.0 2000.0" preserveAspectRatio="xMidYMid meet" style="background-color:transparent;border-color:#292724;border-style:none;border-width:1.0;fill:rgb(16.1%,15.3%,14.1%);fill-opacity:1.0;font-family:Helvetica;font-size:12px;opacity:1.0;stroke:rgb(16.1%,15.3%,14.1%);stroke-opacity:1.0;stroke-width:1.0" id="t069e66bfd55d422e94fd707cb3019534"><g class="toyplot-coordinates-Cartesian" id="taad349e8b77f4abf9ac309295766cecb"><clipPath id="ta94597dce66543e3914f50556a485770"><rect x="35.0" y="35.0" width="1930.0" height="1930.0" /></clipPath><g clip-path="url(#ta94597dce66543e3914f50556a485770)"><g class="toytree-mark-Toytree" id="t9b5a7ecb003e49938ba96a4db7db5a73"><g class="toytree-Edges" style="stroke:rgb(14.5%,14.5%,14.5%);stroke-opacity:1.0;stroke-linecap:round;stroke-width:2;fill:none"><path d="M 284.2 335.3 L 58.3 491.4" id="38,0" style="" /><path d="M 223.1 491.4 L 121.1 581.4" id="32,1" style="" /><path d="M 223.1 491.4 L 183.9 581.4" id="32,2" style="" /><path d="M 223.1 491.4 L 246.7 581.4" id="32,3" style="" /><path d="M 340.8 581.4 L 309.4 680.3" id="31,4" style="" /><path d="M 340.8 581.4 L 372.2 680.3" id="31,5" style="" /><path d="M 571.0 491.4 L 435.0 581.4" id="37,6" style="" /><path d="M 544.9 581.4 L 497.8 680.3" id="34,7" style="" /><path d="M 591.9 680.3 L 560.6 789.2" id="33,8" style="" /><path d="M 591.9 680.3 L 623.3 789.2" id="33,9" style="" /><path d="M 733.2 581.4 L 686.1 1344.8" id="36,10" style="" /><path d="M 780.3 1344.8 L 748.9 1712.9" id="35,11" style="" /><path d="M 780.3 1344.8 L 811.7 1712.9" id="35,12" style="" /><path d="M 921.5 491.4 L 874.4 581.4" id="40,13" style="" /><path d="M 968.6 581.4 L 937.2 789.2" id="39,14" style="" /><path d="M 968.6 581.4 L 1000.0 789.2" id="39,15" style="" /><path d="M 1136.0 491.4 L 1062.8 581.4" id="42,16" style="" /><path d="M 1136.0 491.4 L 1125.6 581.4" id="42,17" style="" /><path d="M 1219.7 581.4 L 1188.3 908.9" id="41,18" style="" /><path d="M 1219.7 581.4 L 1251.1 908.9" id="41,19" style="" /><path d="M 1507.5 409.6 L 1313.9 491.4" id="47,20" style="" /><path d="M 1470.8 491.4 L 1376.7 581.4" id="44,21" style="" /><path d="M 1470.8 491.4 L 1439.4 581.4" id="44,22" style="" /><path d="M 1470.8 491.4 L 1502.2 581.4" id="44,23" style="" /><path d="M 1470.8 491.4 L 1565.0 581.4" id="44,24" style="" /><path d="M 1737.6 491.4 L 1627.8 581.4" id="46,25" style="" /><path d="M 1737.6 491.4 L 1690.6 581.4" id="46,26" style="" /><path d="M 1737.6 491.4 L 1753.3 581.4" id="46,27" style="" /><path d="M 1878.9 581.4 L 1816.1 680.3" id="45,28" style="" /><path d="M 1878.9 581.4 L 1878.9 680.3" id="45,29" style="" /><path d="M 1878.9 581.4 L 1941.7 680.3" id="45,30" style="" /><path d="M 223.1 491.4 L 340.8 581.4" id="32,31" style="" /><path d="M 284.2 335.3 L 223.1 491.4" id="38,32" style="" /><path d="M 544.9 581.4 L 591.9 680.3" id="34,33" style="" /><path d="M 571.0 491.4 L 544.9 581.4" id="37,34" style="" /><path d="M 733.2 581.4 L 780.3 1344.8" id="36,35" style="" /><path d="M 571.0 491.4 L 733.2 581.4" id="37,36" style="" /><path d="M 284.2 335.3 L 571.0 491.4" id="38,37" style="" /><path d="M 776.1 53.5 L 284.2 335.3" id="49,38" style="" /><path d="M 921.5 491.4 L 968.6 581.4" id="40,39" style="" /><path d="M 1028.8 409.6 L 921.5 491.4" id="43,40" style="" /><path d="M 1136.0 491.4 L 1219.7 581.4" id="42,41" style="" /><path d="M 1028.8 409.6 L 1136.0 491.4" id="43,42" style="" /><path d="M 1268.1 335.3 L 1028.8 409.6" id="48,43" style="" /><path d="M 1507.5 409.6 L 1470.8 491.4" id="47,44" style="" /><path d="M 1737.6 491.4 L 1878.9 581.4" id="46,45" style="" /><path d="M 1507.5 409.6 L 1737.6 491.4" id="47,46" style="" /><path d="M 1268.1 335.3 L 1507.5 409.6" id="48,47" style="" /><path d="M 776.1 53.5 L 1268.1 335.3" id="49,48" style="" /></g><g class="toytree-AlignEdges" style="stroke:rgb(66.0%,66.0%,66.0%);stroke-opacity:0.75;stroke-dasharray:2,4;stroke-linecap:round;stroke-width:2"><path d="M 58.3 1712.9 L 58.3 491.4" /><path d="M 121.1 1712.9 L 121.1 581.4" /><path d="M 183.9 1712.9 L 183.9 581.4" /><path d="M 246.7 1712.9 L 246.7 581.4" /><path d="M 309.4 1712.9 L 309.4 680.3" /><path d="M 372.2 1712.9 L 372.2 680.3" /><path d="M 435.0 1712.9 L 435.0 581.4" /><path d="M 497.8 1712.9 L 497.8 680.3" /><path d="M 560.6 1712.9 L 560.6 789.2" /><path d="M 623.3 1712.9 L 623.3 789.2" /><path d="M 686.1 1712.9 L 686.1 1344.8" /><path d="M 748.9 1712.9 L 748.9 1712.9" /><path d="M 811.7 1712.9 L 811.7 1712.9" /><path d="M 874.4 1712.9 L 874.4 581.4" /><path d="M 937.2 1712.9 L 937.2 789.2" /><path d="M 1000.0 1712.9 L 1000.0 789.2" /><path d="M 1062.8 1712.9 L 1062.8 581.4" /><path d="M 1125.6 1712.9 L 1125.6 581.4" /><path d="M 1188.3 1712.9 L 1188.3 908.9" /><path d="M 1251.1 1712.9 L 1251.1 908.9" /><path d="M 1313.9 1712.9 L 1313.9 491.4" /><path d="M 1376.7 1712.9 L 1376.7 581.4" /><path d="M 1439.4 1712.9 L 1439.4 581.4" /><path d="M 1502.2 1712.9 L 1502.2 581.4" /><path d="M 1565.0 1712.9 L 1565.0 581.4" /><path d="M 1627.8 1712.9 L 1627.8 581.4" /><path d="M 1690.6 1712.9 L 1690.6 581.4" /><path d="M 1753.3 1712.9 L 1753.3 581.4" /><path d="M 1816.1 1712.9 L 1816.1 680.3" /><path d="M 1878.9 1712.9 L 1878.9 680.3" /><path d="M 1941.7 1712.9 L 1941.7 680.3" /></g><g class="toytree-AdmixEdges" style="fill:rgb(0.0%,0.0%,0.0%);fill-opacity:0.0;stroke:rgb(90.6%,54.1%,76.5%);stroke-opacity:0.6;font-size:14px;stroke-linecap:round;stroke-width:5" /><g class="toytree-Nodes" style="fill:rgb(0.0%,0.0%,0.0%);fill-opacity:1.0;stroke:none;stroke-width:1.5"><g id="Node-0" transform="translate(58.3264,491.415)"><circle r="2.5" /></g><g id="Node-1" transform="translate(121.105,581.366)"><circle r="2.5" /></g><g id="Node-2" transform="translate(183.883,581.366)"><circle r="2.5" /></g><g id="Node-3" transform="translate(246.661,581.366)"><circle r="2.5" /></g><g id="Node-4" transform="translate(309.439,680.313)"><circle r="2.5" /></g><g id="Node-5" transform="translate(372.218,680.313)"><circle r="2.5" /></g><g id="Node-6" transform="translate(434.996,581.366)"><circle r="2.5" /></g><g id="Node-7" transform="translate(497.774,680.313)"><circle r="2.5" /></g><g id="Node-8" transform="translate(560.552,789.154)"><circle r="2.5" /></g><g id="Node-9" transform="translate(623.331,789.154)"><circle r="2.5" /></g><g id="Node-10" transform="translate(686.109,1344.8)"><circle r="2.5" /></g><g id="Node-11" transform="translate(748.887,1712.91)"><circle r="2.5" /></g><g id="Node-12" transform="translate(811.665,1712.91)"><circle r="2.5" /></g><g id="Node-13" transform="translate(874.444,581.367)"><circle r="2.5" /></g><g id="Node-14" transform="translate(937.222,789.155)"><circle r="2.5" /></g><g id="Node-15" transform="translate(1000,789.155)"><circle r="2.5" /></g><g id="Node-16" transform="translate(1062.78,581.367)"><circle r="2.5" /></g><g id="Node-17" transform="translate(1125.56,581.367)"><circle r="2.5" /></g><g id="Node-18" transform="translate(1188.33,908.88)"><circle r="2.5" /></g><g id="Node-19" transform="translate(1251.11,908.88)"><circle r="2.5" /></g><g id="Node-20" transform="translate(1313.89,491.415)"><circle r="2.5" /></g><g id="Node-21" transform="translate(1376.67,581.367)"><circle r="2.5" /></g><g id="Node-22" transform="translate(1439.45,581.367)"><circle r="2.5" /></g><g id="Node-23" transform="translate(1502.23,581.367)"><circle r="2.5" /></g><g id="Node-24" transform="translate(1565,581.367)"><circle r="2.5" /></g><g id="Node-25" transform="translate(1627.78,581.367)"><circle r="2.5" /></g><g id="Node-26" transform="translate(1690.56,581.367)"><circle r="2.5" /></g><g id="Node-27" transform="translate(1753.34,581.367)"><circle r="2.5" /></g><g id="Node-28" transform="translate(1816.12,680.313)"><circle r="2.5" /></g><g id="Node-29" transform="translate(1878.9,680.313)"><circle r="2.5" /></g><g id="Node-30" transform="translate(1941.67,680.313)"><circle r="2.5" /></g><g id="Node-31" transform="translate(340.828,581.366)"><circle r="2.5" /></g><g id="Node-32" transform="translate(223.119,491.415)"><circle r="2.5" /></g><g id="Node-33" transform="translate(591.941,680.313)"><circle r="2.5" /></g><g id="Node-34" transform="translate(544.858,581.366)"><circle r="2.5" /></g><g id="Node-35" transform="translate(780.276,1344.8)"><circle r="2.5" /></g><g id="Node-36" transform="translate(733.192,581.366)"><circle r="2.5" /></g><g id="Node-37" transform="translate(571.015,491.415)"><circle r="2.5" /></g><g id="Node-38" transform="translate(284.154,335.301)"><circle r="2.5" /></g><g id="Node-39" transform="translate(968.611,581.367)"><circle r="2.5" /></g><g id="Node-40" transform="translate(921.527,491.415)"><circle r="2.5" /></g><g id="Node-41" transform="translate(1219.72,581.367)"><circle r="2.5" /></g><g id="Node-42" transform="translate(1136.02,491.415)"><circle r="2.5" /></g><g id="Node-43" transform="translate(1028.77,409.641)"><circle r="2.5" /></g><g id="Node-44" transform="translate(1470.84,491.415)"><circle r="2.5" /></g><g id="Node-45" transform="translate(1878.9,581.367)"><circle r="2.5" /></g><g id="Node-46" transform="translate(1737.64,491.415)"><circle r="2.5" /></g><g id="Node-47" transform="translate(1507.46,409.641)"><circle r="2.5" /></g><g id="Node-48" transform="translate(1268.12,335.301)"><circle r="2.5" /></g><g id="Node-49" transform="translate(776.135,53.4935)"><circle r="2.5" /></g></g><g class="toytree-TipLabels" style="fill:rgb(14.5%,14.5%,14.5%);fill-opacity:1.0;font-family:Helvetica;font-size:14px;font-weight:300;vertical-align:baseline;white-space:pre;stroke:none"><g class="toytree-TipLabel" transform="translate(58.3264,1712.91)rotate(90)"><text x="12.0" y="3.577" style="fill:rgb(14.5%,14.5%,14.5%);fill-opacity:1.0">Leo_Pukapuka</text></g><g class="toytree-TipLabel" transform="translate(121.105,1712.91)rotate(90)"><text x="12.0" y="3.577" style="fill:rgb(14.5%,14.5%,14.5%);fill-opacity:1.0">Rapanui</text></g><g class="toytree-TipLabel" transform="translate(183.883,1712.91)rotate(90)"><text x="12.0" y="3.577" style="fill:rgb(14.5%,14.5%,14.5%);fill-opacity:1.0">Reo_Magareva</text></g><g class="toytree-TipLabel" transform="translate(246.661,1712.91)rotate(90)"><text x="12.0" y="3.577" style="fill:rgb(14.5%,14.5%,14.5%);fill-opacity:1.0">Reo_Maori</text></g><g class="toytree-TipLabel" transform="translate(309.439,1712.91)rotate(90)"><text x="12.0" y="3.577" style="fill:rgb(14.5%,14.5%,14.5%);fill-opacity:1.0">eo_enana</text></g><g class="toytree-TipLabel" transform="translate(372.218,1712.91)rotate(90)"><text x="12.0" y="3.577" style="fill:rgb(14.5%,14.5%,14.5%);fill-opacity:1.0">olelo_Hawaii</text></g><g class="toytree-TipLabel" transform="translate(434.996,1712.91)rotate(90)"><text x="12.0" y="3.577" style="fill:rgb(14.5%,14.5%,14.5%);fill-opacity:1.0">Manihiki</text></g><g class="toytree-TipLabel" transform="translate(497.774,1712.91)rotate(90)"><text x="12.0" y="3.577" style="fill:rgb(14.5%,14.5%,14.5%);fill-opacity:1.0">Reo_o_te_Tuamotu</text></g><g class="toytree-TipLabel" transform="translate(560.552,1712.91)rotate(90)"><text x="12.0" y="3.577" style="fill:rgb(14.5%,14.5%,14.5%);fill-opacity:1.0">Penrhyn</text></g><g class="toytree-TipLabel" transform="translate(623.331,1712.91)rotate(90)"><text x="12.0" y="3.577" style="fill:rgb(14.5%,14.5%,14.5%);fill-opacity:1.0">Reo_Rarotongan</text></g><g class="toytree-TipLabel" transform="translate(686.109,1712.91)rotate(90)"><text x="12.0" y="3.577" style="fill:rgb(14.5%,14.5%,14.5%);fill-opacity:1.0">Reo_Raivavae</text></g><g class="toytree-TipLabel" transform="translate(748.887,1712.91)rotate(90)"><text x="12.0" y="3.577" style="fill:rgb(14.5%,14.5%,14.5%);fill-opacity:1.0">Reo_Rurutu</text></g><g class="toytree-TipLabel" transform="translate(811.665,1712.91)rotate(90)"><text x="12.0" y="3.577" style="fill:rgb(14.5%,14.5%,14.5%);fill-opacity:1.0">Reo_Tahiti</text></g><g class="toytree-TipLabel" transform="translate(874.444,1712.91)rotate(90)"><text x="12.0" y="3.577" style="fill:rgb(14.5%,14.5%,14.5%);fill-opacity:1.0">Fesau_Futuna</text></g><g class="toytree-TipLabel" transform="translate(937.222,1712.91)rotate(90)"><text x="12.0" y="3.577" style="fill:rgb(14.5%,14.5%,14.5%);fill-opacity:1.0">Fakamae</text></g><g class="toytree-TipLabel" transform="translate(1000,1712.91)rotate(90)"><text x="12.0" y="3.577" style="fill:rgb(14.5%,14.5%,14.5%);fill-opacity:1.0">MeleFila</text></g><g class="toytree-TipLabel" transform="translate(1062.78,1712.91)rotate(90)"><text x="12.0" y="3.577" style="fill:rgb(14.5%,14.5%,14.5%);fill-opacity:1.0">Kapingamarangi</text></g><g class="toytree-TipLabel" transform="translate(1125.56,1712.91)rotate(90)"><text x="12.0" y="3.577" style="fill:rgb(14.5%,14.5%,14.5%);fill-opacity:1.0">Nukeria</text></g><g class="toytree-TipLabel" transform="translate(1188.33,1712.91)rotate(90)"><text x="12.0" y="3.577" style="fill:rgb(14.5%,14.5%,14.5%);fill-opacity:1.0">Luangiua</text></g><g class="toytree-TipLabel" transform="translate(1251.11,1712.91)rotate(90)"><text x="12.0" y="3.577" style="fill:rgb(14.5%,14.5%,14.5%);fill-opacity:1.0">Sikaiana</text></g><g class="toytree-TipLabel" transform="translate(1313.89,1712.91)rotate(90)"><text x="12.0" y="3.577" style="fill:rgb(14.5%,14.5%,14.5%);fill-opacity:1.0">Leo_Tuvalu</text></g><g class="toytree-TipLabel" transform="translate(1376.67,1712.91)rotate(90)"><text x="12.0" y="3.577" style="fill:rgb(14.5%,14.5%,14.5%);fill-opacity:1.0">Fakatikopia</text></g><g class="toytree-TipLabel" transform="translate(1439.45,1712.91)rotate(90)"><text x="12.0" y="3.577" style="fill:rgb(14.5%,14.5%,14.5%);fill-opacity:1.0">RennellBellona</text></g><g class="toytree-TipLabel" transform="translate(1502.23,1712.91)rotate(90)"><text x="12.0" y="3.577" style="fill:rgb(14.5%,14.5%,14.5%);fill-opacity:1.0">TarangapakaAnuta</text></g><g class="toytree-TipLabel" transform="translate(1565,1712.91)rotate(90)"><text x="12.0" y="3.577" style="fill:rgb(14.5%,14.5%,14.5%);fill-opacity:1.0">VaeakauTaumako</text></g><g class="toytree-TipLabel" transform="translate(1627.78,1712.91)rotate(90)"><text x="12.0" y="3.577" style="fill:rgb(14.5%,14.5%,14.5%);fill-opacity:1.0">Gagana_Samoa</text></g><g class="toytree-TipLabel" transform="translate(1690.56,1712.91)rotate(90)"><text x="12.0" y="3.577" style="fill:rgb(14.5%,14.5%,14.5%);fill-opacity:1.0">Proto_Polynesian</text></g><g class="toytree-TipLabel" transform="translate(1753.34,1712.91)rotate(90)"><text x="12.0" y="3.577" style="fill:rgb(14.5%,14.5%,14.5%);fill-opacity:1.0">Vagahau_Niue</text></g><g class="toytree-TipLabel" transform="translate(1816.12,1712.91)rotate(90)"><text x="12.0" y="3.577" style="fill:rgb(14.5%,14.5%,14.5%);fill-opacity:1.0">Fakafutuna</text></g><g class="toytree-TipLabel" transform="translate(1878.9,1712.91)rotate(90)"><text x="12.0" y="3.577" style="fill:rgb(14.5%,14.5%,14.5%);fill-opacity:1.0">Fakauvea</text></g><g class="toytree-TipLabel" transform="translate(1941.67,1712.91)rotate(90)"><text x="12.0" y="3.577" style="fill:rgb(14.5%,14.5%,14.5%);fill-opacity:1.0">Lea_Fakatonga</text></g></g></g></g><g class="toyplot-coordinates-Axis" id="t85ae29ed3cbf4cbebf47cd2e7aeda7e5" transform="translate(50.0,1950.0)rotate(-90.0)translate(0,-15.0)"><line x1="237.09038623484452" y1="0" x2="1896.5064924080561" y2="0" style="" /><g><line x1="160.15814630292053" y1="0" x2="160.15814630292053" y2="5" style="" /><line x1="237.09038623484452" y1="0" x2="237.09038623484452" y2="5" style="" /><line x1="314.02262616676853" y1="0" x2="314.02262616676853" y2="5" style="" /><line x1="390.9548660986925" y1="0" x2="390.9548660986925" y2="5" style="" /><line x1="467.8871060306165" y1="0" x2="467.8871060306165" y2="5" style="" /><line x1="544.8193459625405" y1="0" x2="544.8193459625405" y2="5" style="" /><line x1="621.7515858944647" y1="0" x2="621.7515858944647" y2="5" style="" /><line x1="698.6838258263886" y1="0" x2="698.6838258263886" y2="5" style="" /><line x1="775.6160657583126" y1="0" x2="775.6160657583126" y2="5" style="" /><line x1="852.5483056902365" y1="0" x2="852.5483056902365" y2="5" style="" /><line x1="929.4805456221605" y1="0" x2="929.4805456221605" y2="5" style="" /><line x1="1006.4127855540844" y1="0" x2="1006.4127855540844" y2="5" style="" /><line x1="1083.3450254860086" y1="0" x2="1083.3450254860086" y2="5" style="" /><line x1="1160.2772654179323" y1="0" x2="1160.2772654179323" y2="5" style="" /><line x1="1237.2095053498565" y1="0" x2="1237.2095053498565" y2="5" style="" /><line x1="1314.1417452817802" y1="0" x2="1314.1417452817802" y2="5" style="" /><line x1="1391.0739852137044" y1="0" x2="1391.0739852137044" y2="5" style="" /><line x1="1468.0062251456286" y1="0" x2="1468.0062251456286" y2="5" style="" /><line x1="1544.9384650775526" y1="0" x2="1544.9384650775526" y2="5" style="" /><line x1="1621.8707050094765" y1="0" x2="1621.8707050094765" y2="5" style="" /><line x1="1698.8029449414005" y1="0" x2="1698.8029449414005" y2="5" style="" /><line x1="1775.7351848733247" y1="0" x2="1775.7351848733247" y2="5" style="" /><line x1="1852.6674248052486" y1="0" x2="1852.6674248052486" y2="5" style="" /></g><g><g transform="translate(160.15814630292053,-6)"><text x="-6.95" y="-4.440892098500626e-16" style="fill:rgb(16.1%,15.3%,14.1%);fill-opacity:1.0;font-family:helvetica;font-size:10.0px;font-weight:normal;stroke:none;vertical-align:baseline;white-space:pre">0.1</text></g><g transform="translate(237.09038623484452,-6)"><text x="-2.78" y="-4.440892098500626e-16" style="fill:rgb(16.1%,15.3%,14.1%);fill-opacity:1.0;font-family:helvetica;font-size:10.0px;font-weight:normal;stroke:none;vertical-align:baseline;white-space:pre">0</text></g><g transform="translate(314.02262616676853,-6)"><text x="-6.95" y="-4.440892098500626e-16" style="fill:rgb(16.1%,15.3%,14.1%);fill-opacity:1.0;font-family:helvetica;font-size:10.0px;font-weight:normal;stroke:none;vertical-align:baseline;white-space:pre">0.1</text></g><g transform="translate(390.9548660986925,-6)"><text x="-6.95" y="-4.440892098500626e-16" style="fill:rgb(16.1%,15.3%,14.1%);fill-opacity:1.0;font-family:helvetica;font-size:10.0px;font-weight:normal;stroke:none;vertical-align:baseline;white-space:pre">0.2</text></g><g transform="translate(467.8871060306165,-6)"><text x="-6.95" y="-4.440892098500626e-16" style="fill:rgb(16.1%,15.3%,14.1%);fill-opacity:1.0;font-family:helvetica;font-size:10.0px;font-weight:normal;stroke:none;vertical-align:baseline;white-space:pre">0.3</text></g><g transform="translate(544.8193459625405,-6)"><text x="-6.95" y="-4.440892098500626e-16" style="fill:rgb(16.1%,15.3%,14.1%);fill-opacity:1.0;font-family:helvetica;font-size:10.0px;font-weight:normal;stroke:none;vertical-align:baseline;white-space:pre">0.4</text></g><g transform="translate(621.7515858944647,-6)"><text x="-6.95" y="-4.440892098500626e-16" style="fill:rgb(16.1%,15.3%,14.1%);fill-opacity:1.0;font-family:helvetica;font-size:10.0px;font-weight:normal;stroke:none;vertical-align:baseline;white-space:pre">0.5</text></g><g transform="translate(698.6838258263886,-6)"><text x="-6.95" y="-4.440892098500626e-16" style="fill:rgb(16.1%,15.3%,14.1%);fill-opacity:1.0;font-family:helvetica;font-size:10.0px;font-weight:normal;stroke:none;vertical-align:baseline;white-space:pre">0.6</text></g><g transform="translate(775.6160657583126,-6)"><text x="-6.95" y="-4.440892098500626e-16" style="fill:rgb(16.1%,15.3%,14.1%);fill-opacity:1.0;font-family:helvetica;font-size:10.0px;font-weight:normal;stroke:none;vertical-align:baseline;white-space:pre">0.7</text></g><g transform="translate(852.5483056902365,-6)"><text x="-6.95" y="-4.440892098500626e-16" style="fill:rgb(16.1%,15.3%,14.1%);fill-opacity:1.0;font-family:helvetica;font-size:10.0px;font-weight:normal;stroke:none;vertical-align:baseline;white-space:pre">0.8</text></g><g transform="translate(929.4805456221605,-6)"><text x="-6.95" y="-4.440892098500626e-16" style="fill:rgb(16.1%,15.3%,14.1%);fill-opacity:1.0;font-family:helvetica;font-size:10.0px;font-weight:normal;stroke:none;vertical-align:baseline;white-space:pre">0.9</text></g><g transform="translate(1006.4127855540844,-6)"><text x="-2.78" y="-4.440892098500626e-16" style="fill:rgb(16.1%,15.3%,14.1%);fill-opacity:1.0;font-family:helvetica;font-size:10.0px;font-weight:normal;stroke:none;vertical-align:baseline;white-space:pre">1</text></g><g transform="translate(1083.3450254860086,-6)"><text x="-6.95" y="-4.440892098500626e-16" style="fill:rgb(16.1%,15.3%,14.1%);fill-opacity:1.0;font-family:helvetica;font-size:10.0px;font-weight:normal;stroke:none;vertical-align:baseline;white-space:pre">1.1</text></g><g transform="translate(1160.2772654179323,-6)"><text x="-6.95" y="-4.440892098500626e-16" style="fill:rgb(16.1%,15.3%,14.1%);fill-opacity:1.0;font-family:helvetica;font-size:10.0px;font-weight:normal;stroke:none;vertical-align:baseline;white-space:pre">1.2</text></g><g transform="translate(1237.2095053498565,-6)"><text x="-6.95" y="-4.440892098500626e-16" style="fill:rgb(16.1%,15.3%,14.1%);fill-opacity:1.0;font-family:helvetica;font-size:10.0px;font-weight:normal;stroke:none;vertical-align:baseline;white-space:pre">1.3</text></g><g transform="translate(1314.1417452817802,-6)"><text x="-6.95" y="-4.440892098500626e-16" style="fill:rgb(16.1%,15.3%,14.1%);fill-opacity:1.0;font-family:helvetica;font-size:10.0px;font-weight:normal;stroke:none;vertical-align:baseline;white-space:pre">1.4</text></g><g transform="translate(1391.0739852137044,-6)"><text x="-6.95" y="-4.440892098500626e-16" style="fill:rgb(16.1%,15.3%,14.1%);fill-opacity:1.0;font-family:helvetica;font-size:10.0px;font-weight:normal;stroke:none;vertical-align:baseline;white-space:pre">1.5</text></g><g transform="translate(1468.0062251456286,-6)"><text x="-6.95" y="-4.440892098500626e-16" style="fill:rgb(16.1%,15.3%,14.1%);fill-opacity:1.0;font-family:helvetica;font-size:10.0px;font-weight:normal;stroke:none;vertical-align:baseline;white-space:pre">1.6</text></g><g transform="translate(1544.9384650775526,-6)"><text x="-6.95" y="-4.440892098500626e-16" style="fill:rgb(16.1%,15.3%,14.1%);fill-opacity:1.0;font-family:helvetica;font-size:10.0px;font-weight:normal;stroke:none;vertical-align:baseline;white-space:pre">1.7</text></g><g transform="translate(1621.8707050094765,-6)"><text x="-6.95" y="-4.440892098500626e-16" style="fill:rgb(16.1%,15.3%,14.1%);fill-opacity:1.0;font-family:helvetica;font-size:10.0px;font-weight:normal;stroke:none;vertical-align:baseline;white-space:pre">1.8</text></g><g transform="translate(1698.8029449414005,-6)"><text x="-6.95" y="-4.440892098500626e-16" style="fill:rgb(16.1%,15.3%,14.1%);fill-opacity:1.0;font-family:helvetica;font-size:10.0px;font-weight:normal;stroke:none;vertical-align:baseline;white-space:pre">1.9</text></g><g transform="translate(1775.7351848733247,-6)"><text x="-2.78" y="-4.440892098500626e-16" style="fill:rgb(16.1%,15.3%,14.1%);fill-opacity:1.0;font-family:helvetica;font-size:10.0px;font-weight:normal;stroke:none;vertical-align:baseline;white-space:pre">2</text></g><g transform="translate(1852.6674248052486,-6)"><text x="-6.95" y="-4.440892098500626e-16" style="fill:rgb(16.1%,15.3%,14.1%);fill-opacity:1.0;font-family:helvetica;font-size:10.0px;font-weight:normal;stroke:none;vertical-align:baseline;white-space:pre">2.1</text></g></g><g class="toyplot-coordinates-Axis-coordinates" style="visibility:hidden" transform=""><line x1="0" x2="0" y1="3.0" y2="-4.5" style="stroke:rgb(43.9%,50.2%,56.5%);stroke-opacity:1.0;stroke-width:1.0" /><text x="0" y="6" style="alignment-baseline:hanging;fill:rgb(43.9%,50.2%,56.5%);fill-opacity:1.0;font-size:10px;font-weight:normal;stroke:none;text-anchor:middle" /></g></g></g></svg>