<svg class="toyplot-canvas-Canvas" xmlns:toyplot="http://www.sandia.gov/toyplot" xmlns:xlink="http://www.w3.org/1999/xlink" xmlns="http://www.w3.org/2000/svg" width="2000.0px" height="1445.0px" viewBox="0 0 2000.0 1445.0" preserveAspectRatio="xMidYMid meet" style="background-color:transparent;border-color:#292724;border-style:none;border-width:1.0;fill:rgb(16.1%,15.3%,14.1%);fill-opacity:1.0;font-family:Helvetica;font-size:12px;opacity:1.0;stroke:rgb(16.1%,15.3%,14.1%);stroke-opacity:1.0;stroke-width:1.0" id="t5a1e4fbee597414f9dd6514b959bf526"><g class="toyplot-coordinates-Cartesian" id="t7cfdde4b68a54ee0a13a79c740432cab"><clipPath id="tcb1c976967c74bec9e9515eed7050b0f"><rect x="35.0" y="35.0" width="1930.0" height="1375.0" /></clipPath><g clip-path="url(#tcb1c976967c74bec9e9515eed7050b0f)"><g class="toytree-mark-Toytree" id="t417d7fc22af149a5bfc349d09d12637f"><g class="toytree-Edges" style="stroke:rgb(14.5%,14.5%,14.5%);stroke-opacity:1.0;stroke-linecap:round;stroke-width:2.0;fill:none"><path d="M 573.8 1352.1 L 573.8 1386.7 L 677.5 1386.7" id="48,0" style="" /><path d="M 677.5 1317.5 L 677.5 1355.1 L 729.3 1355.1" id="47,1" style="" /><path d="M 729.3 1280.0 L 729.3 1323.4 L 988.6 1323.4" id="46,2" style="" /><path d="M 1040.4 1276.0 L 1040.4 1291.8 L 1144.1 1291.8" id="43,3" style="" /><path d="M 1040.4 1276.0 L 1040.4 1260.2 L 1144.1 1260.2" id="43,4" style="" /><path d="M 1040.4 1196.9 L 1040.4 1228.6 L 1196.0 1228.6" id="44,5" style="" /><path d="M 1040.4 1196.9 L 1040.4 1196.9 L 1196.0 1196.9" id="44,6" style="" /><path d="M 1040.4 1196.9 L 1040.4 1165.3 L 1196.0 1165.3" id="44,7" style="" /><path d="M 625.6 1106.0 L 625.6 1133.7 L 988.6 1133.7" id="51,8" style="" /><path d="M 988.6 1078.3 L 988.6 1102.0 L 1403.4 1102.0" id="50,9" style="" /><path d="M 1403.4 1054.6 L 1403.4 1070.4 L 1610.7 1070.4" id="49,10" style="" /><path d="M 1403.4 1054.6 L 1403.4 1038.8 L 1610.7 1038.8" id="49,11" style="" /><path d="M 677.5 991.3 L 677.5 1007.2 L 1196.0 1007.2" id="52,12" style="" /><path d="M 677.5 991.3 L 677.5 975.5 L 1196.0 975.5" id="52,13" style="" /><path d="M 677.5 914.2 L 677.5 943.9 L 729.3 943.9" id="56,14" style="" /><path d="M 729.3 884.6 L 729.3 912.3 L 1247.8 912.3" id="55,15" style="" /><path d="M 1247.8 856.9 L 1247.8 880.6 L 1403.4 880.6" id="54,16" style="" /><path d="M 1403.4 833.2 L 1403.4 849.0 L 1558.9 849.0" id="53,17" style="" /><path d="M 1403.4 833.2 L 1403.4 817.4 L 1558.9 817.4" id="53,18" style="" /><path d="M 625.6 769.9 L 625.6 785.8 L 884.9 785.8" id="59,19" style="" /><path d="M 625.6 769.9 L 625.6 754.1 L 884.9 754.1" id="59,20" style="" /><path d="M 625.6 669.8 L 625.6 722.5 L 833.0 722.5" id="62,21" style="" /><path d="M 833.0 675.1 L 833.0 690.9 L 884.9 690.9" id="60,22" style="" /><path d="M 833.0 675.1 L 833.0 659.2 L 884.9 659.2" id="60,23" style="" /><path d="M 833.0 611.8 L 833.0 627.6 L 936.7 627.6" id="61,24" style="" /><path d="M 833.0 611.8 L 833.0 596.0 L 936.7 596.0" id="61,25" style="" /><path d="M 677.5 540.6 L 677.5 564.4 L 729.3 564.4" id="64,26" style="" /><path d="M 729.3 516.9 L 729.3 532.7 L 833.0 532.7" id="63,27" style="" /><path d="M 729.3 516.9 L 729.3 501.1 L 833.0 501.1" id="63,28" style="" /><path d="M 677.5 437.8 L 677.5 469.5 L 729.3 469.5" id="66,29" style="" /><path d="M 729.3 406.2 L 729.3 437.8 L 833.0 437.8" id="65,30" style="" /><path d="M 729.3 406.2 L 729.3 406.2 L 833.0 406.2" id="65,31" style="" /><path d="M 729.3 406.2 L 729.3 374.6 L 833.0 374.6" id="65,32" style="" /><path d="M 625.6 241.7 L 625.6 343.0 L 677.5 343.0" id="73,33" style="" /><path d="M 625.6 241.7 L 625.6 311.3 L 677.5 311.3" id="73,34" style="" /><path d="M 677.5 263.9 L 677.5 279.7 L 729.3 279.7" id="68,35" style="" /><path d="M 677.5 263.9 L 677.5 248.1 L 729.3 248.1" id="68,36" style="" /><path d="M 677.5 192.7 L 677.5 216.4 L 729.3 216.4" id="70,37" style="" /><path d="M 729.3 169.0 L 729.3 184.8 L 781.2 184.8" id="69,38" style="" /><path d="M 729.3 169.0 L 729.3 153.2 L 781.2 153.2" id="69,39" style="" /><path d="M 677.5 97.8 L 677.5 121.6 L 781.2 121.6" id="72,40" style="" /><path d="M 781.2 74.1 L 781.2 89.9 L 884.9 89.9" id="71,41" style="" /><path d="M 781.2 74.1 L 781.2 58.3 L 884.9 58.3" id="71,42" style="" /><path d="M 988.6 1236.5 L 988.6 1276.0 L 1040.4 1276.0" id="45,43" style="" /><path d="M 988.6 1236.5 L 988.6 1196.9 L 1040.4 1196.9" id="45,44" style="" /><path d="M 729.3 1280.0 L 729.3 1236.5 L 988.6 1236.5" id="46,45" style="" /><path d="M 677.5 1317.5 L 677.5 1280.0 L 729.3 1280.0" id="47,46" style="" /><path d="M 573.8 1352.1 L 573.8 1317.5 L 677.5 1317.5" id="48,47" style="" /><path d="M 55.3 974.7 L 55.3 1352.1 L 573.8 1352.1" id="75,48" style="" /><path d="M 988.6 1078.3 L 988.6 1054.6 L 1403.4 1054.6" id="50,49" style="" /><path d="M 625.6 1106.0 L 625.6 1078.3 L 988.6 1078.3" id="51,50" style="" /><path d="M 573.8 1029.4 L 573.8 1106.0 L 625.6 1106.0" id="58,51" style="" /><path d="M 625.6 952.8 L 625.6 991.3 L 677.5 991.3" id="57,52" style="" /><path d="M 1247.8 856.9 L 1247.8 833.2 L 1403.4 833.2" id="54,53" style="" /><path d="M 729.3 884.6 L 729.3 856.9 L 1247.8 856.9" id="55,54" style="" /><path d="M 677.5 914.2 L 677.5 884.6 L 729.3 884.6" id="56,55" style="" /><path d="M 625.6 952.8 L 625.6 914.2 L 677.5 914.2" id="57,56" style="" /><path d="M 573.8 1029.4 L 573.8 952.8 L 625.6 952.8" id="58,57" style="" /><path d="M 55.3 974.7 L 55.3 1029.4 L 573.8 1029.4" id="75,58" style="" /><path d="M 573.8 542.7 L 573.8 769.9 L 625.6 769.9" id="74,59" style="" /><path d="M 625.6 669.8 L 625.6 675.1 L 833.0 675.1" id="62,60" style="" /><path d="M 625.6 669.8 L 625.6 611.8 L 833.0 611.8" id="62,61" style="" /><path d="M 573.8 542.7 L 573.8 669.8 L 625.6 669.8" id="74,62" style="" /><path d="M 677.5 540.6 L 677.5 516.9 L 729.3 516.9" id="64,63" style="" /><path d="M 625.6 489.2 L 625.6 540.6 L 677.5 540.6" id="67,64" style="" /><path d="M 677.5 437.8 L 677.5 406.2 L 729.3 406.2" id="66,65" style="" /><path d="M 625.6 489.2 L 625.6 437.8 L 677.5 437.8" id="67,66" style="" /><path d="M 573.8 542.7 L 573.8 489.2 L 625.6 489.2" id="74,67" style="" /><path d="M 625.6 241.7 L 625.6 263.9 L 677.5 263.9" id="73,68" style="" /><path d="M 677.5 192.7 L 677.5 169.0 L 729.3 169.0" id="70,69" style="" /><path d="M 625.6 241.7 L 625.6 192.7 L 677.5 192.7" id="73,70" style="" /><path d="M 677.5 97.8 L 677.5 74.1 L 781.2 74.1" id="72,71" style="" /><path d="M 625.6 241.7 L 625.6 97.8 L 677.5 97.8" id="73,72" style="" /><path d="M 573.8 542.7 L 573.8 241.7 L 625.6 241.7" id="74,73" style="" /><path d="M 55.3 974.7 L 55.3 542.7 L 573.8 542.7" id="75,74" style="" /></g><g class="toytree-AlignEdges" style="stroke:rgb(66.0%,66.0%,66.0%);stroke-opacity:0.75;stroke-dasharray:2,4;stroke-linecap:round;stroke-width:2"><path d="M 1610.7 1386.7 L 677.5 1386.7" /><path d="M 1610.7 1355.1 L 729.3 1355.1" /><path d="M 1610.7 1323.4 L 988.6 1323.4" /><path d="M 1610.7 1291.8 L 1144.1 1291.8" /><path d="M 1610.7 1260.2 L 1144.1 1260.2" /><path d="M 1610.7 1228.6 L 1196.0 1228.6" /><path d="M 1610.7 1196.9 L 1196.0 1196.9" /><path d="M 1610.7 1165.3 L 1196.0 1165.3" /><path d="M 1610.7 1133.7 L 988.6 1133.7" /><path d="M 1610.7 1102.0 L 1403.4 1102.0" /><path d="M 1610.7 1070.4 L 1610.7 1070.4" /><path d="M 1610.7 1038.8 L 1610.7 1038.8" /><path d="M 1610.7 1007.2 L 1196.0 1007.2" /><path d="M 1610.7 975.5 L 1196.0 975.5" /><path d="M 1610.7 943.9 L 729.3 943.9" /><path d="M 1610.7 912.3 L 1247.8 912.3" /><path d="M 1610.7 880.6 L 1403.4 880.6" /><path d="M 1610.7 849.0 L 1558.9 849.0" /><path d="M 1610.7 817.4 L 1558.9 817.4" /><path d="M 1610.7 785.8 L 884.9 785.8" /><path d="M 1610.7 754.1 L 884.9 754.1" /><path d="M 1610.7 722.5 L 833.0 722.5" /><path d="M 1610.7 690.9 L 884.9 690.9" /><path d="M 1610.7 659.2 L 884.9 659.2" /><path d="M 1610.7 627.6 L 936.7 627.6" /><path d="M 1610.7 596.0 L 936.7 596.0" /><path d="M 1610.7 564.4 L 729.3 564.4" /><path d="M 1610.7 532.7 L 833.0 532.7" /><path d="M 1610.7 501.1 L 833.0 501.1" /><path d="M 1610.7 469.5 L 729.3 469.5" /><path d="M 1610.7 437.8 L 833.0 437.8" /><path d="M 1610.7 406.2 L 833.0 406.2" /><path d="M 1610.7 374.6 L 833.0 374.6" /><path d="M 1610.7 343.0 L 677.5 343.0" /><path d="M 1610.7 311.3 L 677.5 311.3" /><path d="M 1610.7 279.7 L 729.3 279.7" /><path d="M 1610.7 248.1 L 729.3 248.1" /><path d="M 1610.7 216.4 L 729.3 216.4" /><path d="M 1610.7 184.8 L 781.2 184.8" /><path d="M 1610.7 153.2 L 781.2 153.2" /><path d="M 1610.7 121.6 L 781.2 121.6" /><path d="M 1610.7 89.9 L 884.9 89.9" /><path d="M 1610.7 58.3 L 884.9 58.3" /></g><g class="toytree-AdmixEdges" style="fill:rgb(0.0%,0.0%,0.0%);fill-opacity:0.0;stroke:rgb(90.6%,54.1%,76.5%);stroke-opacity:0.6;font-size:14px;stroke-linecap:round;stroke-width:5" /><g class="toytree-Nodes" style="fill:rgb(0.0%,0.0%,0.0%);fill-opacity:1.0;stroke:none;stroke-width:1.5"><g id="Node-43" transform="translate(1040.42,1276)"><rect x="-5.0" y="-2.5" width="10.0" height="5.0" /></g><g id="Node-44" transform="translate(1040.42,1196.93)"><rect x="-5.0" y="-2.5" width="10.0" height="5.0" /></g><g id="Node-45" transform="translate(988.575,1236.47)"><rect x="-5.0" y="-2.5" width="10.0" height="5.0" /></g><g id="Node-46" transform="translate(729.338,1279.96)"><rect x="-5.0" y="-2.5" width="10.0" height="5.0" /></g><g id="Node-47" transform="translate(677.49,1317.52)"><rect x="-5.0" y="-2.5" width="10.0" height="5.0" /></g><g id="Node-48" transform="translate(573.796,1352.11)"><rect x="-5.0" y="-2.5" width="10.0" height="5.0" /></g><g id="Node-49" transform="translate(1403.35,1054.6)"><rect x="-5.0" y="-2.5" width="10.0" height="5.0" /></g><g id="Node-50" transform="translate(988.575,1078.32)"><rect x="-5.0" y="-2.5" width="10.0" height="5.0" /></g><g id="Node-51" transform="translate(625.643,1106)"><rect x="-5.0" y="-2.5" width="10.0" height="5.0" /></g><g id="Node-52" transform="translate(677.49,991.344)"><rect x="-5.0" y="-2.5" width="10.0" height="5.0" /></g><g id="Node-53" transform="translate(1403.35,833.201)"><rect x="-5.0" y="-2.5" width="10.0" height="5.0" /></g><g id="Node-54" transform="translate(1247.81,856.922)"><rect x="-5.0" y="-2.5" width="10.0" height="5.0" /></g><g id="Node-55" transform="translate(729.338,884.597)"><rect x="-5.0" y="-2.5" width="10.0" height="5.0" /></g><g id="Node-56" transform="translate(677.49,914.249)"><rect x="-5.0" y="-2.5" width="10.0" height="5.0" /></g><g id="Node-57" transform="translate(625.643,952.797)"><rect x="-5.0" y="-2.5" width="10.0" height="5.0" /></g><g id="Node-58" transform="translate(573.796,1029.4)"><rect x="-5.0" y="-2.5" width="10.0" height="5.0" /></g><g id="Node-59" transform="translate(625.643,769.943)"><rect x="-5.0" y="-2.5" width="10.0" height="5.0" /></g><g id="Node-60" transform="translate(833.033,675.057)"><rect x="-5.0" y="-2.5" width="10.0" height="5.0" /></g><g id="Node-61" transform="translate(833.033,611.799)"><rect x="-5.0" y="-2.5" width="10.0" height="5.0" /></g><g id="Node-62" transform="translate(625.643,669.785)"><rect x="-5.0" y="-2.5" width="10.0" height="5.0" /></g><g id="Node-63" transform="translate(729.338,516.913)"><rect x="-5.0" y="-2.5" width="10.0" height="5.0" /></g><g id="Node-64" transform="translate(677.49,540.635)"><rect x="-5.0" y="-2.5" width="10.0" height="5.0" /></g><g id="Node-65" transform="translate(729.338,406.213)"><rect x="-5.0" y="-2.5" width="10.0" height="5.0" /></g><g id="Node-66" transform="translate(677.49,437.841)"><rect x="-5.0" y="-2.5" width="10.0" height="5.0" /></g><g id="Node-67" transform="translate(625.643,489.238)"><rect x="-5.0" y="-2.5" width="10.0" height="5.0" /></g><g id="Node-68" transform="translate(677.49,263.883)"><rect x="-5.0" y="-2.5" width="10.0" height="5.0" /></g><g id="Node-69" transform="translate(729.338,168.997)"><rect x="-5.0" y="-2.5" width="10.0" height="5.0" /></g><g id="Node-70" transform="translate(677.49,192.719)"><rect x="-5.0" y="-2.5" width="10.0" height="5.0" /></g><g id="Node-71" transform="translate(781.185,74.1107)"><rect x="-5.0" y="-2.5" width="10.0" height="5.0" /></g><g id="Node-72" transform="translate(677.49,97.8323)"><rect x="-5.0" y="-2.5" width="10.0" height="5.0" /></g><g id="Node-73" transform="translate(625.643,241.743)"><rect x="-5.0" y="-2.5" width="10.0" height="5.0" /></g><g id="Node-74" transform="translate(573.796,542.677)"><rect x="-5.0" y="-2.5" width="10.0" height="5.0" /></g><g id="Node-75" transform="translate(55.3212,974.728)"><rect x="-5.0" y="-2.5" width="10.0" height="5.0" /></g></g><g class="toytree-NodeLabels" style="font-family:Helvetica;font-size:9px;font-weight:300;vertical-align:baseline;white-space:pre;stroke:none"><g class="toytree-NodeLabel" transform="translate(1040.42,1276)" /><g class="toytree-NodeLabel" transform="translate(1040.42,1196.93)" /><g class="toytree-NodeLabel" transform="translate(988.575,1236.47)" /><g class="toytree-NodeLabel" transform="translate(729.338,1279.96)" /><g class="toytree-NodeLabel" transform="translate(677.49,1317.52)" /><g class="toytree-NodeLabel" transform="translate(573.796,1352.11)" /><g class="toytree-NodeLabel" transform="translate(1403.35,1054.6)" /><g class="toytree-NodeLabel" transform="translate(988.575,1078.32)" /><g class="toytree-NodeLabel" transform="translate(625.643,1106)" /><g class="toytree-NodeLabel" transform="translate(677.49,991.344)" /><g class="toytree-NodeLabel" transform="translate(1403.35,833.201)" /><g class="toytree-NodeLabel" transform="translate(1247.81,856.922)" /><g class="toytree-NodeLabel" transform="translate(729.338,884.597)" /><g class="toytree-NodeLabel" transform="translate(677.49,914.249)" /><g class="toytree-NodeLabel" transform="translate(625.643,952.797)" /><g class="toytree-NodeLabel" transform="translate(573.796,1029.4)" /><g class="toytree-NodeLabel" transform="translate(625.643,769.943)" /><g class="toytree-NodeLabel" transform="translate(833.033,675.057)" /><g class="toytree-NodeLabel" transform="translate(833.033,611.799)" /><g class="toytree-NodeLabel" transform="translate(625.643,669.785)" /><g class="toytree-NodeLabel" transform="translate(729.338,516.913)" /><g class="toytree-NodeLabel" transform="translate(677.49,540.635)" /><g class="toytree-NodeLabel" transform="translate(729.338,406.213)" /><g class="toytree-NodeLabel" transform="translate(677.49,437.841)" /><g class="toytree-NodeLabel" transform="translate(625.643,489.238)" /><g class="toytree-NodeLabel" transform="translate(677.49,263.883)" /><g class="toytree-NodeLabel" transform="translate(729.338,168.997)" /><g class="toytree-NodeLabel" transform="translate(677.49,192.719)" /><g class="toytree-NodeLabel" transform="translate(781.185,74.1107)" /><g class="toytree-NodeLabel" transform="translate(677.49,97.8323)" /><g class="toytree-NodeLabel" transform="translate(625.643,241.743)" /><g class="toytree-NodeLabel" transform="translate(573.796,542.677)" /><g class="toytree-NodeLabel" transform="translate(55.3212,974.728)" /></g><g class="toytree-TipLabels" style="fill:rgb(14.5%,14.5%,14.5%);fill-opacity:1.0;font-family:Helvetica;font-size:14px;font-weight:300;vertical-align:baseline;white-space:pre;stroke:none"><g class="toytree-TipLabel" transform="translate(1610.74,1386.7)"><text x="15.0" y="3.577" style="fill:rgb(14.5%,14.5%,14.5%);fill-opacity:1.0">Proven&#231;al_Occitan</text></g><g class="toytree-TipLabel" transform="translate(1610.74,1355.07)"><text x="15.0" y="3.577" style="fill:rgb(14.5%,14.5%,14.5%);fill-opacity:1.0">Castilian_Spanish</text></g><g class="toytree-TipLabel" transform="translate(1610.74,1323.45)"><text x="15.0" y="3.577" style="fill:rgb(14.5%,14.5%,14.5%);fill-opacity:1.0">Minorcan_Catalan</text></g><g class="toytree-TipLabel" transform="translate(1610.74,1291.82)"><text x="15.0" y="3.577" style="fill:rgb(14.5%,14.5%,14.5%);fill-opacity:1.0">Central_Catalan</text></g><g class="toytree-TipLabel" transform="translate(1610.74,1260.19)"><text x="15.0" y="3.577" style="fill:rgb(14.5%,14.5%,14.5%);fill-opacity:1.0">North-Western_Catalan</text></g><g class="toytree-TipLabel" transform="translate(1610.74,1228.56)"><text x="15.0" y="3.577" style="fill:rgb(14.5%,14.5%,14.5%);fill-opacity:1.0">Castell&#243;_de_la_Plana_Catalan</text></g><g class="toytree-TipLabel" transform="translate(1610.74,1196.93)"><text x="15.0" y="3.577" style="fill:rgb(14.5%,14.5%,14.5%);fill-opacity:1.0">Manises_Catalan</text></g><g class="toytree-TipLabel" transform="translate(1610.74,1165.3)"><text x="15.0" y="3.577" style="fill:rgb(14.5%,14.5%,14.5%);fill-opacity:1.0">Valencian_Catalan</text></g><g class="toytree-TipLabel" transform="translate(1610.74,1133.67)"><text x="15.0" y="3.577" style="fill:rgb(14.5%,14.5%,14.5%);fill-opacity:1.0">Vallader_Romansh</text></g><g class="toytree-TipLabel" transform="translate(1610.74,1102.04)"><text x="15.0" y="3.577" style="fill:rgb(14.5%,14.5%,14.5%);fill-opacity:1.0">Sursilvan_Romansh</text></g><g class="toytree-TipLabel" transform="translate(1610.74,1070.42)"><text x="15.0" y="3.577" style="fill:rgb(14.5%,14.5%,14.5%);fill-opacity:1.0">Rumantsch_Grischun</text></g><g class="toytree-TipLabel" transform="translate(1610.74,1038.79)"><text x="15.0" y="3.577" style="fill:rgb(14.5%,14.5%,14.5%);fill-opacity:1.0">Surmiran_Romansh</text></g><g class="toytree-TipLabel" transform="translate(1610.74,1007.16)"><text x="15.0" y="3.577" style="fill:rgb(14.5%,14.5%,14.5%);fill-opacity:1.0">Campidanese</text></g><g class="toytree-TipLabel" transform="translate(1610.74,975.53)"><text x="15.0" y="3.577" style="fill:rgb(14.5%,14.5%,14.5%);fill-opacity:1.0">Logudorese</text></g><g class="toytree-TipLabel" transform="translate(1610.74,943.901)"><text x="15.0" y="3.577" style="fill:rgb(14.5%,14.5%,14.5%);fill-opacity:1.0">Dalmatian</text></g><g class="toytree-TipLabel" transform="translate(1610.74,912.272)"><text x="15.0" y="3.577" style="fill:rgb(14.5%,14.5%,14.5%);fill-opacity:1.0">Istro_Romanian</text></g><g class="toytree-TipLabel" transform="translate(1610.74,880.644)"><text x="15.0" y="3.577" style="fill:rgb(14.5%,14.5%,14.5%);fill-opacity:1.0">Romanian</text></g><g class="toytree-TipLabel" transform="translate(1610.74,849.015)"><text x="15.0" y="3.577" style="fill:rgb(14.5%,14.5%,14.5%);fill-opacity:1.0">Aromanian</text></g><g class="toytree-TipLabel" transform="translate(1610.74,817.386)"><text x="15.0" y="3.577" style="fill:rgb(14.5%,14.5%,14.5%);fill-opacity:1.0">Megleno_Romanian</text></g><g class="toytree-TipLabel" transform="translate(1610.74,785.757)"><text x="15.0" y="3.577" style="fill:rgb(14.5%,14.5%,14.5%);fill-opacity:1.0">Fassano_Ladin</text></g><g class="toytree-TipLabel" transform="translate(1610.74,754.129)"><text x="15.0" y="3.577" style="fill:rgb(14.5%,14.5%,14.5%);fill-opacity:1.0">Gardenese_Ladin</text></g><g class="toytree-TipLabel" transform="translate(1610.74,722.5)"><text x="15.0" y="3.577" style="fill:rgb(14.5%,14.5%,14.5%);fill-opacity:1.0">Neapolitan</text></g><g class="toytree-TipLabel" transform="translate(1610.74,690.871)"><text x="15.0" y="3.577" style="fill:rgb(14.5%,14.5%,14.5%);fill-opacity:1.0">Catanian_Sicilian</text></g><g class="toytree-TipLabel" transform="translate(1610.74,659.243)"><text x="15.0" y="3.577" style="fill:rgb(14.5%,14.5%,14.5%);fill-opacity:1.0">South-Eastern_Sicilian</text></g><g class="toytree-TipLabel" transform="translate(1610.74,627.614)"><text x="15.0" y="3.577" style="fill:rgb(14.5%,14.5%,14.5%);fill-opacity:1.0">Messinese_Sicilian</text></g><g class="toytree-TipLabel" transform="translate(1610.74,595.985)"><text x="15.0" y="3.577" style="fill:rgb(14.5%,14.5%,14.5%);fill-opacity:1.0">Palermitan_Sicilian</text></g><g class="toytree-TipLabel" transform="translate(1610.74,564.356)"><text x="15.0" y="3.577" style="fill:rgb(14.5%,14.5%,14.5%);fill-opacity:1.0">Friulian</text></g><g class="toytree-TipLabel" transform="translate(1610.74,532.728)"><text x="15.0" y="3.577" style="fill:rgb(14.5%,14.5%,14.5%);fill-opacity:1.0">Bellunese_Venetian</text></g><g class="toytree-TipLabel" transform="translate(1610.74,501.099)"><text x="15.0" y="3.577" style="fill:rgb(14.5%,14.5%,14.5%);fill-opacity:1.0">Primiero_Venetian</text></g><g class="toytree-TipLabel" transform="translate(1610.74,469.47)"><text x="15.0" y="3.577" style="fill:rgb(14.5%,14.5%,14.5%);fill-opacity:1.0">Vercellese_Piemontese</text></g><g class="toytree-TipLabel" transform="translate(1610.74,437.841)"><text x="15.0" y="3.577" style="fill:rgb(14.5%,14.5%,14.5%);fill-opacity:1.0">Barbania_Piemontese</text></g><g class="toytree-TipLabel" transform="translate(1610.74,406.213)"><text x="15.0" y="3.577" style="fill:rgb(14.5%,14.5%,14.5%);fill-opacity:1.0">Carmagnola_Piemontese</text></g><g class="toytree-TipLabel" transform="translate(1610.74,374.584)"><text x="15.0" y="3.577" style="fill:rgb(14.5%,14.5%,14.5%);fill-opacity:1.0">Lanzo_Torinese_Piemontese</text></g><g class="toytree-TipLabel" transform="translate(1610.74,342.955)"><text x="15.0" y="3.577" style="fill:rgb(14.5%,14.5%,14.5%);fill-opacity:1.0">Grosseto_Italian</text></g><g class="toytree-TipLabel" transform="translate(1610.74,311.326)"><text x="15.0" y="3.577" style="fill:rgb(14.5%,14.5%,14.5%);fill-opacity:1.0">Standard_Italian</text></g><g class="toytree-TipLabel" transform="translate(1610.74,279.698)"><text x="15.0" y="3.577" style="fill:rgb(14.5%,14.5%,14.5%);fill-opacity:1.0">Ravennate_Romagnol</text></g><g class="toytree-TipLabel" transform="translate(1610.74,248.069)"><text x="15.0" y="3.577" style="fill:rgb(14.5%,14.5%,14.5%);fill-opacity:1.0">Venice_Venetian</text></g><g class="toytree-TipLabel" transform="translate(1610.74,216.44)"><text x="15.0" y="3.577" style="fill:rgb(14.5%,14.5%,14.5%);fill-opacity:1.0">Ferrarese_Emiliano</text></g><g class="toytree-TipLabel" transform="translate(1610.74,184.811)"><text x="15.0" y="3.577" style="fill:rgb(14.5%,14.5%,14.5%);fill-opacity:1.0">Carpigiano_Emiliano</text></g><g class="toytree-TipLabel" transform="translate(1610.74,153.183)"><text x="15.0" y="3.577" style="fill:rgb(14.5%,14.5%,14.5%);fill-opacity:1.0">Reggiano_Emiliano</text></g><g class="toytree-TipLabel" transform="translate(1610.74,121.554)"><text x="15.0" y="3.577" style="fill:rgb(14.5%,14.5%,14.5%);fill-opacity:1.0">Rapallo_Ligurian</text></g><g class="toytree-TipLabel" transform="translate(1610.74,89.9251)"><text x="15.0" y="3.577" style="fill:rgb(14.5%,14.5%,14.5%);fill-opacity:1.0">Genoese_Ligurian</text></g><g class="toytree-TipLabel" transform="translate(1610.74,58.2964)"><text x="15.0" y="3.577" style="fill:rgb(14.5%,14.5%,14.5%);fill-opacity:1.0">Stella_Ligurian</text></g></g></g></g></g></svg>