<svg class="toyplot-canvas-Canvas" xmlns:toyplot="http://www.sandia.gov/toyplot" xmlns:xlink="http://www.w3.org/1999/xlink" xmlns="http://www.w3.org/2000/svg" width="2000.0px" height="2000.0px" viewBox="0 0 2000.0 2000.0" preserveAspectRatio="xMidYMid meet" style="background-color:transparent;border-color:#292724;border-style:none;border-width:1.0;fill:rgb(16.1%,15.3%,14.1%);fill-opacity:1.0;font-family:Helvetica;font-size:12px;opacity:1.0;stroke:rgb(16.1%,15.3%,14.1%);stroke-opacity:1.0;stroke-width:1.0" id="te2bbd1597a204e03b22d2de1d049423d"><g class="toyplot-coordinates-Cartesian" id="t59d76fbb4ba3487a9c329486543ffaf3"><clipPath id="t60d43cff20e44b088a7a13e6c0a8db85"><rect x="35.0" y="35.0" width="1930.0" height="1930.0" /></clipPath><g clip-path="url(#t60d43cff20e44b088a7a13e6c0a8db85)"><g class="toytree-mark-Toytree" id="t74c72df01bb2411289682bed0b8b106f"><g class="toytree-Edges" style="stroke:rgb(14.5%,14.5%,14.5%);stroke-opacity:1.0;stroke-linecap:round;stroke-width:2;fill:none"><path d="M 107.4 573.7 L 58.3 677.7" id="48,0" style="" /><path d="M 156.4 677.7 L 103.2 729.8" id="47,1" style="" /><path d="M 209.7 729.8 L 148.0 990.0" id="46,2" style="" /><path d="M 215.3 1042.0 L 192.9 1146.1" id="43,3" style="" /><path d="M 215.3 1042.0 L 237.7 1146.1" id="43,4" style="" /><path d="M 327.4 1042.0 L 282.5 1198.1" id="44,5" style="" /><path d="M 327.4 1042.0 L 327.4 1198.1" id="44,6" style="" /><path d="M 327.4 1042.0 L 372.2 1198.1" id="44,7" style="" /><path d="M 456.3 625.7 L 417.1 990.0" id="51,8" style="" /><path d="M 495.5 990.0 L 461.9 1406.3" id="50,9" style="" /><path d="M 529.2 1406.3 L 506.7 1614.4" id="49,10" style="" /><path d="M 529.2 1406.3 L 551.6 1614.4" id="49,11" style="" /><path d="M 618.8 677.7 L 596.4 1198.1" id="52,12" style="" /><path d="M 618.8 677.7 L 641.3 1198.1" id="52,13" style="" /><path d="M 728.1 677.7 L 686.1 729.8" id="56,14" style="" /><path d="M 770.2 729.8 L 731.0 1250.2" id="55,15" style="" /><path d="M 809.4 1250.2 L 775.8 1406.3" id="54,16" style="" /><path d="M 843.1 1406.3 L 820.6 1562.4" id="53,17" style="" /><path d="M 843.1 1406.3 L 865.5 1562.4" id="53,18" style="" /><path d="M 932.7 625.7 L 910.3 885.9" id="59,19" style="" /><path d="M 932.7 625.7 L 955.2 885.9" id="59,20" style="" /><path d="M 1074.7 625.7 L 1000.0 833.9" id="62,21" style="" /><path d="M 1067.3 833.9 L 1044.8 885.9" id="60,22" style="" /><path d="M 1067.3 833.9 L 1089.7 885.9" id="60,23" style="" /><path d="M 1156.9 833.9 L 1134.5 937.9" id="61,24" style="" /><path d="M 1156.9 833.9 L 1179.4 937.9" id="61,25" style="" /><path d="M 1257.8 677.7 L 1224.2 729.8" id="64,26" style="" /><path d="M 1291.5 729.8 L 1269.0 833.9" id="63,27" style="" /><path d="M 1291.5 729.8 L 1313.9 833.9" id="63,28" style="" /><path d="M 1403.6 677.7 L 1358.7 729.8" id="66,29" style="" /><path d="M 1448.4 729.8 L 1403.6 833.9" id="65,30" style="" /><path d="M 1448.4 729.8 L 1448.4 833.9" id="65,31" style="" /><path d="M 1448.4 729.8 L 1493.3 833.9" id="65,32" style="" /><path d="M 1681.6 625.7 L 1538.1 677.7" id="73,33" style="" /><path d="M 1681.6 625.7 L 1582.9 677.7" id="73,34" style="" /><path d="M 1650.2 677.7 L 1627.8 729.8" id="68,35" style="" /><path d="M 1650.2 677.7 L 1672.6 729.8" id="68,36" style="" /><path d="M 1751.1 677.7 L 1717.5 729.8" id="70,37" style="" /><path d="M 1784.7 729.8 L 1762.3 781.8" id="69,38" style="" /><path d="M 1784.7 729.8 L 1807.1 781.8" id="69,39" style="" /><path d="M 1885.6 677.7 L 1852.0 781.8" id="72,40" style="" /><path d="M 1919.3 781.8 L 1896.8 885.9" id="71,41" style="" /><path d="M 1919.3 781.8 L 1941.7 885.9" id="71,42" style="" /><path d="M 271.3 990.0 L 215.3 1042.0" id="45,43" style="" /><path d="M 271.3 990.0 L 327.4 1042.0" id="45,44" style="" /><path d="M 209.7 729.8 L 271.3 990.0" id="46,45" style="" /><path d="M 156.4 677.7 L 209.7 729.8" id="47,46" style="" /><path d="M 107.4 573.7 L 156.4 677.7" id="48,47" style="" /><path d="M 642.4 53.3 L 107.4 573.7" id="75,48" style="" /><path d="M 495.5 990.0 L 529.2 1406.3" id="50,49" style="" /><path d="M 456.3 625.7 L 495.5 990.0" id="51,50" style="" /><path d="M 564.9 573.7 L 456.3 625.7" id="58,51" style="" /><path d="M 673.5 625.7 L 618.8 677.7" id="57,52" style="" /><path d="M 809.4 1250.2 L 843.1 1406.3" id="54,53" style="" /><path d="M 770.2 729.8 L 809.4 1250.2" id="55,54" style="" /><path d="M 728.1 677.7 L 770.2 729.8" id="56,55" style="" /><path d="M 673.5 625.7 L 728.1 677.7" id="57,56" style="" /><path d="M 564.9 573.7 L 673.5 625.7" id="58,57" style="" /><path d="M 642.4 53.3 L 564.9 573.7" id="75,58" style="" /><path d="M 1254.9 573.7 L 932.7 625.7" id="74,59" style="" /><path d="M 1074.7 625.7 L 1067.3 833.9" id="62,60" style="" /><path d="M 1074.7 625.7 L 1156.9 833.9" id="62,61" style="" /><path d="M 1254.9 573.7 L 1074.7 625.7" id="74,62" style="" /><path d="M 1257.8 677.7 L 1291.5 729.8" id="64,63" style="" /><path d="M 1330.7 625.7 L 1257.8 677.7" id="67,64" style="" /><path d="M 1403.6 677.7 L 1448.4 729.8" id="66,65" style="" /><path d="M 1330.7 625.7 L 1403.6 677.7" id="67,66" style="" /><path d="M 1254.9 573.7 L 1330.7 625.7" id="74,67" style="" /><path d="M 1681.6 625.7 L 1650.2 677.7" id="73,68" style="" /><path d="M 1751.1 677.7 L 1784.7 729.8" id="70,69" style="" /><path d="M 1681.6 625.7 L 1751.1 677.7" id="73,70" style="" /><path d="M 1885.6 677.7 L 1919.3 781.8" id="72,71" style="" /><path d="M 1681.6 625.7 L 1885.6 677.7" id="73,72" style="" /><path d="M 1254.9 573.7 L 1681.6 625.7" id="74,73" style="" /><path d="M 642.4 53.3 L 1254.9 573.7" id="75,74" style="" /></g><g class="toytree-AlignEdges" style="stroke:rgb(66.0%,66.0%,66.0%);stroke-opacity:0.75;stroke-dasharray:2,4;stroke-linecap:round;stroke-width:2"><path d="M 58.3 1614.4 L 58.3 677.7" /><path d="M 103.2 1614.4 L 103.2 729.8" /><path d="M 148.0 1614.4 L 148.0 990.0" /><path d="M 192.9 1614.4 L 192.9 1146.1" /><path d="M 237.7 1614.4 L 237.7 1146.1" /><path d="M 282.5 1614.4 L 282.5 1198.1" /><path d="M 327.4 1614.4 L 327.4 1198.1" /><path d="M 372.2 1614.4 L 372.2 1198.1" /><path d="M 417.1 1614.4 L 417.1 990.0" /><path d="M 461.9 1614.4 L 461.9 1406.3" /><path d="M 506.7 1614.4 L 506.7 1614.4" /><path d="M 551.6 1614.4 L 551.6 1614.4" /><path d="M 596.4 1614.4 L 596.4 1198.1" /><path d="M 641.3 1614.4 L 641.3 1198.1" /><path d="M 686.1 1614.4 L 686.1 729.8" /><path d="M 731.0 1614.4 L 731.0 1250.2" /><path d="M 775.8 1614.4 L 775.8 1406.3" /><path d="M 820.6 1614.4 L 820.6 1562.4" /><path d="M 865.5 1614.4 L 865.5 1562.4" /><path d="M 910.3 1614.4 L 910.3 885.9" /><path d="M 955.2 1614.4 L 955.2 885.9" /><path d="M 1000.0 1614.4 L 1000.0 833.9" /><path d="M 1044.8 1614.4 L 1044.8 885.9" /><path d="M 1089.7 1614.4 L 1089.7 885.9" /><path d="M 1134.5 1614.4 L 1134.5 937.9" /><path d="M 1179.4 1614.4 L 1179.4 937.9" /><path d="M 1224.2 1614.4 L 1224.2 729.8" /><path d="M 1269.0 1614.4 L 1269.0 833.9" /><path d="M 1313.9 1614.4 L 1313.9 833.9" /><path d="M 1358.7 1614.4 L 1358.7 729.8" /><path d="M 1403.6 1614.4 L 1403.6 833.9" /><path d="M 1448.4 1614.4 L 1448.4 833.9" /><path d="M 1493.3 1614.4 L 1493.3 833.9" /><path d="M 1538.1 1614.4 L 1538.1 677.7" /><path d="M 1582.9 1614.4 L 1582.9 677.7" /><path d="M 1627.8 1614.4 L 1627.8 729.8" /><path d="M 1672.6 1614.4 L 1672.6 729.8" /><path d="M 1717.5 1614.4 L 1717.5 729.8" /><path d="M 1762.3 1614.4 L 1762.3 781.8" /><path d="M 1807.1 1614.4 L 1807.1 781.8" /><path d="M 1852.0 1614.4 L 1852.0 781.8" /><path d="M 1896.8 1614.4 L 1896.8 885.9" /><path d="M 1941.7 1614.4 L 1941.7 885.9" /></g><g class="toytree-AdmixEdges" style="fill:rgb(0.0%,0.0%,0.0%);fill-opacity:0.0;stroke:rgb(90.6%,54.1%,76.5%);stroke-opacity:0.6;font-size:14px;stroke-linecap:round;stroke-width:5" /><g class="toytree-Nodes" style="fill:rgb(0.0%,0.0%,0.0%);fill-opacity:1.0;stroke:none;stroke-width:1.5"><g id="Node-0" transform="translate(58.3264,677.743)"><circle r="2.5" /></g><g id="Node-1" transform="translate(103.168,729.781)"><circle r="2.5" /></g><g id="Node-2" transform="translate(148.01,989.971)"><circle r="2.5" /></g><g id="Node-3" transform="translate(192.851,1146.08)"><circle r="2.5" /></g><g id="Node-4" transform="translate(237.693,1146.08)"><circle r="2.5" /></g><g id="Node-5" transform="translate(282.534,1198.12)"><circle r="2.5" /></g><g id="Node-6" transform="translate(327.376,1198.12)"><circle r="2.5" /></g><g id="Node-7" transform="translate(372.218,1198.12)"><circle r="2.5" /></g><g id="Node-8" transform="translate(417.059,989.971)"><circle r="2.5" /></g><g id="Node-9" transform="translate(461.901,1406.28)"><circle r="2.5" /></g><g id="Node-10" transform="translate(506.742,1614.43)"><circle r="2.5" /></g><g id="Node-11" transform="translate(551.584,1614.43)"><circle r="2.5" /></g><g id="Node-12" transform="translate(596.426,1198.12)"><circle r="2.5" /></g><g id="Node-13" transform="translate(641.267,1198.12)"><circle r="2.5" /></g><g id="Node-14" transform="translate(686.109,729.781)"><circle r="2.5" /></g><g id="Node-15" transform="translate(730.95,1250.16)"><circle r="2.5" /></g><g id="Node-16" transform="translate(775.792,1406.28)"><circle r="2.5" /></g><g id="Node-17" transform="translate(820.634,1562.39)"><circle r="2.5" /></g><g id="Node-18" transform="translate(865.475,1562.39)"><circle r="2.5" /></g><g id="Node-19" transform="translate(910.317,885.895)"><circle r="2.5" /></g><g id="Node-20" transform="translate(955.158,885.895)"><circle r="2.5" /></g><g id="Node-21" transform="translate(1000,833.857)"><circle r="2.5" /></g><g id="Node-22" transform="translate(1044.84,885.895)"><circle r="2.5" /></g><g id="Node-23" transform="translate(1089.68,885.895)"><circle r="2.5" /></g><g id="Node-24" transform="translate(1134.52,937.933)"><circle r="2.5" /></g><g id="Node-25" transform="translate(1179.37,937.933)"><circle r="2.5" /></g><g id="Node-26" transform="translate(1224.21,729.781)"><circle r="2.5" /></g><g id="Node-27" transform="translate(1269.05,833.857)"><circle r="2.5" /></g><g id="Node-28" transform="translate(1313.89,833.857)"><circle r="2.5" /></g><g id="Node-29" transform="translate(1358.73,729.781)"><circle r="2.5" /></g><g id="Node-30" transform="translate(1403.57,833.857)"><circle r="2.5" /></g><g id="Node-31" transform="translate(1448.42,833.857)"><circle r="2.5" /></g><g id="Node-32" transform="translate(1493.26,833.857)"><circle r="2.5" /></g><g id="Node-33" transform="translate(1538.1,677.743)"><circle r="2.5" /></g><g id="Node-34" transform="translate(1582.94,677.743)"><circle r="2.5" /></g><g id="Node-35" transform="translate(1627.78,729.781)"><circle r="2.5" /></g><g id="Node-36" transform="translate(1672.62,729.781)"><circle r="2.5" /></g><g id="Node-37" transform="translate(1717.47,729.781)"><circle r="2.5" /></g><g id="Node-38" transform="translate(1762.31,781.819)"><circle r="2.5" /></g><g id="Node-39" transform="translate(1807.15,781.819)"><circle r="2.5" /></g><g id="Node-40" transform="translate(1851.99,781.819)"><circle r="2.5" /></g><g id="Node-41" transform="translate(1896.83,885.895)"><circle r="2.5" /></g><g id="Node-42" transform="translate(1941.67,885.895)"><circle r="2.5" /></g><g id="Node-43" transform="translate(215.272,1042.01)"><circle r="2.5" /></g><g id="Node-44" transform="translate(327.376,1042.01)"><circle r="2.5" /></g><g id="Node-45" transform="translate(271.324,989.971)"><circle r="2.5" /></g><g id="Node-46" transform="translate(209.667,729.781)"><circle r="2.5" /></g><g id="Node-47" transform="translate(156.417,677.743)"><circle r="2.5" /></g><g id="Node-48" transform="translate(107.372,573.667)"><circle r="2.5" /></g><g id="Node-49" transform="translate(529.163,1406.28)"><circle r="2.5" /></g><g id="Node-50" transform="translate(495.532,989.971)"><circle r="2.5" /></g><g id="Node-51" transform="translate(456.296,625.705)"><circle r="2.5" /></g><g id="Node-52" transform="translate(618.846,677.743)"><circle r="2.5" /></g><g id="Node-53" transform="translate(843.054,1406.28)"><circle r="2.5" /></g><g id="Node-54" transform="translate(809.423,1250.16)"><circle r="2.5" /></g><g id="Node-55" transform="translate(770.187,729.781)"><circle r="2.5" /></g><g id="Node-56" transform="translate(728.148,677.743)"><circle r="2.5" /></g><g id="Node-57" transform="translate(673.497,625.705)"><circle r="2.5" /></g><g id="Node-58" transform="translate(564.896,573.667)"><circle r="2.5" /></g><g id="Node-59" transform="translate(932.738,625.705)"><circle r="2.5" /></g><g id="Node-60" transform="translate(1067.26,833.857)"><circle r="2.5" /></g><g id="Node-61" transform="translate(1156.95,833.857)"><circle r="2.5" /></g><g id="Node-62" transform="translate(1074.74,625.705)"><circle r="2.5" /></g><g id="Node-63" transform="translate(1291.47,729.781)"><circle r="2.5" /></g><g id="Node-64" transform="translate(1257.84,677.743)"><circle r="2.5" /></g><g id="Node-65" transform="translate(1448.42,729.781)"><circle r="2.5" /></g><g id="Node-66" transform="translate(1403.57,677.743)"><circle r="2.5" /></g><g id="Node-67" transform="translate(1330.71,625.705)"><circle r="2.5" /></g><g id="Node-68" transform="translate(1650.2,677.743)"><circle r="2.5" /></g><g id="Node-69" transform="translate(1784.73,729.781)"><circle r="2.5" /></g><g id="Node-70" transform="translate(1751.1,677.743)"><circle r="2.5" /></g><g id="Node-71" transform="translate(1919.25,781.819)"><circle r="2.5" /></g><g id="Node-72" transform="translate(1885.62,677.743)"><circle r="2.5" /></g><g id="Node-73" transform="translate(1681.59,625.705)"><circle r="2.5" /></g><g id="Node-74" transform="translate(1254.94,573.667)"><circle r="2.5" /></g><g id="Node-75" transform="translate(642.404,53.2866)"><circle r="2.5" /></g></g><g class="toytree-TipLabels" style="fill:rgb(14.5%,14.5%,14.5%);fill-opacity:1.0;font-family:Helvetica;font-size:14px;font-weight:300;vertical-align:baseline;white-space:pre;stroke:none"><g class="toytree-TipLabel" transform="translate(58.3264,1614.43)rotate(90)"><text x="12.0" y="3.577" style="fill:rgb(14.5%,14.5%,14.5%);fill-opacity:1.0">Proven&#231;al_Occitan</text></g><g class="toytree-TipLabel" transform="translate(103.168,1614.43)rotate(90)"><text x="12.0" y="3.577" style="fill:rgb(14.5%,14.5%,14.5%);fill-opacity:1.0">Castilian_Spanish</text></g><g class="toytree-TipLabel" transform="translate(148.01,1614.43)rotate(90)"><text x="12.0" y="3.577" style="fill:rgb(14.5%,14.5%,14.5%);fill-opacity:1.0">Minorcan_Catalan</text></g><g class="toytree-TipLabel" transform="translate(192.851,1614.43)rotate(90)"><text x="12.0" y="3.577" style="fill:rgb(14.5%,14.5%,14.5%);fill-opacity:1.0">Central_Catalan</text></g><g class="toytree-TipLabel" transform="translate(237.693,1614.43)rotate(90)"><text x="12.0" y="3.577" style="fill:rgb(14.5%,14.5%,14.5%);fill-opacity:1.0">North-Western_Catalan</text></g><g class="toytree-TipLabel" transform="translate(282.534,1614.43)rotate(90)"><text x="12.0" y="3.577" style="fill:rgb(14.5%,14.5%,14.5%);fill-opacity:1.0">Castell&#243;_de_la_Plana_Catalan</text></g><g class="toytree-TipLabel" transform="translate(327.376,1614.43)rotate(90)"><text x="12.0" y="3.577" style="fill:rgb(14.5%,14.5%,14.5%);fill-opacity:1.0">Manises_Catalan</text></g><g class="toytree-TipLabel" transform="translate(372.218,1614.43)rotate(90)"><text x="12.0" y="3.577" style="fill:rgb(14.5%,14.5%,14.5%);fill-opacity:1.0">Valencian_Catalan</text></g><g class="toytree-TipLabel" transform="translate(417.059,1614.43)rotate(90)"><text x="12.0" y="3.577" style="fill:rgb(14.5%,14.5%,14.5%);fill-opacity:1.0">Vallader_Romansh</text></g><g class="toytree-TipLabel" transform="translate(461.901,1614.43)rotate(90)"><text x="12.0" y="3.577" style="fill:rgb(14.5%,14.5%,14.5%);fill-opacity:1.0">Sursilvan_Romansh</text></g><g class="toytree-TipLabel" transform="translate(506.742,1614.43)rotate(90)"><text x="12.0" y="3.577" style="fill:rgb(14.5%,14.5%,14.5%);fill-opacity:1.0">Rumantsch_Grischun</text></g><g class="toytree-TipLabel" transform="translate(551.584,1614.43)rotate(90)"><text x="12.0" y="3.577" style="fill:rgb(14.5%,14.5%,14.5%);fill-opacity:1.0">Surmiran_Romansh</text></g><g class="toytree-TipLabel" transform="translate(596.426,1614.43)rotate(90)"><text x="12.0" y="3.577" style="fill:rgb(14.5%,14.5%,14.5%);fill-opacity:1.0">Campidanese</text></g><g class="toytree-TipLabel" transform="translate(641.267,1614.43)rotate(90)"><text x="12.0" y="3.577" style="fill:rgb(14.5%,14.5%,14.5%);fill-opacity:1.0">Logudorese</text></g><g class="toytree-TipLabel" transform="translate(686.109,1614.43)rotate(90)"><text x="12.0" y="3.577" style="fill:rgb(14.5%,14.5%,14.5%);fill-opacity:1.0">Dalmatian</text></g><g class="toytree-TipLabel" transform="translate(730.95,1614.43)rotate(90)"><text x="12.0" y="3.577" style="fill:rgb(14.5%,14.5%,14.5%);fill-opacity:1.0">Istro_Romanian</text></g><g class="toytree-TipLabel" transform="translate(775.792,1614.43)rotate(90)"><text x="12.0" y="3.577" style="fill:rgb(14.5%,14.5%,14.5%);fill-opacity:1.0">Romanian</text></g><g class="toytree-TipLabel" transform="translate(820.634,1614.43)rotate(90)"><text x="12.0" y="3.577" style="fill:rgb(14.5%,14.5%,14.5%);fill-opacity:1.0">Aromanian</text></g><g class="toytree-TipLabel" transform="translate(865.475,1614.43)rotate(90)"><text x="12.0" y="3.577" style="fill:rgb(14.5%,14.5%,14.5%);fill-opacity:1.0">Megleno_Romanian</text></g><g class="toytree-TipLabel" transform="translate(910.317,1614.43)rotate(90)"><text x="12.0" y="3.577" style="fill:rgb(14.5%,14.5%,14.5%);fill-opacity:1.0">Fassano_Ladin</text></g><g class="toytree-TipLabel" transform="translate(955.158,1614.43)rotate(90)"><text x="12.0" y="3.577" style="fill:rgb(14.5%,14.5%,14.5%);fill-opacity:1.0">Gardenese_Ladin</text></g><g class="toytree-TipLabel" transform="translate(1000,1614.43)rotate(90)"><text x="12.0" y="3.577" style="fill:rgb(14.5%,14.5%,14.5%);fill-opacity:1.0">Neapolitan</text></g><g class="toytree-TipLabel" transform="translate(1044.84,1614.43)rotate(90)"><text x="12.0" y="3.577" style="fill:rgb(14.5%,14.5%,14.5%);fill-opacity:1.0">Catanian_Sicilian</text></g><g class="toytree-TipLabel" transform="translate(1089.68,1614.43)rotate(90)"><text x="12.0" y="3.577" style="fill:rgb(14.5%,14.5%,14.5%);fill-opacity:1.0">South-Eastern_Sicilian</text></g><g class="toytree-TipLabel" transform="translate(1134.52,1614.43)rotate(90)"><text x="12.0" y="3.577" style="fill:rgb(14.5%,14.5%,14.5%);fill-opacity:1.0">Messinese_Sicilian</text></g><g class="toytree-TipLabel" transform="translate(1179.37,1614.43)rotate(90)"><text x="12.0" y="3.577" style="fill:rgb(14.5%,14.5%,14.5%);fill-opacity:1.0">Palermitan_Sicilian</text></g><g class="toytree-TipLabel" transform="translate(1224.21,1614.43)rotate(90)"><text x="12.0" y="3.577" style="fill:rgb(14.5%,14.5%,14.5%);fill-opacity:1.0">Friulian</text></g><g class="toytree-TipLabel" transform="translate(1269.05,1614.43)rotate(90)"><text x="12.0" y="3.577" style="fill:rgb(14.5%,14.5%,14.5%);fill-opacity:1.0">Bellunese_Venetian</text></g><g class="toytree-TipLabel" transform="translate(1313.89,1614.43)rotate(90)"><text x="12.0" y="3.577" style="fill:rgb(14.5%,14.5%,14.5%);fill-opacity:1.0">Primiero_Venetian</text></g><g class="toytree-TipLabel" transform="translate(1358.73,1614.43)rotate(90)"><text x="12.0" y="3.577" style="fill:rgb(14.5%,14.5%,14.5%);fill-opacity:1.0">Vercellese_Piemontese</text></g><g class="toytree-TipLabel" transform="translate(1403.57,1614.43)rotate(90)"><text x="12.0" y="3.577" style="fill:rgb(14.5%,14.5%,14.5%);fill-opacity:1.0">Barbania_Piemontese</text></g><g class="toytree-TipLabel" transform="translate(1448.42,1614.43)rotate(90)"><text x="12.0" y="3.577" style="fill:rgb(14.5%,14.5%,14.5%);fill-opacity:1.0">Carmagnola_Piemontese</text></g><g class="toytree-TipLabel" transform="translate(1493.26,1614.43)rotate(90)"><text x="12.0" y="3.577" style="fill:rgb(14.5%,14.5%,14.5%);fill-opacity:1.0">Lanzo_Torinese_Piemontese</text></g><g class="toytree-TipLabel" transform="translate(1538.1,1614.43)rotate(90)"><text x="12.0" y="3.577" style="fill:rgb(14.5%,14.5%,14.5%);fill-opacity:1.0">Grosseto_Italian</text></g><g class="toytree-TipLabel" transform="translate(1582.94,1614.43)rotate(90)"><text x="12.0" y="3.577" style="fill:rgb(14.5%,14.5%,14.5%);fill-opacity:1.0">Standard_Italian</text></g><g class="toytree-TipLabel" transform="translate(1627.78,1614.43)rotate(90)"><text x="12.0" y="3.577" style="fill:rgb(14.5%,14.5%,14.5%);fill-opacity:1.0">Ravennate_Romagnol</text></g><g class="toytree-TipLabel" transform="translate(1672.62,1614.43)rotate(90)"><text x="12.0" y="3.577" style="fill:rgb(14.5%,14.5%,14.5%);fill-opacity:1.0">Venice_Venetian</text></g><g class="toytree-TipLabel" transform="translate(1717.47,1614.43)rotate(90)"><text x="12.0" y="3.577" style="fill:rgb(14.5%,14.5%,14.5%);fill-opacity:1.0">Ferrarese_Emiliano</text></g><g class="toytree-TipLabel" transform="translate(1762.31,1614.43)rotate(90)"><text x="12.0" y="3.577" style="fill:rgb(14.5%,14.5%,14.5%);fill-opacity:1.0">Carpigiano_Emiliano</text></g><g class="toytree-TipLabel" transform="translate(1807.15,1614.43)rotate(90)"><text x="12.0" y="3.577" style="fill:rgb(14.5%,14.5%,14.5%);fill-opacity:1.0">Reggiano_Emiliano</text></g><g class="toytree-TipLabel" transform="translate(1851.99,1614.43)rotate(90)"><text x="12.0" y="3.577" style="fill:rgb(14.5%,14.5%,14.5%);fill-opacity:1.0">Rapallo_Ligurian</text></g><g class="toytree-TipLabel" transform="translate(1896.83,1614.43)rotate(90)"><text x="12.0" y="3.577" style="fill:rgb(14.5%,14.5%,14.5%);fill-opacity:1.0">Genoese_Ligurian</text></g><g class="toytree-TipLabel" transform="translate(1941.67,1614.43)rotate(90)"><text x="12.0" y="3.577" style="fill:rgb(14.5%,14.5%,14.5%);fill-opacity:1.0">Stella_Ligurian</text></g></g></g></g><g class="toyplot-coordinates-Axis" id="t356c12870ba7459d9d4a06ae3e21e01d" transform="translate(50.0,1950.0)rotate(-90.0)translate(0,-15.0)"><line x1="335.5728996389918" y1="0" x2="1896.7133884446196" y2="0" style="" /><g><line x1="335.5728996389918" y1="0" x2="335.5728996389918" y2="5" style="" /><line x1="387.61091593251274" y1="0" x2="387.61091593251274" y2="5" style="" /><line x1="439.64893222603365" y1="0" x2="439.64893222603365" y2="5" style="" /><line x1="491.6869485195546" y1="0" x2="491.6869485195546" y2="5" style="" /><line x1="543.7249648130756" y1="0" x2="543.7249648130756" y2="5" style="" /><line x1="595.7629811065964" y1="0" x2="595.7629811065964" y2="5" style="" /><line x1="647.8009974001175" y1="0" x2="647.8009974001175" y2="5" style="" /><line x1="699.8390136936382" y1="0" x2="699.8390136936382" y2="5" style="" /><line x1="751.8770299871593" y1="0" x2="751.8770299871593" y2="5" style="" /><line x1="803.9150462806801" y1="0" x2="803.9150462806801" y2="5" style="" /><line x1="855.953062574201" y1="0" x2="855.953062574201" y2="5" style="" /><line x1="907.9910788677221" y1="0" x2="907.9910788677221" y2="5" style="" /><line x1="960.029095161243" y1="0" x2="960.029095161243" y2="5" style="" /><line x1="1012.0671114547638" y1="0" x2="1012.0671114547638" y2="5" style="" /><line x1="1064.105127748285" y1="0" x2="1064.105127748285" y2="5" style="" /><line x1="1116.1431440418057" y1="0" x2="1116.1431440418057" y2="5" style="" /><line x1="1168.1811603353265" y1="0" x2="1168.1811603353265" y2="5" style="" /><line x1="1220.2191766288477" y1="0" x2="1220.2191766288477" y2="5" style="" /><line x1="1272.2571929223684" y1="0" x2="1272.2571929223684" y2="5" style="" /><line x1="1324.2952092158894" y1="0" x2="1324.2952092158894" y2="5" style="" /><line x1="1376.3332255094103" y1="0" x2="1376.3332255094103" y2="5" style="" /><line x1="1428.371241802931" y1="0" x2="1428.371241802931" y2="5" style="" /><line x1="1480.4092580964523" y1="0" x2="1480.4092580964523" y2="5" style="" /><line x1="1532.447274389973" y1="0" x2="1532.447274389973" y2="5" style="" /><line x1="1584.4852906834942" y1="0" x2="1584.4852906834942" y2="5" style="" /><line x1="1636.523306977015" y1="0" x2="1636.523306977015" y2="5" style="" /><line x1="1688.5613232705357" y1="0" x2="1688.5613232705357" y2="5" style="" /><line x1="1740.599339564057" y1="0" x2="1740.599339564057" y2="5" style="" /><line x1="1792.6373558575776" y1="0" x2="1792.6373558575776" y2="5" style="" /><line x1="1844.6753721510988" y1="0" x2="1844.6753721510988" y2="5" style="" /><line x1="1896.7133884446196" y1="0" x2="1896.7133884446196" y2="5" style="" /></g><g><g transform="translate(335.5728996389918,-6)"><text x="-2.78" y="-4.440892098500626e-16" style="fill:rgb(16.1%,15.3%,14.1%);fill-opacity:1.0;font-family:helvetica;font-size:10.0px;font-weight:normal;stroke:none;vertical-align:baseline;white-space:pre">0</text></g><g transform="translate(387.61091593251274,-6)"><text x="-6.95" y="-4.440892098500626e-16" style="fill:rgb(16.1%,15.3%,14.1%);fill-opacity:1.0;font-family:helvetica;font-size:10.0px;font-weight:normal;stroke:none;vertical-align:baseline;white-space:pre">0.1</text></g><g transform="translate(439.64893222603365,-6)"><text x="-6.95" y="-4.440892098500626e-16" style="fill:rgb(16.1%,15.3%,14.1%);fill-opacity:1.0;font-family:helvetica;font-size:10.0px;font-weight:normal;stroke:none;vertical-align:baseline;white-space:pre">0.2</text></g><g transform="translate(491.6869485195546,-6)"><text x="-6.95" y="-4.440892098500626e-16" style="fill:rgb(16.1%,15.3%,14.1%);fill-opacity:1.0;font-family:helvetica;font-size:10.0px;font-weight:normal;stroke:none;vertical-align:baseline;white-space:pre">0.3</text></g><g transform="translate(543.7249648130756,-6)"><text x="-6.95" y="-4.440892098500626e-16" style="fill:rgb(16.1%,15.3%,14.1%);fill-opacity:1.0;font-family:helvetica;font-size:10.0px;font-weight:normal;stroke:none;vertical-align:baseline;white-space:pre">0.4</text></g><g transform="translate(595.7629811065964,-6)"><text x="-6.95" y="-4.440892098500626e-16" style="fill:rgb(16.1%,15.3%,14.1%);fill-opacity:1.0;font-family:helvetica;font-size:10.0px;font-weight:normal;stroke:none;vertical-align:baseline;white-space:pre">0.5</text></g><g transform="translate(647.8009974001175,-6)"><text x="-6.95" y="-4.440892098500626e-16" style="fill:rgb(16.1%,15.3%,14.1%);fill-opacity:1.0;font-family:helvetica;font-size:10.0px;font-weight:normal;stroke:none;vertical-align:baseline;white-space:pre">0.6</text></g><g transform="translate(699.8390136936382,-6)"><text x="-6.95" y="-4.440892098500626e-16" style="fill:rgb(16.1%,15.3%,14.1%);fill-opacity:1.0;font-family:helvetica;font-size:10.0px;font-weight:normal;stroke:none;vertical-align:baseline;white-space:pre">0.7</text></g><g transform="translate(751.8770299871593,-6)"><text x="-6.95" y="-4.440892098500626e-16" style="fill:rgb(16.1%,15.3%,14.1%);fill-opacity:1.0;font-family:helvetica;font-size:10.0px;font-weight:normal;stroke:none;vertical-align:baseline;white-space:pre">0.8</text></g><g transform="translate(803.9150462806801,-6)"><text x="-6.95" y="-4.440892098500626e-16" style="fill:rgb(16.1%,15.3%,14.1%);fill-opacity:1.0;font-family:helvetica;font-size:10.0px;font-weight:normal;stroke:none;vertical-align:baseline;white-space:pre">0.9</text></g><g transform="translate(855.953062574201,-6)"><text x="-2.78" y="-4.440892098500626e-16" style="fill:rgb(16.1%,15.3%,14.1%);fill-opacity:1.0;font-family:helvetica;font-size:10.0px;font-weight:normal;stroke:none;vertical-align:baseline;white-space:pre">1</text></g><g transform="translate(907.9910788677221,-6)"><text x="-6.95" y="-4.440892098500626e-16" style="fill:rgb(16.1%,15.3%,14.1%);fill-opacity:1.0;font-family:helvetica;font-size:10.0px;font-weight:normal;stroke:none;vertical-align:baseline;white-space:pre">1.1</text></g><g transform="translate(960.029095161243,-6)"><text x="-6.95" y="-4.440892098500626e-16" style="fill:rgb(16.1%,15.3%,14.1%);fill-opacity:1.0;font-family:helvetica;font-size:10.0px;font-weight:normal;stroke:none;vertical-align:baseline;white-space:pre">1.2</text></g><g transform="translate(1012.0671114547638,-6)"><text x="-6.95" y="-4.440892098500626e-16" style="fill:rgb(16.1%,15.3%,14.1%);fill-opacity:1.0;font-family:helvetica;font-size:10.0px;font-weight:normal;stroke:none;vertical-align:baseline;white-space:pre">1.3</text></g><g transform="translate(1064.105127748285,-6)"><text x="-6.95" y="-4.440892098500626e-16" style="fill:rgb(16.1%,15.3%,14.1%);fill-opacity:1.0;font-family:helvetica;font-size:10.0px;font-weight:normal;stroke:none;vertical-align:baseline;white-space:pre">1.4</text></g><g transform="translate(1116.1431440418057,-6)"><text x="-6.95" y="-4.440892098500626e-16" style="fill:rgb(16.1%,15.3%,14.1%);fill-opacity:1.0;font-family:helvetica;font-size:10.0px;font-weight:normal;stroke:none;vertical-align:baseline;white-space:pre">1.5</text></g><g transform="translate(1168.1811603353265,-6)"><text x="-6.95" y="-4.440892098500626e-16" style="fill:rgb(16.1%,15.3%,14.1%);fill-opacity:1.0;font-family:helvetica;font-size:10.0px;font-weight:normal;stroke:none;vertical-align:baseline;white-space:pre">1.6</text></g><g transform="translate(1220.2191766288477,-6)"><text x="-6.95" y="-4.440892098500626e-16" style="fill:rgb(16.1%,15.3%,14.1%);fill-opacity:1.0;font-family:helvetica;font-size:10.0px;font-weight:normal;stroke:none;vertical-align:baseline;white-space:pre">1.7</text></g><g transform="translate(1272.2571929223684,-6)"><text x="-6.95" y="-4.440892098500626e-16" style="fill:rgb(16.1%,15.3%,14.1%);fill-opacity:1.0;font-family:helvetica;font-size:10.0px;font-weight:normal;stroke:none;vertical-align:baseline;white-space:pre">1.8</text></g><g transform="translate(1324.2952092158894,-6)"><text x="-6.95" y="-4.440892098500626e-16" style="fill:rgb(16.1%,15.3%,14.1%);fill-opacity:1.0;font-family:helvetica;font-size:10.0px;font-weight:normal;stroke:none;vertical-align:baseline;white-space:pre">1.9</text></g><g transform="translate(1376.3332255094103,-6)"><text x="-2.78" y="-4.440892098500626e-16" style="fill:rgb(16.1%,15.3%,14.1%);fill-opacity:1.0;font-family:helvetica;font-size:10.0px;font-weight:normal;stroke:none;vertical-align:baseline;white-space:pre">2</text></g><g transform="translate(1428.371241802931,-6)"><text x="-6.95" y="-4.440892098500626e-16" style="fill:rgb(16.1%,15.3%,14.1%);fill-opacity:1.0;font-family:helvetica;font-size:10.0px;font-weight:normal;stroke:none;vertical-align:baseline;white-space:pre">2.1</text></g><g transform="translate(1480.4092580964523,-6)"><text x="-6.95" y="-4.440892098500626e-16" style="fill:rgb(16.1%,15.3%,14.1%);fill-opacity:1.0;font-family:helvetica;font-size:10.0px;font-weight:normal;stroke:none;vertical-align:baseline;white-space:pre">2.2</text></g><g transform="translate(1532.447274389973,-6)"><text x="-6.95" y="-4.440892098500626e-16" style="fill:rgb(16.1%,15.3%,14.1%);fill-opacity:1.0;font-family:helvetica;font-size:10.0px;font-weight:normal;stroke:none;vertical-align:baseline;white-space:pre">2.3</text></g><g transform="translate(1584.4852906834942,-6)"><text x="-6.95" y="-4.440892098500626e-16" style="fill:rgb(16.1%,15.3%,14.1%);fill-opacity:1.0;font-family:helvetica;font-size:10.0px;font-weight:normal;stroke:none;vertical-align:baseline;white-space:pre">2.4</text></g><g transform="translate(1636.523306977015,-6)"><text x="-6.95" y="-4.440892098500626e-16" style="fill:rgb(16.1%,15.3%,14.1%);fill-opacity:1.0;font-family:helvetica;font-size:10.0px;font-weight:normal;stroke:none;vertical-align:baseline;white-space:pre">2.5</text></g><g transform="translate(1688.5613232705357,-6)"><text x="-6.95" y="-4.440892098500626e-16" style="fill:rgb(16.1%,15.3%,14.1%);fill-opacity:1.0;font-family:helvetica;font-size:10.0px;font-weight:normal;stroke:none;vertical-align:baseline;white-space:pre">2.6</text></g><g transform="translate(1740.599339564057,-6)"><text x="-6.95" y="-4.440892098500626e-16" style="fill:rgb(16.1%,15.3%,14.1%);fill-opacity:1.0;font-family:helvetica;font-size:10.0px;font-weight:normal;stroke:none;vertical-align:baseline;white-space:pre">2.7</text></g><g transform="translate(1792.6373558575776,-6)"><text x="-6.95" y="-4.440892098500626e-16" style="fill:rgb(16.1%,15.3%,14.1%);fill-opacity:1.0;font-family:helvetica;font-size:10.0px;font-weight:normal;stroke:none;vertical-align:baseline;white-space:pre">2.8</text></g><g transform="translate(1844.6753721510988,-6)"><text x="-6.95" y="-4.440892098500626e-16" style="fill:rgb(16.1%,15.3%,14.1%);fill-opacity:1.0;font-family:helvetica;font-size:10.0px;font-weight:normal;stroke:none;vertical-align:baseline;white-space:pre">2.9</text></g><g transform="translate(1896.7133884446196,-6)"><text x="-2.78" y="-4.440892098500626e-16" style="fill:rgb(16.1%,15.3%,14.1%);fill-opacity:1.0;font-family:helvetica;font-size:10.0px;font-weight:normal;stroke:none;vertical-align:baseline;white-space:pre">3</text></g></g><g class="toyplot-coordinates-Axis-coordinates" style="visibility:hidden" transform=""><line x1="0" x2="0" y1="3.0" y2="-4.5" style="stroke:rgb(43.9%,50.2%,56.5%);stroke-opacity:1.0;stroke-width:1.0" /><text x="0" y="6" style="alignment-baseline:hanging;fill:rgb(43.9%,50.2%,56.5%);fill-opacity:1.0;font-size:10px;font-weight:normal;stroke:none;text-anchor:middle" /></g></g></g></svg>