<svg class="toyplot-canvas-Canvas" xmlns:toyplot="http://www.sandia.gov/toyplot" xmlns:xlink="http://www.w3.org/1999/xlink" xmlns="http://www.w3.org/2000/svg" width="2000.0px" height="2000.0px" viewBox="0 0 2000.0 2000.0" preserveAspectRatio="xMidYMid meet" style="background-color:transparent;border-color:#292724;border-style:none;border-width:1.0;fill:rgb(16.1%,15.3%,14.1%);fill-opacity:1.0;font-family:Helvetica;font-size:12px;opacity:1.0;stroke:rgb(16.1%,15.3%,14.1%);stroke-opacity:1.0;stroke-width:1.0" id="te034278bdf674d29b25efcf896d8426a"><g class="toyplot-coordinates-Cartesian" id="t34aaacada95143c2b92ba6430325afa3"><clipPath id="tbdab6aded75042bfb73a653f03ae4056"><rect x="35.0" y="35.0" width="1930.0" height="1930.0" /></clipPath><g clip-path="url(#tbdab6aded75042bfb73a653f03ae4056)"><g class="toytree-mark-Toytree" id="t033d675cff1a4755ae7feaf0673fdc9a"><g class="toytree-Edges" style="stroke:rgb(14.5%,14.5%,14.5%);stroke-opacity:1.0;stroke-linecap:round;stroke-width:2;fill:none"><path d="M 200.3 910.3 L 58.3 996.0" id="34,0" style="" /><path d="M 159.2 996.0 L 125.6 1424.3" id="29,1" style="" /><path d="M 159.2 996.0 L 192.9 1424.3" id="29,2" style="" /><path d="M 293.7 1081.6 L 260.1 1167.3" id="30,3" style="" /><path d="M 293.7 1081.6 L 327.4 1167.3" id="30,4" style="" /><path d="M 473.1 1081.6 L 394.6 1167.3" id="32,5" style="" /><path d="M 473.1 1081.6 L 461.9 1167.3" id="32,6" style="" /><path d="M 562.8 1167.3 L 529.2 1681.3" id="31,7" style="" /><path d="M 562.8 1167.3 L 596.4 1681.3" id="31,8" style="" /><path d="M 714.1 996.0 L 663.7 1081.6" id="36,9" style="" /><path d="M 764.6 1081.6 L 731.0 1253.0" id="35,10" style="" /><path d="M 764.6 1081.6 L 798.2 1253.0" id="35,11" style="" /><path d="M 983.2 996.0 L 865.5 1081.6" id="40,12" style="" /><path d="M 966.4 1081.6 L 932.7 1424.3" id="37,13" style="" /><path d="M 966.4 1081.6 L 1000.0 1424.3" id="37,14" style="" /><path d="M 1117.7 1081.6 L 1067.3 1167.3" id="39,15" style="" /><path d="M 1168.2 1167.3 L 1134.5 1253.0" id="38,16" style="" /><path d="M 1168.2 1167.3 L 1201.8 1253.0" id="38,17" style="" /><path d="M 1468.0 910.3 L 1269.0 996.0" id="48,18" style="" /><path d="M 1395.2 996.0 L 1336.3 1253.0" id="44,19" style="" /><path d="M 1454.0 1253.0 L 1403.6 1338.6" id="43,20" style="" /><path d="M 1504.5 1338.6 L 1470.8 1767.0" id="42,21" style="" /><path d="M 1504.5 1338.6 L 1538.1 1767.0" id="42,22" style="" /><path d="M 1739.9 996.0 L 1605.4 1081.6" id="47,23" style="" /><path d="M 1739.9 996.0 L 1672.6 1081.6" id="47,24" style="" /><path d="M 1773.5 1081.6 L 1739.9 1253.0" id="45,25" style="" /><path d="M 1773.5 1081.6 L 1807.1 1253.0" id="45,26" style="" /><path d="M 1908.0 1081.6 L 1874.4 1167.3" id="46,27" style="" /><path d="M 1908.0 1081.6 L 1941.7 1167.3" id="46,28" style="" /><path d="M 200.3 910.3 L 159.2 996.0" id="34,29" style="" /><path d="M 383.4 996.0 L 293.7 1081.6" id="33,30" style="" /><path d="M 473.1 1081.6 L 562.8 1167.3" id="32,31" style="" /><path d="M 383.4 996.0 L 473.1 1081.6" id="33,32" style="" /><path d="M 200.3 910.3 L 383.4 996.0" id="34,33" style="" /><path d="M 839.0 53.6 L 200.3 910.3" id="49,34" style="" /><path d="M 714.1 996.0 L 764.6 1081.6" id="36,35" style="" /><path d="M 848.7 910.3 L 714.1 996.0" id="41,36" style="" /><path d="M 983.2 996.0 L 966.4 1081.6" id="40,37" style="" /><path d="M 1117.7 1081.6 L 1168.2 1167.3" id="39,38" style="" /><path d="M 983.2 996.0 L 1117.7 1081.6" id="40,39" style="" /><path d="M 848.7 910.3 L 983.2 996.0" id="41,40" style="" /><path d="M 839.0 53.6 L 848.7 910.3" id="49,41" style="" /><path d="M 1454.0 1253.0 L 1504.5 1338.6" id="43,42" style="" /><path d="M 1395.2 996.0 L 1454.0 1253.0" id="44,43" style="" /><path d="M 1468.0 910.3 L 1395.2 996.0" id="48,44" style="" /><path d="M 1739.9 996.0 L 1773.5 1081.6" id="47,45" style="" /><path d="M 1739.9 996.0 L 1908.0 1081.6" id="47,46" style="" /><path d="M 1468.0 910.3 L 1739.9 996.0" id="48,47" style="" /><path d="M 839.0 53.6 L 1468.0 910.3" id="49,48" style="" /></g><g class="toytree-AlignEdges" style="stroke:rgb(66.0%,66.0%,66.0%);stroke-opacity:0.75;stroke-dasharray:2,4;stroke-linecap:round;stroke-width:2"><path d="M 58.3 1767.0 L 58.3 996.0" /><path d="M 125.6 1767.0 L 125.6 1424.3" /><path d="M 192.9 1767.0 L 192.9 1424.3" /><path d="M 260.1 1767.0 L 260.1 1167.3" /><path d="M 327.4 1767.0 L 327.4 1167.3" /><path d="M 394.6 1767.0 L 394.6 1167.3" /><path d="M 461.9 1767.0 L 461.9 1167.3" /><path d="M 529.2 1767.0 L 529.2 1681.3" /><path d="M 596.4 1767.0 L 596.4 1681.3" /><path d="M 663.7 1767.0 L 663.7 1081.6" /><path d="M 731.0 1767.0 L 731.0 1253.0" /><path d="M 798.2 1767.0 L 798.2 1253.0" /><path d="M 865.5 1767.0 L 865.5 1081.6" /><path d="M 932.7 1767.0 L 932.7 1424.3" /><path d="M 1000.0 1767.0 L 1000.0 1424.3" /><path d="M 1067.3 1767.0 L 1067.3 1167.3" /><path d="M 1134.5 1767.0 L 1134.5 1253.0" /><path d="M 1201.8 1767.0 L 1201.8 1253.0" /><path d="M 1269.0 1767.0 L 1269.0 996.0" /><path d="M 1336.3 1767.0 L 1336.3 1253.0" /><path d="M 1403.6 1767.0 L 1403.6 1338.6" /><path d="M 1470.8 1767.0 L 1470.8 1767.0" /><path d="M 1538.1 1767.0 L 1538.1 1767.0" /><path d="M 1605.4 1767.0 L 1605.4 1081.6" /><path d="M 1672.6 1767.0 L 1672.6 1081.6" /><path d="M 1739.9 1767.0 L 1739.9 1253.0" /><path d="M 1807.1 1767.0 L 1807.1 1253.0" /><path d="M 1874.4 1767.0 L 1874.4 1167.3" /><path d="M 1941.7 1767.0 L 1941.7 1167.3" /></g><g class="toytree-AdmixEdges" style="fill:rgb(0.0%,0.0%,0.0%);fill-opacity:0.0;stroke:rgb(90.6%,54.1%,76.5%);stroke-opacity:0.6;font-size:14px;stroke-linecap:round;stroke-width:5" /><g class="toytree-Nodes" style="fill:rgb(0.0%,0.0%,0.0%);fill-opacity:1.0;stroke:none;stroke-width:1.5"><g id="Node-0" transform="translate(58.3264,995.965)"><circle r="2.5" /></g><g id="Node-1" transform="translate(125.589,1424.31)"><circle r="2.5" /></g><g id="Node-2" transform="translate(192.851,1424.31)"><circle r="2.5" /></g><g id="Node-3" transform="translate(260.114,1167.3)"><circle r="2.5" /></g><g id="Node-4" transform="translate(327.376,1167.3)"><circle r="2.5" /></g><g id="Node-5" transform="translate(394.638,1167.3)"><circle r="2.5" /></g><g id="Node-6" transform="translate(461.901,1167.3)"><circle r="2.5" /></g><g id="Node-7" transform="translate(529.163,1681.32)"><circle r="2.5" /></g><g id="Node-8" transform="translate(596.426,1681.32)"><circle r="2.5" /></g><g id="Node-9" transform="translate(663.688,1081.63)"><circle r="2.5" /></g><g id="Node-10" transform="translate(730.95,1252.97)"><circle r="2.5" /></g><g id="Node-11" transform="translate(798.213,1252.97)"><circle r="2.5" /></g><g id="Node-12" transform="translate(865.475,1081.63)"><circle r="2.5" /></g><g id="Node-13" transform="translate(932.738,1424.31)"><circle r="2.5" /></g><g id="Node-14" transform="translate(1000,1424.31)"><circle r="2.5" /></g><g id="Node-15" transform="translate(1067.26,1167.3)"><circle r="2.5" /></g><g id="Node-16" transform="translate(1134.52,1252.97)"><circle r="2.5" /></g><g id="Node-17" transform="translate(1201.79,1252.97)"><circle r="2.5" /></g><g id="Node-18" transform="translate(1269.05,995.965)"><circle r="2.5" /></g><g id="Node-19" transform="translate(1336.31,1252.97)"><circle r="2.5" /></g><g id="Node-20" transform="translate(1403.57,1338.64)"><circle r="2.5" /></g><g id="Node-21" transform="translate(1470.84,1766.99)"><circle r="2.5" /></g><g id="Node-22" transform="translate(1538.1,1766.99)"><circle r="2.5" /></g><g id="Node-23" transform="translate(1605.36,1081.63)"><circle r="2.5" /></g><g id="Node-24" transform="translate(1672.62,1081.63)"><circle r="2.5" /></g><g id="Node-25" transform="translate(1739.89,1252.97)"><circle r="2.5" /></g><g id="Node-26" transform="translate(1807.15,1252.97)"><circle r="2.5" /></g><g id="Node-27" transform="translate(1874.41,1167.3)"><circle r="2.5" /></g><g id="Node-28" transform="translate(1941.67,1167.3)"><circle r="2.5" /></g><g id="Node-29" transform="translate(159.22,995.965)"><circle r="2.5" /></g><g id="Node-30" transform="translate(293.745,1081.63)"><circle r="2.5" /></g><g id="Node-31" transform="translate(562.794,1167.3)"><circle r="2.5" /></g><g id="Node-32" transform="translate(473.111,1081.63)"><circle r="2.5" /></g><g id="Node-33" transform="translate(383.428,995.965)"><circle r="2.5" /></g><g id="Node-34" transform="translate(200.325,910.297)"><circle r="2.5" /></g><g id="Node-35" transform="translate(764.582,1081.63)"><circle r="2.5" /></g><g id="Node-36" transform="translate(714.135,995.965)"><circle r="2.5" /></g><g id="Node-37" transform="translate(966.369,1081.63)"><circle r="2.5" /></g><g id="Node-38" transform="translate(1168.16,1167.3)"><circle r="2.5" /></g><g id="Node-39" transform="translate(1117.71,1081.63)"><circle r="2.5" /></g><g id="Node-40" transform="translate(983.184,995.965)"><circle r="2.5" /></g><g id="Node-41" transform="translate(848.66,910.297)"><circle r="2.5" /></g><g id="Node-42" transform="translate(1504.47,1338.64)"><circle r="2.5" /></g><g id="Node-43" transform="translate(1454.02,1252.97)"><circle r="2.5" /></g><g id="Node-44" transform="translate(1395.17,995.965)"><circle r="2.5" /></g><g id="Node-45" transform="translate(1773.52,1081.63)"><circle r="2.5" /></g><g id="Node-46" transform="translate(1908.04,1081.63)"><circle r="2.5" /></g><g id="Node-47" transform="translate(1739.89,995.965)"><circle r="2.5" /></g><g id="Node-48" transform="translate(1468.03,910.297)"><circle r="2.5" /></g><g id="Node-49" transform="translate(839.006,53.6071)"><circle r="2.5" /></g></g><g class="toytree-TipLabels" style="fill:rgb(14.5%,14.5%,14.5%);fill-opacity:1.0;font-family:Helvetica;font-size:14px;font-weight:300;vertical-align:baseline;white-space:pre;stroke:none"><g class="toytree-TipLabel" transform="translate(58.3264,1766.99)rotate(90)"><text x="12.0" y="3.577" style="fill:rgb(14.5%,14.5%,14.5%);fill-opacity:1.0">Arawete</text></g><g class="toytree-TipLabel" transform="translate(125.589,1766.99)rotate(90)"><text x="12.0" y="3.577" style="fill:rgb(14.5%,14.5%,14.5%);fill-opacity:1.0">Aweti</text></g><g class="toytree-TipLabel" transform="translate(192.851,1766.99)rotate(90)"><text x="12.0" y="3.577" style="fill:rgb(14.5%,14.5%,14.5%);fill-opacity:1.0">Mawe</text></g><g class="toytree-TipLabel" transform="translate(260.114,1766.99)rotate(90)"><text x="12.0" y="3.577" style="fill:rgb(14.5%,14.5%,14.5%);fill-opacity:1.0">Kamajura</text></g><g class="toytree-TipLabel" transform="translate(327.376,1766.99)rotate(90)"><text x="12.0" y="3.577" style="fill:rgb(14.5%,14.5%,14.5%);fill-opacity:1.0">Tapirape</text></g><g class="toytree-TipLabel" transform="translate(394.638,1766.99)rotate(90)"><text x="12.0" y="3.577" style="fill:rgb(14.5%,14.5%,14.5%);fill-opacity:1.0">Apiaka</text></g><g class="toytree-TipLabel" transform="translate(461.901,1766.99)rotate(90)"><text x="12.0" y="3.577" style="fill:rgb(14.5%,14.5%,14.5%);fill-opacity:1.0">Kayabi</text></g><g class="toytree-TipLabel" transform="translate(529.163,1766.99)rotate(90)"><text x="12.0" y="3.577" style="fill:rgb(14.5%,14.5%,14.5%);fill-opacity:1.0">Amondawa</text></g><g class="toytree-TipLabel" transform="translate(596.426,1766.99)rotate(90)"><text x="12.0" y="3.577" style="fill:rgb(14.5%,14.5%,14.5%);fill-opacity:1.0">Urueuwauwau</text></g><g class="toytree-TipLabel" transform="translate(663.688,1766.99)rotate(90)"><text x="12.0" y="3.577" style="fill:rgb(14.5%,14.5%,14.5%);fill-opacity:1.0">Zoe</text></g><g class="toytree-TipLabel" transform="translate(730.95,1766.99)rotate(90)"><text x="12.0" y="3.577" style="fill:rgb(14.5%,14.5%,14.5%);fill-opacity:1.0">Teko</text></g><g class="toytree-TipLabel" transform="translate(798.213,1766.99)rotate(90)"><text x="12.0" y="3.577" style="fill:rgb(14.5%,14.5%,14.5%);fill-opacity:1.0">Wayampi</text></g><g class="toytree-TipLabel" transform="translate(865.475,1766.99)rotate(90)"><text x="12.0" y="3.577" style="fill:rgb(14.5%,14.5%,14.5%);fill-opacity:1.0">Guaja</text></g><g class="toytree-TipLabel" transform="translate(932.738,1766.99)rotate(90)"><text x="12.0" y="3.577" style="fill:rgb(14.5%,14.5%,14.5%);fill-opacity:1.0">Guajajara</text></g><g class="toytree-TipLabel" transform="translate(1000,1766.99)rotate(90)"><text x="12.0" y="3.577" style="fill:rgb(14.5%,14.5%,14.5%);fill-opacity:1.0">Tembe</text></g><g class="toytree-TipLabel" transform="translate(1067.26,1766.99)rotate(90)"><text x="12.0" y="3.577" style="fill:rgb(14.5%,14.5%,14.5%);fill-opacity:1.0">Kaapor</text></g><g class="toytree-TipLabel" transform="translate(1134.52,1766.99)rotate(90)"><text x="12.0" y="3.577" style="fill:rgb(14.5%,14.5%,14.5%);fill-opacity:1.0">Nheengatu</text></g><g class="toytree-TipLabel" transform="translate(1201.79,1766.99)rotate(90)"><text x="12.0" y="3.577" style="fill:rgb(14.5%,14.5%,14.5%);fill-opacity:1.0">Tupinamba</text></g><g class="toytree-TipLabel" transform="translate(1269.05,1766.99)rotate(90)"><text x="12.0" y="3.577" style="fill:rgb(14.5%,14.5%,14.5%);fill-opacity:1.0">Warazu</text></g><g class="toytree-TipLabel" transform="translate(1336.31,1766.99)rotate(90)"><text x="12.0" y="3.577" style="fill:rgb(14.5%,14.5%,14.5%);fill-opacity:1.0">Xeta</text></g><g class="toytree-TipLabel" transform="translate(1403.57,1766.99)rotate(90)"><text x="12.0" y="3.577" style="fill:rgb(14.5%,14.5%,14.5%);fill-opacity:1.0">Ache</text></g><g class="toytree-TipLabel" transform="translate(1470.84,1766.99)rotate(90)"><text x="12.0" y="3.577" style="fill:rgb(14.5%,14.5%,14.5%);fill-opacity:1.0">Siriono</text></g><g class="toytree-TipLabel" transform="translate(1538.1,1766.99)rotate(90)"><text x="12.0" y="3.577" style="fill:rgb(14.5%,14.5%,14.5%);fill-opacity:1.0">Yuki</text></g><g class="toytree-TipLabel" transform="translate(1605.36,1766.99)rotate(90)"><text x="12.0" y="3.577" style="fill:rgb(14.5%,14.5%,14.5%);fill-opacity:1.0">Guarayo</text></g><g class="toytree-TipLabel" transform="translate(1672.62,1766.99)rotate(90)"><text x="12.0" y="3.577" style="fill:rgb(14.5%,14.5%,14.5%);fill-opacity:1.0">Kaiowa</text></g><g class="toytree-TipLabel" transform="translate(1739.89,1766.99)rotate(90)"><text x="12.0" y="3.577" style="fill:rgb(14.5%,14.5%,14.5%);fill-opacity:1.0">Chiriguano</text></g><g class="toytree-TipLabel" transform="translate(1807.15,1766.99)rotate(90)"><text x="12.0" y="3.577" style="fill:rgb(14.5%,14.5%,14.5%);fill-opacity:1.0">Tapiete</text></g><g class="toytree-TipLabel" transform="translate(1874.41,1766.99)rotate(90)"><text x="12.0" y="3.577" style="fill:rgb(14.5%,14.5%,14.5%);fill-opacity:1.0">Guarani</text></g><g class="toytree-TipLabel" transform="translate(1941.67,1766.99)rotate(90)"><text x="12.0" y="3.577" style="fill:rgb(14.5%,14.5%,14.5%);fill-opacity:1.0">Mbya</text></g></g></g></g><g class="toyplot-coordinates-Axis" id="t83c7d161864e47ecbcdfcc15b4063f50" transform="translate(50.0,1950.0)rotate(-90.0)translate(0,-15.0)"><line x1="183.01410381271856" y1="0" x2="1896.3928867727157" y2="0" style="" /><g><line x1="97.34516466471871" y1="0" x2="97.34516466471871" y2="5" style="" /><line x1="183.01410381271856" y1="0" x2="183.01410381271856" y2="5" style="" /><line x1="268.6830429607184" y1="0" x2="268.6830429607184" y2="5" style="" /><line x1="354.3519821087183" y1="0" x2="354.3519821087183" y2="5" style="" /><line x1="440.0209212567181" y1="0" x2="440.0209212567181" y2="5" style="" /><line x1="525.6898604047179" y1="0" x2="525.6898604047179" y2="5" style="" /><line x1="611.3587995527179" y1="0" x2="611.3587995527179" y2="5" style="" /><line x1="697.0277387007176" y1="0" x2="697.0277387007176" y2="5" style="" /><line x1="782.6966778487175" y1="0" x2="782.6966778487175" y2="5" style="" /><line x1="868.3656169967173" y1="0" x2="868.3656169967173" y2="5" style="" /><line x1="954.0345561447173" y1="0" x2="954.0345561447173" y2="5" style="" /><line x1="1039.703495292717" y1="0" x2="1039.703495292717" y2="5" style="" /><line x1="1125.372434440717" y1="0" x2="1125.372434440717" y2="5" style="" /><line x1="1211.0413735887166" y1="0" x2="1211.0413735887166" y2="5" style="" /><line x1="1296.7103127367166" y1="0" x2="1296.7103127367166" y2="5" style="" /><line x1="1382.3792518847163" y1="0" x2="1382.3792518847163" y2="5" style="" /><line x1="1468.0481910327162" y1="0" x2="1468.0481910327162" y2="5" style="" /><line x1="1553.7171301807161" y1="0" x2="1553.7171301807161" y2="5" style="" /><line x1="1639.3860693287158" y1="0" x2="1639.3860693287158" y2="5" style="" /><line x1="1725.0550084767158" y1="0" x2="1725.0550084767158" y2="5" style="" /><line x1="1810.7239476247157" y1="0" x2="1810.7239476247157" y2="5" style="" /><line x1="1896.3928867727157" y1="0" x2="1896.3928867727157" y2="5" style="" /></g><g><g transform="translate(97.34516466471871,-6)"><text x="-6.95" y="-4.440892098500626e-16" style="fill:rgb(16.1%,15.3%,14.1%);fill-opacity:1.0;font-family:helvetica;font-size:10.0px;font-weight:normal;stroke:none;vertical-align:baseline;white-space:pre">0.1</text></g><g transform="translate(183.01410381271856,-6)"><text x="-2.78" y="-4.440892098500626e-16" style="fill:rgb(16.1%,15.3%,14.1%);fill-opacity:1.0;font-family:helvetica;font-size:10.0px;font-weight:normal;stroke:none;vertical-align:baseline;white-space:pre">0</text></g><g transform="translate(268.6830429607184,-6)"><text x="-6.95" y="-4.440892098500626e-16" style="fill:rgb(16.1%,15.3%,14.1%);fill-opacity:1.0;font-family:helvetica;font-size:10.0px;font-weight:normal;stroke:none;vertical-align:baseline;white-space:pre">0.1</text></g><g transform="translate(354.3519821087183,-6)"><text x="-6.95" y="-4.440892098500626e-16" style="fill:rgb(16.1%,15.3%,14.1%);fill-opacity:1.0;font-family:helvetica;font-size:10.0px;font-weight:normal;stroke:none;vertical-align:baseline;white-space:pre">0.2</text></g><g transform="translate(440.0209212567181,-6)"><text x="-6.95" y="-4.440892098500626e-16" style="fill:rgb(16.1%,15.3%,14.1%);fill-opacity:1.0;font-family:helvetica;font-size:10.0px;font-weight:normal;stroke:none;vertical-align:baseline;white-space:pre">0.3</text></g><g transform="translate(525.6898604047179,-6)"><text x="-6.95" y="-4.440892098500626e-16" style="fill:rgb(16.1%,15.3%,14.1%);fill-opacity:1.0;font-family:helvetica;font-size:10.0px;font-weight:normal;stroke:none;vertical-align:baseline;white-space:pre">0.4</text></g><g transform="translate(611.3587995527179,-6)"><text x="-6.95" y="-4.440892098500626e-16" style="fill:rgb(16.1%,15.3%,14.1%);fill-opacity:1.0;font-family:helvetica;font-size:10.0px;font-weight:normal;stroke:none;vertical-align:baseline;white-space:pre">0.5</text></g><g transform="translate(697.0277387007176,-6)"><text x="-6.95" y="-4.440892098500626e-16" style="fill:rgb(16.1%,15.3%,14.1%);fill-opacity:1.0;font-family:helvetica;font-size:10.0px;font-weight:normal;stroke:none;vertical-align:baseline;white-space:pre">0.6</text></g><g transform="translate(782.6966778487175,-6)"><text x="-6.95" y="-4.440892098500626e-16" style="fill:rgb(16.1%,15.3%,14.1%);fill-opacity:1.0;font-family:helvetica;font-size:10.0px;font-weight:normal;stroke:none;vertical-align:baseline;white-space:pre">0.7</text></g><g transform="translate(868.3656169967173,-6)"><text x="-6.95" y="-4.440892098500626e-16" style="fill:rgb(16.1%,15.3%,14.1%);fill-opacity:1.0;font-family:helvetica;font-size:10.0px;font-weight:normal;stroke:none;vertical-align:baseline;white-space:pre">0.8</text></g><g transform="translate(954.0345561447173,-6)"><text x="-6.95" y="-4.440892098500626e-16" style="fill:rgb(16.1%,15.3%,14.1%);fill-opacity:1.0;font-family:helvetica;font-size:10.0px;font-weight:normal;stroke:none;vertical-align:baseline;white-space:pre">0.9</text></g><g transform="translate(1039.703495292717,-6)"><text x="-2.78" y="-4.440892098500626e-16" style="fill:rgb(16.1%,15.3%,14.1%);fill-opacity:1.0;font-family:helvetica;font-size:10.0px;font-weight:normal;stroke:none;vertical-align:baseline;white-space:pre">1</text></g><g transform="translate(1125.372434440717,-6)"><text x="-6.95" y="-4.440892098500626e-16" style="fill:rgb(16.1%,15.3%,14.1%);fill-opacity:1.0;font-family:helvetica;font-size:10.0px;font-weight:normal;stroke:none;vertical-align:baseline;white-space:pre">1.1</text></g><g transform="translate(1211.0413735887166,-6)"><text x="-6.95" y="-4.440892098500626e-16" style="fill:rgb(16.1%,15.3%,14.1%);fill-opacity:1.0;font-family:helvetica;font-size:10.0px;font-weight:normal;stroke:none;vertical-align:baseline;white-space:pre">1.2</text></g><g transform="translate(1296.7103127367166,-6)"><text x="-6.95" y="-4.440892098500626e-16" style="fill:rgb(16.1%,15.3%,14.1%);fill-opacity:1.0;font-family:helvetica;font-size:10.0px;font-weight:normal;stroke:none;vertical-align:baseline;white-space:pre">1.3</text></g><g transform="translate(1382.3792518847163,-6)"><text x="-6.95" y="-4.440892098500626e-16" style="fill:rgb(16.1%,15.3%,14.1%);fill-opacity:1.0;font-family:helvetica;font-size:10.0px;font-weight:normal;stroke:none;vertical-align:baseline;white-space:pre">1.4</text></g><g transform="translate(1468.0481910327162,-6)"><text x="-6.95" y="-4.440892098500626e-16" style="fill:rgb(16.1%,15.3%,14.1%);fill-opacity:1.0;font-family:helvetica;font-size:10.0px;font-weight:normal;stroke:none;vertical-align:baseline;white-space:pre">1.5</text></g><g transform="translate(1553.7171301807161,-6)"><text x="-6.95" y="-4.440892098500626e-16" style="fill:rgb(16.1%,15.3%,14.1%);fill-opacity:1.0;font-family:helvetica;font-size:10.0px;font-weight:normal;stroke:none;vertical-align:baseline;white-space:pre">1.6</text></g><g transform="translate(1639.3860693287158,-6)"><text x="-6.95" y="-4.440892098500626e-16" style="fill:rgb(16.1%,15.3%,14.1%);fill-opacity:1.0;font-family:helvetica;font-size:10.0px;font-weight:normal;stroke:none;vertical-align:baseline;white-space:pre">1.7</text></g><g transform="translate(1725.0550084767158,-6)"><text x="-6.95" y="-4.440892098500626e-16" style="fill:rgb(16.1%,15.3%,14.1%);fill-opacity:1.0;font-family:helvetica;font-size:10.0px;font-weight:normal;stroke:none;vertical-align:baseline;white-space:pre">1.8</text></g><g transform="translate(1810.7239476247157,-6)"><text x="-6.95" y="-4.440892098500626e-16" style="fill:rgb(16.1%,15.3%,14.1%);fill-opacity:1.0;font-family:helvetica;font-size:10.0px;font-weight:normal;stroke:none;vertical-align:baseline;white-space:pre">1.9</text></g><g transform="translate(1896.3928867727157,-6)"><text x="-2.78" y="-4.440892098500626e-16" style="fill:rgb(16.1%,15.3%,14.1%);fill-opacity:1.0;font-family:helvetica;font-size:10.0px;font-weight:normal;stroke:none;vertical-align:baseline;white-space:pre">2</text></g></g><g class="toyplot-coordinates-Axis-coordinates" style="visibility:hidden" transform=""><line x1="0" x2="0" y1="3.0" y2="-4.5" style="stroke:rgb(43.9%,50.2%,56.5%);stroke-opacity:1.0;stroke-width:1.0" /><text x="0" y="6" style="alignment-baseline:hanging;fill:rgb(43.9%,50.2%,56.5%);fill-opacity:1.0;font-size:10px;font-weight:normal;stroke:none;text-anchor:middle" /></g></g></g></svg>