<svg class="toyplot-canvas-Canvas" xmlns:toyplot="http://www.sandia.gov/toyplot" xmlns:xlink="http://www.w3.org/1999/xlink" xmlns="http://www.w3.org/2000/svg" width="2000.0px" height="1235.0px" viewBox="0 0 2000.0 1235.0" preserveAspectRatio="xMidYMid meet" style="background-color:transparent;border-color:#292724;border-style:none;border-width:1.0;fill:rgb(16.1%,15.3%,14.1%);fill-opacity:1.0;font-family:Helvetica;font-size:12px;opacity:1.0;stroke:rgb(16.1%,15.3%,14.1%);stroke-opacity:1.0;stroke-width:1.0" id="t02a28c1efc7c45299ee003fdb99e1e4c"><g class="toyplot-coordinates-Cartesian" id="t1d38930cac374a77894280e91de2e60e"><clipPath id="t7e18d4b3c8b34829b19bb5f03e9f47ce"><rect x="35.0" y="35.0" width="1930.0" height="1165.0" /></clipPath><g clip-path="url(#t7e18d4b3c8b34829b19bb5f03e9f47ce)"><g class="toytree-mark-Toytree" id="t5427a11e689d420ba26d7551e4e0d537"><g class="toytree-Edges" style="stroke:rgb(14.5%,14.5%,14.5%);stroke-opacity:1.0;stroke-linecap:round;stroke-width:2.0;fill:none"><path d="M 909.1 1092.4 L 909.1 1176.7 L 994.4 1176.7" id="34,0" style="" /><path d="M 994.4 1116.8 L 994.4 1136.8 L 1421.0 1136.8" id="29,1" style="" /><path d="M 994.4 1116.8 L 994.4 1096.8 L 1421.0 1096.8" id="29,2" style="" /><path d="M 1079.7 1036.9 L 1079.7 1056.9 L 1165.1 1056.9" id="30,3" style="" /><path d="M 1079.7 1036.9 L 1079.7 1016.9 L 1165.1 1016.9" id="30,4" style="" /><path d="M 1079.7 930.4 L 1079.7 977.0 L 1165.1 977.0" id="32,5" style="" /><path d="M 1079.7 930.4 L 1079.7 937.1 L 1165.1 937.1" id="32,6" style="" /><path d="M 1165.1 877.1 L 1165.1 897.1 L 1677.0 897.1" id="31,7" style="" /><path d="M 1165.1 877.1 L 1165.1 857.2 L 1677.0 857.2" id="31,8" style="" /><path d="M 994.4 787.3 L 994.4 817.2 L 1079.7 817.2" id="36,9" style="" /><path d="M 1079.7 757.3 L 1079.7 777.3 L 1250.4 777.3" id="35,10" style="" /><path d="M 1079.7 757.3 L 1079.7 737.3 L 1250.4 737.3" id="35,11" style="" /><path d="M 994.4 627.5 L 994.4 697.4 L 1079.7 697.4" id="40,12" style="" /><path d="M 1079.7 637.5 L 1079.7 657.4 L 1421.0 657.4" id="37,13" style="" /><path d="M 1079.7 637.5 L 1079.7 617.5 L 1421.0 617.5" id="37,14" style="" /><path d="M 1079.7 547.6 L 1079.7 577.6 L 1165.1 577.6" id="39,15" style="" /><path d="M 1165.1 517.6 L 1165.1 537.6 L 1250.4 537.6" id="38,16" style="" /><path d="M 1165.1 517.6 L 1165.1 497.7 L 1250.4 497.7" id="38,17" style="" /><path d="M 909.1 339.6 L 909.1 457.7 L 994.4 457.7" id="48,18" style="" /><path d="M 994.4 382.8 L 994.4 417.8 L 1250.4 417.8" id="44,19" style="" /><path d="M 1250.4 347.9 L 1250.4 377.8 L 1335.7 377.8" id="43,20" style="" /><path d="M 1335.7 317.9 L 1335.7 337.9 L 1762.3 337.9" id="42,21" style="" /><path d="M 1335.7 317.9 L 1335.7 297.9 L 1762.3 297.9" id="42,22" style="" /><path d="M 994.4 178.1 L 994.4 258.0 L 1079.7 258.0" id="47,23" style="" /><path d="M 994.4 178.1 L 994.4 218.1 L 1079.7 218.1" id="47,24" style="" /><path d="M 1079.7 158.1 L 1079.7 178.1 L 1250.4 178.1" id="45,25" style="" /><path d="M 1079.7 158.1 L 1079.7 138.2 L 1250.4 138.2" id="45,26" style="" /><path d="M 1079.7 78.2 L 1079.7 98.2 L 1165.1 98.2" id="46,27" style="" /><path d="M 1079.7 78.2 L 1079.7 58.3 L 1165.1 58.3" id="46,28" style="" /><path d="M 909.1 1092.4 L 909.1 1116.8 L 994.4 1116.8" id="34,29" style="" /><path d="M 994.4 983.7 L 994.4 1036.9 L 1079.7 1036.9" id="33,30" style="" /><path d="M 1079.7 930.4 L 1079.7 877.1 L 1165.1 877.1" id="32,31" style="" /><path d="M 994.4 983.7 L 994.4 930.4 L 1079.7 930.4" id="33,32" style="" /><path d="M 909.1 1092.4 L 909.1 983.7 L 994.4 983.7" id="34,33" style="" /><path d="M 55.8 713.1 L 55.8 1092.4 L 909.1 1092.4" id="49,34" style="" /><path d="M 994.4 787.3 L 994.4 757.3 L 1079.7 757.3" id="36,35" style="" /><path d="M 909.1 707.4 L 909.1 787.3 L 994.4 787.3" id="41,36" style="" /><path d="M 994.4 627.5 L 994.4 637.5 L 1079.7 637.5" id="40,37" style="" /><path d="M 1079.7 547.6 L 1079.7 517.6 L 1165.1 517.6" id="39,38" style="" /><path d="M 994.4 627.5 L 994.4 547.6 L 1079.7 547.6" id="40,39" style="" /><path d="M 909.1 707.4 L 909.1 627.5 L 994.4 627.5" id="41,40" style="" /><path d="M 55.8 713.1 L 55.8 707.4 L 909.1 707.4" id="49,41" style="" /><path d="M 1250.4 347.9 L 1250.4 317.9 L 1335.7 317.9" id="43,42" style="" /><path d="M 994.4 382.8 L 994.4 347.9 L 1250.4 347.9" id="44,43" style="" /><path d="M 909.1 339.6 L 909.1 382.8 L 994.4 382.8" id="48,44" style="" /><path d="M 994.4 178.1 L 994.4 158.1 L 1079.7 158.1" id="47,45" style="" /><path d="M 994.4 178.1 L 994.4 78.2 L 1079.7 78.2" id="47,46" style="" /><path d="M 909.1 339.6 L 909.1 178.1 L 994.4 178.1" id="48,47" style="" /><path d="M 55.8 713.1 L 55.8 339.6 L 909.1 339.6" id="49,48" style="" /></g><g class="toytree-AlignEdges" style="stroke:rgb(66.0%,66.0%,66.0%);stroke-opacity:0.75;stroke-dasharray:2,4;stroke-linecap:round;stroke-width:2"><path d="M 1762.3 1176.7 L 994.4 1176.7" /><path d="M 1762.3 1136.8 L 1421.0 1136.8" /><path d="M 1762.3 1096.8 L 1421.0 1096.8" /><path d="M 1762.3 1056.9 L 1165.1 1056.9" /><path d="M 1762.3 1016.9 L 1165.1 1016.9" /><path d="M 1762.3 977.0 L 1165.1 977.0" /><path d="M 1762.3 937.1 L 1165.1 937.1" /><path d="M 1762.3 897.1 L 1677.0 897.1" /><path d="M 1762.3 857.2 L 1677.0 857.2" /><path d="M 1762.3 817.2 L 1079.7 817.2" /><path d="M 1762.3 777.3 L 1250.4 777.3" /><path d="M 1762.3 737.3 L 1250.4 737.3" /><path d="M 1762.3 697.4 L 1079.7 697.4" /><path d="M 1762.3 657.4 L 1421.0 657.4" /><path d="M 1762.3 617.5 L 1421.0 617.5" /><path d="M 1762.3 577.6 L 1165.1 577.6" /><path d="M 1762.3 537.6 L 1250.4 537.6" /><path d="M 1762.3 497.7 L 1250.4 497.7" /><path d="M 1762.3 457.7 L 994.4 457.7" /><path d="M 1762.3 417.8 L 1250.4 417.8" /><path d="M 1762.3 377.8 L 1335.7 377.8" /><path d="M 1762.3 337.9 L 1762.3 337.9" /><path d="M 1762.3 297.9 L 1762.3 297.9" /><path d="M 1762.3 258.0 L 1079.7 258.0" /><path d="M 1762.3 218.1 L 1079.7 218.1" /><path d="M 1762.3 178.1 L 1250.4 178.1" /><path d="M 1762.3 138.2 L 1250.4 138.2" /><path d="M 1762.3 98.2 L 1165.1 98.2" /><path d="M 1762.3 58.3 L 1165.1 58.3" /></g><g class="toytree-AdmixEdges" style="fill:rgb(0.0%,0.0%,0.0%);fill-opacity:0.0;stroke:rgb(90.6%,54.1%,76.5%);stroke-opacity:0.6;font-size:14px;stroke-linecap:round;stroke-width:5" /><g class="toytree-Nodes" style="fill:rgb(0.0%,0.0%,0.0%);fill-opacity:1.0;stroke:none;stroke-width:1.5"><g id="Node-29" transform="translate(994.41,1116.81)"><rect x="-5.0" y="-2.5" width="10.0" height="5.0" /></g><g id="Node-30" transform="translate(1079.73,1036.92)"><rect x="-5.0" y="-2.5" width="10.0" height="5.0" /></g><g id="Node-31" transform="translate(1165.06,877.139)"><rect x="-5.0" y="-2.5" width="10.0" height="5.0" /></g><g id="Node-32" transform="translate(1079.73,930.398)"><rect x="-5.0" y="-2.5" width="10.0" height="5.0" /></g><g id="Node-33" transform="translate(994.41,983.658)"><rect x="-5.0" y="-2.5" width="10.0" height="5.0" /></g><g id="Node-34" transform="translate(909.085,1092.4)"><rect x="-5.0" y="-2.5" width="10.0" height="5.0" /></g><g id="Node-35" transform="translate(1079.73,757.306)"><rect x="-5.0" y="-2.5" width="10.0" height="5.0" /></g><g id="Node-36" transform="translate(994.41,787.264)"><rect x="-5.0" y="-2.5" width="10.0" height="5.0" /></g><g id="Node-37" transform="translate(1079.73,637.472)"><rect x="-5.0" y="-2.5" width="10.0" height="5.0" /></g><g id="Node-38" transform="translate(1165.06,517.639)"><rect x="-5.0" y="-2.5" width="10.0" height="5.0" /></g><g id="Node-39" transform="translate(1079.73,547.597)"><rect x="-5.0" y="-2.5" width="10.0" height="5.0" /></g><g id="Node-40" transform="translate(994.41,627.486)"><rect x="-5.0" y="-2.5" width="10.0" height="5.0" /></g><g id="Node-41" transform="translate(909.085,707.375)"><rect x="-5.0" y="-2.5" width="10.0" height="5.0" /></g><g id="Node-42" transform="translate(1335.71,317.917)"><rect x="-5.0" y="-2.5" width="10.0" height="5.0" /></g><g id="Node-43" transform="translate(1250.38,347.875)"><rect x="-5.0" y="-2.5" width="10.0" height="5.0" /></g><g id="Node-44" transform="translate(994.41,382.826)"><rect x="-5.0" y="-2.5" width="10.0" height="5.0" /></g><g id="Node-45" transform="translate(1079.73,158.139)"><rect x="-5.0" y="-2.5" width="10.0" height="5.0" /></g><g id="Node-46" transform="translate(1079.73,78.2497)"><rect x="-5.0" y="-2.5" width="10.0" height="5.0" /></g><g id="Node-47" transform="translate(994.41,178.111)"><rect x="-5.0" y="-2.5" width="10.0" height="5.0" /></g><g id="Node-48" transform="translate(909.085,339.553)"><rect x="-5.0" y="-2.5" width="10.0" height="5.0" /></g><g id="Node-49" transform="translate(55.838,713.108)"><rect x="-5.0" y="-2.5" width="10.0" height="5.0" /></g></g><g class="toytree-NodeLabels" style="font-family:Helvetica;font-size:9px;font-weight:300;vertical-align:baseline;white-space:pre;stroke:none"><g class="toytree-NodeLabel" transform="translate(994.41,1116.81)" /><g class="toytree-NodeLabel" transform="translate(1079.73,1036.92)" /><g class="toytree-NodeLabel" transform="translate(1165.06,877.139)" /><g class="toytree-NodeLabel" transform="translate(1079.73,930.398)" /><g class="toytree-NodeLabel" transform="translate(994.41,983.658)" /><g class="toytree-NodeLabel" transform="translate(909.085,1092.4)" /><g class="toytree-NodeLabel" transform="translate(1079.73,757.306)" /><g class="toytree-NodeLabel" transform="translate(994.41,787.264)" /><g class="toytree-NodeLabel" transform="translate(1079.73,637.472)" /><g class="toytree-NodeLabel" transform="translate(1165.06,517.639)" /><g class="toytree-NodeLabel" transform="translate(1079.73,547.597)" /><g class="toytree-NodeLabel" transform="translate(994.41,627.486)" /><g class="toytree-NodeLabel" transform="translate(909.085,707.375)" /><g class="toytree-NodeLabel" transform="translate(1335.71,317.917)" /><g class="toytree-NodeLabel" transform="translate(1250.38,347.875)" /><g class="toytree-NodeLabel" transform="translate(994.41,382.826)" /><g class="toytree-NodeLabel" transform="translate(1079.73,158.139)" /><g class="toytree-NodeLabel" transform="translate(1079.73,78.2497)" /><g class="toytree-NodeLabel" transform="translate(994.41,178.111)" /><g class="toytree-NodeLabel" transform="translate(909.085,339.553)" /><g class="toytree-NodeLabel" transform="translate(55.838,713.108)" /></g><g class="toytree-TipLabels" style="fill:rgb(14.5%,14.5%,14.5%);fill-opacity:1.0;font-family:Helvetica;font-size:14px;font-weight:300;vertical-align:baseline;white-space:pre;stroke:none"><g class="toytree-TipLabel" transform="translate(1762.33,1176.72)"><text x="15.0" y="3.577" style="fill:rgb(14.5%,14.5%,14.5%);fill-opacity:1.0">Arawete</text></g><g class="toytree-TipLabel" transform="translate(1762.33,1136.78)"><text x="15.0" y="3.577" style="fill:rgb(14.5%,14.5%,14.5%);fill-opacity:1.0">Aweti</text></g><g class="toytree-TipLabel" transform="translate(1762.33,1096.83)"><text x="15.0" y="3.577" style="fill:rgb(14.5%,14.5%,14.5%);fill-opacity:1.0">Mawe</text></g><g class="toytree-TipLabel" transform="translate(1762.33,1056.89)"><text x="15.0" y="3.577" style="fill:rgb(14.5%,14.5%,14.5%);fill-opacity:1.0">Kamajura</text></g><g class="toytree-TipLabel" transform="translate(1762.33,1016.94)"><text x="15.0" y="3.577" style="fill:rgb(14.5%,14.5%,14.5%);fill-opacity:1.0">Tapirape</text></g><g class="toytree-TipLabel" transform="translate(1762.33,977)"><text x="15.0" y="3.577" style="fill:rgb(14.5%,14.5%,14.5%);fill-opacity:1.0">Apiaka</text></g><g class="toytree-TipLabel" transform="translate(1762.33,937.056)"><text x="15.0" y="3.577" style="fill:rgb(14.5%,14.5%,14.5%);fill-opacity:1.0">Kayabi</text></g><g class="toytree-TipLabel" transform="translate(1762.33,897.111)"><text x="15.0" y="3.577" style="fill:rgb(14.5%,14.5%,14.5%);fill-opacity:1.0">Amondawa</text></g><g class="toytree-TipLabel" transform="translate(1762.33,857.167)"><text x="15.0" y="3.577" style="fill:rgb(14.5%,14.5%,14.5%);fill-opacity:1.0">Urueuwauwau</text></g><g class="toytree-TipLabel" transform="translate(1762.33,817.222)"><text x="15.0" y="3.577" style="fill:rgb(14.5%,14.5%,14.5%);fill-opacity:1.0">Zoe</text></g><g class="toytree-TipLabel" transform="translate(1762.33,777.278)"><text x="15.0" y="3.577" style="fill:rgb(14.5%,14.5%,14.5%);fill-opacity:1.0">Teko</text></g><g class="toytree-TipLabel" transform="translate(1762.33,737.333)"><text x="15.0" y="3.577" style="fill:rgb(14.5%,14.5%,14.5%);fill-opacity:1.0">Wayampi</text></g><g class="toytree-TipLabel" transform="translate(1762.33,697.389)"><text x="15.0" y="3.577" style="fill:rgb(14.5%,14.5%,14.5%);fill-opacity:1.0">Guaja</text></g><g class="toytree-TipLabel" transform="translate(1762.33,657.444)"><text x="15.0" y="3.577" style="fill:rgb(14.5%,14.5%,14.5%);fill-opacity:1.0">Guajajara</text></g><g class="toytree-TipLabel" transform="translate(1762.33,617.5)"><text x="15.0" y="3.577" style="fill:rgb(14.5%,14.5%,14.5%);fill-opacity:1.0">Tembe</text></g><g class="toytree-TipLabel" transform="translate(1762.33,577.556)"><text x="15.0" y="3.577" style="fill:rgb(14.5%,14.5%,14.5%);fill-opacity:1.0">Kaapor</text></g><g class="toytree-TipLabel" transform="translate(1762.33,537.611)"><text x="15.0" y="3.577" style="fill:rgb(14.5%,14.5%,14.5%);fill-opacity:1.0">Nheengatu</text></g><g class="toytree-TipLabel" transform="translate(1762.33,497.667)"><text x="15.0" y="3.577" style="fill:rgb(14.5%,14.5%,14.5%);fill-opacity:1.0">Tupinamba</text></g><g class="toytree-TipLabel" transform="translate(1762.33,457.722)"><text x="15.0" y="3.577" style="fill:rgb(14.5%,14.5%,14.5%);fill-opacity:1.0">Warazu</text></g><g class="toytree-TipLabel" transform="translate(1762.33,417.778)"><text x="15.0" y="3.577" style="fill:rgb(14.5%,14.5%,14.5%);fill-opacity:1.0">Xeta</text></g><g class="toytree-TipLabel" transform="translate(1762.33,377.833)"><text x="15.0" y="3.577" style="fill:rgb(14.5%,14.5%,14.5%);fill-opacity:1.0">Ache</text></g><g class="toytree-TipLabel" transform="translate(1762.33,337.889)"><text x="15.0" y="3.577" style="fill:rgb(14.5%,14.5%,14.5%);fill-opacity:1.0">Siriono</text></g><g class="toytree-TipLabel" transform="translate(1762.33,297.944)"><text x="15.0" y="3.577" style="fill:rgb(14.5%,14.5%,14.5%);fill-opacity:1.0">Yuki</text></g><g class="toytree-TipLabel" transform="translate(1762.33,258)"><text x="15.0" y="3.577" style="fill:rgb(14.5%,14.5%,14.5%);fill-opacity:1.0">Guarayo</text></g><g class="toytree-TipLabel" transform="translate(1762.33,218.055)"><text x="15.0" y="3.577" style="fill:rgb(14.5%,14.5%,14.5%);fill-opacity:1.0">Kaiowa</text></g><g class="toytree-TipLabel" transform="translate(1762.33,178.111)"><text x="15.0" y="3.577" style="fill:rgb(14.5%,14.5%,14.5%);fill-opacity:1.0">Chiriguano</text></g><g class="toytree-TipLabel" transform="translate(1762.33,138.166)"><text x="15.0" y="3.577" style="fill:rgb(14.5%,14.5%,14.5%);fill-opacity:1.0">Tapiete</text></g><g class="toytree-TipLabel" transform="translate(1762.33,98.2219)"><text x="15.0" y="3.577" style="fill:rgb(14.5%,14.5%,14.5%);fill-opacity:1.0">Guarani</text></g><g class="toytree-TipLabel" transform="translate(1762.33,58.2775)"><text x="15.0" y="3.577" style="fill:rgb(14.5%,14.5%,14.5%);fill-opacity:1.0">Mbya</text></g></g></g></g></g></svg>