<svg class="toyplot-canvas-Canvas" xmlns:toyplot="http://www.sandia.gov/toyplot" xmlns:xlink="http://www.w3.org/1999/xlink" xmlns="http://www.w3.org/2000/svg" width="2000.0px" height="2000.0px" viewBox="0 0 2000.0 2000.0" preserveAspectRatio="xMidYMid meet" style="background-color:transparent;border-color:#292724;border-style:none;border-width:1.0;fill:rgb(16.1%,15.3%,14.1%);fill-opacity:1.0;font-family:Helvetica;font-size:12px;opacity:1.0;stroke:rgb(16.1%,15.3%,14.1%);stroke-opacity:1.0;stroke-width:1.0" id="t940a1f4f766c48bd91691df36ea8cb41"><g class="toyplot-coordinates-Cartesian" id="t3c555cd6cc914ec1b68e9c924d3239b5"><clipPath id="te386a9d8789d46079dffd635852d62d2"><rect x="35.0" y="35.0" width="1930.0" height="1930.0" /></clipPath><g clip-path="url(#te386a9d8789d46079dffd635852d62d2)"><g class="toytree-mark-Toytree" id="tfb76afde909d43638f1bd1bf1ce5ec8e"><g class="toytree-Edges" style="stroke:rgb(14.5%,14.5%,14.5%);stroke-opacity:1.0;stroke-linecap:round;stroke-width:2;fill:none"><path d="M 88.7 671.1 L 58.3 722.6" id="32,0" style="" /><path d="M 88.7 671.1 L 119.1 722.6" id="32,1" style="" /><path d="M 236.8 671.1 L 179.8 722.6" id="36,2" style="" /><path d="M 293.7 722.6 L 240.6 877.0" id="35,3" style="" /><path d="M 346.9 877.0 L 301.3 928.5" id="34,4" style="" /><path d="M 392.5 928.5 L 362.1 1237.3" id="33,5" style="" /><path d="M 392.5 928.5 L 422.8 1237.3" id="33,6" style="" /><path d="M 529.2 619.7 L 483.6 722.6" id="39,7" style="" /><path d="M 574.7 722.6 L 544.4 825.5" id="38,8" style="" /><path d="M 574.7 722.6 L 605.1 825.5" id="38,9" style="" /><path d="M 832.9 619.7 L 665.9 671.1" id="44,10" style="" /><path d="M 757.0 671.1 L 726.6 928.5" id="40,11" style="" /><path d="M 757.0 671.1 L 787.4 928.5" id="40,12" style="" /><path d="M 878.5 671.1 L 848.1 774.1" id="41,13" style="" /><path d="M 878.5 671.1 L 908.9 774.1" id="41,14" style="" /><path d="M 1030.4 671.1 L 969.6 722.6" id="43,15" style="" /><path d="M 1091.1 722.6 L 1030.4 825.5" id="42,16" style="" /><path d="M 1091.1 722.6 L 1091.1 825.5" id="42,17" style="" /><path d="M 1091.1 722.6 L 1151.9 825.5" id="42,18" style="" /><path d="M 1345.5 568.2 L 1212.6 619.7" id="54,19" style="" /><path d="M 1478.4 619.7 L 1273.4 671.1" id="53,20" style="" /><path d="M 1478.4 619.7 L 1334.1 671.1" id="53,21" style="" /><path d="M 1425.3 671.1 L 1394.9 825.5" id="46,22" style="" /><path d="M 1425.3 671.1 L 1455.6 825.5" id="46,23" style="" /><path d="M 1562.0 671.1 L 1516.4 722.6" id="48,24" style="" /><path d="M 1607.5 722.6 L 1577.2 1751.9" id="47,25" style="" /><path d="M 1607.5 722.6 L 1637.9 1751.9" id="47,26" style="" /><path d="M 1729.0 722.6 L 1698.7 1134.3" id="49,27" style="" /><path d="M 1729.0 722.6 L 1759.4 1134.3" id="49,28" style="" /><path d="M 1865.7 722.6 L 1820.2 825.5" id="51,29" style="" /><path d="M 1911.3 825.5 L 1880.9 877.0" id="50,30" style="" /><path d="M 1911.3 825.5 L 1941.7 877.0" id="50,31" style="" /><path d="M 162.7 568.2 L 88.7 671.1" id="37,32" style="" /><path d="M 346.9 877.0 L 392.5 928.5" id="34,33" style="" /><path d="M 293.7 722.6 L 346.9 877.0" id="35,34" style="" /><path d="M 236.8 671.1 L 293.7 722.6" id="36,35" style="" /><path d="M 162.7 568.2 L 236.8 671.1" id="37,36" style="" /><path d="M 729.8 53.6 L 162.7 568.2" id="55,37" style="" /><path d="M 529.2 619.7 L 574.7 722.6" id="39,38" style="" /><path d="M 681.0 568.2 L 529.2 619.7" id="45,39" style="" /><path d="M 832.9 619.7 L 757.0 671.1" id="44,40" style="" /><path d="M 832.9 619.7 L 878.5 671.1" id="44,41" style="" /><path d="M 1030.4 671.1 L 1091.1 722.6" id="43,42" style="" /><path d="M 832.9 619.7 L 1030.4 671.1" id="44,43" style="" /><path d="M 681.0 568.2 L 832.9 619.7" id="45,44" style="" /><path d="M 729.8 53.6 L 681.0 568.2" id="55,45" style="" /><path d="M 1478.4 619.7 L 1425.3 671.1" id="53,46" style="" /><path d="M 1562.0 671.1 L 1607.5 722.6" id="48,47" style="" /><path d="M 1478.4 619.7 L 1562.0 671.1" id="53,48" style="" /><path d="M 1797.4 671.1 L 1729.0 722.6" id="52,49" style="" /><path d="M 1865.7 722.6 L 1911.3 825.5" id="51,50" style="" /><path d="M 1797.4 671.1 L 1865.7 722.6" id="52,51" style="" /><path d="M 1478.4 619.7 L 1797.4 671.1" id="53,52" style="" /><path d="M 1345.5 568.2 L 1478.4 619.7" id="54,53" style="" /><path d="M 729.8 53.6 L 1345.5 568.2" id="55,54" style="" /></g><g class="toytree-AlignEdges" style="stroke:rgb(66.0%,66.0%,66.0%);stroke-opacity:0.75;stroke-dasharray:2,4;stroke-linecap:round;stroke-width:2"><path d="M 58.3 1751.9 L 58.3 722.6" /><path d="M 119.1 1751.9 L 119.1 722.6" /><path d="M 179.8 1751.9 L 179.8 722.6" /><path d="M 240.6 1751.9 L 240.6 877.0" /><path d="M 301.3 1751.9 L 301.3 928.5" /><path d="M 362.1 1751.9 L 362.1 1237.3" /><path d="M 422.8 1751.9 L 422.8 1237.3" /><path d="M 483.6 1751.9 L 483.6 722.6" /><path d="M 544.4 1751.9 L 544.4 825.5" /><path d="M 605.1 1751.9 L 605.1 825.5" /><path d="M 665.9 1751.9 L 665.9 671.1" /><path d="M 726.6 1751.9 L 726.6 928.5" /><path d="M 787.4 1751.9 L 787.4 928.5" /><path d="M 848.1 1751.9 L 848.1 774.1" /><path d="M 908.9 1751.9 L 908.9 774.1" /><path d="M 969.6 1751.9 L 969.6 722.6" /><path d="M 1030.4 1751.9 L 1030.4 825.5" /><path d="M 1091.1 1751.9 L 1091.1 825.5" /><path d="M 1151.9 1751.9 L 1151.9 825.5" /><path d="M 1212.6 1751.9 L 1212.6 619.7" /><path d="M 1273.4 1751.9 L 1273.4 671.1" /><path d="M 1334.1 1751.9 L 1334.1 671.1" /><path d="M 1394.9 1751.9 L 1394.9 825.5" /><path d="M 1455.6 1751.9 L 1455.6 825.5" /><path d="M 1516.4 1751.9 L 1516.4 722.6" /><path d="M 1577.2 1751.9 L 1577.2 1751.9" /><path d="M 1637.9 1751.9 L 1637.9 1751.9" /><path d="M 1698.7 1751.9 L 1698.7 1134.3" /><path d="M 1759.4 1751.9 L 1759.4 1134.3" /><path d="M 1820.2 1751.9 L 1820.2 825.5" /><path d="M 1880.9 1751.9 L 1880.9 877.0" /><path d="M 1941.7 1751.9 L 1941.7 877.0" /></g><g class="toytree-AdmixEdges" style="fill:rgb(0.0%,0.0%,0.0%);fill-opacity:0.0;stroke:rgb(90.6%,54.1%,76.5%);stroke-opacity:0.6;font-size:14px;stroke-linecap:round;stroke-width:5" /><g class="toytree-Nodes" style="fill:rgb(0.0%,0.0%,0.0%);fill-opacity:1.0;stroke:none;stroke-width:1.5"><g id="Node-0" transform="translate(58.3264,722.612)"><circle r="2.5" /></g><g id="Node-1" transform="translate(119.08,722.612)"><circle r="2.5" /></g><g id="Node-2" transform="translate(179.833,722.612)"><circle r="2.5" /></g><g id="Node-3" transform="translate(240.586,877.006)"><circle r="2.5" /></g><g id="Node-4" transform="translate(301.339,928.47)"><circle r="2.5" /></g><g id="Node-5" transform="translate(362.092,1237.26)"><circle r="2.5" /></g><g id="Node-6" transform="translate(422.845,1237.26)"><circle r="2.5" /></g><g id="Node-7" transform="translate(483.598,722.612)"><circle r="2.5" /></g><g id="Node-8" transform="translate(544.351,825.541)"><circle r="2.5" /></g><g id="Node-9" transform="translate(605.105,825.541)"><circle r="2.5" /></g><g id="Node-10" transform="translate(665.858,671.148)"><circle r="2.5" /></g><g id="Node-11" transform="translate(726.611,928.47)"><circle r="2.5" /></g><g id="Node-12" transform="translate(787.364,928.47)"><circle r="2.5" /></g><g id="Node-13" transform="translate(848.117,774.077)"><circle r="2.5" /></g><g id="Node-14" transform="translate(908.87,774.077)"><circle r="2.5" /></g><g id="Node-15" transform="translate(969.623,722.612)"><circle r="2.5" /></g><g id="Node-16" transform="translate(1030.38,825.541)"><circle r="2.5" /></g><g id="Node-17" transform="translate(1091.13,825.541)"><circle r="2.5" /></g><g id="Node-18" transform="translate(1151.88,825.541)"><circle r="2.5" /></g><g id="Node-19" transform="translate(1212.64,619.684)"><circle r="2.5" /></g><g id="Node-20" transform="translate(1273.39,671.148)"><circle r="2.5" /></g><g id="Node-21" transform="translate(1334.14,671.148)"><circle r="2.5" /></g><g id="Node-22" transform="translate(1394.9,825.541)"><circle r="2.5" /></g><g id="Node-23" transform="translate(1455.65,825.541)"><circle r="2.5" /></g><g id="Node-24" transform="translate(1516.4,722.612)"><circle r="2.5" /></g><g id="Node-25" transform="translate(1577.15,1751.9)"><circle r="2.5" /></g><g id="Node-26" transform="translate(1637.91,1751.9)"><circle r="2.5" /></g><g id="Node-27" transform="translate(1698.66,1134.33)"><circle r="2.5" /></g><g id="Node-28" transform="translate(1759.41,1134.33)"><circle r="2.5" /></g><g id="Node-29" transform="translate(1820.17,825.541)"><circle r="2.5" /></g><g id="Node-30" transform="translate(1880.92,877.006)"><circle r="2.5" /></g><g id="Node-31" transform="translate(1941.67,877.006)"><circle r="2.5" /></g><g id="Node-32" transform="translate(88.7029,671.148)"><circle r="2.5" /></g><g id="Node-33" transform="translate(392.469,928.47)"><circle r="2.5" /></g><g id="Node-34" transform="translate(346.904,877.006)"><circle r="2.5" /></g><g id="Node-35" transform="translate(293.745,722.612)"><circle r="2.5" /></g><g id="Node-36" transform="translate(236.789,671.148)"><circle r="2.5" /></g><g id="Node-37" transform="translate(162.746,568.219)"><circle r="2.5" /></g><g id="Node-38" transform="translate(574.728,722.612)"><circle r="2.5" /></g><g id="Node-39" transform="translate(529.163,619.684)"><circle r="2.5" /></g><g id="Node-40" transform="translate(756.987,671.148)"><circle r="2.5" /></g><g id="Node-41" transform="translate(878.494,671.148)"><circle r="2.5" /></g><g id="Node-42" transform="translate(1091.13,722.612)"><circle r="2.5" /></g><g id="Node-43" transform="translate(1030.38,671.148)"><circle r="2.5" /></g><g id="Node-44" transform="translate(832.929,619.684)"><circle r="2.5" /></g><g id="Node-45" transform="translate(681.046,568.219)"><circle r="2.5" /></g><g id="Node-46" transform="translate(1425.27,671.148)"><circle r="2.5" /></g><g id="Node-47" transform="translate(1607.53,722.612)"><circle r="2.5" /></g><g id="Node-48" transform="translate(1561.97,671.148)"><circle r="2.5" /></g><g id="Node-49" transform="translate(1729.04,722.612)"><circle r="2.5" /></g><g id="Node-50" transform="translate(1911.3,825.541)"><circle r="2.5" /></g><g id="Node-51" transform="translate(1865.73,722.612)"><circle r="2.5" /></g><g id="Node-52" transform="translate(1797.38,671.148)"><circle r="2.5" /></g><g id="Node-53" transform="translate(1478.43,619.684)"><circle r="2.5" /></g><g id="Node-54" transform="translate(1345.53,568.219)"><circle r="2.5" /></g><g id="Node-55" transform="translate(729.775,53.5754)"><circle r="2.5" /></g></g><g class="toytree-TipLabels" style="fill:rgb(14.5%,14.5%,14.5%);fill-opacity:1.0;font-family:Helvetica;font-size:14px;font-weight:300;vertical-align:baseline;white-space:pre;stroke:none"><g class="toytree-TipLabel" transform="translate(58.3264,1751.9)rotate(90)"><text x="12.0" y="3.577" style="fill:rgb(14.5%,14.5%,14.5%);fill-opacity:1.0">Chuvash</text></g><g class="toytree-TipLabel" transform="translate(119.08,1751.9)rotate(90)"><text x="12.0" y="3.577" style="fill:rgb(14.5%,14.5%,14.5%);fill-opacity:1.0">Khalaj</text></g><g class="toytree-TipLabel" transform="translate(179.833,1751.9)rotate(90)"><text x="12.0" y="3.577" style="fill:rgb(14.5%,14.5%,14.5%);fill-opacity:1.0">Turkmen</text></g><g class="toytree-TipLabel" transform="translate(240.586,1751.9)rotate(90)"><text x="12.0" y="3.577" style="fill:rgb(14.5%,14.5%,14.5%);fill-opacity:1.0">CrimeanTatar</text></g><g class="toytree-TipLabel" transform="translate(301.339,1751.9)rotate(90)"><text x="12.0" y="3.577" style="fill:rgb(14.5%,14.5%,14.5%);fill-opacity:1.0">Azeri</text></g><g class="toytree-TipLabel" transform="translate(362.092,1751.9)rotate(90)"><text x="12.0" y="3.577" style="fill:rgb(14.5%,14.5%,14.5%);fill-opacity:1.0">Gagauz</text></g><g class="toytree-TipLabel" transform="translate(422.845,1751.9)rotate(90)"><text x="12.0" y="3.577" style="fill:rgb(14.5%,14.5%,14.5%);fill-opacity:1.0">Turkish</text></g><g class="toytree-TipLabel" transform="translate(483.598,1751.9)rotate(90)"><text x="12.0" y="3.577" style="fill:rgb(14.5%,14.5%,14.5%);fill-opacity:1.0">Karaim</text></g><g class="toytree-TipLabel" transform="translate(544.351,1751.9)rotate(90)"><text x="12.0" y="3.577" style="fill:rgb(14.5%,14.5%,14.5%);fill-opacity:1.0">KarachayBalkar</text></g><g class="toytree-TipLabel" transform="translate(605.105,1751.9)rotate(90)"><text x="12.0" y="3.577" style="fill:rgb(14.5%,14.5%,14.5%);fill-opacity:1.0">Kumyk</text></g><g class="toytree-TipLabel" transform="translate(665.858,1751.9)rotate(90)"><text x="12.0" y="3.577" style="fill:rgb(14.5%,14.5%,14.5%);fill-opacity:1.0">BarabaTatar</text></g><g class="toytree-TipLabel" transform="translate(726.611,1751.9)rotate(90)"><text x="12.0" y="3.577" style="fill:rgb(14.5%,14.5%,14.5%);fill-opacity:1.0">Bashkir</text></g><g class="toytree-TipLabel" transform="translate(787.364,1751.9)rotate(90)"><text x="12.0" y="3.577" style="fill:rgb(14.5%,14.5%,14.5%);fill-opacity:1.0">KazanTatar</text></g><g class="toytree-TipLabel" transform="translate(848.117,1751.9)rotate(90)"><text x="12.0" y="3.577" style="fill:rgb(14.5%,14.5%,14.5%);fill-opacity:1.0">Uyghur</text></g><g class="toytree-TipLabel" transform="translate(908.87,1751.9)rotate(90)"><text x="12.0" y="3.577" style="fill:rgb(14.5%,14.5%,14.5%);fill-opacity:1.0">Uzbek</text></g><g class="toytree-TipLabel" transform="translate(969.623,1751.9)rotate(90)"><text x="12.0" y="3.577" style="fill:rgb(14.5%,14.5%,14.5%);fill-opacity:1.0">Nogai</text></g><g class="toytree-TipLabel" transform="translate(1030.38,1751.9)rotate(90)"><text x="12.0" y="3.577" style="fill:rgb(14.5%,14.5%,14.5%);fill-opacity:1.0">Karakalpak</text></g><g class="toytree-TipLabel" transform="translate(1091.13,1751.9)rotate(90)"><text x="12.0" y="3.577" style="fill:rgb(14.5%,14.5%,14.5%);fill-opacity:1.0">Kazakh</text></g><g class="toytree-TipLabel" transform="translate(1151.88,1751.9)rotate(90)"><text x="12.0" y="3.577" style="fill:rgb(14.5%,14.5%,14.5%);fill-opacity:1.0">Kirghiz</text></g><g class="toytree-TipLabel" transform="translate(1212.64,1751.9)rotate(90)"><text x="12.0" y="3.577" style="fill:rgb(14.5%,14.5%,14.5%);fill-opacity:1.0">Salar</text></g><g class="toytree-TipLabel" transform="translate(1273.39,1751.9)rotate(90)"><text x="12.0" y="3.577" style="fill:rgb(14.5%,14.5%,14.5%);fill-opacity:1.0">Cuman</text></g><g class="toytree-TipLabel" transform="translate(1334.14,1751.9)rotate(90)"><text x="12.0" y="3.577" style="fill:rgb(14.5%,14.5%,14.5%);fill-opacity:1.0">SarygYugur</text></g><g class="toytree-TipLabel" transform="translate(1394.9,1751.9)rotate(90)"><text x="12.0" y="3.577" style="fill:rgb(14.5%,14.5%,14.5%);fill-opacity:1.0">NorthAltay</text></g><g class="toytree-TipLabel" transform="translate(1455.65,1751.9)rotate(90)"><text x="12.0" y="3.577" style="fill:rgb(14.5%,14.5%,14.5%);fill-opacity:1.0">SouthAltay</text></g><g class="toytree-TipLabel" transform="translate(1516.4,1751.9)rotate(90)"><text x="12.0" y="3.577" style="fill:rgb(14.5%,14.5%,14.5%);fill-opacity:1.0">OldTurkic</text></g><g class="toytree-TipLabel" transform="translate(1577.15,1751.9)rotate(90)"><text x="12.0" y="3.577" style="fill:rgb(14.5%,14.5%,14.5%);fill-opacity:1.0">Dolgan</text></g><g class="toytree-TipLabel" transform="translate(1637.91,1751.9)rotate(90)"><text x="12.0" y="3.577" style="fill:rgb(14.5%,14.5%,14.5%);fill-opacity:1.0">Yakut</text></g><g class="toytree-TipLabel" transform="translate(1698.66,1751.9)rotate(90)"><text x="12.0" y="3.577" style="fill:rgb(14.5%,14.5%,14.5%);fill-opacity:1.0">Tofa</text></g><g class="toytree-TipLabel" transform="translate(1759.41,1751.9)rotate(90)"><text x="12.0" y="3.577" style="fill:rgb(14.5%,14.5%,14.5%);fill-opacity:1.0">Tuvan</text></g><g class="toytree-TipLabel" transform="translate(1820.17,1751.9)rotate(90)"><text x="12.0" y="3.577" style="fill:rgb(14.5%,14.5%,14.5%);fill-opacity:1.0">MiddleChulym</text></g><g class="toytree-TipLabel" transform="translate(1880.92,1751.9)rotate(90)"><text x="12.0" y="3.577" style="fill:rgb(14.5%,14.5%,14.5%);fill-opacity:1.0">Khakas</text></g><g class="toytree-TipLabel" transform="translate(1941.67,1751.9)rotate(90)"><text x="12.0" y="3.577" style="fill:rgb(14.5%,14.5%,14.5%);fill-opacity:1.0">Shor</text></g></g></g></g><g class="toyplot-coordinates-Axis" id="t9035f371624c4405ba535d50f7384f2d" transform="translate(50.0,1950.0)rotate(-90.0)translate(0,-15.0)"><line x1="198.09975800047403" y1="0" x2="1896.4245793235302" y2="0" style="" /><g><line x1="198.09975800047403" y1="0" x2="198.09975800047403" y2="5" style="" /><line x1="249.56414652541508" y1="0" x2="249.56414652541508" y2="5" style="" /><line x1="301.02853505035625" y1="0" x2="301.02853505035625" y2="5" style="" /><line x1="352.49292357529737" y1="0" x2="352.49292357529737" y2="5" style="" /><line x1="403.9573121002384" y1="0" x2="403.9573121002384" y2="5" style="" /><line x1="455.4217006251795" y1="0" x2="455.4217006251795" y2="5" style="" /><line x1="506.88608915012065" y1="0" x2="506.88608915012065" y2="5" style="" /><line x1="558.3504776750617" y1="0" x2="558.3504776750617" y2="5" style="" /><line x1="609.8148662000027" y1="0" x2="609.8148662000027" y2="5" style="" /><line x1="661.2792547249439" y1="0" x2="661.2792547249439" y2="5" style="" /><line x1="712.7436432498849" y1="0" x2="712.7436432498849" y2="5" style="" /><line x1="764.2080317748262" y1="0" x2="764.2080317748262" y2="5" style="" /><line x1="815.6724202997672" y1="0" x2="815.6724202997672" y2="5" style="" /><line x1="867.1368088247082" y1="0" x2="867.1368088247082" y2="5" style="" /><line x1="918.6011973496493" y1="0" x2="918.6011973496493" y2="5" style="" /><line x1="970.0655858745905" y1="0" x2="970.0655858745905" y2="5" style="" /><line x1="1021.5299743995316" y1="0" x2="1021.5299743995316" y2="5" style="" /><line x1="1072.9943629244726" y1="0" x2="1072.9943629244726" y2="5" style="" /><line x1="1124.4587514494135" y1="0" x2="1124.4587514494135" y2="5" style="" /><line x1="1175.9231399743549" y1="0" x2="1175.9231399743549" y2="5" style="" /><line x1="1227.387528499296" y1="0" x2="1227.387528499296" y2="5" style="" /><line x1="1278.851917024237" y1="0" x2="1278.851917024237" y2="5" style="" /><line x1="1330.3163055491782" y1="0" x2="1330.3163055491782" y2="5" style="" /><line x1="1381.7806940741193" y1="0" x2="1381.7806940741193" y2="5" style="" /><line x1="1433.2450825990604" y1="0" x2="1433.2450825990604" y2="5" style="" /><line x1="1484.7094711240013" y1="0" x2="1484.7094711240013" y2="5" style="" /><line x1="1536.1738596489427" y1="0" x2="1536.1738596489427" y2="5" style="" /><line x1="1587.6382481738835" y1="0" x2="1587.6382481738835" y2="5" style="" /><line x1="1639.1026366988247" y1="0" x2="1639.1026366988247" y2="5" style="" /><line x1="1690.5670252237658" y1="0" x2="1690.5670252237658" y2="5" style="" /><line x1="1742.0314137487069" y1="0" x2="1742.0314137487069" y2="5" style="" /><line x1="1793.495802273648" y1="0" x2="1793.495802273648" y2="5" style="" /><line x1="1844.960190798589" y1="0" x2="1844.960190798589" y2="5" style="" /><line x1="1896.4245793235302" y1="0" x2="1896.4245793235302" y2="5" style="" /></g><g><g transform="translate(198.09975800047403,-6)"><text x="-2.78" y="-4.440892098500626e-16" style="fill:rgb(16.1%,15.3%,14.1%);fill-opacity:1.0;font-family:helvetica;font-size:10.0px;font-weight:normal;stroke:none;vertical-align:baseline;white-space:pre">0</text></g><g transform="translate(249.56414652541508,-6)"><text x="-6.95" y="-4.440892098500626e-16" style="fill:rgb(16.1%,15.3%,14.1%);fill-opacity:1.0;font-family:helvetica;font-size:10.0px;font-weight:normal;stroke:none;vertical-align:baseline;white-space:pre">0.1</text></g><g transform="translate(301.02853505035625,-6)"><text x="-6.95" y="-4.440892098500626e-16" style="fill:rgb(16.1%,15.3%,14.1%);fill-opacity:1.0;font-family:helvetica;font-size:10.0px;font-weight:normal;stroke:none;vertical-align:baseline;white-space:pre">0.2</text></g><g transform="translate(352.49292357529737,-6)"><text x="-6.95" y="-4.440892098500626e-16" style="fill:rgb(16.1%,15.3%,14.1%);fill-opacity:1.0;font-family:helvetica;font-size:10.0px;font-weight:normal;stroke:none;vertical-align:baseline;white-space:pre">0.3</text></g><g transform="translate(403.9573121002384,-6)"><text x="-6.95" y="-4.440892098500626e-16" style="fill:rgb(16.1%,15.3%,14.1%);fill-opacity:1.0;font-family:helvetica;font-size:10.0px;font-weight:normal;stroke:none;vertical-align:baseline;white-space:pre">0.4</text></g><g transform="translate(455.4217006251795,-6)"><text x="-6.95" y="-4.440892098500626e-16" style="fill:rgb(16.1%,15.3%,14.1%);fill-opacity:1.0;font-family:helvetica;font-size:10.0px;font-weight:normal;stroke:none;vertical-align:baseline;white-space:pre">0.5</text></g><g transform="translate(506.88608915012065,-6)"><text x="-6.95" y="-4.440892098500626e-16" style="fill:rgb(16.1%,15.3%,14.1%);fill-opacity:1.0;font-family:helvetica;font-size:10.0px;font-weight:normal;stroke:none;vertical-align:baseline;white-space:pre">0.6</text></g><g transform="translate(558.3504776750617,-6)"><text x="-6.95" y="-4.440892098500626e-16" style="fill:rgb(16.1%,15.3%,14.1%);fill-opacity:1.0;font-family:helvetica;font-size:10.0px;font-weight:normal;stroke:none;vertical-align:baseline;white-space:pre">0.7</text></g><g transform="translate(609.8148662000027,-6)"><text x="-6.95" y="-4.440892098500626e-16" style="fill:rgb(16.1%,15.3%,14.1%);fill-opacity:1.0;font-family:helvetica;font-size:10.0px;font-weight:normal;stroke:none;vertical-align:baseline;white-space:pre">0.8</text></g><g transform="translate(661.2792547249439,-6)"><text x="-6.95" y="-4.440892098500626e-16" style="fill:rgb(16.1%,15.3%,14.1%);fill-opacity:1.0;font-family:helvetica;font-size:10.0px;font-weight:normal;stroke:none;vertical-align:baseline;white-space:pre">0.9</text></g><g transform="translate(712.7436432498849,-6)"><text x="-2.78" y="-4.440892098500626e-16" style="fill:rgb(16.1%,15.3%,14.1%);fill-opacity:1.0;font-family:helvetica;font-size:10.0px;font-weight:normal;stroke:none;vertical-align:baseline;white-space:pre">1</text></g><g transform="translate(764.2080317748262,-6)"><text x="-6.95" y="-4.440892098500626e-16" style="fill:rgb(16.1%,15.3%,14.1%);fill-opacity:1.0;font-family:helvetica;font-size:10.0px;font-weight:normal;stroke:none;vertical-align:baseline;white-space:pre">1.1</text></g><g transform="translate(815.6724202997672,-6)"><text x="-6.95" y="-4.440892098500626e-16" style="fill:rgb(16.1%,15.3%,14.1%);fill-opacity:1.0;font-family:helvetica;font-size:10.0px;font-weight:normal;stroke:none;vertical-align:baseline;white-space:pre">1.2</text></g><g transform="translate(867.1368088247082,-6)"><text x="-6.95" y="-4.440892098500626e-16" style="fill:rgb(16.1%,15.3%,14.1%);fill-opacity:1.0;font-family:helvetica;font-size:10.0px;font-weight:normal;stroke:none;vertical-align:baseline;white-space:pre">1.3</text></g><g transform="translate(918.6011973496493,-6)"><text x="-6.95" y="-4.440892098500626e-16" style="fill:rgb(16.1%,15.3%,14.1%);fill-opacity:1.0;font-family:helvetica;font-size:10.0px;font-weight:normal;stroke:none;vertical-align:baseline;white-space:pre">1.4</text></g><g transform="translate(970.0655858745905,-6)"><text x="-6.95" y="-4.440892098500626e-16" style="fill:rgb(16.1%,15.3%,14.1%);fill-opacity:1.0;font-family:helvetica;font-size:10.0px;font-weight:normal;stroke:none;vertical-align:baseline;white-space:pre">1.5</text></g><g transform="translate(1021.5299743995316,-6)"><text x="-6.95" y="-4.440892098500626e-16" style="fill:rgb(16.1%,15.3%,14.1%);fill-opacity:1.0;font-family:helvetica;font-size:10.0px;font-weight:normal;stroke:none;vertical-align:baseline;white-space:pre">1.6</text></g><g transform="translate(1072.9943629244726,-6)"><text x="-6.95" y="-4.440892098500626e-16" style="fill:rgb(16.1%,15.3%,14.1%);fill-opacity:1.0;font-family:helvetica;font-size:10.0px;font-weight:normal;stroke:none;vertical-align:baseline;white-space:pre">1.7</text></g><g transform="translate(1124.4587514494135,-6)"><text x="-6.95" y="-4.440892098500626e-16" style="fill:rgb(16.1%,15.3%,14.1%);fill-opacity:1.0;font-family:helvetica;font-size:10.0px;font-weight:normal;stroke:none;vertical-align:baseline;white-space:pre">1.8</text></g><g transform="translate(1175.9231399743549,-6)"><text x="-6.95" y="-4.440892098500626e-16" style="fill:rgb(16.1%,15.3%,14.1%);fill-opacity:1.0;font-family:helvetica;font-size:10.0px;font-weight:normal;stroke:none;vertical-align:baseline;white-space:pre">1.9</text></g><g transform="translate(1227.387528499296,-6)"><text x="-2.78" y="-4.440892098500626e-16" style="fill:rgb(16.1%,15.3%,14.1%);fill-opacity:1.0;font-family:helvetica;font-size:10.0px;font-weight:normal;stroke:none;vertical-align:baseline;white-space:pre">2</text></g><g transform="translate(1278.851917024237,-6)"><text x="-6.95" y="-4.440892098500626e-16" style="fill:rgb(16.1%,15.3%,14.1%);fill-opacity:1.0;font-family:helvetica;font-size:10.0px;font-weight:normal;stroke:none;vertical-align:baseline;white-space:pre">2.1</text></g><g transform="translate(1330.3163055491782,-6)"><text x="-6.95" y="-4.440892098500626e-16" style="fill:rgb(16.1%,15.3%,14.1%);fill-opacity:1.0;font-family:helvetica;font-size:10.0px;font-weight:normal;stroke:none;vertical-align:baseline;white-space:pre">2.2</text></g><g transform="translate(1381.7806940741193,-6)"><text x="-6.95" y="-4.440892098500626e-16" style="fill:rgb(16.1%,15.3%,14.1%);fill-opacity:1.0;font-family:helvetica;font-size:10.0px;font-weight:normal;stroke:none;vertical-align:baseline;white-space:pre">2.3</text></g><g transform="translate(1433.2450825990604,-6)"><text x="-6.95" y="-4.440892098500626e-16" style="fill:rgb(16.1%,15.3%,14.1%);fill-opacity:1.0;font-family:helvetica;font-size:10.0px;font-weight:normal;stroke:none;vertical-align:baseline;white-space:pre">2.4</text></g><g transform="translate(1484.7094711240013,-6)"><text x="-6.95" y="-4.440892098500626e-16" style="fill:rgb(16.1%,15.3%,14.1%);fill-opacity:1.0;font-family:helvetica;font-size:10.0px;font-weight:normal;stroke:none;vertical-align:baseline;white-space:pre">2.5</text></g><g transform="translate(1536.1738596489427,-6)"><text x="-6.95" y="-4.440892098500626e-16" style="fill:rgb(16.1%,15.3%,14.1%);fill-opacity:1.0;font-family:helvetica;font-size:10.0px;font-weight:normal;stroke:none;vertical-align:baseline;white-space:pre">2.6</text></g><g transform="translate(1587.6382481738835,-6)"><text x="-6.95" y="-4.440892098500626e-16" style="fill:rgb(16.1%,15.3%,14.1%);fill-opacity:1.0;font-family:helvetica;font-size:10.0px;font-weight:normal;stroke:none;vertical-align:baseline;white-space:pre">2.7</text></g><g transform="translate(1639.1026366988247,-6)"><text x="-6.95" y="-4.440892098500626e-16" style="fill:rgb(16.1%,15.3%,14.1%);fill-opacity:1.0;font-family:helvetica;font-size:10.0px;font-weight:normal;stroke:none;vertical-align:baseline;white-space:pre">2.8</text></g><g transform="translate(1690.5670252237658,-6)"><text x="-6.95" y="-4.440892098500626e-16" style="fill:rgb(16.1%,15.3%,14.1%);fill-opacity:1.0;font-family:helvetica;font-size:10.0px;font-weight:normal;stroke:none;vertical-align:baseline;white-space:pre">2.9</text></g><g transform="translate(1742.0314137487069,-6)"><text x="-2.78" y="-4.440892098500626e-16" style="fill:rgb(16.1%,15.3%,14.1%);fill-opacity:1.0;font-family:helvetica;font-size:10.0px;font-weight:normal;stroke:none;vertical-align:baseline;white-space:pre">3</text></g><g transform="translate(1793.495802273648,-6)"><text x="-6.95" y="-4.440892098500626e-16" style="fill:rgb(16.1%,15.3%,14.1%);fill-opacity:1.0;font-family:helvetica;font-size:10.0px;font-weight:normal;stroke:none;vertical-align:baseline;white-space:pre">3.1</text></g><g transform="translate(1844.960190798589,-6)"><text x="-6.95" y="-4.440892098500626e-16" style="fill:rgb(16.1%,15.3%,14.1%);fill-opacity:1.0;font-family:helvetica;font-size:10.0px;font-weight:normal;stroke:none;vertical-align:baseline;white-space:pre">3.2</text></g><g transform="translate(1896.4245793235302,-6)"><text x="-6.95" y="-4.440892098500626e-16" style="fill:rgb(16.1%,15.3%,14.1%);fill-opacity:1.0;font-family:helvetica;font-size:10.0px;font-weight:normal;stroke:none;vertical-align:baseline;white-space:pre">3.3</text></g></g><g class="toyplot-coordinates-Axis-coordinates" style="visibility:hidden" transform=""><line x1="0" x2="0" y1="3.0" y2="-4.5" style="stroke:rgb(43.9%,50.2%,56.5%);stroke-opacity:1.0;stroke-width:1.0" /><text x="0" y="6" style="alignment-baseline:hanging;fill:rgb(43.9%,50.2%,56.5%);fill-opacity:1.0;font-size:10px;font-weight:normal;stroke:none;text-anchor:middle" /></g></g></g></svg>