<svg class="toyplot-canvas-Canvas" xmlns:toyplot="http://www.sandia.gov/toyplot" xmlns:xlink="http://www.w3.org/1999/xlink" xmlns="http://www.w3.org/2000/svg" width="2000.0px" height="1280.0px" viewBox="0 0 2000.0 1280.0" preserveAspectRatio="xMidYMid meet" style="background-color:transparent;border-color:#292724;border-style:none;border-width:1.0;fill:rgb(16.1%,15.3%,14.1%);fill-opacity:1.0;font-family:Helvetica;font-size:12px;opacity:1.0;stroke:rgb(16.1%,15.3%,14.1%);stroke-opacity:1.0;stroke-width:1.0" id="t57c501e4fbb64dbca950d428d6915204"><g class="toyplot-coordinates-Cartesian" id="t9d7dfd81f325458eb11efa96a1ef12d8"><clipPath id="t99a5684a143448e7925d0c6ddb1c6c72"><rect x="35.0" y="35.0" width="1930.0" height="1210.0" /></clipPath><g clip-path="url(#t99a5684a143448e7925d0c6ddb1c6c72)"><g class="toytree-mark-Toytree" id="t9887d94d3a114e77bf24528c6bf048cd"><g class="toytree-Edges" style="stroke:rgb(14.5%,14.5%,14.5%);stroke-opacity:1.0;stroke-linecap:round;stroke-width:2.0;fill:none"><path d="M 670.9 1203.0 L 670.9 1221.7 L 722.2 1221.7" id="32,0" style="" /><path d="M 670.9 1203.0 L 670.9 1184.2 L 722.2 1184.2" id="32,1" style="" /><path d="M 670.9 1111.5 L 670.9 1146.7 L 722.2 1146.7" id="36,2" style="" /><path d="M 722.2 1076.3 L 722.2 1109.1 L 875.9 1109.1" id="35,3" style="" /><path d="M 875.9 1043.4 L 875.9 1071.6 L 927.2 1071.6" id="34,4" style="" /><path d="M 927.2 1015.3 L 927.2 1034.1 L 1234.8 1034.1" id="33,5" style="" /><path d="M 927.2 1015.3 L 927.2 996.5 L 1234.8 996.5" id="33,6" style="" /><path d="M 619.6 930.9 L 619.6 959.0 L 722.2 959.0" id="39,7" style="" /><path d="M 722.2 902.7 L 722.2 921.5 L 824.7 921.5" id="38,8" style="" /><path d="M 722.2 902.7 L 722.2 883.9 L 824.7 883.9" id="38,9" style="" /><path d="M 619.6 743.2 L 619.6 846.4 L 670.9 846.4" id="44,10" style="" /><path d="M 670.9 790.1 L 670.9 808.9 L 927.2 808.9" id="40,11" style="" /><path d="M 670.9 790.1 L 670.9 771.4 L 927.2 771.4" id="40,12" style="" /><path d="M 670.9 715.1 L 670.9 733.8 L 773.4 733.8" id="41,13" style="" /><path d="M 670.9 715.1 L 670.9 696.3 L 773.4 696.3" id="41,14" style="" /><path d="M 670.9 621.2 L 670.9 658.8 L 722.2 658.8" id="43,15" style="" /><path d="M 722.2 583.7 L 722.2 621.2 L 824.7 621.2" id="42,16" style="" /><path d="M 722.2 583.7 L 722.2 583.7 L 824.7 583.7" id="42,17" style="" /><path d="M 722.2 583.7 L 722.2 546.2 L 824.7 546.2" id="42,18" style="" /><path d="M 568.4 426.5 L 568.4 508.6 L 619.6 508.6" id="54,19" style="" /><path d="M 619.6 344.4 L 619.6 471.1 L 670.9 471.1" id="53,20" style="" /><path d="M 619.6 344.4 L 619.6 433.6 L 670.9 433.6" id="53,21" style="" /><path d="M 670.9 377.3 L 670.9 396.1 L 824.7 396.1" id="46,22" style="" /><path d="M 670.9 377.3 L 670.9 358.5 L 824.7 358.5" id="46,23" style="" /><path d="M 670.9 292.8 L 670.9 321.0 L 722.2 321.0" id="48,24" style="" /><path d="M 722.2 264.7 L 722.2 283.5 L 1747.3 283.5" id="47,25" style="" /><path d="M 722.2 264.7 L 722.2 245.9 L 1747.3 245.9" id="47,26" style="" /><path d="M 722.2 189.6 L 722.2 208.4 L 1132.2 208.4" id="49,27" style="" /><path d="M 722.2 189.6 L 722.2 170.9 L 1132.2 170.9" id="49,28" style="" /><path d="M 722.2 105.2 L 722.2 133.3 L 824.7 133.3" id="51,29" style="" /><path d="M 824.7 77.0 L 824.7 95.8 L 875.9 95.8" id="50,30" style="" /><path d="M 824.7 77.0 L 824.7 58.3 L 875.9 58.3" id="50,31" style="" /><path d="M 568.4 1157.2 L 568.4 1203.0 L 670.9 1203.0" id="37,32" style="" /><path d="M 875.9 1043.4 L 875.9 1015.3 L 927.2 1015.3" id="34,33" style="" /><path d="M 722.2 1076.3 L 722.2 1043.4 L 875.9 1043.4" id="35,34" style="" /><path d="M 670.9 1111.5 L 670.9 1076.3 L 722.2 1076.3" id="36,35" style="" /><path d="M 568.4 1157.2 L 568.4 1111.5 L 670.9 1111.5" id="37,36" style="" /><path d="M 55.8 806.9 L 55.8 1157.2 L 568.4 1157.2" id="55,37" style="" /><path d="M 619.6 930.9 L 619.6 902.7 L 722.2 902.7" id="39,38" style="" /><path d="M 568.4 837.0 L 568.4 930.9 L 619.6 930.9" id="45,39" style="" /><path d="M 619.6 743.2 L 619.6 790.1 L 670.9 790.1" id="44,40" style="" /><path d="M 619.6 743.2 L 619.6 715.1 L 670.9 715.1" id="44,41" style="" /><path d="M 670.9 621.2 L 670.9 583.7 L 722.2 583.7" id="43,42" style="" /><path d="M 619.6 743.2 L 619.6 621.2 L 670.9 621.2" id="44,43" style="" /><path d="M 568.4 837.0 L 568.4 743.2 L 619.6 743.2" id="45,44" style="" /><path d="M 55.8 806.9 L 55.8 837.0 L 568.4 837.0" id="55,45" style="" /><path d="M 619.6 344.4 L 619.6 377.3 L 670.9 377.3" id="53,46" style="" /><path d="M 670.9 292.8 L 670.9 264.7 L 722.2 264.7" id="48,47" style="" /><path d="M 619.6 344.4 L 619.6 292.8 L 670.9 292.8" id="53,48" style="" /><path d="M 670.9 147.4 L 670.9 189.6 L 722.2 189.6" id="52,49" style="" /><path d="M 722.2 105.2 L 722.2 77.0 L 824.7 77.0" id="51,50" style="" /><path d="M 670.9 147.4 L 670.9 105.2 L 722.2 105.2" id="52,51" style="" /><path d="M 619.6 344.4 L 619.6 147.4 L 670.9 147.4" id="53,52" style="" /><path d="M 568.4 426.5 L 568.4 344.4 L 619.6 344.4" id="54,53" style="" /><path d="M 55.8 806.9 L 55.8 426.5 L 568.4 426.5" id="55,54" style="" /></g><g class="toytree-AlignEdges" style="stroke:rgb(66.0%,66.0%,66.0%);stroke-opacity:0.75;stroke-dasharray:2,4;stroke-linecap:round;stroke-width:2"><path d="M 1747.3 1221.7 L 722.2 1221.7" /><path d="M 1747.3 1184.2 L 722.2 1184.2" /><path d="M 1747.3 1146.7 L 722.2 1146.7" /><path d="M 1747.3 1109.1 L 875.9 1109.1" /><path d="M 1747.3 1071.6 L 927.2 1071.6" /><path d="M 1747.3 1034.1 L 1234.8 1034.1" /><path d="M 1747.3 996.5 L 1234.8 996.5" /><path d="M 1747.3 959.0 L 722.2 959.0" /><path d="M 1747.3 921.5 L 824.7 921.5" /><path d="M 1747.3 883.9 L 824.7 883.9" /><path d="M 1747.3 846.4 L 670.9 846.4" /><path d="M 1747.3 808.9 L 927.2 808.9" /><path d="M 1747.3 771.4 L 927.2 771.4" /><path d="M 1747.3 733.8 L 773.4 733.8" /><path d="M 1747.3 696.3 L 773.4 696.3" /><path d="M 1747.3 658.8 L 722.2 658.8" /><path d="M 1747.3 621.2 L 824.7 621.2" /><path d="M 1747.3 583.7 L 824.7 583.7" /><path d="M 1747.3 546.2 L 824.7 546.2" /><path d="M 1747.3 508.6 L 619.6 508.6" /><path d="M 1747.3 471.1 L 670.9 471.1" /><path d="M 1747.3 433.6 L 670.9 433.6" /><path d="M 1747.3 396.1 L 824.7 396.1" /><path d="M 1747.3 358.5 L 824.7 358.5" /><path d="M 1747.3 321.0 L 722.2 321.0" /><path d="M 1747.3 283.5 L 1747.3 283.5" /><path d="M 1747.3 245.9 L 1747.3 245.9" /><path d="M 1747.3 208.4 L 1132.2 208.4" /><path d="M 1747.3 170.9 L 1132.2 170.9" /><path d="M 1747.3 133.3 L 824.7 133.3" /><path d="M 1747.3 95.8 L 875.9 95.8" /><path d="M 1747.3 58.3 L 875.9 58.3" /></g><g class="toytree-AdmixEdges" style="fill:rgb(0.0%,0.0%,0.0%);fill-opacity:0.0;stroke:rgb(90.6%,54.1%,76.5%);stroke-opacity:0.6;font-size:14px;stroke-linecap:round;stroke-width:5" /><g class="toytree-Nodes" style="fill:rgb(0.0%,0.0%,0.0%);fill-opacity:1.0;stroke:none;stroke-width:1.5"><g id="Node-32" transform="translate(670.9,1202.95)"><rect x="-5.0" y="-2.5" width="10.0" height="5.0" /></g><g id="Node-33" transform="translate(927.197,1015.3)"><rect x="-5.0" y="-2.5" width="10.0" height="5.0" /></g><g id="Node-34" transform="translate(875.937,1043.45)"><rect x="-5.0" y="-2.5" width="10.0" height="5.0" /></g><g id="Node-35" transform="translate(722.159,1076.29)"><rect x="-5.0" y="-2.5" width="10.0" height="5.0" /></g><g id="Node-36" transform="translate(670.9,1111.47)"><rect x="-5.0" y="-2.5" width="10.0" height="5.0" /></g><g id="Node-37" transform="translate(568.381,1157.21)"><rect x="-5.0" y="-2.5" width="10.0" height="5.0" /></g><g id="Node-38" transform="translate(722.159,902.711)"><rect x="-5.0" y="-2.5" width="10.0" height="5.0" /></g><g id="Node-39" transform="translate(619.64,930.859)"><rect x="-5.0" y="-2.5" width="10.0" height="5.0" /></g><g id="Node-40" transform="translate(670.9,790.121)"><rect x="-5.0" y="-2.5" width="10.0" height="5.0" /></g><g id="Node-41" transform="translate(670.9,715.06)"><rect x="-5.0" y="-2.5" width="10.0" height="5.0" /></g><g id="Node-42" transform="translate(722.159,583.705)"><rect x="-5.0" y="-2.5" width="10.0" height="5.0" /></g><g id="Node-43" transform="translate(670.9,621.235)"><rect x="-5.0" y="-2.5" width="10.0" height="5.0" /></g><g id="Node-44" transform="translate(619.64,743.208)"><rect x="-5.0" y="-2.5" width="10.0" height="5.0" /></g><g id="Node-45" transform="translate(568.381,837.033)"><rect x="-5.0" y="-2.5" width="10.0" height="5.0" /></g><g id="Node-46" transform="translate(670.9,377.289)"><rect x="-5.0" y="-2.5" width="10.0" height="5.0" /></g><g id="Node-47" transform="translate(722.159,264.698)"><rect x="-5.0" y="-2.5" width="10.0" height="5.0" /></g><g id="Node-48" transform="translate(670.9,292.846)"><rect x="-5.0" y="-2.5" width="10.0" height="5.0" /></g><g id="Node-49" transform="translate(722.159,189.638)"><rect x="-5.0" y="-2.5" width="10.0" height="5.0" /></g><g id="Node-50" transform="translate(824.678,77.0472)"><rect x="-5.0" y="-2.5" width="10.0" height="5.0" /></g><g id="Node-51" transform="translate(722.159,105.195)"><rect x="-5.0" y="-2.5" width="10.0" height="5.0" /></g><g id="Node-52" transform="translate(670.9,147.416)"><rect x="-5.0" y="-2.5" width="10.0" height="5.0" /></g><g id="Node-53" transform="translate(619.64,344.45)"><rect x="-5.0" y="-2.5" width="10.0" height="5.0" /></g><g id="Node-54" transform="translate(568.381,426.547)"><rect x="-5.0" y="-2.5" width="10.0" height="5.0" /></g><g id="Node-55" transform="translate(55.7869,806.931)"><rect x="-5.0" y="-2.5" width="10.0" height="5.0" /></g></g><g class="toytree-NodeLabels" style="font-family:Helvetica;font-size:9px;font-weight:300;vertical-align:baseline;white-space:pre;stroke:none"><g class="toytree-NodeLabel" transform="translate(670.9,1202.95)" /><g class="toytree-NodeLabel" transform="translate(927.197,1015.3)" /><g class="toytree-NodeLabel" transform="translate(875.937,1043.45)" /><g class="toytree-NodeLabel" transform="translate(722.159,1076.29)" /><g class="toytree-NodeLabel" transform="translate(670.9,1111.47)" /><g class="toytree-NodeLabel" transform="translate(568.381,1157.21)" /><g class="toytree-NodeLabel" transform="translate(722.159,902.711)" /><g class="toytree-NodeLabel" transform="translate(619.64,930.859)" /><g class="toytree-NodeLabel" transform="translate(670.9,790.121)" /><g class="toytree-NodeLabel" transform="translate(670.9,715.06)" /><g class="toytree-NodeLabel" transform="translate(722.159,583.705)" /><g class="toytree-NodeLabel" transform="translate(670.9,621.235)" /><g class="toytree-NodeLabel" transform="translate(619.64,743.208)" /><g class="toytree-NodeLabel" transform="translate(568.381,837.033)" /><g class="toytree-NodeLabel" transform="translate(670.9,377.289)" /><g class="toytree-NodeLabel" transform="translate(722.159,264.698)" /><g class="toytree-NodeLabel" transform="translate(670.9,292.846)" /><g class="toytree-NodeLabel" transform="translate(722.159,189.638)" /><g class="toytree-NodeLabel" transform="translate(824.678,77.0472)" /><g class="toytree-NodeLabel" transform="translate(722.159,105.195)" /><g class="toytree-NodeLabel" transform="translate(670.9,147.416)" /><g class="toytree-NodeLabel" transform="translate(619.64,344.45)" /><g class="toytree-NodeLabel" transform="translate(568.381,426.547)" /><g class="toytree-NodeLabel" transform="translate(55.7869,806.931)" /></g><g class="toytree-TipLabels" style="fill:rgb(14.5%,14.5%,14.5%);fill-opacity:1.0;font-family:Helvetica;font-size:14px;font-weight:300;vertical-align:baseline;white-space:pre;stroke:none"><g class="toytree-TipLabel" transform="translate(1747.35,1221.72)"><text x="15.0" y="3.577" style="fill:rgb(14.5%,14.5%,14.5%);fill-opacity:1.0">Chuvash</text></g><g class="toytree-TipLabel" transform="translate(1747.35,1184.19)"><text x="15.0" y="3.577" style="fill:rgb(14.5%,14.5%,14.5%);fill-opacity:1.0">Khalaj</text></g><g class="toytree-TipLabel" transform="translate(1747.35,1146.66)"><text x="15.0" y="3.577" style="fill:rgb(14.5%,14.5%,14.5%);fill-opacity:1.0">Turkmen</text></g><g class="toytree-TipLabel" transform="translate(1747.35,1109.13)"><text x="15.0" y="3.577" style="fill:rgb(14.5%,14.5%,14.5%);fill-opacity:1.0">CrimeanTatar</text></g><g class="toytree-TipLabel" transform="translate(1747.35,1071.6)"><text x="15.0" y="3.577" style="fill:rgb(14.5%,14.5%,14.5%);fill-opacity:1.0">Azeri</text></g><g class="toytree-TipLabel" transform="translate(1747.35,1034.07)"><text x="15.0" y="3.577" style="fill:rgb(14.5%,14.5%,14.5%);fill-opacity:1.0">Gagauz</text></g><g class="toytree-TipLabel" transform="translate(1747.35,996.537)"><text x="15.0" y="3.577" style="fill:rgb(14.5%,14.5%,14.5%);fill-opacity:1.0">Turkish</text></g><g class="toytree-TipLabel" transform="translate(1747.35,959.007)"><text x="15.0" y="3.577" style="fill:rgb(14.5%,14.5%,14.5%);fill-opacity:1.0">Karaim</text></g><g class="toytree-TipLabel" transform="translate(1747.35,921.476)"><text x="15.0" y="3.577" style="fill:rgb(14.5%,14.5%,14.5%);fill-opacity:1.0">KarachayBalkar</text></g><g class="toytree-TipLabel" transform="translate(1747.35,883.946)"><text x="15.0" y="3.577" style="fill:rgb(14.5%,14.5%,14.5%);fill-opacity:1.0">Kumyk</text></g><g class="toytree-TipLabel" transform="translate(1747.35,846.416)"><text x="15.0" y="3.577" style="fill:rgb(14.5%,14.5%,14.5%);fill-opacity:1.0">BarabaTatar</text></g><g class="toytree-TipLabel" transform="translate(1747.35,808.886)"><text x="15.0" y="3.577" style="fill:rgb(14.5%,14.5%,14.5%);fill-opacity:1.0">Bashkir</text></g><g class="toytree-TipLabel" transform="translate(1747.35,771.356)"><text x="15.0" y="3.577" style="fill:rgb(14.5%,14.5%,14.5%);fill-opacity:1.0">KazanTatar</text></g><g class="toytree-TipLabel" transform="translate(1747.35,733.825)"><text x="15.0" y="3.577" style="fill:rgb(14.5%,14.5%,14.5%);fill-opacity:1.0">Uyghur</text></g><g class="toytree-TipLabel" transform="translate(1747.35,696.295)"><text x="15.0" y="3.577" style="fill:rgb(14.5%,14.5%,14.5%);fill-opacity:1.0">Uzbek</text></g><g class="toytree-TipLabel" transform="translate(1747.35,658.765)"><text x="15.0" y="3.577" style="fill:rgb(14.5%,14.5%,14.5%);fill-opacity:1.0">Nogai</text></g><g class="toytree-TipLabel" transform="translate(1747.35,621.235)"><text x="15.0" y="3.577" style="fill:rgb(14.5%,14.5%,14.5%);fill-opacity:1.0">Karakalpak</text></g><g class="toytree-TipLabel" transform="translate(1747.35,583.705)"><text x="15.0" y="3.577" style="fill:rgb(14.5%,14.5%,14.5%);fill-opacity:1.0">Kazakh</text></g><g class="toytree-TipLabel" transform="translate(1747.35,546.175)"><text x="15.0" y="3.577" style="fill:rgb(14.5%,14.5%,14.5%);fill-opacity:1.0">Kirghiz</text></g><g class="toytree-TipLabel" transform="translate(1747.35,508.644)"><text x="15.0" y="3.577" style="fill:rgb(14.5%,14.5%,14.5%);fill-opacity:1.0">Salar</text></g><g class="toytree-TipLabel" transform="translate(1747.35,471.114)"><text x="15.0" y="3.577" style="fill:rgb(14.5%,14.5%,14.5%);fill-opacity:1.0">Cuman</text></g><g class="toytree-TipLabel" transform="translate(1747.35,433.584)"><text x="15.0" y="3.577" style="fill:rgb(14.5%,14.5%,14.5%);fill-opacity:1.0">SarygYugur</text></g><g class="toytree-TipLabel" transform="translate(1747.35,396.054)"><text x="15.0" y="3.577" style="fill:rgb(14.5%,14.5%,14.5%);fill-opacity:1.0">NorthAltay</text></g><g class="toytree-TipLabel" transform="translate(1747.35,358.524)"><text x="15.0" y="3.577" style="fill:rgb(14.5%,14.5%,14.5%);fill-opacity:1.0">SouthAltay</text></g><g class="toytree-TipLabel" transform="translate(1747.35,320.993)"><text x="15.0" y="3.577" style="fill:rgb(14.5%,14.5%,14.5%);fill-opacity:1.0">OldTurkic</text></g><g class="toytree-TipLabel" transform="translate(1747.35,283.463)"><text x="15.0" y="3.577" style="fill:rgb(14.5%,14.5%,14.5%);fill-opacity:1.0">Dolgan</text></g><g class="toytree-TipLabel" transform="translate(1747.35,245.933)"><text x="15.0" y="3.577" style="fill:rgb(14.5%,14.5%,14.5%);fill-opacity:1.0">Yakut</text></g><g class="toytree-TipLabel" transform="translate(1747.35,208.403)"><text x="15.0" y="3.577" style="fill:rgb(14.5%,14.5%,14.5%);fill-opacity:1.0">Tofa</text></g><g class="toytree-TipLabel" transform="translate(1747.35,170.873)"><text x="15.0" y="3.577" style="fill:rgb(14.5%,14.5%,14.5%);fill-opacity:1.0">Tuvan</text></g><g class="toytree-TipLabel" transform="translate(1747.35,133.342)"><text x="15.0" y="3.577" style="fill:rgb(14.5%,14.5%,14.5%);fill-opacity:1.0">MiddleChulym</text></g><g class="toytree-TipLabel" transform="translate(1747.35,95.8123)"><text x="15.0" y="3.577" style="fill:rgb(14.5%,14.5%,14.5%);fill-opacity:1.0">Khakas</text></g><g class="toytree-TipLabel" transform="translate(1747.35,58.2821)"><text x="15.0" y="3.577" style="fill:rgb(14.5%,14.5%,14.5%);fill-opacity:1.0">Shor</text></g></g></g></g></g></svg>